  0
SECTION
  2
HEADER
  9
$ACADVER
  1
AC1024
  9
$ACADMAINTVER
 70
     6
  9
$DWGCODEPAGE
  3
ANSI_1252
  9
$INSBASE
 10
0.0
 20
0.0
 30
0.0
  9
$EXTMIN
 10
1.000000000000000E+20
 20
1.000000000000000E+20
 30
1.000000000000000E+20
  9
$EXTMAX
 10
-1.000000000000000E+20
 20
-1.000000000000000E+20
 30
-1.000000000000000E+20
  9
$LIMMIN
 10
0.0
 20
0.0
  9
$LIMMAX
 10
12.0
 20
9.0
  9
$ORTHOMODE
 70
     0
  9
$REGENMODE
 70
     1
  9
$FILLMODE
 70
     1
  9
$QTEXTMODE
 70
     0
  9
$MIRRTEXT
 70
     1
  9
$LTSCALE
 40
1.0
  9
$ATTMODE
 70
     1
  9
$TEXTSIZE
 40
0.2
  9
$TRACEWID
 40
0.05
  9
$TEXTSTYLE
  7
Standard
  9
$CLAYER
  8
0
  9
$CELTYPE
  6
ByLayer
  9
$CECOLOR
 62
   256
  9
$CELTSCALE
 40
1.0
  9
$DISPSILH
 70
     0
  9
$DIMSCALE
 40
1.0
  9
$DIMASZ
 40
0.18
  9
$DIMEXO
 40
0.0625
  9
$DIMDLI
 40
0.38
  9
$DIMRND
 40
0.0
  9
$DIMDLE
 40
0.0
  9
$DIMEXE
 40
0.18
  9
$DIMTP
 40
0.0
  9
$DIMTM
 40
0.0
  9
$DIMTXT
 40
0.18
  9
$DIMCEN
 40
0.09
  9
$DIMTSZ
 40
0.0
  9
$DIMTOL
 70
     0
  9
$DIMLIM
 70
     0
  9
$DIMTIH
 70
     1
  9
$DIMTOH
 70
     1
  9
$DIMSE1
 70
     0
  9
$DIMSE2
 70
     0
  9
$DIMTAD
 70
     0
  9
$DIMZIN
 70
     0
  9
$DIMBLK
  1

  9
$DIMASO
 70
     1
  9
$DIMSHO
 70
     1
  9
$DIMPOST
  1

  9
$DIMAPOST
  1

  9
$DIMALT
 70
     0
  9
$DIMALTD
 70
     2
  9
$DIMALTF
 40
25.4
  9
$DIMLFAC
 40
1.0
  9
$DIMTOFL
 70
     0
  9
$DIMTVP
 40
0.0
  9
$DIMTIX
 70
     0
  9
$DIMSOXD
 70
     0
  9
$DIMSAH
 70
     0
  9
$DIMBLK1
  1

  9
$DIMBLK2
  1

  9
$DIMSTYLE
  2
Standard
  9
$DIMCLRD
 70
     0
  9
$DIMCLRE
 70
     0
  9
$DIMCLRT
 70
     0
  9
$DIMTFAC
 40
1.0
  9
$DIMGAP
 40
0.09
  9
$DIMJUST
 70
     0
  9
$DIMSD1
 70
     0
  9
$DIMSD2
 70
     0
  9
$DIMTOLJ
 70
     1
  9
$DIMTZIN
 70
     0
  9
$DIMALTZ
 70
     0
  9
$DIMALTTZ
 70
     0
  9
$DIMUPT
 70
     0
  9
$DIMDEC
 70
     4
  9
$DIMTDEC
 70
     4
  9
$DIMALTU
 70
     2
  9
$DIMALTTD
 70
     2
  9
$DIMTXSTY
  7
Standard
  9
$DIMAUNIT
 70
     0
  9
$DIMADEC
 70
     0
  9
$DIMALTRND
 40
0.0
  9
$DIMAZIN
 70
     0
  9
$DIMDSEP
 70
    46
  9
$DIMATFIT
 70
     3
  9
$DIMFRAC
 70
     0
  9
$DIMLDRBLK
  1

  9
$DIMLUNIT
 70
     2
  9
$DIMLWD
 70
    -2
  9
$DIMLWE
 70
    -2
  9
$DIMTMOVE
 70
     0
  9
$DIMFXL
 40
1.0
  9
$DIMFXLON
 70
     0
  9
$DIMJOGANG
 40
0.7853981633974483
  9
$DIMTFILL
 70
     0
  9
$DIMTFILLCLR
 70
     0
  9
$DIMARCSYM
 70
     0
  9
$DIMLTYPE
  6

  9
$DIMLTEX1
  6

  9
$DIMLTEX2
  6

  9
$DIMTXTDIRECTION
 70
     0
  9
$LUNITS
 70
     2
  9
$LUPREC
 70
     4
  9
$SKETCHINC
 40
0.1
  9
$FILLETRAD
 40
0.5
  9
$AUNITS
 70
     0
  9
$AUPREC
 70
     0
  9
$MENU
  1
.
  9
$ELEVATION
 40
0.0
  9
$PELEVATION
 40
0.0
  9
$THICKNESS
 40
0.0
  9
$LIMCHECK
 70
     0
  9
$CHAMFERA
 40
0.5
  9
$CHAMFERB
 40
0.5
  9
$CHAMFERC
 40
1.0
  9
$CHAMFERD
 40
0.0
  9
$SKPOLY
 70
     0
  9
$TDCREATE
 40
2458336.797270613
  9
$TDUCREATE
 40
2458336.380603947
  9
$TDUPDATE
 40
2458336.797270718
  9
$TDUUPDATE
 40
2458336.380604051
  9
$TDINDWG
 40
0.0000000116
  9
$TDUSRTIMER
 40
0.0000000116
  9
$USRTIMER
 70
     1
  9
$ANGBASE
 50
0.0
  9
$ANGDIR
 70
     0
  9
$PDMODE
 70
     0
  9
$PDSIZE
 40
0.0
  9
$PLINEWID
 40
0.0
  9
$SPLFRAME
 70
     0
  9
$SPLINETYPE
 70
     6
  9
$SPLINESEGS
 70
     8
  9
$HANDSEED
  5
6D
  9
$SURFTAB1
 70
     6
  9
$SURFTAB2
 70
     6
  9
$SURFTYPE
 70
     6
  9
$SURFU
 70
     6
  9
$SURFV
 70
     6
  9
$UCSBASE
  2

  9
$UCSNAME
  2

  9
$UCSORG
 10
0.0
 20
0.0
 30
0.0
  9
$UCSXDIR
 10
1.0
 20
0.0
 30
0.0
  9
$UCSYDIR
 10
0.0
 20
1.0
 30
0.0
  9
$UCSORTHOREF
  2

  9
$UCSORTHOVIEW
 70
     0
  9
$UCSORGTOP
 10
0.0
 20
0.0
 30
0.0
  9
$UCSORGBOTTOM
 10
0.0
 20
0.0
 30
0.0
  9
$UCSORGLEFT
 10
0.0
 20
0.0
 30
0.0
  9
$UCSORGRIGHT
 10
0.0
 20
0.0
 30
0.0
  9
$UCSORGFRONT
 10
0.0
 20
0.0
 30
0.0
  9
$UCSORGBACK
 10
0.0
 20
0.0
 30
0.0
  9
$PUCSBASE
  2

  9
$PUCSNAME
  2

  9
$PUCSORG
 10
0.0
 20
0.0
 30
0.0
  9
$PUCSXDIR
 10
1.0
 20
0.0
 30
0.0
  9
$PUCSYDIR
 10
0.0
 20
1.0
 30
0.0
  9
$PUCSORTHOREF
  2

  9
$PUCSORTHOVIEW
 70
     0
  9
$PUCSORGTOP
 10
0.0
 20
0.0
 30
0.0
  9
$PUCSORGBOTTOM
 10
0.0
 20
0.0
 30
0.0
  9
$PUCSORGLEFT
 10
0.0
 20
0.0
 30
0.0
  9
$PUCSORGRIGHT
 10
0.0
 20
0.0
 30
0.0
  9
$PUCSORGFRONT
 10
0.0
 20
0.0
 30
0.0
  9
$PUCSORGBACK
 10
0.0
 20
0.0
 30
0.0
  9
$USERI1
 70
     0
  9
$USERI2
 70
     0
  9
$USERI3
 70
     0
  9
$USERI4
 70
     0
  9
$USERI5
 70
     0
  9
$USERR1
 40
0.0
  9
$USERR2
 40
0.0
  9
$USERR3
 40
0.0
  9
$USERR4
 40
0.0
  9
$USERR5
 40
0.0
  9
$WORLDVIEW
 70
     1
  9
$SHADEDGE
 70
     3
  9
$SHADEDIF
 70
    70
  9
$TILEMODE
 70
     1
  9
$MAXACTVP
 70
    64
  9
$PINSBASE
 10
0.0
 20
0.0
 30
0.0
  9
$PLIMCHECK
 70
     0
  9
$PEXTMIN
 10
1.000000000000000E+20
 20
1.000000000000000E+20
 30
1.000000000000000E+20
  9
$PEXTMAX
 10
-1.000000000000000E+20
 20
-1.000000000000000E+20
 30
-1.000000000000000E+20
  9
$PLIMMIN
 10
0.0
 20
0.0
  9
$PLIMMAX
 10
12.0
 20
9.0
  9
$UNITMODE
 70
     0
  9
$VISRETAIN
 70
     1
  9
$PLINEGEN
 70
     0
  9
$PSLTSCALE
 70
     1
  9
$TREEDEPTH
 70
  3020
  9
$CMLSTYLE
  2
Standard
  9
$CMLJUST
 70
     0
  9
$CMLSCALE
 40
1.0
  9
$PROXYGRAPHICS
 70
     1
  9
$MEASUREMENT
 70
     0
  9
$CELWEIGHT
370
    -1
  9
$ENDCAPS
280
     0
  9
$JOINSTYLE
280
     0
  9
$LWDISPLAY
290
     1
  9
$INSUNITS
 70
     1
  9
$HYPERLINKBASE
  1

  9
$STYLESHEET
  1

  9
$XEDIT
290
     1
  9
$CEPSNTYPE
380
     0
  9
$PSTYLEMODE
290
     1
  9
$FINGERPRINTGUID
  2
{8B278F62-DA8E-48A3-B378-55F2AE99F0FF}
  9
$VERSIONGUID
  2
{FAEB1C32-E019-11D5-929B-00C0DF256EC4}
  9
$EXTNAMES
290
     1
  9
$PSVPSCALE
 40
0.0
  9
$OLESTARTUP
290
     0
  9
$SORTENTS
280
   127
  9
$INDEXCTL
280
     0
  9
$HIDETEXT
280
     1
  9
$XCLIPFRAME
280
     2
  9
$HALOGAP
280
     0
  9
$OBSCOLOR
 70
   257
  9
$OBSLTYPE
280
     0
  9
$INTERSECTIONDISPLAY
280
     0
  9
$INTERSECTIONCOLOR
 70
   257
  9
$DIMASSOC
280
     2
  9
$PROJECTNAME
  1

  9
$CAMERADISPLAY
290
     0
  9
$LENSLENGTH
 40
50.0
  9
$CAMERAHEIGHT
 40
0.0
  9
$STEPSPERSEC
 40
2.0
  9
$STEPSIZE
 40
6.0
  9
$3DDWFPREC
 40
2.0
  9
$PSOLWIDTH
 40
0.25
  9
$PSOLHEIGHT
 40
4.0
  9
$LOFTANG1
 40
1.570796326794897
  9
$LOFTANG2
 40
1.570796326794897
  9
$LOFTMAG1
 40
0.0
  9
$LOFTMAG2
 40
0.0
  9
$LOFTPARAM
 70
     7
  9
$LOFTNORMALS
280
     1
  9
$LATITUDE
 40
37.795
  9
$LONGITUDE
 40
-122.394
  9
$NORTHDIRECTION
 40
0.0
  9
$TIMEZONE
 70
 -8000
  9
$LIGHTGLYPHDISPLAY
280
     1
  9
$TILEMODELIGHTSYNCH
280
     1
  9
$CMATERIAL
347
3C
  9
$SOLIDHIST
280
     1
  9
$SHOWHIST
280
     1
  9
$DWFFRAME
280
     2
  9
$DGNFRAME
280
     2
  9
$REALWORLDSCALE
290
     1
  9
$INTERFERECOLOR
 62
   256
  9
$CSHADOW
280
     0
  9
$SHADOWPLANELOCATION
 40
0.0
  0
ENDSEC
  0
SECTION
  2
CLASSES
  0
CLASS
  1
ACDBDICTIONARYWDFLT
  2
AcDbDictionaryWithDefault
  3
ObjectDBX Classes
 90
        0
 91
        4
280
     0
281
     0
  0
CLASS
  1
VISUALSTYLE
  2
AcDbVisualStyle
  3
ObjectDBX Classes
 90
     4095
 91
        4
280
     0
281
     0
  0
CLASS
  1
MATERIAL
  2
AcDbMaterial
  3
ObjectDBX Classes
 90
     1153
 91
        4
280
     0
281
     0
  0
CLASS
  1
SUN
  2
AcDbSun
  3
SCENEOE
 90
     1024
 91
        4
280
     0
281
     0
  0
ENDSEC
  0
SECTION
  2
TABLES
  0
TABLE
  2
VPORT
  5
8
330
0
100
AcDbSymbolTable
 70
     1
  0
VPORT
  5
29
330
8
100
AcDbSymbolTableRecord
100
AcDbViewportTableRecord
  2
*Active
 70
     0
 10
0.0
 20
0.0
 11
1.0
 21
1.0
 12
0.0
 22
0.0
 13
0.0
 23
0.0
 14
0.5
 24
0.5
 15
0.5
 25
0.5
 16
0.0
 26
0.0
 36
1.0
 17
6.0
 27
-6.0
 37
0.0
 40
12.0
 41
1.0
 42
50.0
 43
0.0
 44
0.0
 50
0.0
 51
0.0
 71
     0
 72
   100
 73
     1
 74
     3
 75
     0
 76
     0
 77
     0
 78
     0
281
     0
 65
     1
110
0.0
120
0.0
130
0.0
111
1.0
121
0.0
131
0.0
112
0.0
122
1.0
132
0.0
 79
     0
146
0.0
 60
     3
 61
     5
292
     1
282
     1
141
0.0
142
0.0
 63
   250
361
3F
  0
ENDTAB
  0
TABLE
  2
LTYPE
  5
5
330
0
100
AcDbSymbolTable
 70
     1
  0
LTYPE
  5
14
330
5
100
AcDbSymbolTableRecord
100
AcDbLinetypeTableRecord
  2
ByBlock
 70
     0
  3

 72
    65
 73
     0
 40
0.0
  0
LTYPE
  5
15
330
5
100
AcDbSymbolTableRecord
100
AcDbLinetypeTableRecord
  2
ByLayer
 70
     0
  3

 72
    65
 73
     0
 40
0.0
  0
LTYPE
  5
16
330
5
100
AcDbSymbolTableRecord
100
AcDbLinetypeTableRecord
  2
Continuous
 70
     0
  3
Solid line
 72
    65
 73
     0
 40
0.0
  0
ENDTAB
  0
TABLE
  2
LAYER
  5
2
330
0
100
AcDbSymbolTable
 70
     2
  0
LAYER
  5
10
330
2
100
AcDbSymbolTableRecord
100
AcDbLayerTableRecord
  2
0
 70
     0
 62
     7
  6
Continuous
370
    -3
390
F
347
3E
  0
LAYER
  5
40
330
2
100
AcDbSymbolTableRecord
100
AcDbLayerTableRecord
  2
Layer 1
 70
     0
 62
     7
  6
Continuous
370
    -3
390
F
347
3E
  0
ENDTAB
  0
TABLE
  2
STYLE
  5
3
330
0
100
AcDbSymbolTable
 70
     1
  0
STYLE
  5
11
330
3
100
AcDbSymbolTableRecord
100
AcDbTextStyleTableRecord
  2
Standard
 70
     0
 40
0.0
 41
1.0
 50
0.0
 71
     0
 42
0.2
  3
txt
  4

  0
ENDTAB
  0
TABLE
  2
VIEW
  5
6
330
0
100
AcDbSymbolTable
 70
     0
  0
ENDTAB
  0
TABLE
  2
UCS
  5
7
330
0
100
AcDbSymbolTable
 70
     0
  0
ENDTAB
  0
TABLE
  2
APPID
  5
9
330
0
100
AcDbSymbolTable
 70
     1
  0
APPID
  5
12
330
9
100
AcDbSymbolTableRecord
100
AcDbRegAppTableRecord
  2
ACAD
 70
     0
  0
ENDTAB
  0
TABLE
  2
DIMSTYLE
  5
A
330
0
100
AcDbSymbolTable
 70
     1
100
AcDbDimStyleTable
  0
DIMSTYLE
105
27
330
A
100
AcDbSymbolTableRecord
100
AcDbDimStyleTableRecord
  2
Standard
 70
     0
178
     0
340
11
  0
ENDTAB
  0
TABLE
  2
BLOCK_RECORD
  5
1
330
0
100
AcDbSymbolTable
 70
     1
  0
BLOCK_RECORD
  5
1F
330
1
100
AcDbSymbolTableRecord
100
AcDbBlockTableRecord
  2
*Model_Space
340
22
 70
     0
280
     1
281
     0
  0
BLOCK_RECORD
  5
1B
330
1
100
AcDbSymbolTableRecord
100
AcDbBlockTableRecord
  2
*Paper_Space
340
1E
 70
     0
280
     1
281
     0
  0
BLOCK_RECORD
  5
23
330
1
100
AcDbSymbolTableRecord
100
AcDbBlockTableRecord
  2
*Paper_Space0
340
26
 70
     0
280
     1
281
     0
  0
ENDTAB
  0
ENDSEC
  0
SECTION
  2
BLOCKS
  0
BLOCK
  5
20
330
1F
100
AcDbEntity
  8
0
100
AcDbBlockBegin
  2
*Model_Space
 70
     0
 10
0.0
 20
0.0
 30
0.0
  3
*Model_Space
  1

  0
ENDBLK
  5
21
330
1F
100
AcDbEntity
  8
0
100
AcDbBlockEnd
  0
BLOCK
  5
1C
330
1B
100
AcDbEntity
 67
     1
  8
0
100
AcDbBlockBegin
  2
*Paper_Space
 70
     0
 10
0.0
 20
0.0
 30
0.0
  3
*Paper_Space
  1

  0
ENDBLK
  5
1D
330
1B
100
AcDbEntity
 67
     1
  8
0
100
AcDbBlockEnd
  0
BLOCK
  5
24
330
23
100
AcDbEntity
  8
0
100
AcDbBlockBegin
  2
*Paper_Space0
 70
     0
 10
0.0
 20
0.0
 30
0.0
  3
*Paper_Space0
  1

  0
ENDBLK
  5
25
330
23
100
AcDbEntity
  8
0
100
AcDbBlockEnd
  0
ENDSEC
  0
SECTION
  2
ENTITIES
  0
SPLINE
  5
41
330
1F
100
AcDbEntity
  8
Layer 1
370
     0
100
AcDbSpline
210
0.0
220
0.0
230
1.0
 70
    11
 71
     3
 72
   119
 73
   115
 74
     0
 42
0.0000000001
 43
0.0000000001
 12
1.0
 22
0.0
 32
0.0
 13
1.0
 23
0.0
 33
0.0
 40
0.0
 40
0.0
 40
0.0
 40
0.0
 40
1.0
 40
1.0
 40
1.0
 40
2.0
 40
2.0
 40
2.0
 40
3.0
 40
3.0
 40
3.0
 40
4.0
 40
4.0
 40
4.0
 40
5.0
 40
5.0
 40
5.0
 40
6.0
 40
6.0
 40
6.0
 40
7.0
 40
7.0
 40
7.0
 40
8.0
 40
8.0
 40
8.0
 40
9.0
 40
9.0
 40
9.0
 40
10.0
 40
10.0
 40
10.0
 40
11.0
 40
11.0
 40
11.0
 40
12.0
 40
12.0
 40
12.0
 40
13.0
 40
13.0
 40
13.0
 40
14.0
 40
14.0
 40
14.0
 40
15.0
 40
15.0
 40
15.0
 40
16.0
 40
16.0
 40
16.0
 40
17.0
 40
17.0
 40
17.0
 40
18.0
 40
18.0
 40
18.0
 40
19.0
 40
19.0
 40
19.0
 40
20.0
 40
20.0
 40
20.0
 40
21.0
 40
21.0
 40
21.0
 40
22.0
 40
22.0
 40
22.0
 40
23.0
 40
23.0
 40
23.0
 40
24.0
 40
24.0
 40
24.0
 40
25.0
 40
25.0
 40
25.0
 40
26.0
 40
26.0
 40
26.0
 40
27.0
 40
27.0
 40
27.0
 40
28.0
 40
28.0
 40
28.0
 40
29.0
 40
29.0
 40
29.0
 40
30.0
 40
30.0
 40
30.0
 40
31.0
 40
31.0
 40
31.0
 40
32.0
 40
32.0
 40
32.0
 40
33.0
 40
33.0
 40
33.0
 40
34.0
 40
34.0
 40
34.0
 40
35.0
 40
35.0
 40
35.0
 40
36.0
 40
36.0
 40
36.0
 40
37.0
 40
37.0
 40
37.0
 40
38.0
 40
38.0
 40
38.0
 40
38.0
 10
5.302402072482638
 20
-1.730485704210069
 30
0.0
 10
5.269663492838541
 20
-1.732044643825955
 30
0.0
 10
5.236981709798177
 20
-1.738072713216146
 30
0.0
 10
5.205029805501302
 20
-1.745018853081597
 30
0.0
 10
5.316460503472222
 20
-2.087269253200955
 30
0.0
 10
4.894297281901041
 20
-2.338901095920139
 30
0.0
 10
4.621248881022135
 20
-2.401374816894531
 30
0.0
 10
4.28711191813151
 20
-2.477826436360677
 30
0.0
 10
3.933091057671441
 20
-2.366526285807292
 30
0.0
 10
3.691396077473958
 20
-2.126515706380208
 30
0.0
 10
3.930132548014323
 20
-1.97188483344184
 30
0.0
 10
4.155940585666232
 20
-1.791007147894965
 30
0.0
 10
4.409936692979601
 20
-1.661564297146267
 30
0.0
 10
4.532610575358072
 20
-1.599046495225694
 30
0.0
 10
4.667173597547743
 20
-1.539321051703559
 30
0.0
 10
4.806157430013021
 20
-1.529123094346788
 30
0.0
 10
4.873183356391059
 20
-1.524204678005642
 30
0.0
 10
4.940817091200087
 20
-1.534110175238715
 30
0.0
 10
5.003616333007812
 20
-1.558130052354601
 30
0.0
 10
5.035001118977864
 20
-1.570133633083767
 30
0.0
 10
5.060090806749131
 20
-1.591743469238281
 30
0.0
 10
5.09102545844184
 20
-1.590019226074219
 30
0.0
 10
5.128533257378472
 20
-1.587927924262153
 30
0.0
 10
5.174105326334635
 20
-1.564669291178385
 30
0.0
 10
5.21156989203559
 20
-1.556813557942708
 30
0.0
 10
5.047963460286458
 20
-1.389117770724826
 30
0.0
 10
4.784278021918403
 20
-1.442680358886719
 30
0.0
 10
4.593889024522569
 20
-1.526078118218316
 30
0.0
 10
4.383715311686197
 20
-1.61814202202691
 30
0.0
 10
4.189828660753038
 20
-1.74143812391493
 30
0.0
 10
3.998514811197917
 20
-1.866973876953125
 30
0.0
 10
3.902624342176649
 20
-1.929895189073351
 30
0.0
 10
3.805452134874132
 20
-1.990422566731771
 30
0.0
 10
3.704691569010417
 20
-2.045288933648004
 30
0.0
 10
3.655351426866319
 20
-2.072155422634549
 30
0.0
 10
3.655136956108941
 20
-2.085712009006076
 30
0.0
 10
3.627920362684462
 20
-2.03751966688368
 30
0.0
 10
3.598702324761284
 20
-1.985783047146267
 30
0.0
 10
3.578880310058594
 20
-1.927877638075087
 30
0.0
 10
3.571683247884114
 20
-1.868847317165798
 30
0.0
 10
3.560376485188802
 20
-1.776119656032986
 30
0.0
 10
3.575798034667969
 20
-1.654759724934896
 30
0.0
 10
3.659513685438368
 20
-1.597960578070746
 30
0.0
 10
3.728263007269965
 20
-1.551316155327691
 30
0.0
 10
3.805458916558159
 20
-1.55861579047309
 30
0.0
 10
3.871607462565104
 20
-1.601140340169271
 30
0.0
 10
3.8342530992296
 20
-1.60412851969401
 30
0.0
 10
3.778334723578559
 20
-1.604487101236979
 30
0.0
 10
3.77364518907335
 20
-1.653414408365885
 30
0.0
 10
3.766665988498264
 20
-1.72621832953559
 30
0.0
 10
3.867640177408854
 20
-1.72269524468316
 30
0.0
 10
3.911573621961805
 20
-1.70432620578342
 30
0.0
 10
3.977759467230903
 20
-1.676651848687066
 30
0.0
 10
4.002062479654947
 20
-1.606839497884115
 30
0.0
 10
3.963395860460069
 20
-1.544534471299913
 30
0.0
 10
3.926411098904079
 20
-1.484939575195312
 30
0.0
 10
3.851547241210938
 20
-1.465176900227865
 30
0.0
 10
3.785475836859809
 20
-1.468443128797743
 30
0.0
 10
3.463169521755642
 20
-1.484376695421007
 30
0.0
 10
3.477850172254774
 20
-1.896782769097222
 30
0.0
 10
3.594750298394097
 20
-2.102535671657986
 30
0.0
 10
3.443628946940104
 20
-2.179334004720052
 30
0.0
 10
3.276853773328993
 20
-2.246153089735243
 30
0.0
 10
3.107565138075087
 20
-2.266110738118489
 30
0.0
 10
2.949125501844618
 20
-2.284789191351996
 30
0.0
 10
2.749706692165799
 20
-2.265371534559462
 30
0.0
 10
2.619662814670139
 20
-2.163120693630642
 30
0.0
 10
2.50736575656467
 20
-2.074824863009983
 30
0.0
 10
2.448550754123264
 20
-1.886360168457031
 30
0.0
 10
2.524271647135417
 20
-1.757425944010417
 30
0.0
 10
2.603352864583333
 20
-1.622767978244358
 30
0.0
 10
2.793968200683594
 20
-1.691097683376736
 30
0.0
 10
2.759090847439236
 20
-1.84529791937934
 30
0.0
 10
2.729855855305989
 20
-1.813205295138889
 30
0.0
 10
2.678267584906684
 20
-1.775115966796875
 30
0.0
 10
2.644439697265625
 20
-1.82610829671224
 30
0.0
 10
2.591997782389323
 20
-1.905160692003038
 30
0.0
 10
2.704717000325521
 20
-1.942215813530816
 30
0.0
 10
2.760724385579427
 20
-1.931421915690104
 30
0.0
 10
2.951878865559896
 20
-1.894581264919705
 30
0.0
 10
2.81943851047092
 20
-1.654835171169705
 30
0.0
 10
2.68571048312717
 20
-1.63280995686849
 30
0.0
 10
2.491373697916667
 20
-1.600802951388889
 30
0.0
 10
2.390921698676215
 20
-1.787291632758246
 30
0.0
 10
2.40625254313151
 20
-1.95607672797309
 30
0.0
 10
2.421271430121528
 20
-2.121417575412326
 30
0.0
 10
2.52771250406901
 20
-2.262267218695746
 30
0.0
 10
2.674303690592448
 20
-2.336049397786458
 30
0.0
 10
2.840026007758246
 20
-2.419460720486111
 30
0.0
 10
3.032200283474392
 20
-2.415532430013021
 30
0.0
 10
3.207027011447483
 20
-2.36523691813151
 30
0.0
 10
3.288486056857639
 20
-2.341802808973524
 30
0.0
 10
3.366942511664496
 20
-2.308961656358507
 30
0.0
 10
3.442470974392361
 20
-2.270667182074653
 30
0.0
 10
3.480801900227864
 20
-2.251233418782552
 30
0.0
 10
3.602034674750434
 20
-2.159109327528212
 30
0.0
 10
3.637623257107204
 20
-2.16648186577691
 30
0.0
 10
3.655189514160156
 20
-2.170121086968316
 30
0.0
 10
3.697633531358507
 20
-2.236728244357639
 30
0.0
 10
3.71279059516059
 20
-2.251644558376736
 30
0.0
 10
3.744044833713108
 20
-2.282403733995225
 30
0.0
 10
3.777581108940972
 20
-2.310711330837674
 30
0.0
 10
3.813017951117621
 20
-2.336542765299479
 30
0.0
 10
3.88527594672309
 20
-2.389215257432725
 30
0.0
 10
3.965290493435329
 20
-2.431574503580729
 30
0.0
 10
4.048428005642361
 20
-2.464305453830295
 30
0.0
 10
4.217836168077257
 20
-2.530999077690972
 30
0.0
 10
4.406442430284288
 20
-2.562834845648871
 30
0.0
 10
4.587777879503038
 20
-2.538086785210503
 30
0.0
 10
4.943188985188802
 20
-2.48958248562283
 30
0.0
 10
5.382726033528646
 20
-2.144390530056424
 30
0.0
 10
5.304641723632812
 20
-1.742874993218316
 30
0.0
 10
5.304226345486111
 20
-1.73966556125217
 30
0.0
 10
5.303559197319879
 20
-1.735732184516059
 30
0.0
 10
5.302402072482638
 20
-1.730485704210069
 30
0.0
  0
SPLINE
  5
42
330
1F
100
AcDbEntity
  8
Layer 1
370
     0
100
AcDbSpline
210
0.0
220
0.0
230
1.0
 70
    11
 71
     3
 72
    41
 73
    37
 74
     0
 42
0.0000000001
 43
0.0000000001
 12
1.0
 22
0.0
 32
0.0
 13
1.0
 23
0.0
 33
0.0
 40
0.0
 40
0.0
 40
0.0
 40
0.0
 40
1.0
 40
1.0
 40
1.0
 40
2.0
 40
2.0
 40
2.0
 40
3.0
 40
3.0
 40
3.0
 40
4.0
 40
4.0
 40
4.0
 40
5.0
 40
5.0
 40
5.0
 40
6.0
 40
6.0
 40
6.0
 40
7.0
 40
7.0
 40
7.0
 40
8.0
 40
8.0
 40
8.0
 40
9.0
 40
9.0
 40
9.0
 40
10.0
 40
10.0
 40
10.0
 40
11.0
 40
11.0
 40
11.0
 40
12.0
 40
12.0
 40
12.0
 40
12.0
 10
5.429366217719184
 20
-1.589203728569878
 30
0.0
 10
5.181868659125434
 20
-1.561322530110677
 30
0.0
 10
4.945769415961371
 20
-1.685378180609809
 30
0.0
 10
4.751227484809028
 20
-1.825431823730469
 30
0.0
 10
4.533024258083767
 20
-1.982519361707899
 30
0.0
 10
4.338078816731771
 20
-2.169400533040364
 30
0.0
 10
4.129572550455729
 20
-2.338700188530816
 30
0.0
 10
4.149887932671441
 20
-2.344795227050781
 30
0.0
 10
4.173842536078559
 20
-2.355831570095486
 30
0.0
 10
4.195278591579861
 20
-2.357400682237413
 30
0.0
 10
4.229185316297743
 20
-2.359881930881076
 30
0.0
 10
4.229948255750868
 20
-2.352188958062066
 30
0.0
 10
4.257496303982204
 20
-2.328520033094618
 30
0.0
 10
4.297425164116754
 20
-2.294213189019097
 30
0.0
 10
4.337025112575954
 20
-2.259525722927517
 30
0.0
 10
4.376697964138454
 20
-2.224923027886284
 30
0.0
 10
4.449478997124566
 20
-2.161443074544271
 30
0.0
 10
4.522347344292535
 20
-2.098013983832465
 30
0.0
 10
4.59743414984809
 20
-2.037256876627604
 30
0.0
 10
4.738288031684028
 20
-1.92328135172526
 30
0.0
 10
4.888142903645833
 20
-1.814281039767795
 30
0.0
 10
5.057189093695746
 20
-1.745998806423611
 30
0.0
 10
5.219217088487413
 20
-1.680551317003038
 30
0.0
 10
5.455093383789062
 20
-1.63566165500217
 30
0.0
 10
5.595310635036892
 20
-1.771314832899305
 30
0.0
 10
5.673996819390191
 20
-1.847440931532118
 30
0.0
 10
5.797525193956163
 20
-2.171571519639757
 30
0.0
 10
5.603240119086371
 20
-2.189735412597656
 30
0.0
 10
5.610633850097656
 20
-2.11165279812283
 30
0.0
 10
5.440365261501736
 20
-2.269319322374132
 30
0.0
 10
5.580901251898871
 20
-2.267810397677951
 30
0.0
 10
5.67745378282335
 20
-2.266774495442708
 30
0.0
 10
5.772674560546875
 20
-2.163015577528212
 30
0.0
 10
5.797984653049045
 20
-2.077829149034288
 30
0.0
 10
5.870914035373263
 20
-1.832373725043403
 30
0.0
 10
5.660329182942708
 20
-1.615223354763455
 30
0.0
 10
5.429366217719184
 20
-1.589203728569878
 30
0.0
  0
SPLINE
  5
43
330
1F
100
AcDbEntity
  8
Layer 1
370
     0
100
AcDbSpline
210
0.0
220
0.0
230
1.0
 70
    11
 71
     3
 72
    56
 73
    52
 74
     0
 42
0.0000000001
 43
0.0000000001
 12
1.0
 22
0.0
 32
0.0
 13
1.0
 23
0.0
 33
0.0
 40
0.0
 40
0.0
 40
0.0
 40
0.0
 40
1.0
 40
1.0
 40
1.0
 40
2.0
 40
2.0
 40
2.0
 40
3.0
 40
3.0
 40
3.0
 40
4.0
 40
4.0
 40
4.0
 40
5.0
 40
5.0
 40
5.0
 40
6.0
 40
6.0
 40
6.0
 40
7.0
 40
7.0
 40
7.0
 40
8.0
 40
8.0
 40
8.0
 40
9.0
 40
9.0
 40
9.0
 40
10.0
 40
10.0
 40
10.0
 40
11.0
 40
11.0
 40
11.0
 40
12.0
 40
12.0
 40
12.0
 40
13.0
 40
13.0
 40
13.0
 40
14.0
 40
14.0
 40
14.0
 40
15.0
 40
15.0
 40
15.0
 40
16.0
 40
16.0
 40
16.0
 40
17.0
 40
17.0
 40
17.0
 40
17.0
 10
3.891242133246528
 20
-2.517923990885417
 30
0.0
 10
3.828517489963108
 20
-2.56085205078125
 30
0.0
 10
3.76436784532335
 20
-2.601921929253472
 30
0.0
 10
3.69747077094184
 20
-2.6380861070421
 30
0.0
 10
3.567142062717014
 20
-2.708541870117188
 30
0.0
 10
3.427669949001736
 20
-2.758329603407118
 30
0.0
 10
3.279629177517361
 20
-2.772936503092448
 30
0.0
 10
2.982284545898438
 20
-2.802276611328125
 30
0.0
 10
2.667349073621962
 20
-2.721302456325955
 30
0.0
 10
2.400723775227864
 20
-2.593210008409288
 30
0.0
 10
1.870795355902778
 20
-2.338622199164496
 30
0.0
 10
1.45094723171658
 20
-1.821114434136285
 30
0.0
 10
0.8416146172417535
 20
-1.745290968153212
 30
0.0
 10
0.7073983086480035
 20
-1.728590223524305
 30
0.0
 10
0.5572535196940104
 20
-1.727690802680121
 30
0.0
 10
0.4323238796657986
 20
-1.786438835991753
 30
0.0
 10
0.3754458957248264
 20
-1.813184950086805
 30
0.0
 10
0.3261455959743924
 20
-1.852510240342882
 30
0.0
 10
0.2938859727647569
 20
-1.907122294108073
 30
0.0
 10
0.2757110595703125
 20
-1.937890794542101
 30
0.0
 10
0.2161797417534722
 20
-2.054250929090712
 30
0.0
 10
0.2760916815863715
 20
-2.076376173231337
 30
0.0
 10
0.298569573296441
 20
-2.084676954481337
 30
0.0
 10
0.3199581570095486
 20
-2.066973368326823
 30
0.0
 10
0.3233244154188368
 20
-2.04512956407335
 30
0.0
 10
0.3265092637803819
 20
-2.024466620551215
 30
0.0
 10
0.3017484876844618
 20
-2.010704040527344
 30
0.0
 10
0.3004345364040799
 20
-1.995716518825955
 30
0.0
 10
0.2976735432942708
 20
-1.964217291937934
 30
0.0
 10
0.331268310546875
 20
-1.919112311469184
 30
0.0
 10
0.354598151312934
 20
-1.897332933213976
 30
0.0
 10
0.4361436631944444
 20
-1.821204291449653
 30
0.0
 10
0.5859595404730903
 20
-1.81131829155816
 30
0.0
 10
0.6907611423068576
 20
-1.816702100965712
 30
0.0
 10
0.9803305731879339
 20
-1.831577724880642
 30
0.0
 10
1.25738779703776
 20
-2.005488077799479
 30
0.0
 10
1.496747334798177
 20
-2.155122545030382
 30
0.0
 10
1.75392574734158
 20
-2.315896775987413
 30
0.0
 10
1.997120327419705
 20
-2.499078538682725
 30
0.0
 10
2.259424845377604
 20
-2.65165286593967
 30
0.0
 10
2.540283203125
 20
-2.815019395616319
 30
0.0
 10
2.834307352701823
 20
-2.896267361111111
 30
0.0
 10
3.160369873046875
 20
-2.86015150282118
 30
0.0
 10
3.476984659830729
 20
-2.825082567003038
 30
0.0
 10
3.783805847167969
 20
-2.697940402560764
 30
0.0
 10
4.038013034396701
 20
-2.507286071777344
 30
0.0
 10
4.018106248643663
 20
-2.499427795410156
 30
0.0
 10
3.976804097493489
 20
-2.471143086751302
 30
0.0
 10
3.956626892089844
 20
-2.472406175401475
 30
0.0
 10
3.937991672092014
 20
-2.473572625054253
 30
0.0
 10
3.906241522894965
 20
-2.507659064398871
 30
0.0
 10
3.891242133246528
 20
-2.517923990885417
 30
0.0
  0
SPLINE
  5
44
330
1F
100
AcDbEntity
  8
Layer 1
370
     0
100
AcDbSpline
210
0.0
220
0.0
230
1.0
 70
    11
 71
     3
 72
    20
 73
    16
 74
     0
 42
0.0000000001
 43
0.0000000001
 12
1.0
 22
0.0
 32
0.0
 13
1.0
 23
0.0
 33
0.0
 40
0.0
 40
0.0
 40
0.0
 40
0.0
 40
1.0
 40
1.0
 40
1.0
 40
2.0
 40
2.0
 40
2.0
 40
3.0
 40
3.0
 40
3.0
 40
4.0
 40
4.0
 40
4.0
 40
5.0
 40
5.0
 40
5.0
 40
5.0
 10
5.939826965332031
 20
-1.274452209472656
 30
0.0
 10
5.96920182969835
 20
-1.326502482096354
 30
0.0
 10
5.990882873535156
 20
-1.388775295681423
 30
0.0
 10
6.000723097059462
 20
-1.44781494140625
 30
0.0
 10
6.014767964680989
 20
-1.36354743109809
 30
0.0
 10
6.051054212782118
 20
-1.259341769748264
 30
0.0
 10
6.117715623643663
 20
-1.202203538682726
 30
0.0
 10
6.080345153808594
 20
-1.104466756184896
 30
0.0
 10
5.983154296875
 20
-1.039606730143229
 30
0.0
 10
5.911368476019965
 20
-1.148028055826823
 30
0.0
 10
5.897967868381076
 20
-1.168267144097222
 30
0.0
 10
5.884877522786458
 20
-1.18937004937066
 30
0.0
 10
5.891374376085069
 20
-1.208985222710503
 30
0.0
 10
5.897974650065104
 20
-1.228915744357639
 30
0.0
 10
5.928604125976562
 20
-1.254565768771701
 30
0.0
 10
5.939826965332031
 20
-1.274452209472656
 30
0.0
  0
SPLINE
  5
45
330
1F
100
AcDbEntity
  8
Layer 1
370
     0
100
AcDbSpline
210
0.0
220
0.0
230
1.0
 70
    11
 71
     3
 72
    23
 73
    19
 74
     0
 42
0.0000000001
 43
0.0000000001
 12
1.0
 22
0.0
 32
0.0
 13
1.0
 23
0.0
 33
0.0
 40
0.0
 40
0.0
 40
0.0
 40
0.0
 40
1.0
 40
1.0
 40
1.0
 40
2.0
 40
2.0
 40
2.0
 40
3.0
 40
3.0
 40
3.0
 40
4.0
 40
4.0
 40
4.0
 40
5.0
 40
5.0
 40
5.0
 40
6.0
 40
6.0
 40
6.0
 40
6.0
 10
6.000723097059462
 20
-2.364860534667969
 30
0.0
 10
6.000723097059462
 20
-2.402000427246094
 30
0.0
 10
5.975642734103732
 20
-2.454998440212674
 30
0.0
 10
5.958826700846354
 20
-2.487813313802083
 30
0.0
 10
5.949042426215278
 20
-2.506906297471788
 30
0.0
 10
5.932545979817708
 20
-2.523862202962239
 30
0.0
 10
5.923333909776475
 20
-2.542619493272569
 30
0.0
 10
5.909657796223958
 20
-2.570465087890625
 30
0.0
 10
5.906801011827256
 20
-2.56830088297526
 30
0.0
 10
5.926161024305555
 20
-2.598626878526475
 30
0.0
 10
5.981095208062066
 20
-2.684680514865451
 30
0.0
 10
6.057377285427517
 20
-2.645907931857639
 30
0.0
 10
6.091345045301649
 20
-2.568544175889757
 30
0.0
 10
6.092474195692274
 20
-2.566243489583333
 30
0.0
 10
6.093717787000868
 20
-2.56345706515842
 30
0.0
 10
6.095188564724392
 20
-2.559605068630642
 30
0.0
 10
6.05082278781467
 20
-2.518012152777778
 30
0.0
 10
6.000723097059462
 20
-2.428024291992188
 30
0.0
 10
6.000723097059462
 20
-2.364860534667969
 30
0.0
  0
SPLINE
  5
46
330
1F
100
AcDbEntity
  8
Layer 1
370
     0
100
AcDbSpline
210
0.0
220
0.0
230
1.0
 70
    11
 71
     3
 72
   134
 73
   130
 74
     0
 42
0.0000000001
 43
0.0000000001
 12
1.0
 22
0.0
 32
0.0
 13
1.0
 23
0.0
 33
0.0
 40
0.0
 40
0.0
 40
0.0
 40
0.0
 40
1.0
 40
1.0
 40
1.0
 40
2.0
 40
2.0
 40
2.0
 40
3.0
 40
3.0
 40
3.0
 40
4.0
 40
4.0
 40
4.0
 40
5.0
 40
5.0
 40
5.0
 40
6.0
 40
6.0
 40
6.0
 40
7.0
 40
7.0
 40
7.0
 40
8.0
 40
8.0
 40
8.0
 40
9.0
 40
9.0
 40
9.0
 40
10.0
 40
10.0
 40
10.0
 40
11.0
 40
11.0
 40
11.0
 40
12.0
 40
12.0
 40
12.0
 40
13.0
 40
13.0
 40
13.0
 40
14.0
 40
14.0
 40
14.0
 40
15.0
 40
15.0
 40
15.0
 40
16.0
 40
16.0
 40
16.0
 40
17.0
 40
17.0
 40
17.0
 40
18.0
 40
18.0
 40
18.0
 40
19.0
 40
19.0
 40
19.0
 40
20.0
 40
20.0
 40
20.0
 40
21.0
 40
21.0
 40
21.0
 40
22.0
 40
22.0
 40
22.0
 40
23.0
 40
23.0
 40
23.0
 40
24.0
 40
24.0
 40
24.0
 40
25.0
 40
25.0
 40
25.0
 40
26.0
 40
26.0
 40
26.0
 40
27.0
 40
27.0
 40
27.0
 40
28.0
 40
28.0
 40
28.0
 40
29.0
 40
29.0
 40
29.0
 40
30.0
 40
30.0
 40
30.0
 40
31.0
 40
31.0
 40
31.0
 40
32.0
 40
32.0
 40
32.0
 40
33.0
 40
33.0
 40
33.0
 40
34.0
 40
34.0
 40
34.0
 40
35.0
 40
35.0
 40
35.0
 40
36.0
 40
36.0
 40
36.0
 40
37.0
 40
37.0
 40
37.0
 40
38.0
 40
38.0
 40
38.0
 40
39.0
 40
39.0
 40
39.0
 40
40.0
 40
40.0
 40
40.0
 40
41.0
 40
41.0
 40
41.0
 40
42.0
 40
42.0
 40
42.0
 40
43.0
 40
43.0
 40
43.0
 40
43.0
 10
8.372179667154947
 20
-2.165028889973958
 30
0.0
 10
8.392506069607204
 20
-2.16117180718316
 30
0.0
 10
8.469514634874132
 20
-2.222576565212674
 30
0.0
 10
8.489807976616753
 20
-2.233788384331597
 30
0.0
 10
8.535407172309027
 20
-2.258983188205295
 30
0.0
 10
8.581781175401476
 20
-2.282838609483507
 30
0.0
 10
8.629371643066406
 20
-2.304064432779948
 30
0.0
 10
8.796909756130642
 20
-2.378789265950521
 30
0.0
 10
8.985017564561632
 20
-2.425721910264757
 30
0.0
 10
9.168281555175781
 20
-2.389567057291667
 30
0.0
 10
9.333983527289496
 20
-2.356876797146267
 30
0.0
 10
9.488416883680555
 20
-2.258025275336371
 30
0.0
 10
9.558081732855902
 20
-2.099748399522569
 30
0.0
 10
9.621663411458332
 20
-1.955292595757378
 30
0.0
 10
9.620579189724392
 20
-1.730589124891493
 30
0.0
 10
9.456720140245226
 20
-1.653185526529948
 30
0.0
 10
9.372452629937065
 20
-1.613378736707899
 30
0.0
 10
9.265942043728298
 20
-1.62373775906033
 30
0.0
 10
9.200936211480034
 20
-1.694062127007378
 30
0.0
 10
9.149108039008246
 20
-1.750128851996528
 30
0.0
 10
9.112491183810763
 20
-1.859026590983073
 30
0.0
 10
9.188240051269531
 20
-1.911022610134548
 30
0.0
 10
9.242201063368055
 20
-1.948063320583767
 30
0.0
 10
9.371966891818575
 20
-1.947874281141493
 30
0.0
 10
9.366589864095051
 20
-1.857218424479167
 30
0.0
 10
9.361534118652344
 20
-1.771986219618055
 30
0.0
 10
9.278067694769964
 20
-1.804889255099826
 30
0.0
 10
9.242355346679688
 20
-1.84529791937934
 30
0.0
 10
9.228687710232204
 20
-1.757294548882378
 30
0.0
 10
9.269666883680555
 20
-1.672318352593316
 30
0.0
 10
9.370960659450954
 20
-1.686172485351562
 30
0.0
 10
9.50011020236545
 20
-1.703837076822917
 30
0.0
 10
9.524532741970486
 20
-1.857799106174045
 30
0.0
 10
9.501636928982204
 20
-1.963584899902344
 30
0.0
 10
9.442548116048176
 20
-2.236596001519097
 30
0.0
 10
9.118745591905382
 20
-2.296244303385417
 30
0.0
 10
8.880983140733507
 20
-2.264328850640191
 30
0.0
 10
8.745251125759548
 20
-2.246109856499566
 30
0.0
 10
8.61590576171875
 20
-2.19765133327908
 30
0.0
 10
8.491563585069445
 20
-2.141955905490451
 30
0.0
 10
8.475612216525608
 20
-2.134810553656684
 30
0.0
 10
8.423389010959202
 20
-2.121852450900608
 30
0.0
 10
8.41614278157552
 20
-2.106895446777344
 30
0.0
 10
8.407882690429688
 20
-2.08984629313151
 30
0.0
 10
8.413819207085503
 20
-2.105696784125434
 30
0.0
 10
8.418546040852863
 20
-2.081192016601562
 30
0.0
 10
8.42299567328559
 20
-2.058125813802083
 30
0.0
 10
8.442971123589409
 20
-2.033184475368924
 30
0.0
 10
8.451533847384983
 20
-2.010732014973958
 30
0.0
 10
8.465230305989582
 20
-1.974818759494358
 30
0.0
 10
8.47516123453776
 20
-1.937460157606337
 30
0.0
 10
8.48135036892361
 20
-1.899542914496528
 30
0.0
 10
8.515343560112846
 20
-1.691283331976996
 30
0.0
 10
8.40364752875434
 20
-1.41503651936849
 30
0.0
 10
8.145657857259113
 20
-1.474086337619358
 30
0.0
 10
8.022391425238714
 20
-1.502300686306423
 30
0.0
 10
7.961129082573784
 20
-1.671210394965278
 30
0.0
 10
8.11117214626736
 20
-1.711433410644531
 30
0.0
 10
8.154164632161457
 20
-1.72295888264974
 30
0.0
 10
8.244038899739582
 20
-1.712927076551649
 30
0.0
 10
8.227210998535156
 20
-1.646192762586805
 30
0.0
 10
8.21647728814019
 20
-1.603625827365451
 30
0.0
 10
8.165684170193142
 20
-1.604007297092014
 30
0.0
 10
8.130565219455296
 20
-1.601140340169271
 30
0.0
 10
8.196551852756077
 20
-1.558720058865017
 30
0.0
 10
8.273463779025608
 20
-1.551506042480469
 30
0.0
 10
8.341932508680555
 20
-1.597960578070746
 30
0.0
 10
8.425888061523438
 20
-1.654923333062066
 30
0.0
 10
8.440805223253038
 20
-1.775874667697483
 30
0.0
 10
8.4298095703125
 20
-1.868847317165798
 30
0.0
 10
8.423478020562065
 20
-1.922381083170573
 30
0.0
 10
8.407343546549479
 20
-1.974689059787326
 30
0.0
 10
8.38223181830512
 20
-2.022388034396701
 30
0.0
 10
8.358621385362413
 20
-2.067235310872396
 30
0.0
 10
8.361819797092014
 20
-2.080012003580729
 30
0.0
 10
8.318987528483072
 20
-2.05729251437717
 30
0.0
 10
8.21427747938368
 20
-2.001752217610677
 30
0.0
 10
8.113592359754774
 20
-1.939382765028212
 30
0.0
 10
8.014455159505207
 20
-1.874517652723524
 30
0.0
 10
7.82218509250217
 20
-1.74871571858724
 30
0.0
 10
7.629128350151909
 20
-1.625968085394965
 30
0.0
 10
7.419174194335938
 20
-1.531272888183594
 30
0.0
 10
7.226802402072482
 20
-1.444508022732205
 30
0.0
 10
6.956773546006944
 20
-1.385743882921007
 30
0.0
 10
6.789876302083333
 20
-1.556813557942708
 30
0.0
 10
6.826240539550781
 20
-1.564438713921441
 30
0.0
 10
6.861195034450954
 20
-1.577290852864583
 30
0.0
 10
6.897259182400173
 20
-1.585438198513455
 30
0.0
 10
6.936360677083333
 20
-1.594272189670139
 30
0.0
 10
6.948497348361545
 20
-1.57891845703125
 30
0.0
 10
6.986567179361979
 20
-1.562959459092882
 30
0.0
 10
7.048478868272569
 20
-1.537005106608073
 30
0.0
 10
7.115809970431857
 20
-1.525245666503906
 30
0.0
 10
7.182840135362413
 20
-1.528435601128472
 30
0.0
 10
7.326041327582465
 20
-1.535250345865885
 30
0.0
 10
7.465567694769965
 20
-1.597380744086371
 30
0.0
 10
7.591508653428819
 20
-1.661564297146267
 30
0.0
 10
7.845531039767795
 20
-1.791019863552517
 30
0.0
 10
8.071234809027777
 20
-1.971960279676649
 30
0.0
 10
8.310050116644964
 20
-2.126515706380208
 30
0.0
 10
8.085160149468315
 20
-2.370291815863715
 30
0.0
 10
7.712223476833767
 20
-2.473409864637587
 30
0.0
 10
7.392473856608072
 20
-2.403980678982205
 30
0.0
 10
7.121136135525173
 20
-2.345063951280382
 30
0.0
 10
6.676812913682725
 20
-2.089964124891493
 30
0.0
 10
6.797142876519096
 20
-1.745018853081597
 30
0.0
 10
6.777777777777778
 20
-1.740809122721354
 30
0.0
 10
6.742428249782986
 20
-1.728344387478298
 30
0.0
 10
6.722660488552517
 20
-1.732483757866753
 30
0.0
 10
6.714787801106771
 20
-1.731817457411024
 30
0.0
 10
6.706915961371528
 20
-1.731152004665798
 30
0.0
 10
6.699044121636284
 20
-1.730485704210069
 30
0.0
 10
6.69564225938585
 20
-1.747084723578559
 30
0.0
 10
6.693211025661892
 20
-1.763824462890625
 30
0.0
 10
6.691750420464409
 20
-1.780705769856771
 30
0.0
 10
6.688034057617188
 20
-1.822641160753038
 30
0.0
 10
6.690377129448784
 20
-1.864980909559462
 30
0.0
 10
6.697386847601996
 20
-1.906453450520833
 30
0.0
 10
6.711858961317274
 20
-1.992080688476562
 30
0.0
 10
6.746550665961371
 20
-2.074078030056424
 30
0.0
 10
6.793509589301215
 20
-2.146862453884549
 30
0.0
 10
6.887852986653646
 20
-2.293089972601996
 30
0.0
 10
7.034647623697916
 20
-2.408006456163194
 30
0.0
 10
7.193627251519096
 20
-2.476311577690972
 30
0.0
 10
7.533562554253471
 20
-2.622365315755208
 30
0.0
 10
7.967391967773438
 20
-2.529779222276475
 30
0.0
 10
8.244724697536892
 20
-2.292070176866319
 30
0.0
 10
8.277547200520832
 20
-2.263936360677083
 30
0.0
 10
8.340331183539496
 20
-2.171070522732205
 30
0.0
 10
8.372179667154947
 20
-2.165028889973958
 30
0.0
  0
SPLINE
  5
47
330
1F
100
AcDbEntity
  8
Layer 1
370
     0
100
AcDbSpline
210
0.0
220
0.0
230
1.0
 70
    11
 71
     3
 72
   110
 73
   106
 74
     0
 42
0.0000000001
 43
0.0000000001
 12
1.0
 22
0.0
 32
0.0
 13
1.0
 23
0.0
 33
0.0
 40
0.0
 40
0.0
 40
0.0
 40
0.0
 40
1.0
 40
1.0
 40
1.0
 40
2.0
 40
2.0
 40
2.0
 40
3.0
 40
3.0
 40
3.0
 40
4.0
 40
4.0
 40
4.0
 40
5.0
 40
5.0
 40
5.0
 40
6.0
 40
6.0
 40
6.0
 40
7.0
 40
7.0
 40
7.0
 40
8.0
 40
8.0
 40
8.0
 40
9.0
 40
9.0
 40
9.0
 40
10.0
 40
10.0
 40
10.0
 40
11.0
 40
11.0
 40
11.0
 40
12.0
 40
12.0
 40
12.0
 40
13.0
 40
13.0
 40
13.0
 40
14.0
 40
14.0
 40
14.0
 40
15.0
 40
15.0
 40
15.0
 40
16.0
 40
16.0
 40
16.0
 40
17.0
 40
17.0
 40
17.0
 40
18.0
 40
18.0
 40
18.0
 40
19.0
 40
19.0
 40
19.0
 40
20.0
 40
20.0
 40
20.0
 40
21.0
 40
21.0
 40
21.0
 40
22.0
 40
22.0
 40
22.0
 40
23.0
 40
23.0
 40
23.0
 40
24.0
 40
24.0
 40
24.0
 40
25.0
 40
25.0
 40
25.0
 40
26.0
 40
26.0
 40
26.0
 40
27.0
 40
27.0
 40
27.0
 40
28.0
 40
28.0
 40
28.0
 40
29.0
 40
29.0
 40
29.0
 40
30.0
 40
30.0
 40
30.0
 40
31.0
 40
31.0
 40
31.0
 40
32.0
 40
32.0
 40
32.0
 40
33.0
 40
33.0
 40
33.0
 40
34.0
 40
34.0
 40
34.0
 40
35.0
 40
35.0
 40
35.0
 40
35.0
 10
6.192880418565538
 20
-2.318216111924913
 30
0.0
 10
6.164944118923611
 20
-2.308407253689236
 30
0.0
 10
6.149008009168837
 20
-2.333567301432292
 30
0.0
 10
6.130794949001736
 20
-2.317626953125
 30
0.0
 10
6.100550333658854
 20
-2.29115719265408
 30
0.0
 10
6.095320807562934
 20
-2.206756591796875
 30
0.0
 10
6.087921990288629
 20
-2.167934841579861
 30
0.0
 10
6.075019836425781
 20
-2.100231594509549
 30
0.0
 10
6.065899319118923
 20
-2.031606038411458
 30
0.0
 10
6.059262593587239
 20
-1.963016933865017
 30
0.0
 10
6.037955390082465
 20
-1.742808871799045
 30
0.0
 10
6.065504286024305
 20
-1.442351447211371
 30
0.0
 10
6.232824537489149
 20
-1.277125040690104
 30
0.0
 10
6.301076253255208
 20
-1.209726121690538
 30
0.0
 10
6.428335401746962
 20
-1.168834262424045
 30
0.0
 10
6.507932027180989
 20
-1.242896185980903
 30
0.0
 10
6.565217759874131
 20
-1.296198527018229
 30
0.0
 10
6.554584079318576
 20
-1.437185499403212
 30
0.0
 10
6.452706231011284
 20
-1.402761671278212
 30
0.0
 10
6.456743028428819
 20
-1.398050944010417
 30
0.0
 10
6.46090104844835
 20
-1.39129892985026
 30
0.0
 10
6.465785556369357
 20
-1.387502034505208
 30
0.0
 10
6.506561279296875
 20
-1.339930216471354
 30
0.0
 10
6.44417487250434
 20
-1.293916490342882
 30
0.0
 10
6.402566697862413
 20
-1.335908677842882
 30
0.0
 10
6.364818996853298
 20
-1.374004787868923
 30
0.0
 10
6.391903347439236
 20
-1.433856540256076
 30
0.0
 10
6.426671346028646
 20
-1.463460286458333
 30
0.0
 10
6.538881089952256
 20
-1.559005737304688
 30
0.0
 10
6.655320909288194
 20
-1.403249104817708
 30
0.0
 10
6.634635077582465
 20
-1.294087727864583
 30
0.0
 10
6.610443962944878
 20
-1.166424221462673
 30
0.0
 10
6.47072516547309
 20
-1.113554212782118
 30
0.0
 10
6.35435061984592
 20
-1.142712910970052
 30
0.0
 10
6.230636596679688
 20
-1.173711140950521
 30
0.0
 10
6.142483181423611
 20
-1.282059563530816
 30
0.0
 10
6.092968410915798
 20
-1.394233703613281
 30
0.0
 10
6.067183600531684
 20
-1.452648586697048
 30
0.0
 10
6.049558851453993
 20
-1.514688279893663
 30
0.0
 10
6.036121792263454
 20
-1.576992458767361
 30
0.0
 10
6.031140645345052
 20
-1.600090874565972
 30
0.0
 10
6.02398681640625
 20
-1.723321702745226
 30
0.0
 10
6.005971272786458
 20
-1.729031880696615
 30
0.0
 10
5.975208706325954
 20
-1.738782246907552
 30
0.0
 10
5.978992038302951
 20
-1.649104648166233
 30
0.0
 10
5.975339253743489
 20
-1.62823486328125
 30
0.0
 10
5.962792290581597
 20
-1.556561787923177
 30
0.0
 10
5.945915222167969
 20
-1.484473334418403
 30
0.0
 10
5.918470594618055
 20
-1.416904873318142
 30
0.0
 10
5.873208787706163
 20
-1.305469936794705
 30
0.0
 10
5.795440673828125
 20
-1.195924546983507
 30
0.0
 10
5.678754170735677
 20
-1.152316623263889
 30
0.0
 10
5.564502292209201
 20
-1.109619140625
 30
0.0
 10
5.411383734809028
 20
-1.145648532443576
 30
0.0
 10
5.371844821506076
 20
-1.273235744900173
 30
0.0
 10
5.335517883300781
 20
-1.390459696451823
 30
0.0
 10
5.463971455891927
 20
-1.572076585557726
 30
0.0
 10
5.581531100802951
 20
-1.457090589735243
 30
0.0
 10
5.616732279459635
 20
-1.422659979926215
 30
0.0
 10
5.639632331000434
 20
-1.345955742730035
 30
0.0
 10
5.578771803114149
 20
-1.322514851888021
 30
0.0
 10
5.516506618923611
 20
-1.298533121744792
 30
0.0
 10
5.516871982150607
 20
-1.369856940375434
 30
0.0
 10
5.548739963107638
 20
-1.402761671278212
 30
0.0
 10
5.44730970594618
 20
-1.437021043565538
 30
0.0
 10
5.435983445909288
 20
-1.296137491861979
 30
0.0
 10
5.493514166937934
 20
-1.242896185980903
 30
0.0
 10
5.573480394151475
 20
-1.168891906738281
 30
0.0
 10
5.700954013400607
 20
-1.209698994954427
 30
0.0
 10
5.769278632269965
 20
-1.277125040690104
 30
0.0
 10
5.935847812228732
 20
-1.441502888997396
 30
0.0
 10
5.964205423990885
 20
-1.743944803873698
 30
0.0
 10
5.942444695366754
 20
-1.963016933865017
 30
0.0
 10
5.935634189181857
 20
-2.031580607096354
 30
0.0
 10
5.926395840115017
 20
-2.100237528483073
 30
0.0
 10
5.913523356119791
 20
-2.167934841579861
 30
0.0
 10
5.906395806206597
 20
-2.20542229546441
 30
0.0
 10
5.900828891330295
 20
-2.291366577148438
 30
0.0
 10
5.870650397406684
 20
-2.317626953125
 30
0.0
 10
5.852689107259114
 20
-2.333257887098524
 30
0.0
 10
5.836269802517361
 20
-2.30845218234592
 30
0.0
 10
5.808781094021267
 20
-2.318216111924913
 30
0.0
 10
5.771807352701822
 20
-2.331348843044705
 30
0.0
 10
5.767443339029947
 20
-2.378814697265625
 30
0.0
 10
5.776475694444444
 20
-2.412197536892361
 30
0.0
 10
5.790625678168403
 20
-2.464497884114583
 30
0.0
 10
5.837185329861111
 20
-2.481087578667534
 30
0.0
 10
5.882277594672309
 20
-2.451332939995659
 30
0.0
 10
5.921315511067708
 20
-2.425572713216146
 30
0.0
 10
5.942665100097656
 20
-2.373025682237413
 30
0.0
 10
5.957790798611111
 20
-2.330685933430989
 30
0.0
 10
5.981329176161024
 20
-2.264797634548611
 30
0.0
 10
5.989590962727864
 20
-2.194545321994358
 30
0.0
 10
6.000723097059462
 20
-2.125789218478733
 30
0.0
 10
6.011885748969184
 20
-2.194736056857639
 30
0.0
 10
6.020966423882379
 20
-2.264499240451389
 30
0.0
 10
6.044325086805555
 20
-2.330685933430989
 30
0.0
 10
6.059501647949219
 20
-2.373690287272135
 30
0.0
 10
6.080418904622396
 20
-2.424820793999566
 30
0.0
 10
6.11989508734809
 20
-2.451332939995659
 30
0.0
 10
6.164087931315104
 20
-2.481012132432725
 30
0.0
 10
6.210923088921441
 20
-2.464270697699653
 30
0.0
 10
6.225336710611979
 20
-2.412197536892361
 30
0.0
 10
6.234505547417534
 20
-2.379074096679688
 30
0.0
 10
6.229942321777344
 20
-2.331229315863715
 30
0.0
 10
6.192880418565538
 20
-2.318216111924913
 30
0.0
  0
SPLINE
  5
48
330
1F
100
AcDbEntity
  8
Layer 1
370
     0
100
AcDbSpline
210
0.0
220
0.0
230
1.0
 70
    11
 71
     3
 72
    44
 73
    40
 74
     0
 42
0.0000000001
 43
0.0000000001
 12
1.0
 22
0.0
 32
0.0
 13
1.0
 23
0.0
 33
0.0
 40
0.0
 40
0.0
 40
0.0
 40
0.0
 40
1.0
 40
1.0
 40
1.0
 40
2.0
 40
2.0
 40
2.0
 40
3.0
 40
3.0
 40
3.0
 40
4.0
 40
4.0
 40
4.0
 40
5.0
 40
5.0
 40
5.0
 40
6.0
 40
6.0
 40
6.0
 40
7.0
 40
7.0
 40
7.0
 40
8.0
 40
8.0
 40
8.0
 40
9.0
 40
9.0
 40
9.0
 40
10.0
 40
10.0
 40
10.0
 40
11.0
 40
11.0
 40
11.0
 40
12.0
 40
12.0
 40
12.0
 40
13.0
 40
13.0
 40
13.0
 40
13.0
 10
11.73721398247613
 20
-1.968487209743923
 30
0.0
 10
11.69187588161892
 20
-1.840605841742621
 30
0.0
 10
11.57737816704644
 20
-1.773500230577257
 30
0.0
 10
11.44942559136285
 20
-1.749231974283854
 30
0.0
 10
10.8299560546875
 20
-1.631741841634115
 30
0.0
 10
10.3192376030816
 20
-2.159630669487847
 30
0.0
 10
9.842749701605902
 20
-2.459258185492621
 30
0.0
 10
9.561270819769964
 20
-2.636260138617621
 30
0.0
 10
9.247005038791231
 20
-2.754520840115017
 30
0.0
 10
8.913178337944878
 20
-2.77531263563368
 30
0.0
 10
8.579726325141058
 20
-2.79608154296875
 30
0.0
 10
8.311077541775173
 20
-2.658277723524305
 30
0.0
 10
8.045545789930555
 20
-2.472406175401475
 30
0.0
 10
8.018519931369358
 20
-2.484823438856337
 30
0.0
 10
7.991095648871528
 20
-2.496365865071614
 30
0.0
 10
7.963433159722221
 20
-2.507286071777344
 30
0.0
 10
8.395418802897135
 20
-2.831275092230903
 30
0.0
 10
9.009535047743055
 20
-2.988532172309028
 30
0.0
 10
9.521383497450087
 20
-2.766125996907552
 30
0.0
 10
10.06586795383029
 20
-2.529539320203993
 30
0.0
 10
10.49046410454644
 20
-2.070923699273004
 30
0.0
 10
11.05537329779731
 20
-1.87145741780599
 30
0.0
 10
11.1889885796441
 20
-1.824278937445746
 30
0.0
 10
11.32726033528646
 20
-1.802768283420139
 30
0.0
 10
11.46800655788845
 20
-1.826393127441406
 30
0.0
 10
11.51672108968099
 20
-1.834570142957899
 30
0.0
 10
11.56732092963325
 20
-1.845443725585938
 30
0.0
 10
11.61051856146918
 20
-1.87048085530599
 30
0.0
 10
11.64471859402127
 20
-1.89030287000868
 30
0.0
 10
11.70339626736111
 20
-1.943060133192274
 30
0.0
 10
11.70191955566406
 20
-1.987904866536458
 30
0.0
 10
11.70113542344835
 20
-2.011735704210069
 30
0.0
 10
11.66582912868924
 20
-2.028540717230903
 30
0.0
 10
11.68266296386719
 20
-2.059481302897135
 30
0.0
 10
11.69390530056424
 20
-2.080144246419271
 30
0.0
 10
11.71957567003038
 20
-2.083160400390625
 30
0.0
 10
11.73598225911458
 20
-2.06820085313585
 30
0.0
 10
11.76119232177734
 20
-2.045214335123698
 30
0.0
 10
11.74653032090929
 20
-1.994767083062066
 30
0.0
 10
11.73721398247613
 20
-1.968487209743923
 30
0.0
  0
SPLINE
  5
49
330
1F
100
AcDbEntity
  8
Layer 1
370
     0
100
AcDbSpline
210
0.0
220
0.0
230
1.0
 70
    11
 71
     3
 72
    44
 73
    40
 74
     0
 42
0.0000000001
 43
0.0000000001
 12
1.0
 22
0.0
 32
0.0
 13
1.0
 23
0.0
 33
0.0
 40
0.0
 40
0.0
 40
0.0
 40
0.0
 40
1.0
 40
1.0
 40
1.0
 40
2.0
 40
2.0
 40
2.0
 40
3.0
 40
3.0
 40
3.0
 40
4.0
 40
4.0
 40
4.0
 40
5.0
 40
5.0
 40
5.0
 40
6.0
 40
6.0
 40
6.0
 40
7.0
 40
7.0
 40
7.0
 40
8.0
 40
8.0
 40
8.0
 40
9.0
 40
9.0
 40
9.0
 40
10.0
 40
10.0
 40
10.0
 40
11.0
 40
11.0
 40
11.0
 40
12.0
 40
12.0
 40
12.0
 40
13.0
 40
13.0
 40
13.0
 40
13.0
 10
7.485621982150607
 20
-2.104482862684462
 30
0.0
 10
7.545860290527344
 20
-2.155472649468316
 30
0.0
 10
7.605080498589409
 20
-2.207646687825521
 30
0.0
 10
7.664527045355903
 20
-2.259552001953125
 30
0.0
 10
7.696244133843315
 20
-2.287245856391059
 30
0.0
 10
7.728554619683159
 20
-2.322825113932292
 30
0.0
 10
7.763925340440538
 20
-2.345636155870225
 30
0.0
 10
7.799882676866319
 20
-2.368825276692708
 30
0.0
 10
7.830045064290364
 20
-2.351248847113715
 30
0.0
 10
7.871873643663194
 20
-2.338700188530816
 30
0.0
 10
7.666753980848524
 20
-2.172150505913629
 30
0.0
 10
7.475243462456596
 20
-1.98773447672526
 30
0.0
 10
7.260937160915798
 20
-1.832726372612847
 30
0.0
 10
7.063249376085069
 20
-1.68973880343967
 30
0.0
 10
6.824747721354166
 20
-1.560841878255208
 30
0.0
 10
6.572349548339844
 20
-1.589203728569878
 30
0.0
 10
6.343136257595486
 20
-1.614960564507378
 30
0.0
 10
6.140338473849826
 20
-1.823581271701389
 30
0.0
 10
6.200795491536458
 20
-2.066741943359375
 30
0.0
 10
6.223125881618923
 20
-2.15655771891276
 30
0.0
 10
6.320012410481771
 20
-2.266351487901475
 30
0.0
 10
6.420894198947482
 20
-2.267810397677951
 30
0.0
 10
6.478398640950521
 20
-2.268642001681858
 30
0.0
 10
6.484280904134114
 20
-2.217461480034722
 30
0.0
 10
6.448345608181423
 20
-2.181741502549913
 30
0.0
 10
6.429799397786458
 20
-2.163306342230903
 30
0.0
 10
6.393838670518663
 20
-2.148885938856337
 30
0.0
 10
6.398932562934028
 20
-2.189735412597656
 30
0.0
 10
6.294916788736979
 20
-2.177840338812934
 30
0.0
 10
6.288452996148003
 20
-2.046706305609809
 30
0.0
 10
6.304007636176215
 20
-1.966028001573351
 30
0.0
 10
6.323505825466579
 20
-1.864898681640625
 30
0.0
 10
6.384439256456163
 20
-1.766494750976562
 30
0.0
 10
6.478874206542969
 20
-1.720843844943576
 30
0.0
 10
6.674886915418837
 20
-1.626090155707465
 30
0.0
 10
6.919513278537326
 20
-1.720375061035156
 30
0.0
 10
7.094346788194444
 20
-1.819138420952691
 30
0.0
 10
7.234484354654947
 20
-1.900354173448351
 30
0.0
 10
7.362222459581163
 20
-2.000030517578125
 30
0.0
 10
7.485621982150607
 20
-2.104482862684462
 30
0.0
  0
SPLINE
  5
4A
330
1F
100
AcDbEntity
  8
Layer 1
370
     0
100
AcDbSpline
210
0.0
220
0.0
230
1.0
 70
    11
 71
     3
 72
   137
 73
   133
 74
     0
 42
0.0000000001
 43
0.0000000001
 12
1.0
 22
0.0
 32
0.0
 13
1.0
 23
0.0
 33
0.0
 40
0.0
 40
0.0
 40
0.0
 40
0.0
 40
1.0
 40
1.0
 40
1.0
 40
2.0
 40
2.0
 40
2.0
 40
3.0
 40
3.0
 40
3.0
 40
4.0
 40
4.0
 40
4.0
 40
5.0
 40
5.0
 40
5.0
 40
6.0
 40
6.0
 40
6.0
 40
7.0
 40
7.0
 40
7.0
 40
8.0
 40
8.0
 40
8.0
 40
9.0
 40
9.0
 40
9.0
 40
10.0
 40
10.0
 40
10.0
 40
11.0
 40
11.0
 40
11.0
 40
12.0
 40
12.0
 40
12.0
 40
13.0
 40
13.0
 40
13.0
 40
14.0
 40
14.0
 40
14.0
 40
15.0
 40
15.0
 40
15.0
 40
16.0
 40
16.0
 40
16.0
 40
17.0
 40
17.0
 40
17.0
 40
18.0
 40
18.0
 40
18.0
 40
19.0
 40
19.0
 40
19.0
 40
20.0
 40
20.0
 40
20.0
 40
21.0
 40
21.0
 40
21.0
 40
22.0
 40
22.0
 40
22.0
 40
23.0
 40
23.0
 40
23.0
 40
24.0
 40
24.0
 40
24.0
 40
25.0
 40
25.0
 40
25.0
 40
26.0
 40
26.0
 40
26.0
 40
27.0
 40
27.0
 40
27.0
 40
28.0
 40
28.0
 40
28.0
 40
29.0
 40
29.0
 40
29.0
 40
30.0
 40
30.0
 40
30.0
 40
31.0
 40
31.0
 40
31.0
 40
32.0
 40
32.0
 40
32.0
 40
33.0
 40
33.0
 40
33.0
 40
34.0
 40
34.0
 40
34.0
 40
35.0
 40
35.0
 40
35.0
 40
36.0
 40
36.0
 40
36.0
 40
37.0
 40
37.0
 40
37.0
 40
38.0
 40
38.0
 40
38.0
 40
39.0
 40
39.0
 40
39.0
 40
40.0
 40
40.0
 40
40.0
 40
41.0
 40
41.0
 40
41.0
 40
42.0
 40
42.0
 40
42.0
 40
43.0
 40
43.0
 40
43.0
 40
44.0
 40
44.0
 40
44.0
 40
44.0
 10
11.7499508327908
 20
-4.860422770182291
 30
0.0
 10
11.7499508327908
 20
-4.860422770182291
 30
0.0
 10
11.76272328694661
 20
-4.502867804633246
 30
0.0
 10
11.27320522732205
 20
-4.502867804633246
 30
0.0
 10
11.24366166856554
 20
-4.502867804633246
 30
0.0
 10
11.21352810329861
 20
-4.504078335232204
 30
0.0
 10
11.18298763699002
 20
-4.506195068359375
 30
0.0
 10
11.13804796006944
 20
-4.437224494086371
 30
0.0
 10
11.08394114176432
 20
-4.39917246500651
 30
0.0
 10
11.08394114176432
 20
-4.39917246500651
 30
0.0
 10
11.08394114176432
 20
-4.39917246500651
 30
0.0
 10
10.96698591444227
 20
-4.284817165798611
 30
0.0
 10
10.67589908175998
 20
-4.284817165798611
 30
0.0
 10
10.38480970594618
 20
-4.284817165798611
 30
0.0
 10
9.932582431369356
 20
-4.47194586859809
 30
0.0
 10
9.566122266981337
 20
-4.682465447319879
 30
0.0
 10
9.40906270345052
 20
-4.772690667046441
 30
0.0
 10
9.179918924967447
 20
-4.914008246527778
 30
0.0
 10
8.953778584798176
 20
-5.055245293511285
 30
0.0
 10
8.708008660210503
 20
-4.988285488552517
 30
0.0
 10
8.371921963161892
 20
-4.914121839735243
 30
0.0
 10
8.062831454806858
 20
-4.914121839735243
 30
0.0
 10
7.854619344075521
 20
-4.914121839735243
 30
0.0
 10
7.691185845269096
 20
-4.948499043782552
 30
0.0
 10
7.572964138454861
 20
-4.986946105957031
 30
0.0
 10
7.242589314778646
 20
-4.466995239257812
 30
0.0
 10
6.66166263156467
 20
-4.121898227267795
 30
0.0
 10
6.000001695421006
 20
-4.121898227267795
 30
0.0
 10
5.338338216145833
 20
-4.121898227267795
 30
0.0
 10
4.757410685221354
 20
-4.466995239257812
 30
0.0
 10
4.427035861545138
 20
-4.986946105957031
 30
0.0
 10
4.308814154730903
 20
-4.948499043782552
 30
0.0
 10
4.145380655924479
 20
-4.914121839735243
 30
0.0
 10
3.937168545193142
 20
-4.914121839735243
 30
0.0
 10
3.628078036838108
 20
-4.914121839735243
 30
0.0
 10
3.291991339789496
 20
-4.988285488552517
 30
0.0
 10
3.046221415201823
 20
-5.055245293511285
 30
0.0
 10
2.820081075032552
 20
-4.914008246527778
 30
0.0
 10
2.590937296549479
 20
-4.772690667046441
 30
0.0
 10
2.433877733018663
 20
-4.682465447319879
 30
0.0
 10
2.067417568630642
 20
-4.47194586859809
 30
0.0
 10
1.615190294053819
 20
-4.284817165798611
 30
0.0
 10
1.324100918240017
 20
-4.284817165798611
 30
0.0
 10
1.033014085557726
 20
-4.284817165798611
 30
0.0
 10
0.916058858235677
 20
-4.39917246500651
 30
0.0
 10
0.916058858235677
 20
-4.39917246500651
 30
0.0
 10
0.916058858235677
 20
-4.39917246500651
 30
0.0
 10
0.8619520399305555
 20
-4.437224494086371
 30
0.0
 10
0.8170123630099826
 20
-4.506195068359375
 30
0.0
 10
0.7864718967013888
 20
-4.504078335232204
 30
0.0
 10
0.7563383314344617
 20
-4.502867804633246
 30
0.0
 10
0.7267947726779513
 20
-4.502867804633246
 30
0.0
 10
0.2372767130533854
 20
-4.502867804633246
 30
0.0
 10
0.2500491672092014
 20
-4.860422770182291
 30
0.0
 10
0.2500491672092014
 20
-4.860422770182291
 30
0.0
 10
0.2500491672092014
 20
-4.860422770182291
 30
0.0
 10
0.25
 20
-4.869594150119357
 30
0.0
 10
0.25
 20
-4.869594150119357
 30
0.0
 10
0.25
 20
-5.116783989800347
 30
0.0
 10
0.49603271484375
 20
-5.484523349338107
 30
0.0
 10
1.173824734157986
 20
-5.484523349338107
 30
0.0
 10
1.609514024522569
 20
-5.484523349338107
 30
0.0
 10
2.069245232476129
 20
-5.376746283637153
 30
0.0
 10
2.390015496148003
 20
-5.284922281901041
 30
0.0
 10
2.660364786783854
 20
-5.44919670952691
 30
0.0
 10
2.973634507921007
 20
-5.640866597493489
 30
0.0
 10
3.080722384982639
 20
-5.707499186197916
 30
0.0
 10
3.081780327690972
 20
-5.708157857259114
 30
0.0
 10
3.083288404676649
 20
-5.709075927734375
 30
0.0
 10
3.084373474121094
 20
-5.709749857584635
 30
0.0
 10
2.782406277126736
 20
-5.793076409233941
 30
0.0
 10
2.421542697482639
 20
-5.884363810221354
 30
0.0
 10
2.049223158094618
 20
-5.884363810221354
 30
0.0
 10
1.646184285481771
 20
-5.884363810221354
 30
0.0
 10
1.46986813015408
 20
-5.658493889702691
 30
0.0
 10
1.468132019042969
 20
-5.656179640028212
 30
0.0
 10
1.463319566514757
 20
-5.64984385172526
 30
0.0
 10
1.454274495442708
 20
-5.648564656575521
 30
0.0
 10
1.447938707139757
 20
-5.653438144259982
 30
0.0
 10
1.441603766547309
 20
-5.658189561631944
 30
0.0
 10
1.440355088975694
 20
-5.667204962836371
 30
0.0
 10
1.445167541503906
 20
-5.673600938585069
 30
0.0
 10
1.452538384331597
 20
-5.683347066243489
 30
0.0
 10
1.631017049153646
 20
-5.913236829969618
 30
0.0
 10
2.049223158094618
 20
-5.913236829969618
 30
0.0
 10
2.436043633355034
 20
-5.913236829969618
 30
0.0
 10
2.809021843804253
 20
-5.816014607747396
 30
0.0
 10
3.117788526746962
 20
-5.730361090766059
 30
0.0
 10
3.333119710286458
 20
-5.862331814236111
 30
0.0
 10
3.887222290039062
 20
-6.186292860243055
 30
0.0
 10
4.153405931260851
 20
-6.224935743543837
 30
0.0
 10
4.271442837185329
 20
-7.139931572808159
 30
0.0
 10
5.052876790364583
 20
-7.847035725911458
 30
0.0
 10
6.000001695421006
 20
-7.847035725911458
 30
0.0
 10
6.947123209635416
 20
-7.847035725911458
 30
0.0
 10
7.72855716281467
 20
-7.139931572808159
 30
0.0
 10
7.846594068739149
 20
-6.224935743543837
 30
0.0
 10
8.112777709960938
 20
-6.186292860243055
 30
0.0
 10
8.666880289713541
 20
-5.862331814236111
 30
0.0
 10
8.882211473253038
 20
-5.730361090766059
 30
0.0
 10
9.190978156195746
 20
-5.816014607747396
 30
0.0
 10
9.563956366644964
 20
-5.913236829969618
 30
0.0
 10
9.950776841905382
 20
-5.913236829969618
 30
0.0
 10
10.36898295084635
 20
-5.913236829969618
 30
0.0
 10
10.5474616156684
 20
-5.683347066243489
 30
0.0
 10
10.55483245849609
 20
-5.673600938585069
 30
0.0
 10
10.55964491102431
 20
-5.667204962836371
 30
0.0
 10
10.55839623345269
 20
-5.658189561631944
 30
0.0
 10
10.55206129286024
 20
-5.653438144259982
 30
0.0
 10
10.54572550455729
 20
-5.648564656575521
 30
0.0
 10
10.53668043348524
 20
-5.64984385172526
 30
0.0
 10
10.53186798095703
 20
-5.656179640028212
 30
0.0
 10
10.53013186984592
 20
-5.658493889702691
 30
0.0
 10
10.35381571451823
 20
-5.884363810221354
 30
0.0
 10
9.950776841905382
 20
-5.884363810221354
 30
0.0
 10
9.57845730251736
 20
-5.884363810221354
 30
0.0
 10
9.217593722873263
 20
-5.793076409233941
 30
0.0
 10
8.915626525878906
 20
-5.709749857584635
 30
0.0
 10
8.916711595323351
 20
-5.709075927734375
 30
0.0
 10
8.918219672309027
 20
-5.708157857259114
 30
0.0
 10
8.91927761501736
 20
-5.707499186197916
 30
0.0
 10
9.026365492078993
 20
-5.640866597493489
 30
0.0
 10
9.339635213216145
 20
-5.44919670952691
 30
0.0
 10
9.609984503851996
 20
-5.284922281901041
 30
0.0
 10
9.93075476752387
 20
-5.376746283637153
 30
0.0
 10
10.39048597547743
 20
-5.484523349338107
 30
0.0
 10
10.82617526584201
 20
-5.484523349338107
 30
0.0
 10
11.50396728515625
 20
-5.484523349338107
 30
0.0
 10
11.75
 20
-5.116783989800347
 30
0.0
 10
11.75
 20
-4.869594150119357
 30
0.0
 10
11.75
 20
-4.869594150119357
 30
0.0
 10
11.7499508327908
 20
-4.860422770182291
 30
0.0
 10
11.7499508327908
 20
-4.860422770182291
 30
0.0
  0
SPLINE
  5
4B
330
1F
100
AcDbEntity
  8
Layer 1
370
     0
100
AcDbSpline
210
0.0
220
0.0
230
1.0
 70
    11
 71
     3
 72
    65
 73
    61
 74
     0
 42
0.0000000001
 43
0.0000000001
 12
1.0
 22
0.0
 32
0.0
 13
1.0
 23
0.0
 33
0.0
 40
0.0
 40
0.0
 40
0.0
 40
0.0
 40
1.0
 40
1.0
 40
1.0
 40
2.0
 40
2.0
 40
2.0
 40
3.0
 40
3.0
 40
3.0
 40
4.0
 40
4.0
 40
4.0
 40
5.0
 40
5.0
 40
5.0
 40
6.0
 40
6.0
 40
6.0
 40
7.0
 40
7.0
 40
7.0
 40
8.0
 40
8.0
 40
8.0
 40
9.0
 40
9.0
 40
9.0
 40
10.0
 40
10.0
 40
10.0
 40
11.0
 40
11.0
 40
11.0
 40
12.0
 40
12.0
 40
12.0
 40
13.0
 40
13.0
 40
13.0
 40
14.0
 40
14.0
 40
14.0
 40
15.0
 40
15.0
 40
15.0
 40
16.0
 40
16.0
 40
16.0
 40
17.0
 40
17.0
 40
17.0
 40
18.0
 40
18.0
 40
18.0
 40
19.0
 40
19.0
 40
19.0
 40
20.0
 40
20.0
 40
20.0
 40
20.0
 10
1.173824734157986
 20
-5.45564948187934
 30
0.0
 10
0.5171695285373263
 20
-5.45564948187934
 30
0.0
 10
0.2788128323025174
 20
-5.105210198296441
 30
0.0
 10
0.2788128323025174
 20
-4.869898478190104
 30
0.0
 10
0.2788128323025174
 20
-4.869898478190104
 30
0.0
 10
0.2789459228515625
 20
-4.860422770182291
 30
0.0
 10
0.2789459228515625
 20
-4.860422770182291
 30
0.0
 10
0.2789459228515625
 20
-4.860422770182291
 30
0.0
 10
0.2661768595377604
 20
-4.577616373697916
 30
0.0
 10
0.755690680609809
 20
-4.577616373697916
 30
0.0
 10
0.755690680609809
 20
-4.577616373697916
 30
0.0
 10
0.7643517388237847
 20
-4.578031751844618
 30
0.0
 10
0.7799267239040798
 20
-4.579364352756076
 30
0.0
 10
0.7633243136935763
 20
-4.623317294650607
 30
0.0
 10
0.7537222968207465
 20
-4.674287584092881
 30
0.0
 10
0.7596537272135416
 20
-4.731965806749131
 30
0.0
 10
0.7809931437174479
 20
-4.939500596788194
 30
0.0
 10
0.9786936442057291
 20
-5.251864963107638
 30
0.0
 10
1.418399386935764
 20
-5.206651475694444
 30
0.0
 10
1.620695326063368
 20
-5.185849507649739
 30
0.0
 10
1.654366387261285
 20
-5.096164279513888
 30
0.0
 10
1.64701419406467
 20
-5.024662441677517
 30
0.0
 10
1.64701419406467
 20
-4.994673834906684
 30
0.0
 10
1.622701856825087
 20
-4.9703614976671
 30
0.0
 10
1.592709011501736
 20
-4.9703614976671
 30
0.0
 10
1.562720404730903
 20
-4.9703614976671
 30
0.0
 10
1.538408067491319
 20
-4.994673834906684
 30
0.0
 10
1.538408067491319
 20
-5.024662441677517
 30
0.0
 10
1.538408067491319
 20
-5.04795413547092
 30
0.0
 10
1.55322519938151
 20
-5.067442999945746
 30
0.0
 10
1.573826260036892
 20
-5.075152926974826
 30
0.0
 10
1.573826260036892
 20
-5.075152926974826
 30
0.0
 10
1.573772854275173
 20
-5.075255499945746
 30
0.0
 10
1.573772854275173
 20
-5.075255499945746
 30
0.0
 10
1.584459092881944
 20
-5.079169379340278
 30
0.0
 10
1.59208509657118
 20
-5.089429219563802
 30
0.0
 10
1.59208509657118
 20
-5.101467556423611
 30
0.0
 10
1.59208509657118
 20
-5.107570224338107
 30
0.0
 10
1.589693705240885
 20
-5.112881130642361
 30
0.0
 10
1.586370680067274
 20
-5.117476569281684
 30
0.0
 10
1.55383046468099
 20
-5.149003770616319
 30
0.0
 10
1.497317843967014
 20
-5.169509039984809
 30
0.0
 10
1.415445115831163
 20
-5.177926805284288
 30
0.0
 10
0.9966447618272569
 20
-5.220993041992188
 30
0.0
 10
0.808514912923177
 20
-4.925467597113715
 30
0.0
 10
0.7883139716254339
 20
-4.729019165039062
 30
0.0
 10
0.7825690375434027
 20
-4.673130459255642
 30
0.0
 10
0.7925821940104166
 20
-4.62406751844618
 30
0.0
 10
0.8093677096896701
 20
-4.582277086046006
 30
0.0
 10
0.8976821899414062
 20
-4.591813829210069
 30
0.0
 10
1.084007263183594
 20
-4.619959513346354
 30
0.0
 10
1.281106736924913
 20
-4.699666341145833
 30
0.0
 10
1.531981574164496
 20
-4.801118638780381
 30
0.0
 10
1.770522223578559
 20
-4.920072767469618
 30
0.0
 10
1.952708774142795
 20
-5.022176106770833
 30
0.0
 10
1.988260057237413
 20
-5.041730244954427
 30
0.0
 10
2.157555474175347
 20
-5.143761528862847
 30
0.0
 10
2.356505499945746
 20
-5.264569600423177
 30
0.0
 10
2.03883785671658
 20
-5.354177686903212
 30
0.0
 10
1.594301011827257
 20
-5.45564948187934
 30
0.0
 10
1.173824734157986
 20
-5.45564948187934
 30
0.0
  0
SPLINE
  5
4C
330
1F
100
AcDbEntity
  8
Layer 1
370
     0
100
AcDbSpline
210
0.0
220
0.0
230
1.0
 70
    11
 71
     3
 72
    35
 73
    31
 74
     0
 42
0.0000000001
 43
0.0000000001
 12
1.0
 22
0.0
 32
0.0
 13
1.0
 23
0.0
 33
0.0
 40
0.0
 40
0.0
 40
0.0
 40
0.0
 40
1.0
 40
1.0
 40
1.0
 40
2.0
 40
2.0
 40
2.0
 40
3.0
 40
3.0
 40
3.0
 40
4.0
 40
4.0
 40
4.0
 40
5.0
 40
5.0
 40
5.0
 40
6.0
 40
6.0
 40
6.0
 40
7.0
 40
7.0
 40
7.0
 40
8.0
 40
8.0
 40
8.0
 40
9.0
 40
9.0
 40
9.0
 40
10.0
 40
10.0
 40
10.0
 40
10.0
 10
2.242161220974392
 20
-5.022176106770833
 30
0.0
 10
1.886308458116319
 20
-4.822742886013454
 30
0.0
 10
1.318785773383246
 20
-4.5521240234375
 30
0.0
 10
0.8492550320095485
 20
-4.50931633843316
 30
0.0
 10
0.8883845011393229
 20
-4.454048156738281
 30
0.0
 10
0.9315194023980035
 20
-4.423530578613281
 30
0.0
 10
0.9323721991644964
 20
-4.422971089680989
 30
0.0
 10
0.9323721991644964
 20
-4.422971089680989
 30
0.0
 10
1.055499606662326
 20
-4.294300503200954
 30
0.0
 10
1.322577582465278
 20
-4.343698289659288
 30
0.0
 10
1.603601243760851
 20
-4.39567396375868
 30
0.0
 10
1.969657897949219
 20
-4.551046583387587
 30
0.0
 10
2.275337219238281
 20
-4.726647271050347
 30
0.0
 10
2.432720608181424
 20
-4.817058987087673
 30
0.0
 10
2.662481519911024
 20
-4.958772447374131
 30
0.0
 10
2.889074537489149
 20
-5.100298563639322
 30
0.0
 10
2.841267903645833
 20
-5.114667256673177
 30
0.0
 10
2.799781799316406
 20
-5.127622816297743
 30
0.0
 10
2.767737494574653
 20
-5.137677510579427
 30
0.0
 10
2.767737494574653
 20
-5.137677510579427
 30
0.0
 10
2.757047017415364
 20
-5.141027662489149
 30
0.0
 10
2.757047017415364
 20
-5.141027662489149
 30
0.0
 10
2.740721808539496
 20
-5.146144443088107
 30
0.0
 10
2.720375908745659
 20
-5.152783711751302
 30
0.0
 10
2.696406894259983
 20
-5.160519917805989
 30
0.0
 10
2.657615661621094
 20
-5.173079596625434
 30
0.0
 10
2.607826232910156
 20
-5.1891114976671
 30
0.0
 10
2.55078379313151
 20
-5.206837972005208
 30
0.0
 10
2.395029703776042
 20
-5.112481858995225
 30
0.0
 10
2.27187262641059
 20
-5.038520812988281
 30
0.0
 10
2.242161220974392
 20
-5.022176106770833
 30
0.0
  0
SPLINE
  5
4D
330
1F
100
AcDbEntity
  8
Layer 1
370
     0
100
AcDbSpline
210
0.0
220
0.0
230
1.0
 70
    11
 71
     3
 72
    32
 73
    28
 74
     0
 42
0.0000000001
 43
0.0000000001
 12
1.0
 22
0.0
 32
0.0
 13
1.0
 23
0.0
 33
0.0
 40
0.0
 40
0.0
 40
0.0
 40
0.0
 40
1.0
 40
1.0
 40
1.0
 40
2.0
 40
2.0
 40
2.0
 40
3.0
 40
3.0
 40
3.0
 40
4.0
 40
4.0
 40
4.0
 40
5.0
 40
5.0
 40
5.0
 40
6.0
 40
6.0
 40
6.0
 40
7.0
 40
7.0
 40
7.0
 40
8.0
 40
8.0
 40
8.0
 40
9.0
 40
9.0
 40
9.0
 40
9.0
 10
3.283493889702691
 20
-5.65393320719401
 30
0.0
 10
3.118230183919271
 20
-5.552198621961805
 30
0.0
 10
2.820100572374132
 20
-5.370125664605035
 30
0.0
 10
2.58372328016493
 20
-5.226802402072482
 30
0.0
 10
2.630725436740451
 20
-5.212049696180555
 30
0.0
 10
2.671926710340712
 20
-5.198744032118055
 30
0.0
 10
2.705300225151909
 20
-5.187931484646267
 30
0.0
 10
2.72914801703559
 20
-5.180195278591579
 30
0.0
 10
2.749402364095052
 20
-5.173678080240885
 30
0.0
 10
2.765696207682292
 20
-5.168560451931423
 30
0.0
 10
2.765696207682292
 20
-5.168560451931423
 30
0.0
 10
2.776356167263455
 20
-5.165210300021701
 30
0.0
 10
2.776356167263455
 20
-5.165210300021701
 30
0.0
 10
2.813692728678385
 20
-5.153484768337673
 30
0.0
 10
2.863182067871094
 20
-5.137974209255642
 30
0.0
 10
2.92163340250651
 20
-5.12064446343316
 30
0.0
 10
3.211151123046875
 20
-5.301684909396701
 30
0.0
 10
3.489612155490451
 20
-5.478419833713107
 30
0.0
 10
3.59823015001085
 20
-5.542733934190538
 30
0.0
 10
3.6080568101671
 20
-5.548551771375868
 30
0.0
 10
3.618252224392361
 20
-5.554483201768663
 30
0.0
 10
3.628504435221354
 20
-5.560418023003472
 30
0.0
 10
3.502571953667534
 20
-5.591412014431423
 30
0.0
 10
3.385052998860677
 20
-5.624933878580729
 30
0.0
 10
3.283741421169704
 20
-5.653864542643229
 30
0.0
 10
3.283654106987847
 20
-5.653890821668837
 30
0.0
 10
3.283581203884548
 20
-5.653906080457899
 30
0.0
 10
3.283493889702691
 20
-5.65393320719401
 30
0.0
  0
SPLINE
  5
4E
330
1F
100
AcDbEntity
  8
Layer 1
370
     0
100
AcDbSpline
210
0.0
220
0.0
230
1.0
 70
    11
 71
     3
 72
    29
 73
    25
 74
     0
 42
0.0000000001
 43
0.0000000001
 12
1.0
 22
0.0
 32
0.0
 13
1.0
 23
0.0
 33
0.0
 40
0.0
 40
0.0
 40
0.0
 40
0.0
 40
1.0
 40
1.0
 40
1.0
 40
2.0
 40
2.0
 40
2.0
 40
3.0
 40
3.0
 40
3.0
 40
4.0
 40
4.0
 40
4.0
 40
5.0
 40
5.0
 40
5.0
 40
6.0
 40
6.0
 40
6.0
 40
7.0
 40
7.0
 40
7.0
 40
8.0
 40
8.0
 40
8.0
 40
8.0
 10
4.142441643608941
 20
-6.114295959472656
 30
0.0
 10
4.142441643608941
 20
-6.114295959472656
 30
0.0
 10
4.14243401421441
 20
-6.114254421657986
 30
0.0
 10
4.14243401421441
 20
-6.114234924316406
 30
0.0
 10
3.872093200683594
 20
-6.02001953125
 30
0.0
 10
3.518809848361545
 20
-5.799986097547743
 30
0.0
 10
3.370174831814236
 20
-5.707499186197916
 30
0.0
 10
3.355944315592448
 20
-5.698644002278646
 30
0.0
 10
3.337688869900173
 20
-5.687352498372396
 30
0.0
 10
3.316757202148438
 20
-5.674434238009982
 30
0.0
 10
3.420078701443142
 20
-5.644974602593316
 30
0.0
 10
3.538656446668837
 20
-5.61167738172743
 30
0.0
 10
3.665106031629774
 20
-5.581265767415364
 30
0.0
 10
3.789158291286892
 20
-5.650928921169704
 30
0.0
 10
3.943861219618055
 20
-5.726116604275173
 30
0.0
 10
4.147390577528212
 20
-5.791332668728298
 30
0.0
 10
4.147394816080729
 20
-5.791294521755642
 30
0.0
 10
4.14740244547526
 20
-5.791252983940972
 30
0.0
 10
4.14740244547526
 20
-5.791252983940972
 30
0.0
 10
4.140858120388454
 20
-5.854748196072048
 30
0.0
 10
4.13743167453342
 20
-5.919207255045572
 30
0.0
 10
4.13743167453342
 20
-5.984469095865885
 30
0.0
 10
4.13743167453342
 20
-6.028163486056857
 30
0.0
 10
4.139479743109809
 20
-6.071355183919271
 30
0.0
 10
4.142441643608941
 20
-6.114295959472656
 30
0.0
  0
SPLINE
  5
4F
330
1F
100
AcDbEntity
  8
Layer 1
370
     0
100
AcDbSpline
210
0.0
220
0.0
230
1.0
 70
    11
 71
     3
 72
    14
 73
    10
 74
     0
 42
0.0000000001
 43
0.0000000001
 12
1.0
 22
0.0
 32
0.0
 13
1.0
 23
0.0
 33
0.0
 40
0.0
 40
0.0
 40
0.0
 40
0.0
 40
1.0
 40
1.0
 40
1.0
 40
2.0
 40
2.0
 40
2.0
 40
3.0
 40
3.0
 40
3.0
 40
3.0
 10
4.159824795193142
 20
-5.69559817843967
 30
0.0
 10
4.031486511230469
 20
-5.646132575141059
 30
0.0
 10
3.925255669487847
 20
-5.593635559082031
 30
0.0
 10
3.835334777832031
 20
-5.543685913085938
 30
0.0
 10
3.956510755750868
 20
-5.519460890028212
 30
0.0
 10
4.081047905815972
 20
-5.500613742404513
 30
0.0
 10
4.203243679470486
 20
-5.492502848307291
 30
0.0
 10
4.185133192274305
 20
-5.558803134494357
 30
0.0
 10
4.170574612087673
 20
-5.626569112141927
 30
0.0
 10
4.159824795193142
 20
-5.69559817843967
 30
0.0
  0
SPLINE
  5
50
330
1F
100
AcDbEntity
  8
Layer 1
370
     0
100
AcDbSpline
210
0.0
220
0.0
230
1.0
 70
    11
 71
     3
 72
    26
 73
    22
 74
     0
 42
0.0000000001
 43
0.0000000001
 12
1.0
 22
0.0
 32
0.0
 13
1.0
 23
0.0
 33
0.0
 40
0.0
 40
0.0
 40
0.0
 40
0.0
 40
1.0
 40
1.0
 40
1.0
 40
2.0
 40
2.0
 40
2.0
 40
3.0
 40
3.0
 40
3.0
 40
4.0
 40
4.0
 40
4.0
 40
5.0
 40
5.0
 40
5.0
 40
6.0
 40
6.0
 40
6.0
 40
7.0
 40
7.0
 40
7.0
 40
7.0
 10
3.797134399414062
 20
-5.522084554036458
 30
0.0
 10
3.783318413628472
 20
-5.514146592881944
 30
0.0
 10
3.769833034939236
 20
-5.506284925672743
 30
0.0
 10
3.756770663791233
 20
-5.498552110460069
 30
0.0
 10
3.648088243272569
 20
-5.434199863009982
 30
0.0
 10
3.369356791178385
 20
-5.257286071777344
 30
0.0
 10
3.079644944932725
 20
-5.076134575737847
 30
0.0
 10
3.321188184950087
 20
-5.011543273925781
 30
0.0
 10
3.641916910807292
 20
-4.94299570719401
 30
0.0
 10
3.937168545193142
 20
-4.94299570719401
 30
0.0
 10
4.13630845811632
 20
-4.94299570719401
 30
0.0
 10
4.295108371310763
 20
-4.975831773546006
 30
0.0
 10
4.410852220323351
 20
-5.012776692708333
 30
0.0
 10
4.411070929633246
 20
-5.012419806586371
 30
0.0
 10
4.411309136284722
 20
-5.012077331542969
 30
0.0
 10
4.411528693305121
 20
-5.01172129313151
 30
0.0
 10
4.325959947374132
 20
-5.151176452636719
 30
0.0
 10
4.258263481987847
 20
-5.302759806315104
 30
0.0
 10
4.211563110351562
 20
-5.463299221462673
 30
0.0
 10
4.073701646592882
 20
-5.471805996365017
 30
0.0
 10
3.932835896809896
 20
-5.493834601508246
 30
0.0
 10
3.797134399414062
 20
-5.522084554036458
 30
0.0
  0
SPLINE
  5
51
330
1F
100
AcDbEntity
  8
Layer 1
370
     0
100
AcDbSpline
210
0.0
220
0.0
230
1.0
 70
    11
 71
     3
 72
    17
 73
    13
 74
     0
 42
0.0000000001
 43
0.0000000001
 12
1.0
 22
0.0
 32
0.0
 13
1.0
 23
0.0
 33
0.0
 40
0.0
 40
0.0
 40
0.0
 40
0.0
 40
1.0
 40
1.0
 40
1.0
 40
2.0
 40
2.0
 40
2.0
 40
3.0
 40
3.0
 40
3.0
 40
4.0
 40
4.0
 40
4.0
 40
4.0
 10
5.999998304578993
 20
-7.758633931477864
 30
0.0
 10
5.021715799967447
 20
-7.758633931477864
 30
0.0
 10
4.225841098361545
 20
-6.962728712293837
 30
0.0
 10
4.225841098361545
 20
-5.984446207682291
 30
0.0
 10
4.225841098361545
 20
-5.006163703070746
 30
0.0
 10
5.021715799967447
 20
-4.210258483886719
 30
0.0
 10
5.999998304578993
 20
-4.210258483886719
 30
0.0
 10
6.978280809190538
 20
-4.210258483886719
 30
0.0
 10
7.774186028374565
 20
-5.006163703070746
 30
0.0
 10
7.774186028374565
 20
-5.984446207682291
 30
0.0
 10
7.774186028374565
 20
-6.962728712293837
 30
0.0
 10
6.978280809190538
 20
-7.758633931477864
 30
0.0
 10
5.999998304578993
 20
-7.758633931477864
 30
0.0
  0
SPLINE
  5
52
330
1F
100
AcDbEntity
  8
Layer 1
370
     0
100
AcDbSpline
210
0.0
220
0.0
230
1.0
 70
    11
 71
     3
 72
    26
 73
    22
 74
     0
 42
0.0000000001
 43
0.0000000001
 12
1.0
 22
0.0
 32
0.0
 13
1.0
 23
0.0
 33
0.0
 40
0.0
 40
0.0
 40
0.0
 40
0.0
 40
1.0
 40
1.0
 40
1.0
 40
2.0
 40
2.0
 40
2.0
 40
3.0
 40
3.0
 40
3.0
 40
4.0
 40
4.0
 40
4.0
 40
5.0
 40
5.0
 40
5.0
 40
6.0
 40
6.0
 40
6.0
 40
7.0
 40
7.0
 40
7.0
 40
7.0
 10
7.588471306694878
 20
-5.01172129313151
 30
0.0
 10
7.588690863715278
 20
-5.012077331542969
 30
0.0
 10
7.588929070366753
 20
-5.012419806586371
 30
0.0
 10
7.589147779676649
 20
-5.012776692708333
 30
0.0
 10
7.704891628689236
 20
-4.975831773546006
 30
0.0
 10
7.86369154188368
 20
-4.94299570719401
 30
0.0
 10
8.062831454806858
 20
-4.94299570719401
 30
0.0
 10
8.358083089192707
 20
-4.94299570719401
 30
0.0
 10
8.678811815049913
 20
-5.011543273925781
 30
0.0
 10
8.920355055067274
 20
-5.076134575737847
 30
0.0
 10
8.630643208821613
 20
-5.257286071777344
 30
0.0
 10
8.35191175672743
 20
-5.434199863009982
 30
0.0
 10
8.243229336208767
 20
-5.498552110460069
 30
0.0
 10
8.230166965060764
 20
-5.506284925672743
 30
0.0
 10
8.216681586371527
 20
-5.514146592881944
 30
0.0
 10
8.202865600585938
 20
-5.522084554036458
 30
0.0
 10
8.067164103190104
 20
-5.493834601508246
 30
0.0
 10
7.926298353407118
 20
-5.471805996365017
 30
0.0
 10
7.788436889648438
 20
-5.463299221462673
 30
0.0
 10
7.741736518012153
 20
-5.302759806315104
 30
0.0
 10
7.674040052625868
 20
-5.151176452636719
 30
0.0
 10
7.588471306694878
 20
-5.01172129313151
 30
0.0
  0
SPLINE
  5
53
330
1F
100
AcDbEntity
  8
Layer 1
370
     0
100
AcDbSpline
210
0.0
220
0.0
230
1.0
 70
    11
 71
     3
 72
    14
 73
    10
 74
     0
 42
0.0000000001
 43
0.0000000001
 12
1.0
 22
0.0
 32
0.0
 13
1.0
 23
0.0
 33
0.0
 40
0.0
 40
0.0
 40
0.0
 40
0.0
 40
1.0
 40
1.0
 40
1.0
 40
2.0
 40
2.0
 40
2.0
 40
3.0
 40
3.0
 40
3.0
 40
3.0
 10
7.840175204806857
 20
-5.69559817843967
 30
0.0
 10
7.829425387912326
 20
-5.626569112141927
 30
0.0
 10
7.814866807725694
 20
-5.558803134494357
 30
0.0
 10
7.796756320529513
 20
-5.492502848307291
 30
0.0
 10
7.918952094184028
 20
-5.500613742404513
 30
0.0
 10
8.043489244249132
 20
-5.519460890028212
 30
0.0
 10
8.164665222167969
 20
-5.543685913085938
 30
0.0
 10
8.074744330512152
 20
-5.593635559082031
 30
0.0
 10
7.968513488769531
 20
-5.646132575141059
 30
0.0
 10
7.840175204806857
 20
-5.69559817843967
 30
0.0
  0
SPLINE
  5
54
330
1F
100
AcDbEntity
  8
Layer 1
370
     0
100
AcDbSpline
210
0.0
220
0.0
230
1.0
 70
    11
 71
     3
 72
    29
 73
    25
 74
     0
 42
0.0000000001
 43
0.0000000001
 12
1.0
 22
0.0
 32
0.0
 13
1.0
 23
0.0
 33
0.0
 40
0.0
 40
0.0
 40
0.0
 40
0.0
 40
1.0
 40
1.0
 40
1.0
 40
2.0
 40
2.0
 40
2.0
 40
3.0
 40
3.0
 40
3.0
 40
4.0
 40
4.0
 40
4.0
 40
5.0
 40
5.0
 40
5.0
 40
6.0
 40
6.0
 40
6.0
 40
7.0
 40
7.0
 40
7.0
 40
8.0
 40
8.0
 40
8.0
 40
8.0
 10
8.629825168185764
 20
-5.707499186197916
 30
0.0
 10
8.481190151638454
 20
-5.799986097547743
 30
0.0
 10
8.127906799316406
 20
-6.02001953125
 30
0.0
 10
7.85756598578559
 20
-6.114234924316406
 30
0.0
 10
7.85756598578559
 20
-6.114234924316406
 30
0.0
 10
7.857558356391059
 20
-6.114295959472656
 30
0.0
 10
7.857558356391059
 20
-6.114295959472656
 30
0.0
 10
7.86052025689019
 20
-6.071355183919271
 30
0.0
 10
7.862568325466579
 20
-6.028163486056857
 30
0.0
 10
7.862568325466579
 20
-5.984469095865885
 30
0.0
 10
7.862568325466579
 20
-5.919207255045572
 30
0.0
 10
7.859141879611545
 20
-5.854748196072048
 30
0.0
 10
7.852594163682725
 20
-5.791214836968316
 30
0.0
 10
7.852594163682725
 20
-5.791214836968316
 30
0.0
 10
7.852605183919271
 20
-5.791294521755642
 30
0.0
 10
7.852609422471788
 20
-5.791332668728298
 30
0.0
 10
8.056138780381945
 20
-5.726116604275173
 30
0.0
 10
8.210841708713108
 20
-5.650928921169704
 30
0.0
 10
8.334893968370226
 20
-5.581265767415364
 30
0.0
 10
8.461343553331163
 20
-5.61167738172743
 30
0.0
 10
8.579921298556858
 20
-5.644974602593316
 30
0.0
 10
8.683242797851562
 20
-5.674434238009982
 30
0.0
 10
8.662311130099827
 20
-5.687352498372396
 30
0.0
 10
8.644055684407551
 20
-5.698644002278646
 30
0.0
 10
8.629825168185764
 20
-5.707499186197916
 30
0.0
  0
SPLINE
  5
55
330
1F
100
AcDbEntity
  8
Layer 1
370
     0
100
AcDbSpline
210
0.0
220
0.0
230
1.0
 70
    11
 71
     3
 72
    32
 73
    28
 74
     0
 42
0.0000000001
 43
0.0000000001
 12
1.0
 22
0.0
 32
0.0
 13
1.0
 23
0.0
 33
0.0
 40
0.0
 40
0.0
 40
0.0
 40
0.0
 40
1.0
 40
1.0
 40
1.0
 40
2.0
 40
2.0
 40
2.0
 40
3.0
 40
3.0
 40
3.0
 40
4.0
 40
4.0
 40
4.0
 40
5.0
 40
5.0
 40
5.0
 40
6.0
 40
6.0
 40
6.0
 40
7.0
 40
7.0
 40
7.0
 40
8.0
 40
8.0
 40
8.0
 40
9.0
 40
9.0
 40
9.0
 40
9.0
 10
8.716506110297308
 20
-5.65393320719401
 30
0.0
 10
8.716418796115452
 20
-5.653906080457899
 30
0.0
 10
8.716345893012152
 20
-5.653890821668837
 30
0.0
 10
8.716258578830296
 20
-5.653864542643229
 30
0.0
 10
8.614947001139322
 20
-5.624933878580729
 30
0.0
 10
8.497428046332464
 20
-5.591412014431423
 30
0.0
 10
8.371495564778645
 20
-5.560418023003472
 30
0.0
 10
8.38174777560764
 20
-5.554483201768663
 30
0.0
 10
8.391943189832899
 20
-5.548551771375868
 30
0.0
 10
8.401769849989149
 20
-5.542733934190538
 30
0.0
 10
8.510387844509548
 20
-5.478419833713107
 30
0.0
 10
8.788848876953125
 20
-5.301684909396701
 30
0.0
 10
9.078366597493488
 20
-5.12064446343316
 30
0.0
 10
9.136817932128906
 20
-5.137974209255642
 30
0.0
 10
9.186307271321613
 20
-5.153484768337673
 30
0.0
 10
9.223643832736544
 20
-5.165210300021701
 30
0.0
 10
9.223643832736544
 20
-5.165210300021701
 30
0.0
 10
9.234303792317707
 20
-5.168560451931423
 30
0.0
 10
9.234303792317707
 20
-5.168560451931423
 30
0.0
 10
9.250597635904947
 20
-5.173678080240885
 30
0.0
 10
9.270851982964409
 20
-5.180195278591579
 30
0.0
 10
9.29469977484809
 20
-5.187931484646267
 30
0.0
 10
9.328073289659288
 20
-5.198744032118055
 30
0.0
 10
9.369274563259548
 20
-5.212049696180555
 30
0.0
 10
9.41627671983507
 20
-5.226802402072482
 30
0.0
 10
9.179899427625868
 20
-5.370125664605035
 30
0.0
 10
8.881769816080729
 20
-5.552198621961805
 30
0.0
 10
8.716506110297308
 20
-5.65393320719401
 30
0.0
  0
SPLINE
  5
56
330
1F
100
AcDbEntity
  8
Layer 1
370
     0
100
AcDbSpline
210
0.0
220
0.0
230
1.0
 70
    11
 71
     3
 72
    35
 73
    31
 74
     0
 42
0.0000000001
 43
0.0000000001
 12
1.0
 22
0.0
 32
0.0
 13
1.0
 23
0.0
 33
0.0
 40
0.0
 40
0.0
 40
0.0
 40
0.0
 40
1.0
 40
1.0
 40
1.0
 40
2.0
 40
2.0
 40
2.0
 40
3.0
 40
3.0
 40
3.0
 40
4.0
 40
4.0
 40
4.0
 40
5.0
 40
5.0
 40
5.0
 40
6.0
 40
6.0
 40
6.0
 40
7.0
 40
7.0
 40
7.0
 40
8.0
 40
8.0
 40
8.0
 40
9.0
 40
9.0
 40
9.0
 40
10.0
 40
10.0
 40
10.0
 40
10.0
 10
9.449216206868488
 20
-5.206837972005208
 30
0.0
 10
9.392173767089844
 20
-5.1891114976671
 30
0.0
 10
9.342384338378906
 20
-5.173079596625434
 30
0.0
 10
9.303593105740017
 20
-5.160519917805989
 30
0.0
 10
9.27962409125434
 20
-5.152783711751302
 30
0.0
 10
9.259278191460503
 20
-5.146144443088107
 30
0.0
 10
9.242952982584635
 20
-5.141027662489149
 30
0.0
 10
9.242952982584635
 20
-5.141027662489149
 30
0.0
 10
9.232262505425346
 20
-5.137677510579427
 30
0.0
 10
9.232262505425346
 20
-5.137677510579427
 30
0.0
 10
9.200218200683594
 20
-5.127622816297743
 30
0.0
 10
9.158732096354166
 20
-5.114667256673177
 30
0.0
 10
9.110925462510851
 20
-5.100298563639322
 30
0.0
 10
9.337518480088976
 20
-4.958772447374131
 30
0.0
 10
9.567279391818575
 20
-4.817058987087673
 30
0.0
 10
9.724662780761719
 20
-4.726647271050347
 30
0.0
 10
10.03034210205078
 20
-4.551046583387587
 30
0.0
 10
10.39639875623915
 20
-4.39567396375868
 30
0.0
 10
10.67742241753472
 20
-4.343698289659288
 30
0.0
 10
10.94450039333767
 20
-4.294300503200954
 30
0.0
 10
11.0676278008355
 20
-4.422971089680989
 30
0.0
 10
11.0676278008355
 20
-4.422971089680989
 30
0.0
 10
11.068480597602
 20
-4.423530578613281
 30
0.0
 10
11.11161549886068
 20
-4.454048156738281
 30
0.0
 10
11.15074496799045
 20
-4.50931633843316
 30
0.0
 10
10.68121422661675
 20
-4.5521240234375
 30
0.0
 10
10.11369154188368
 20
-4.822742886013454
 30
0.0
 10
9.757838779025606
 20
-5.022176106770833
 30
0.0
 10
9.728127373589409
 20
-5.038520812988281
 30
0.0
 10
9.604970296223957
 20
-5.112481858995225
 30
0.0
 10
9.449216206868488
 20
-5.206837972005208
 30
0.0
  0
SPLINE
  5
57
330
1F
100
AcDbEntity
  8
Layer 1
370
     0
100
AcDbSpline
210
0.0
220
0.0
230
1.0
 70
    11
 71
     3
 72
    65
 73
    61
 74
     0
 42
0.0000000001
 43
0.0000000001
 12
1.0
 22
0.0
 32
0.0
 13
1.0
 23
0.0
 33
0.0
 40
0.0
 40
0.0
 40
0.0
 40
0.0
 40
1.0
 40
1.0
 40
1.0
 40
2.0
 40
2.0
 40
2.0
 40
3.0
 40
3.0
 40
3.0
 40
4.0
 40
4.0
 40
4.0
 40
5.0
 40
5.0
 40
5.0
 40
6.0
 40
6.0
 40
6.0
 40
7.0
 40
7.0
 40
7.0
 40
8.0
 40
8.0
 40
8.0
 40
9.0
 40
9.0
 40
9.0
 40
10.0
 40
10.0
 40
10.0
 40
11.0
 40
11.0
 40
11.0
 40
12.0
 40
12.0
 40
12.0
 40
13.0
 40
13.0
 40
13.0
 40
14.0
 40
14.0
 40
14.0
 40
15.0
 40
15.0
 40
15.0
 40
16.0
 40
16.0
 40
16.0
 40
17.0
 40
17.0
 40
17.0
 40
18.0
 40
18.0
 40
18.0
 40
19.0
 40
19.0
 40
19.0
 40
20.0
 40
20.0
 40
20.0
 40
20.0
 10
10.82617526584201
 20
-5.45564948187934
 30
0.0
 10
10.40569898817274
 20
-5.45564948187934
 30
0.0
 10
9.961162143283419
 20
-5.354177686903212
 30
0.0
 10
9.643494500054253
 20
-5.264569600423177
 30
0.0
 10
9.842444525824652
 20
-5.143761528862847
 30
0.0
 10
10.01173994276259
 20
-5.041730244954427
 30
0.0
 10
10.0472912258572
 20
-5.022176106770833
 30
0.0
 10
10.22947777642144
 20
-4.920072767469618
 30
0.0
 10
10.4680184258355
 20
-4.801118638780381
 30
0.0
 10
10.71889326307509
 20
-4.699666341145833
 30
0.0
 10
10.91599273681641
 20
-4.619959513346354
 30
0.0
 10
11.10231781005859
 20
-4.591813829210069
 30
0.0
 10
11.19063229031033
 20
-4.582277086046006
 30
0.0
 10
11.20741780598958
 20
-4.62406751844618
 30
0.0
 10
11.2174309624566
 20
-4.673130459255642
 30
0.0
 10
11.21168602837457
 20
-4.729019165039062
 30
0.0
 10
11.19148508707682
 20
-4.925467597113715
 30
0.0
 10
11.00335523817274
 20
-5.220993041992188
 30
0.0
 10
10.58455488416884
 20
-5.177926805284288
 30
0.0
 10
10.50268215603299
 20
-5.169509039984809
 30
0.0
 10
10.44616953531901
 20
-5.149003770616319
 30
0.0
 10
10.41362931993273
 20
-5.117476569281684
 30
0.0
 10
10.41030629475911
 20
-5.112881130642361
 30
0.0
 10
10.40791490342882
 20
-5.107570224338107
 30
0.0
 10
10.40791490342882
 20
-5.101467556423611
 30
0.0
 10
10.40791490342882
 20
-5.089429219563802
 30
0.0
 10
10.41554090711806
 20
-5.079169379340278
 30
0.0
 10
10.42622714572483
 20
-5.075255499945746
 30
0.0
 10
10.42622714572483
 20
-5.075255499945746
 30
0.0
 10
10.42617373996311
 20
-5.075152926974826
 30
0.0
 10
10.42617373996311
 20
-5.075152926974826
 30
0.0
 10
10.44677480061849
 20
-5.067442999945746
 30
0.0
 10
10.46159193250868
 20
-5.04795413547092
 30
0.0
 10
10.46159193250868
 20
-5.024662441677517
 30
0.0
 10
10.46159193250868
 20
-4.994673834906684
 30
0.0
 10
10.4372795952691
 20
-4.9703614976671
 30
0.0
 10
10.40729098849826
 20
-4.9703614976671
 30
0.0
 10
10.37729814317491
 20
-4.9703614976671
 30
0.0
 10
10.35298580593533
 20
-4.994673834906684
 30
0.0
 10
10.35298580593533
 20
-5.024662441677517
 30
0.0
 10
10.34563361273871
 20
-5.096164279513888
 30
0.0
 10
10.37930467393663
 20
-5.185849507649739
 30
0.0
 10
10.58160061306424
 20
-5.206651475694444
 30
0.0
 10
11.02130635579427
 20
-5.251864963107638
 30
0.0
 10
11.21900685628255
 20
-4.939500596788194
 30
0.0
 10
11.24034627278646
 20
-4.731965806749131
 30
0.0
 10
11.24627770317925
 20
-4.674287584092881
 30
0.0
 10
11.23667568630642
 20
-4.623317294650607
 30
0.0
 10
11.22007327609592
 20
-4.579364352756076
 30
0.0
 10
11.23564826117621
 20
-4.578031751844618
 30
0.0
 10
11.24430931939019
 20
-4.577616373697916
 30
0.0
 10
11.24430931939019
 20
-4.577616373697916
 30
0.0
 10
11.73382314046224
 20
-4.577616373697916
 30
0.0
 10
11.72105407714844
 20
-4.860422770182291
 30
0.0
 10
11.72105407714844
 20
-4.860422770182291
 30
0.0
 10
11.72105407714844
 20
-4.860422770182291
 30
0.0
 10
11.72118716769748
 20
-4.869898478190104
 30
0.0
 10
11.72118716769748
 20
-4.869898478190104
 30
0.0
 10
11.72118716769748
 20
-5.105210198296441
 30
0.0
 10
11.48283047146267
 20
-5.45564948187934
 30
0.0
 10
10.82617526584201
 20
-5.45564948187934
 30
0.0
  0
SPLINE
  5
58
330
1F
100
AcDbEntity
  8
Layer 1
370
     0
100
AcDbSpline
210
0.0
220
0.0
230
1.0
 70
    11
 71
     3
 72
    17
 73
    13
 74
     0
 42
0.0000000001
 43
0.0000000001
 12
1.0
 22
0.0
 32
0.0
 13
1.0
 23
0.0
 33
0.0
 40
0.0
 40
0.0
 40
0.0
 40
0.0
 40
1.0
 40
1.0
 40
1.0
 40
2.0
 40
2.0
 40
2.0
 40
3.0
 40
3.0
 40
3.0
 40
4.0
 40
4.0
 40
4.0
 40
4.0
 10
6.00000254313151
 20
-4.746735466851129
 30
0.0
 10
5.317532009548611
 20
-4.746735466851129
 30
0.0
 10
4.762312995062934
 20
-5.301975674099392
 30
0.0
 10
4.762312995062934
 20
-5.984446207682291
 30
0.0
 10
4.762312995062934
 20
-6.66691674126519
 30
0.0
 10
5.317532009548611
 20
-7.222156948513454
 30
0.0
 10
6.00000254313151
 20
-7.222156948513454
 30
0.0
 10
6.682473076714409
 20
-7.222156948513454
 30
0.0
 10
7.237713283962673
 20
-6.66691674126519
 30
0.0
 10
7.237713283962673
 20
-5.984446207682291
 30
0.0
 10
7.237713283962673
 20
-5.301975674099392
 30
0.0
 10
6.682473076714409
 20
-4.746735466851129
 30
0.0
 10
6.00000254313151
 20
-4.746735466851129
 30
0.0
  0
SPLINE
  5
59
330
1F
100
AcDbEntity
  8
Layer 1
370
     0
100
AcDbSpline
210
0.0
220
0.0
230
1.0
 70
    11
 71
     3
 72
    32
 73
    28
 74
     0
 42
0.0000000001
 43
0.0000000001
 12
1.0
 22
0.0
 32
0.0
 13
1.0
 23
0.0
 33
0.0
 40
0.0
 40
0.0
 40
0.0
 40
0.0
 40
1.0
 40
1.0
 40
1.0
 40
2.0
 40
2.0
 40
2.0
 40
3.0
 40
3.0
 40
3.0
 40
4.0
 40
4.0
 40
4.0
 40
5.0
 40
5.0
 40
5.0
 40
6.0
 40
6.0
 40
6.0
 40
7.0
 40
7.0
 40
7.0
 40
8.0
 40
8.0
 40
8.0
 40
9.0
 40
9.0
 40
9.0
 40
9.0
 10
3.251818339029948
 20
-10.10920206705729
 30
0.0
 10
3.286871168348524
 20
-10.10899522569444
 30
0.0
 10
3.321971469455295
 20
-10.10663859049479
 30
0.0
 10
3.356756422254774
 20
-10.10233391655816
 30
0.0
 10
3.384824964735243
 20
-10.09886084662543
 30
0.0
 10
3.400697496202257
 20
-10.10154130723741
 30
0.0
 10
3.41290537516276
 20
-10.08123609754774
 30
0.0
 10
3.420986599392361
 20
-10.06779395209418
 30
0.0
 10
3.419554816351996
 20
-10.0305413140191
 30
0.0
 10
3.419949849446614
 20
-10.01671091715495
 30
0.0
 10
3.2972657945421
 20
-10.03779686821832
 30
0.0
 10
3.16630130343967
 20
-10.03364393446181
 30
0.0
 10
3.044459025065104
 20
-10.00901540120443
 30
0.0
 10
2.986271328396267
 20
-9.99725341796875
 30
0.0
 10
2.928883870442708
 20
-9.980098300509981
 30
0.0
 10
2.876680162217882
 20
-9.951320224338106
 30
0.0
 10
2.851514180501302
 20
-9.937447441948784
 30
0.0
 10
2.825756496853299
 20
-9.908576965332031
 30
0.0
 10
2.800040351019965
 20
-9.898423936631945
 30
0.0
 10
2.772403293185764
 20
-9.887513902452257
 30
0.0
 10
2.722935994466146
 20
-9.893428378634981
 30
0.0
 10
2.693435668945312
 20
-9.89404296875
 30
0.0
 10
2.776270548502604
 20
-9.998675876193575
 30
0.0
 10
2.907527499728733
 20
-10.05355241563585
 30
0.0
 10
3.03414069281684
 20
-10.0836910671658
 30
0.0
 10
3.105350918240017
 20
-10.10064273410373
 30
0.0
 10
3.178582933213975
 20
-10.10963524712457
 30
0.0
 10
3.251818339029948
 20
-10.10920206705729
 30
0.0
  0
SPLINE
  5
5A
330
1F
100
AcDbEntity
  8
Layer 1
370
     0
100
AcDbSpline
210
0.0
220
0.0
230
1.0
 70
    11
 71
     3
 72
   101
 73
    97
 74
     0
 42
0.0000000001
 43
0.0000000001
 12
1.0
 22
0.0
 32
0.0
 13
1.0
 23
0.0
 33
0.0
 40
0.0
 40
0.0
 40
0.0
 40
0.0
 40
1.0
 40
1.0
 40
1.0
 40
2.0
 40
2.0
 40
2.0
 40
3.0
 40
3.0
 40
3.0
 40
4.0
 40
4.0
 40
4.0
 40
5.0
 40
5.0
 40
5.0
 40
6.0
 40
6.0
 40
6.0
 40
7.0
 40
7.0
 40
7.0
 40
8.0
 40
8.0
 40
8.0
 40
9.0
 40
9.0
 40
9.0
 40
10.0
 40
10.0
 40
10.0
 40
11.0
 40
11.0
 40
11.0
 40
12.0
 40
12.0
 40
12.0
 40
13.0
 40
13.0
 40
13.0
 40
14.0
 40
14.0
 40
14.0
 40
15.0
 40
15.0
 40
15.0
 40
16.0
 40
16.0
 40
16.0
 40
17.0
 40
17.0
 40
17.0
 40
18.0
 40
18.0
 40
18.0
 40
19.0
 40
19.0
 40
19.0
 40
20.0
 40
20.0
 40
20.0
 40
21.0
 40
21.0
 40
21.0
 40
22.0
 40
22.0
 40
22.0
 40
23.0
 40
23.0
 40
23.0
 40
24.0
 40
24.0
 40
24.0
 40
25.0
 40
25.0
 40
25.0
 40
26.0
 40
26.0
 40
26.0
 40
27.0
 40
27.0
 40
27.0
 40
28.0
 40
28.0
 40
28.0
 40
29.0
 40
29.0
 40
29.0
 40
30.0
 40
30.0
 40
30.0
 40
31.0
 40
31.0
 40
31.0
 40
32.0
 40
32.0
 40
32.0
 40
32.0
 10
2.180130004882812
 20
-9.891852484809027
 30
0.0
 10
2.22558848063151
 20
-9.84153578016493
 30
0.0
 10
2.214467366536458
 20
-9.853902180989582
 30
0.0
 10
2.196640862358941
 20
-9.873666551378038
 30
0.0
 10
2.246777004665799
 20
-9.818638271755642
 30
0.0
 10
2.297945658365885
 20
-9.76564704047309
 30
0.0
 10
2.360039605034722
 20
-9.723548041449652
 30
0.0
 10
2.400588989257812
 20
-9.696055942111544
 30
0.0
 10
2.443639119466146
 20
-9.671996222601996
 30
0.0
 10
2.487475077311198
 20
-9.650167677137587
 30
0.0
 10
2.508355882432725
 20
-9.639771355523003
 30
0.0
 10
2.538829379611545
 20
-9.632579379611544
 30
0.0
 10
2.557418823242188
 20
-9.618405659993488
 30
0.0
 10
2.5797364976671
 20
-9.618260701497395
 30
0.0
 10
2.587440490722656
 20
-9.60833994547526
 30
0.0
 10
2.580530802408854
 20
-9.58864508734809
 30
0.0
 10
2.580384148491753
 20
-9.574818929036457
 30
0.0
 10
2.580780877007378
 20
-9.561008877224392
 30
0.0
 10
2.581720987955729
 20
-9.547214931911892
 30
0.0
 10
2.367654588487413
 20
-9.640869140625
 30
0.0
 10
2.145875718858507
 20
-9.797784593370226
 30
0.0
 10
1.899087693956163
 20
-9.744039747450087
 30
0.0
 10
1.795166015625
 20
-9.721408420138888
 30
0.0
 10
1.695764329698351
 20
-9.640747918023003
 30
0.0
 10
1.735383775499132
 20
-9.523055182562933
 30
0.0
 10
1.751878526475694
 20
-9.474057515462238
 30
0.0
 10
1.802251180013021
 20
-9.424810621473524
 30
0.0
 10
1.857762654622396
 20
-9.427102830674913
 30
0.0
 10
1.913832770453559
 20
-9.429417928059895
 30
0.0
 10
1.907737731933594
 20
-9.484658983018663
 30
0.0
 10
1.948554144965278
 20
-9.50751241048177
 30
0.0
 10
2.000142415364583
 20
-9.53639645046658
 30
0.0
 10
2.036598205566406
 20
-9.48112572564019
 30
0.0
 10
2.026924133300781
 20
-9.432567172580294
 30
0.0
 10
2.016308254665799
 20
-9.379282633463541
 30
0.0
 10
1.95924801296658
 20
-9.355055067274305
 30
0.0
 10
1.910699632432726
 20
-9.349339803059895
 30
0.0
 10
1.791231791178385
 20
-9.335276285807291
 30
0.0
 10
1.687208387586805
 20
-9.411829630533854
 30
0.0
 10
1.665742662217882
 20
-9.529741923014322
 30
0.0
 10
1.64432610405816
 20
-9.647381252712673
 30
0.0
 10
1.715901692708333
 20
-9.754736158582899
 30
0.0
 10
1.822196112738715
 20
-9.800543891059027
 30
0.0
 10
1.941224839952257
 20
-9.851839701334635
 30
0.0
 10
2.059131198459201
 20
-9.825943840874565
 30
0.0
 10
2.17720964219835
 20
-9.785978529188368
 30
0.0
 10
1.839263916015625
 20
-10.0296139187283
 30
0.0
 10
1.512580871582031
 20
-10.30092196994358
 30
0.0
 10
1.081962585449219
 20
-10.34747568766276
 30
0.0
 10
1.091478983561198
 20
-10.36600748697917
 30
0.0
 10
1.115569220648871
 20
-10.41172366672092
 30
0.0
 10
1.136724683973524
 20
-10.41903177897135
 30
0.0
 10
1.157601250542535
 20
-10.42624325222439
 30
0.0
 10
1.21840582953559
 20
-10.39885542127821
 30
0.0
 10
1.239586724175347
 20
-10.39244503445095
 30
0.0
 10
1.297256469726562
 20
-10.37499152289496
 30
0.0
 10
1.353680080837673
 20
-10.35360124376085
 30
0.0
 10
1.409076266818576
 20
-10.32995181613498
 30
0.0
 10
1.49759758843316
 20
-10.29215918646918
 30
0.0
 10
1.582450018988715
 20
-10.24708896213108
 30
0.0
 10
1.664432101779514
 20
-10.19671800401476
 30
0.0
 10
1.841418796115451
 20
-10.08797454833984
 30
0.0
 10
2.009220547146267
 20
-9.963622199164496
 30
0.0
 10
2.178670247395833
 20
-9.843661838107638
 30
0.0
 10
1.951851738823785
 20
-10.08594512939453
 30
0.0
 10
1.728918287489149
 20
-10.46961296929253
 30
0.0
 10
1.365201314290365
 20
-10.50456915961371
 30
0.0
 10
1.224207560221354
 20
-10.51811981201172
 30
0.0
 10
1.081665886773003
 20
-10.44780476888021
 30
0.0
 10
1.043891906738281
 20
-10.30284796820746
 30
0.0
 10
1.025597466362847
 20
-10.23264651828342
 30
0.0
 10
1.041780259874132
 20
-10.15290069580078
 30
0.0
 10
1.097791883680556
 20
-10.10374535454644
 30
0.0
 10
1.138921101888021
 20
-10.06764984130859
 30
0.0
 10
1.216275533040365
 20
-10.04735480414496
 30
0.0
 10
1.262318929036458
 20
-10.08717430962457
 30
0.0
 10
1.302863226996528
 20
-10.12223900689019
 30
0.0
 10
1.269939846462673
 20
-10.24952867296007
 30
0.0
 10
1.352853563096788
 20
-10.21239471435547
 30
0.0
 10
1.41268073187934
 20
-10.18560028076172
 30
0.0
 10
1.390819973415798
 20
-10.10339948866102
 30
0.0
 10
1.360885620117188
 20
-10.06344095865885
 30
0.0
 10
1.27323489718967
 20
-9.946443345811632
 30
0.0
 10
1.107889811197917
 20
-9.975070529513888
 30
0.0
 10
1.029544406467014
 20
-10.08475240071614
 30
0.0
 10
0.9520712958441839
 20
-10.1932135687934
 30
0.0
 10
0.961363050672743
 20
-10.3456539577908
 30
0.0
 10
1.05257331000434
 20
-10.4429448445638
 30
0.0
 10
1.15836673312717
 20
-10.55579037136502
 30
0.0
 10
1.332937452528212
 20
-10.58009847005208
 30
0.0
 10
1.475818210177951
 20
-10.53837331136068
 30
0.0
 10
1.789397345648871
 20
-10.44679938422309
 30
0.0
 10
1.969593471950955
 20
-10.12783389621311
 30
0.0
 10
2.175055609809028
 20
-9.897581312391493
 30
0.0
 10
2.16449228922526
 20
-9.909273783365885
 30
0.0
 10
2.160469055175781
 20
-9.913697984483507
 30
0.0
 10
2.180130004882812
 20
-9.891852484809027
 30
0.0
  0
SPLINE
  5
5B
330
1F
100
AcDbEntity
  8
Layer 1
370
     0
100
AcDbSpline
210
0.0
220
0.0
230
1.0
 70
    11
 71
     3
 72
    47
 73
    43
 74
     0
 42
0.0000000001
 43
0.0000000001
 12
1.0
 22
0.0
 32
0.0
 13
1.0
 23
0.0
 33
0.0
 40
0.0
 40
0.0
 40
0.0
 40
0.0
 40
1.0
 40
1.0
 40
1.0
 40
2.0
 40
2.0
 40
2.0
 40
3.0
 40
3.0
 40
3.0
 40
4.0
 40
4.0
 40
4.0
 40
5.0
 40
5.0
 40
5.0
 40
6.0
 40
6.0
 40
6.0
 40
7.0
 40
7.0
 40
7.0
 40
8.0
 40
8.0
 40
8.0
 40
9.0
 40
9.0
 40
9.0
 40
10.0
 40
10.0
 40
10.0
 40
11.0
 40
11.0
 40
11.0
 40
12.0
 40
12.0
 40
12.0
 40
13.0
 40
13.0
 40
13.0
 40
14.0
 40
14.0
 40
14.0
 40
14.0
 10
2.378973219129774
 20
-10.66877831353082
 30
0.0
 10
2.342210557725694
 20
-10.64996168348524
 30
0.0
 10
2.307430691189236
 20
-10.62717437744141
 30
0.0
 10
2.278344048394097
 20
-10.59766727023654
 30
0.0
 10
2.219965616861979
 20
-10.53844536675347
 30
0.0
 10
2.19175550672743
 20
-10.45647345648871
 30
0.0
 10
2.188850402832031
 20
-10.37441931830512
 30
0.0
 10
2.183636135525174
 20
-10.22712198893229
 30
0.0
 10
2.254181755913628
 20
-10.06620788574219
 30
0.0
 10
2.370819939507378
 20
-9.974838256835938
 30
0.0
 10
2.631523980034722
 20
-9.770612080891926
 30
0.0
 10
3.038748847113715
 20
-9.907511393229166
 30
0.0
 10
3.313346015082465
 20
-10.00867886013455
 30
0.0
 10
3.322277492947048
 20
-10.00814310709635
 30
0.0
 10
3.419482760959201
 20
-10.0029051038954
 30
0.0
 10
3.419949849446614
 20
-9.996996561686197
 30
0.0
 10
3.421514723036024
 20
-9.977216084798176
 30
0.0
 10
3.38291761610243
 20
-9.972114562988281
 30
0.0
 10
3.368299696180555
 20
-9.966105143229166
 30
0.0
 10
3.312772115071614
 20
-9.943277994791666
 30
0.0
 10
3.257054646809896
 20
-9.920906066894531
 30
0.0
 10
3.200958251953125
 20
-9.899512396918402
 30
0.0
 10
3.099483913845486
 20
-9.860811869303385
 30
0.0
 10
2.996548970540364
 20
-9.823908487955729
 30
0.0
 10
2.890754699707031
 20
-9.798777262369791
 30
0.0
 10
2.699697706434462
 20
-9.753391689724392
 30
0.0
 10
2.493400573730469
 20
-9.759956359863281
 30
0.0
 10
2.326512654622396
 20
-9.874357435438368
 30
0.0
 10
2.139554341634114
 20
-10.00251770019531
 30
0.0
 10
2.07717047797309
 20
-10.2216067843967
 30
0.0
 10
2.125534057617188
 20
-10.43793402777778
 30
0.0
 10
2.145698547363281
 20
-10.52812788221571
 30
0.0
 10
2.189225938585069
 20
-10.60741339789496
 30
0.0
 10
2.269480387369792
 20
-10.65701124403212
 30
0.0
 10
2.308060540093316
 20
-10.68085394965278
 30
0.0
 10
2.351260715060764
 20
-10.69552612304688
 30
0.0
 10
2.395068698459201
 20
-10.70636494954427
 30
0.0
 10
2.402921888563368
 20
-10.70830790201823
 30
0.0
 10
2.484024895562066
 20
-10.71474117702908
 30
0.0
 10
2.487319946289062
 20
-10.71861860487196
 30
0.0
 10
2.466406080457899
 20
-10.69400956895616
 30
0.0
 10
2.407704671223958
 20
-10.68348354763455
 30
0.0
 10
2.378973219129774
 20
-10.66877831353082
 30
0.0
  0
SPLINE
  5
5C
330
1F
100
AcDbEntity
  8
Layer 1
370
     0
100
AcDbSpline
210
0.0
220
0.0
230
1.0
 70
    11
 71
     3
 72
    41
 73
    37
 74
     0
 42
0.0000000001
 43
0.0000000001
 12
1.0
 22
0.0
 32
0.0
 13
1.0
 23
0.0
 33
0.0
 40
0.0
 40
0.0
 40
0.0
 40
0.0
 40
1.0
 40
1.0
 40
1.0
 40
2.0
 40
2.0
 40
2.0
 40
3.0
 40
3.0
 40
3.0
 40
4.0
 40
4.0
 40
4.0
 40
5.0
 40
5.0
 40
5.0
 40
6.0
 40
6.0
 40
6.0
 40
7.0
 40
7.0
 40
7.0
 40
8.0
 40
8.0
 40
8.0
 40
9.0
 40
9.0
 40
9.0
 40
10.0
 40
10.0
 40
10.0
 40
11.0
 40
11.0
 40
11.0
 40
12.0
 40
12.0
 40
12.0
 40
12.0
 10
2.611996120876736
 20
-9.707985772026909
 30
0.0
 10
2.623502943250868
 20
-9.763648139105902
 30
0.0
 10
2.632210625542534
 20
-9.751660664876301
 30
0.0
 10
2.686134338378906
 20
-9.751660664876301
 30
0.0
 10
2.575813293457031
 20
-9.517564561631945
 30
0.0
 10
2.725284152560764
 20
-9.227912902832031
 30
0.0
 10
2.966919793023003
 20
-9.156091478135851
 30
0.0
 10
3.063774108886719
 20
-9.127303229437933
 30
0.0
 10
3.215336269802517
 20
-9.12064954969618
 30
0.0
 10
3.293492635091146
 20
-9.198599073621962
 30
0.0
 10
3.36338636610243
 20
-9.268308003743488
 30
0.0
 10
3.321723937988281
 20
-9.438347710503471
 30
0.0
 10
3.214379204644097
 20
-9.355882432725695
 30
0.0
 10
3.186084323459201
 20
-9.334145439995659
 30
0.0
 10
3.132113138834635
 20
-9.288588629828558
 30
0.0
 10
3.092464023166233
 20
-9.315522935655382
 30
0.0
 10
3.050462510850694
 20
-9.34405517578125
 30
0.0
 10
3.093124389648438
 20
-9.409239874945746
 30
0.0
 10
3.121863471137153
 20
-9.430196126302082
 30
0.0
 10
3.209696451822917
 20
-9.494241502549913
 30
0.0
 10
3.349561055501302
 20
-9.435728285047743
 30
0.0
 10
3.382909986707899
 20
-9.338935004340277
 30
0.0
 10
3.420916239420573
 20
-9.228621588812933
 30
0.0
 10
3.338988410101996
 20
-9.128683302137587
 30
0.0
 10
3.243068271213108
 20
-9.084660000271267
 30
0.0
 10
3.135565863715278
 20
-9.035321553548176
 30
0.0
 10
3.001774258083767
 20
-9.041576809353298
 30
0.0
 10
2.894760979546441
 20
-9.088623046875
 30
0.0
 10
2.768480936686198
 20
-9.144138760036892
 30
0.0
 10
2.682854546440972
 20
-9.257258945041231
 30
0.0
 10
2.636600918240017
 20
-9.38474867078993
 30
0.0
 10
2.610105726453993
 20
-9.457776387532551
 30
0.0
 10
2.596858554416233
 20
-9.5347900390625
 30
0.0
 10
2.600327385796441
 20
-9.612518310546875
 30
0.0
 10
2.601754930284288
 20
-9.644506666395399
 30
0.0
 10
2.605515374077691
 20
-9.676634046766493
 30
0.0
 10
2.611996120876736
 20
-9.707985772026909
 30
0.0
  0
SPLINE
  5
5D
330
1F
100
AcDbEntity
  8
Layer 1
370
     0
100
AcDbSpline
210
0.0
220
0.0
230
1.0
 70
    11
 71
     3
 72
    41
 73
    37
 74
     0
 42
0.0000000001
 43
0.0000000001
 12
1.0
 22
0.0
 32
0.0
 13
1.0
 23
0.0
 33
0.0
 40
0.0
 40
0.0
 40
0.0
 40
0.0
 40
1.0
 40
1.0
 40
1.0
 40
2.0
 40
2.0
 40
2.0
 40
3.0
 40
3.0
 40
3.0
 40
4.0
 40
4.0
 40
4.0
 40
5.0
 40
5.0
 40
5.0
 40
6.0
 40
6.0
 40
6.0
 40
7.0
 40
7.0
 40
7.0
 40
8.0
 40
8.0
 40
8.0
 40
9.0
 40
9.0
 40
9.0
 40
10.0
 40
10.0
 40
10.0
 40
11.0
 40
11.0
 40
11.0
 40
12.0
 40
12.0
 40
12.0
 40
12.0
 10
4.255297342936197
 20
-9.719127231174044
 30
0.0
 10
4.372310214572482
 20
-9.664295620388454
 30
0.0
 10
4.491830613878038
 20
-9.613822089301214
 30
0.0
 10
4.615677727593316
 20
-9.576475355360243
 30
0.0
 10
4.676772223578559
 20
-9.558051215277777
 30
0.0
 10
4.739182224229264
 20
-9.543267066970706
 30
0.0
 10
4.802151997884114
 20
-9.532611423068575
 30
0.0
 10
4.85027994103805
 20
-9.524467289872215
 30
0.0
 10
4.916606316953207
 20
-9.520094122229466
 30
0.0
 10
4.937014432619422
 20
-9.519000830318772
 30
0.0
 10
4.937014432619422
 20
-9.519000830318772
 30
0.0
 10
4.943182996068824
 20
-9.501365074134279
 30
0.0
 10
4.9437501695421
 20
-9.499808417426214
 30
0.0
 10
4.948997497558594
 20
-9.48637474907769
 30
0.0
 10
4.954856872558594
 20
-9.473213195800781
 30
0.0
 10
4.9613282945421
 20
-9.460325453016493
 30
0.0
 10
4.686451382107204
 20
-9.46737331814236
 30
0.0
 10
4.44010755750868
 20
-9.572341918945312
 30
0.0
 10
4.194379170735677
 20
-9.686942206488714
 30
0.0
 10
4.068956163194445
 20
-9.745436774359808
 30
0.0
 10
3.945200602213542
 20
-9.807342529296875
 30
0.0
 10
3.82088640001085
 20
-9.868131849500868
 30
0.0
 10
3.766147189670139
 20
-9.89490000406901
 30
0.0
 10
3.711265563964844
 20
-9.921535068088106
 30
0.0
 10
3.655160692003038
 20
-9.945347256130642
 30
0.0
 10
3.63224622938368
 20
-9.955072191026476
 30
0.0
 10
3.609146118164062
 20
-9.964530097113714
 30
0.0
 10
3.585697597927517
 20
-9.972901238335503
 30
0.0
 10
3.559877183702257
 20
-9.982118394639757
 30
0.0
 10
3.548513624403212
 20
-9.97981431749132
 30
0.0
 10
3.539805094401042
 20
-10.00037638346354
 30
0.0
 10
3.534228854709201
 20
-10.01354302300347
 30
0.0
 10
3.538434346516927
 20
-10.04757097032335
 30
0.0
 10
3.536776224772135
 20
-10.06125047471788
 30
0.0
 10
3.789283752441406
 20
-9.984400431315104
 30
0.0
 10
4.017475552029079
 20
-9.83056894938151
 30
0.0
 10
4.255297342936197
 20
-9.719127231174044
 30
0.0
  0
SPLINE
  5
5E
330
1F
100
AcDbEntity
  8
Layer 1
370
     0
100
AcDbSpline
210
0.0
220
0.0
230
1.0
 70
    11
 71
     3
 72
    50
 73
    46
 74
     0
 42
0.0000000001
 43
0.0000000001
 12
1.0
 22
0.0
 32
0.0
 13
1.0
 23
0.0
 33
0.0
 40
0.0
 40
0.0
 40
0.0
 40
0.0
 40
1.0
 40
1.0
 40
1.0
 40
2.0
 40
2.0
 40
2.0
 40
3.0
 40
3.0
 40
3.0
 40
4.0
 40
4.0
 40
4.0
 40
5.0
 40
5.0
 40
5.0
 40
6.0
 40
6.0
 40
6.0
 40
7.0
 40
7.0
 40
7.0
 40
8.0
 40
8.0
 40
8.0
 40
9.0
 40
9.0
 40
9.0
 40
10.0
 40
10.0
 40
10.0
 40
11.0
 40
11.0
 40
11.0
 40
12.0
 40
12.0
 40
12.0
 40
13.0
 40
13.0
 40
13.0
 40
14.0
 40
14.0
 40
14.0
 40
15.0
 40
15.0
 40
15.0
 40
15.0
 10
0.9488288031684027
 20
-10.35509999593099
 30
0.0
 10
0.9007983737521701
 20
-10.34429253472222
 30
0.0
 10
0.8463533189561632
 20
-10.35105472140842
 30
0.0
 10
0.7969479031032985
 20
-10.34127383761936
 30
0.0
 10
0.6997443305121528
 20
-10.32202911376953
 30
0.0
 10
0.6072608100043403
 20
-10.28030988905165
 30
0.0
 10
0.5275158352322048
 20
-10.22161865234375
 30
0.0
 10
0.3617867363823785
 20
-10.09964667426215
 30
0.0
 10
0.3132137722439236
 20
-9.907404581705729
 30
0.0
 10
0.3691431681315104
 20
-9.713177998860676
 30
0.0
 10
0.4228532579210069
 20
-9.526658799913195
 30
0.0
 10
0.5798127916124132
 20
-9.379405551486544
 30
0.0
 10
0.7763485378689235
 20
-9.360727098253038
 30
0.0
 10
0.859513176812066
 20
-9.352823045518663
 30
0.0
 10
0.960587395562066
 20
-9.365565829806856
 30
0.0
 10
1.02056630452474
 20
-9.429888407389322
 30
0.0
 10
1.063063727484809
 20
-9.475463019476996
 30
0.0
 10
1.104496426052517
 20
-9.605845981174044
 30
0.0
 10
1.013901604546441
 20
-9.615401373969183
 30
0.0
 10
1.017578972710503
 20
-9.615268283420138
 30
0.0
 10
1.01871829562717
 20
-9.615302191840277
 30
0.0
 10
1.009675767686632
 20
-9.615850660536024
 30
0.0
 10
0.9742482503255208
 20
-9.616923862033419
 30
0.0
 10
0.9272867838541666
 20
-9.61835225423177
 30
0.0
 10
0.9089423285590277
 20
-9.654390970865885
 30
0.0
 10
0.8884752061631944
 20
-9.694600423177082
 30
0.0
 10
0.9189503987630208
 20
-9.735235426161024
 30
0.0
 10
0.9555528428819444
 20
-9.752117580837673
 30
0.0
 10
1.04355706108941
 20
-9.79270765516493
 30
0.0
 10
1.137895372178819
 20
-9.710525512695312
 30
0.0
 10
1.158539666069878
 20
-9.62813229031033
 30
0.0
 10
1.213385687934028
 20
-9.409236484103731
 30
0.0
 10
0.9492984347873263
 20
-9.283546447753906
 30
0.0
 10
0.7724456787109375
 20
-9.292272779676649
 30
0.0
 10
0.329634772406684
 20
-9.314122517903645
 30
0.0
 10
0.0821041531032986
 20
-9.895256042480469
 30
0.0
 10
0.3808941311306424
 20
-10.22753736707899
 30
0.0
 10
0.547451443142361
 20
-10.41276465521918
 30
0.0
 10
0.782101101345486
 20
-10.46537017822266
 30
0.0
 10
1.022818671332465
 20
-10.43801625569661
 30
0.0
 10
1.008598327636719
 20
-10.42005327012804
 30
0.0
 10
1.000534905327691
 20
-10.39820353190104
 30
0.0
 10
0.9870410495334201
 20
-10.38033294677734
 30
0.0
 10
0.9676284790039062
 20
-10.35462443033854
 30
0.0
 10
0.9796524047851562
 20
-10.36203511555989
 30
0.0
 10
0.9488288031684027
 20
-10.35509999593099
 30
0.0
  0
SPLINE
  5
5F
330
1F
100
AcDbEntity
  8
Layer 1
370
     0
100
AcDbSpline
210
0.0
220
0.0
230
1.0
 70
    11
 71
     3
 72
    47
 73
    43
 74
     0
 42
0.0000000001
 43
0.0000000001
 12
1.0
 22
0.0
 32
0.0
 13
1.0
 23
0.0
 33
0.0
 40
0.0
 40
0.0
 40
0.0
 40
0.0
 40
1.0
 40
1.0
 40
1.0
 40
2.0
 40
2.0
 40
2.0
 40
3.0
 40
3.0
 40
3.0
 40
4.0
 40
4.0
 40
4.0
 40
5.0
 40
5.0
 40
5.0
 40
6.0
 40
6.0
 40
6.0
 40
7.0
 40
7.0
 40
7.0
 40
8.0
 40
8.0
 40
8.0
 40
9.0
 40
9.0
 40
9.0
 40
10.0
 40
10.0
 40
10.0
 40
11.0
 40
11.0
 40
11.0
 40
12.0
 40
12.0
 40
12.0
 40
13.0
 40
13.0
 40
13.0
 40
14.0
 40
14.0
 40
14.0
 40
14.0
 10
5.510616726345486
 20
-10.15342712402344
 30
0.0
 10
5.489377339680989
 20
-10.1660164727105
 30
0.0
 10
5.435031467013888
 20
-10.18788062201606
 30
0.0
 10
5.427029927571614
 20
-10.14915805392795
 30
0.0
 10
5.427684360080295
 20
-10.15441385904948
 30
0.0
 10
5.428027682834201
 20
-10.15777079264323
 30
0.0
 10
5.426443311903212
 20
-10.1466801961263
 30
0.0
 10
5.4256591796875
 20
-10.13982306586371
 30
0.0
 10
5.425568474663629
 20
-10.13856845431858
 30
0.0
 10
5.425771077473958
 20
-10.13978915744358
 30
0.0
 10
5.42093997531467
 20
-10.08722093370226
 30
0.0
 10
5.425884670681423
 20
-10.02361212836371
 30
0.0
 10
5.347805447048611
 20
-10.05884467230903
 30
0.0
 10
5.284050835503472
 20
-10.08761427137587
 30
0.0
 10
5.306523640950521
 20
-10.15215725368924
 30
0.0
 10
5.355910407172309
 20
-10.18431430392795
 30
0.0
 10
5.494616190592447
 20
-10.27462853325738
 30
0.0
 10
5.642884148491754
 20
-10.1196526421441
 30
0.0
 10
5.658905029296875
 20
-9.988808525933159
 30
0.0
 10
5.677034166124131
 20
-9.840749104817707
 30
0.0
 10
5.595921834309896
 20
-9.680130004882812
 30
0.0
 10
5.48128679063585
 20
-9.589293585883246
 30
0.0
 10
5.423719618055555
 20
-9.543679131401909
 30
0.0
 10
5.355361090766059
 20
-9.51369900173611
 30
0.0
 10
5.284790886773004
 20
-9.494643317328558
 30
0.0
 10
5.242518107096354
 20
-9.483228047688801
 30
0.0
 10
5.199130588107638
 20
-9.475781758626301
 30
0.0
 10
5.155724419487847
 20
-9.47032504611545
 30
0.0
 10
5.143436008029513
 20
-9.468780517578125
 30
0.0
 10
5.101765950520833
 20
-9.458886040581596
 30
0.0
 10
5.092757331000434
 20
-9.463975694444445
 30
0.0
 10
5.079716152615017
 20
-9.471345689561632
 30
0.0
 10
5.073856777615017
 20
-9.514246622721354
 30
0.0
 10
5.073042975531684
 20
-9.526039971245659
 30
0.0
 10
5.2541749742296
 20
-9.546165466308594
 30
0.0
 10
5.463471306694879
 20
-9.62896728515625
 30
0.0
 10
5.559315151638454
 20
-9.793690151638454
 30
0.0
 10
5.607072618272569
 20
-9.875769721137152
 30
0.0
 10
5.621689690483941
 20
-9.97552490234375
 30
0.0
 10
5.582466973198785
 20
-10.06399281819661
 30
0.0
 10
5.567001342773438
 20
-10.098876953125
 30
0.0
 10
5.544126722547743
 20
-10.13356272379557
 30
0.0
 10
5.510616726345486
 20
-10.15342712402344
 30
0.0
  0
SPLINE
  5
60
330
1F
100
AcDbEntity
  8
Layer 1
370
     0
100
AcDbSpline
210
0.0
220
0.0
230
1.0
 70
    11
 71
     3
 72
    56
 73
    52
 74
     0
 42
0.0000000001
 43
0.0000000001
 12
1.0
 22
0.0
 32
0.0
 13
1.0
 23
0.0
 33
0.0
 40
0.0
 40
0.0
 40
0.0
 40
0.0
 40
1.0
 40
1.0
 40
1.0
 40
2.0
 40
2.0
 40
2.0
 40
3.0
 40
3.0
 40
3.0
 40
4.0
 40
4.0
 40
4.0
 40
5.0
 40
5.0
 40
5.0
 40
6.0
 40
6.0
 40
6.0
 40
7.0
 40
7.0
 40
7.0
 40
8.0
 40
8.0
 40
8.0
 40
9.0
 40
9.0
 40
9.0
 40
10.0
 40
10.0
 40
10.0
 40
11.0
 40
11.0
 40
11.0
 40
12.0
 40
12.0
 40
12.0
 40
13.0
 40
13.0
 40
13.0
 40
14.0
 40
14.0
 40
14.0
 40
15.0
 40
15.0
 40
15.0
 40
16.0
 40
16.0
 40
16.0
 40
17.0
 40
17.0
 40
17.0
 40
17.0
 10
5.756021287706163
 20
-9.353997972276476
 30
0.0
 10
5.523467169867621
 20
-9.189933776855469
 30
0.0
 10
5.139317830403646
 20
-9.180941263834635
 30
0.0
 10
4.985304938422309
 20
-9.456941392686632
 30
0.0
 10
4.925593905978732
 20
-9.563948737250433
 30
0.0
 10
4.91953362358941
 20
-9.710921393500433
 30
0.0
 10
5.063685099283854
 20
-9.74635738796658
 30
0.0
 10
5.116208394368489
 20
-9.759268018934462
 30
0.0
 10
5.20237308078342
 20
-9.74916246202257
 30
0.0
 10
5.229298061794704
 20
-9.693247477213541
 30
0.0
 10
5.2673585679796
 20
-9.614212036132812
 30
0.0
 10
5.168240017361111
 20
-9.618476019965277
 30
0.0
 10
5.122694227430555
 20
-9.61146969265408
 30
0.0
 10
5.037122090657552
 20
-9.598304748535156
 30
0.0
 10
5.045689900716146
 20
-9.503761291503906
 30
0.0
 10
5.080345153808594
 20
-9.447182549370659
 30
0.0
 10
5.116895887586805
 20
-9.387508816189236
 30
0.0
 10
5.183400472005208
 20
-9.342674255371094
 30
0.0
 10
5.249688890245225
 20
-9.32278357611762
 30
0.0
 10
5.392629835340712
 20
-9.27989281548394
 30
0.0
 10
5.566425747341579
 20
-9.34413316514757
 30
0.0
 10
5.675653245713975
 20
-9.437620374891493
 30
0.0
 10
5.797777811686197
 20
-9.542145623101128
 30
0.0
 10
5.879442850748697
 20
-9.705256991916231
 30
0.0
 10
5.859227498372396
 20
-9.867940266927082
 30
0.0
 10
5.840485466851129
 20
-10.01876831054688
 30
0.0
 10
5.740880330403646
 20
-10.1326175265842
 30
0.0
 10
5.614139980740017
 20
-10.20808834499783
 30
0.0
 10
5.044640435112847
 20
-10.54721408420139
 30
0.0
 10
4.295124477810329
 20
-10.34803432888455
 30
0.0
 10
3.727525499131944
 20
-10.11564127604167
 30
0.0
 10
3.691646152072483
 20
-10.100951300727
 30
0.0
 10
3.635537889268663
 20
-10.06269243028429
 30
0.0
 10
3.596650017632378
 20
-10.06125047471788
 30
0.0
 10
3.593562655978733
 20
-10.06113603379991
 30
0.0
 10
3.535653008355034
 20
-10.07755109998915
 30
0.0
 10
3.533855862087673
 20
-10.08242543538411
 30
0.0
 10
3.525767008463542
 20
-10.10436248779297
 30
0.0
 10
3.709637959798177
 20
-10.16874016655816
 30
0.0
 10
3.737336052788628
 20
-10.18016815185547
 30
0.0
 10
3.896427578396267
 20
-10.24580722384983
 30
0.0
 10
4.056911044650607
 20
-10.30802747938368
 30
0.0
 10
4.222985161675347
 20
-10.35385979546441
 30
0.0
 10
4.517263624403212
 20
-10.43507300482856
 30
0.0
 10
4.834036085340712
 20
-10.4813232421875
 30
0.0
 10
5.139274597167969
 20
-10.45076751708984
 30
0.0
 10
5.402080959743923
 20
-10.42445882161458
 30
0.0
 10
5.721075269911024
 20
-10.3338385687934
 30
0.0
 10
5.882675170898438
 20
-10.10835774739583
 30
0.0
 10
6.051298353407118
 20
-9.873075697157118
 30
0.0
 10
5.990492078993055
 20
-9.519415961371527
 30
0.0
 10
5.756021287706163
 20
-9.353997972276476
 30
0.0
  0
SPLINE
  5
61
330
1F
100
AcDbEntity
  8
Layer 1
370
     0
100
AcDbSpline
210
0.0
220
0.0
230
1.0
 70
    11
 71
     3
 72
    59
 73
    55
 74
     0
 42
0.0000000001
 43
0.0000000001
 12
1.0
 22
0.0
 32
0.0
 13
1.0
 23
0.0
 33
0.0
 40
0.0
 40
0.0
 40
0.0
 40
0.0
 40
1.0
 40
1.0
 40
1.0
 40
2.0
 40
2.0
 40
2.0
 40
3.0
 40
3.0
 40
3.0
 40
4.0
 40
4.0
 40
4.0
 40
5.0
 40
5.0
 40
5.0
 40
6.0
 40
6.0
 40
6.0
 40
7.0
 40
7.0
 40
7.0
 40
8.0
 40
8.0
 40
8.0
 40
9.0
 40
9.0
 40
9.0
 40
10.0
 40
10.0
 40
10.0
 40
11.0
 40
11.0
 40
11.0
 40
12.0
 40
12.0
 40
12.0
 40
13.0
 40
13.0
 40
13.0
 40
14.0
 40
14.0
 40
14.0
 40
15.0
 40
15.0
 40
15.0
 40
16.0
 40
16.0
 40
16.0
 40
17.0
 40
17.0
 40
17.0
 40
18.0
 40
18.0
 40
18.0
 40
18.0
 10
3.059737311469184
 20
-9.487141927083332
 30
0.0
 10
2.985159132215712
 20
-9.472274780273438
 30
0.0
 10
2.906885782877604
 20
-9.466363694932726
 30
0.0
 10
2.83109622531467
 20
-9.474600050184462
 30
0.0
 10
2.793036566840278
 20
-9.478736029730902
 30
0.0
 10
2.75533209906684
 20
-9.48667738172743
 30
0.0
 10
2.718565199110243
 20
-9.49727037217882
 30
0.0
 10
2.668974134657118
 20
-9.51155768500434
 30
0.0
 10
2.669340345594618
 20
-9.529270595974392
 30
0.0
 10
2.669340345594618
 20
-9.582262674967447
 30
0.0
 10
2.899289449055989
 20
-9.52425808376736
 30
0.0
 10
3.213538275824653
 20
-9.535753038194445
 30
0.0
 10
3.361629909939236
 20
-9.751651340060763
 30
0.0
 10
3.485065036349826
 20
-9.931603325737846
 30
0.0
 10
3.457977294921875
 20
-10.18120829264323
 30
0.0
 10
3.293382432725694
 20
-10.32592095269097
 30
0.0
 10
3.292595757378472
 20
-10.32660759819878
 30
0.0
 10
3.291881985134548
 20
-10.32722981770833
 30
0.0
 10
3.291168212890625
 20
-10.32785373263889
 30
0.0
 10
3.291495429144965
 20
-10.32757059733073
 30
0.0
 10
3.291844685872396
 20
-10.32731458875868
 30
0.0
 10
3.292171054416233
 20
-10.32703060574002
 30
0.0
 10
3.27878909640842
 20
-10.33867475721571
 30
0.0
 10
3.281583150227864
 20
-10.33622148301866
 30
0.0
 10
3.291168212890625
 20
-10.32785373263889
 30
0.0
 10
3.191329108344184
 20
-10.41420067681207
 30
0.0
 10
3.054034762912326
 20
-10.45309278700087
 30
0.0
 10
2.923572116427951
 20
-10.43148040771484
 30
0.0
 10
2.8713624742296
 20
-10.42283121744792
 30
0.0
 10
2.818843417697483
 20
-10.40363650851779
 30
0.0
 10
2.793922424316406
 20
-10.35361904568142
 30
0.0
 10
2.769225226508246
 20
-10.30405171712239
 30
0.0
 10
2.773082309299045
 20
-10.22936164008246
 30
0.0
 10
2.82529788547092
 20
-10.19848378499349
 30
0.0
 10
2.885590447319878
 20
-10.16283077663845
 30
0.0
 10
2.912017822265625
 20
-10.22721015082465
 30
0.0
 10
2.96150885687934
 20
-10.24564022488064
 30
0.0
 10
3.03010982937283
 20
-10.27118682861328
 30
0.0
 10
3.062771267361111
 20
-10.19360012478299
 30
0.0
 10
3.028643290201823
 20
-10.1417236328125
 30
0.0
 10
2.947180006239149
 20
-10.01789686414931
 30
0.0
 10
2.761849297417534
 20
-10.13902197943793
 30
0.0
 10
2.739540947808159
 20
-10.24743906656901
 30
0.0
 10
2.711453755696614
 20
-10.38393825954861
 30
0.0
 10
2.808286031087239
 20
-10.47876400417752
 30
0.0
 10
2.934244791666667
 20
-10.50535074869792
 30
0.0
 10
3.063685946994358
 20
-10.53267330593533
 30
0.0
 10
3.209743923611111
 20
-10.49625396728516
 30
0.0
 10
3.316004435221354
 20
-10.4188715616862
 30
0.0
 10
3.532864040798611
 20
-10.26094818115234
 30
0.0
 10
3.582659403483073
 20
-9.933951483832464
 30
0.0
 10
3.437109205457899
 20
-9.71214124891493
 30
0.0
 10
3.352903578016493
 20
-9.583816528320312
 30
0.0
 10
3.206214057074653
 20
-9.51634301079644
 30
0.0
 10
3.059737311469184
 20
-9.487141927083332
 30
0.0
  0
SPLINE
  5
62
330
1F
100
AcDbEntity
  8
Layer 1
370
     0
100
AcDbSpline
210
0.0
220
0.0
230
1.0
 70
    11
 71
     3
 72
    32
 73
    28
 74
     0
 42
0.0000000001
 43
0.0000000001
 12
1.0
 22
0.0
 32
0.0
 13
1.0
 23
0.0
 33
0.0
 40
0.0
 40
0.0
 40
0.0
 40
0.0
 40
1.0
 40
1.0
 40
1.0
 40
2.0
 40
2.0
 40
2.0
 40
3.0
 40
3.0
 40
3.0
 40
4.0
 40
4.0
 40
4.0
 40
5.0
 40
5.0
 40
5.0
 40
6.0
 40
6.0
 40
6.0
 40
7.0
 40
7.0
 40
7.0
 40
8.0
 40
8.0
 40
8.0
 40
9.0
 40
9.0
 40
9.0
 40
9.0
 10
8.750473870141251
 20
-10.1092020670511
 30
0.0
 10
8.715421040822674
 20
-10.10899522568669
 30
0.0
 10
8.680320739716004
 20
-10.10663859048547
 30
0.0
 10
8.645535786916728
 20
-10.10233391654727
 30
0.0
 10
8.617467244436435
 20
-10.09886084661328
 30
0.0
 10
8.601594712969295
 20
-10.10154130722455
 30
0.0
 10
8.589386834009701
 20
-10.08123609753433
 30
0.0
 10
8.581305609780706
 20
-10.06779395208041
 30
0.0
 10
8.58273739282274
 20
-10.03054131400538
 30
0.0
 10
8.582342359728727
 20
-10.0167109171412
 30
0.0
 10
8.705026414632306
 20
-10.03779686821008
 30
0.0
 10
8.835990905734914
 20
-10.03364393445946
 30
0.0
 10
8.95783318411059
 20
-10.00901540120756
 30
0.0
 10
9.016020880779958
 20
-9.997253417974484
 30
0.0
 10
9.073408338734275
 20
-9.980098300518295
 30
0.0
 10
9.12561204696039
 20
-9.951320224348768
 30
0.0
 10
9.150778028677601
 20
-9.937447441960582
 30
0.0
 10
9.176535712326894
 20
-9.908576965344965
 30
0.0
 10
9.20225185816068
 20
-9.898423936646042
 30
0.0
 10
9.229888915995389
 20
-9.88751390246759
 30
0.0
 10
9.279356214714728
 20
-9.89342837865254
 30
0.0
 10
9.308856540235537
 20
-9.894042968768897
 30
0.0
 10
9.226021660673545
 20
-9.998675876208734
 30
0.0
 10
9.094764709444966
 20
-10.05355241564512
 30
0.0
 10
8.968151516355494
 20
-10.08369106716938
 30
0.0
 10
8.89694129093156
 20
-10.10064273410414
 30
0.0
 10
8.823709275957198
 20
-10.10963524712166
 30
0.0
 10
8.750473870141251
 20
-10.1092020670511
 30
0.0
  0
SPLINE
  5
63
330
1F
100
AcDbEntity
  8
Layer 1
370
     0
100
AcDbSpline
210
0.0
220
0.0
230
1.0
 70
    11
 71
     3
 72
   101
 73
    97
 74
     0
 42
0.0000000001
 43
0.0000000001
 12
1.0
 22
0.0
 32
0.0
 13
1.0
 23
0.0
 33
0.0
 40
0.0
 40
0.0
 40
0.0
 40
0.0
 40
1.0
 40
1.0
 40
1.0
 40
2.0
 40
2.0
 40
2.0
 40
3.0
 40
3.0
 40
3.0
 40
4.0
 40
4.0
 40
4.0
 40
5.0
 40
5.0
 40
5.0
 40
6.0
 40
6.0
 40
6.0
 40
7.0
 40
7.0
 40
7.0
 40
8.0
 40
8.0
 40
8.0
 40
9.0
 40
9.0
 40
9.0
 40
10.0
 40
10.0
 40
10.0
 40
11.0
 40
11.0
 40
11.0
 40
12.0
 40
12.0
 40
12.0
 40
13.0
 40
13.0
 40
13.0
 40
14.0
 40
14.0
 40
14.0
 40
15.0
 40
15.0
 40
15.0
 40
16.0
 40
16.0
 40
16.0
 40
17.0
 40
17.0
 40
17.0
 40
18.0
 40
18.0
 40
18.0
 40
19.0
 40
19.0
 40
19.0
 40
20.0
 40
20.0
 40
20.0
 40
21.0
 40
21.0
 40
21.0
 40
22.0
 40
22.0
 40
22.0
 40
23.0
 40
23.0
 40
23.0
 40
24.0
 40
24.0
 40
24.0
 40
25.0
 40
25.0
 40
25.0
 40
26.0
 40
26.0
 40
26.0
 40
27.0
 40
27.0
 40
27.0
 40
28.0
 40
28.0
 40
28.0
 40
29.0
 40
29.0
 40
29.0
 40
30.0
 40
30.0
 40
30.0
 40
31.0
 40
31.0
 40
31.0
 40
32.0
 40
32.0
 40
32.0
 40
32.0
 10
9.822162204298111
 20
-9.891852484850965
 30
0.0
 10
9.776703728551688
 20
-9.841535780204822
 30
0.0
 10
9.787824842646184
 20
-9.85390218102998
 30
0.0
 10
9.805651346822817
 20
-9.873666551419218
 30
0.0
 10
9.75551520451841
 20
-9.818638271794573
 30
0.0
 10
9.704346550820723
 20
-9.765647040509721
 30
0.0
 10
9.642252604153756
 20
-9.723548041483506
 30
0.0
 10
9.601703219931904
 20
-9.696055942143579
 30
0.0
 10
9.558653089724658
 20
-9.671996222632085
 30
0.0
 10
9.51481713188059
 20
-9.65016767716573
 30
0.0
 10
9.493936326759517
 20
-9.639771355550186
 30
0.0
 10
9.463462829581026
 20
-9.632579379637365
 30
0.0
 10
9.444873385951015
 20
-9.618405660018475
 30
0.0
 10
9.422555711526128
 20
-9.618260701521395
 30
0.0
 10
9.414851718471027
 20
-9.608339945498907
 30
0.0
 10
9.421761406785713
 20
-9.58864508737204
 30
0.0
 10
9.42190806070342
 20
-9.574818929060408
 30
0.0
 10
9.421511332188427
 20
-9.561008877248343
 30
0.0
 10
9.420571221240682
 20
-9.547214931935791
 30
0.0
 10
9.63463762070478
 20
-9.640869140658525
 30
0.0
 10
9.856416490326662
 20
-9.797784593413704
 30
0.0
 10
10.10320451523141
 20
-9.744039747504631
 30
0.0
 10
10.20712619356358
 20
-9.721408420198106
 30
0.0
 10
10.30652787949384
 20
-9.640747918086692
 30
0.0
 10
10.26690843369834
 20
-9.52305518262483
 30
0.0
 10
10.25041368272398
 20
-9.474057515523402
 30
0.0
 10
10.20004102918887
 20
-9.424810621532414
 30
0.0
 10
10.1445295545794
 20
-9.427102830731327
 30
0.0
 10
10.08845943874813
 20
-9.429417928113782
 30
0.0
 10
10.09455447726562
 20
-9.484658983072828
 30
0.0
 10
10.0537380642329
 20
-9.507512410534092
 30
0.0
 10
10.00214979383231
 20
-9.536396450516602
 30
0.0
 10
9.965694003632962
 20
-9.481125725688571
 30
0.0
 10
9.975368075900784
 20
-9.432567172629104
 30
0.0
 10
9.985983954538142
 20
-9.379282633512831
 30
0.0
 10
10.04304419623845
 20
-9.355055067326147
 30
0.0
 10
10.09159257677255
 20
-9.349339803113935
 30
0.0
 10
10.21106041802753
 20
-9.335276285866685
 30
0.0
 10
10.31508382161567
 20
-9.411829630597923
 30
0.0
 10
10.33654954697929
 20
-9.529741923079351
 30
0.0
 10
10.35796610513373
 20
-9.647381252778661
 30
0.0
 10
10.28639051647876
 20
-9.754736158645679
 30
0.0
 10
10.18009609644633
 20
-9.800543891117032
 30
0.0
 10
10.06106736923046
 20
-9.851839701387284
 30
0.0
 10
9.943161010724705
 20
-9.825943840921935
 30
0.0
 10
9.82508256698735
 20
-9.785978529230432
 30
0.0
 10
10.16302829315913
 20
-10.02961391878554
 30
0.0
 10
10.48971133758053
 20
-10.30092197001548
 30
0.0
 10
10.92032962371124
 20
-10.34747568775399
 30
0.0
 10
10.91081322559843
 20
-10.36600748706996
 30
0.0
 10
10.88672298850871
 20
-10.41172366681066
 30
0.0
 10
10.86556752518373
 20
-10.41903177906013
 30
0.0
 10
10.84469095861439
 20
-10.42624325231223
 30
0.0
 10
10.78388637962257
 20
-10.39885542136332
 30
0.0
 10
10.76270548498309
 20
-10.39244503453511
 30
0.0
 10
10.70503573943266
 20
-10.37499152297654
 30
0.0
 10
10.64861212832251
 20
-10.35360124383988
 30
0.0
 10
10.59321594234267
 20
-10.32995181621153
 30
0.0
 10
10.50469462072978
 20
-10.29215918654177
 30
0.0
 10
10.41984219017627
 20
-10.24708896219984
 30
0.0
 10
10.33786010738772
 20
-10.19671800407984
 30
0.0
 10
10.16087341305668
 20
-10.08797454839699
 30
0.0
 10
9.993071662031449
 20
-9.963622199214088
 30
0.0
 10
9.823621961787264
 20
-9.843661838149627
 30
0.0
 10
10.05044047034842
 20
-10.0859451294467
 30
0.0
 10
10.27337392166583
 20
-10.46961296935473
 30
0.0
 10
10.63709089486305
 20
-10.50456915969223
 30
0.0
 10
10.77808464893145
 20
-10.51811981209658
 30
0.0
 10
10.92062632238296
 20
-10.44780476897146
 30
0.0
 10
10.95840030242418
 20
-10.30284796830041
 30
0.0
 10
10.97669474280277
 20
-10.23264651837717
 30
0.0
 10
10.96051194929507
 20
-10.15290069589383
 30
0.0
 10
10.90450032549085
 20
-10.10374535463696
 30
0.0
 10
10.863371107285
 20
-10.06764984139727
 30
0.0
 10
10.78601667613359
 20
-10.04735480423018
 30
0.0
 10
10.7399732801357
 20
-10.08717430970771
 30
0.0
 10
10.69942898217404
 20
-10.12223900697151
 30
0.0
 10
10.73235236270218
 20
-10.24952867304286
 30
0.0
 10
10.64943864606974
 20
-10.21239471443454
 30
0.0
 10
10.5896114772884
 20
-10.18560028083812
 30
0.0
 10
10.61147223575563
 20
-10.10339948873838
 30
0.0
 10
10.64140658905603
 20
-10.06344095873757
 30
0.0
 10
10.7290573119888
 20
-9.946443345894268
 30
0.0
 10
10.89440239797927
 20
-9.975070529603954
 30
0.0
 10
10.97274780270524
 20
-10.08475240080972
 30
0.0
 10
11.0502209133232
 20
-10.19321356889047
 30
0.0
 10
11.04092915848779
 20
-10.34565395788746
 30
0.0
 10
10.94971889915185
 20
-10.44294484465637
 30
0.0
 10
10.84392547602394
 20
-10.55579037145283
 30
0.0
 10
10.66935475662182
 20
-10.58009847013204
 30
0.0
 10
10.52647399897394
 20
-10.53837331143422
 30
0.0
 10
10.21289486350714
 20
-10.44679938428256
 30
0.0
 10
10.03269873721938
 20
-10.12783389626449
 30
0.0
 10
9.827236599371645
 20
-9.897581312433658
 30
0.0
 10
9.83779991995488
 20
-9.90927378340853
 30
0.0
 10
9.841823154004183
 20
-9.913697984526328
 30
0.0
 10
9.822162204298111
 20
-9.891852484850965
 30
0.0
  0
SPLINE
  5
64
330
1F
100
AcDbEntity
  8
Layer 1
370
     0
100
AcDbSpline
210
0.0
220
0.0
230
1.0
 70
    11
 71
     3
 72
    47
 73
    43
 74
     0
 42
0.0000000001
 43
0.0000000001
 12
1.0
 22
0.0
 32
0.0
 13
1.0
 23
0.0
 33
0.0
 40
0.0
 40
0.0
 40
0.0
 40
0.0
 40
1.0
 40
1.0
 40
1.0
 40
2.0
 40
2.0
 40
2.0
 40
3.0
 40
3.0
 40
3.0
 40
4.0
 40
4.0
 40
4.0
 40
5.0
 40
5.0
 40
5.0
 40
6.0
 40
6.0
 40
6.0
 40
7.0
 40
7.0
 40
7.0
 40
8.0
 40
8.0
 40
8.0
 40
9.0
 40
9.0
 40
9.0
 40
10.0
 40
10.0
 40
10.0
 40
11.0
 40
11.0
 40
11.0
 40
12.0
 40
12.0
 40
12.0
 40
13.0
 40
13.0
 40
13.0
 40
14.0
 40
14.0
 40
14.0
 40
14.0
 10
9.623318990016287
 20
-10.66877831356381
 30
0.0
 10
9.6600816514212
 20
-10.6499616835199
 30
0.0
 10
9.694861517958694
 20
-10.62717437747763
 30
0.0
 10
9.723948160755146
 20
-10.59766727027406
 30
0.0
 10
9.782326592289918
 20
-10.53844536679362
 30
0.0
 10
9.810536702428154
 20
-10.45647345653012
 30
0.0
 10
9.813441806327242
 20
-10.37441931834666
 30
0.0
 10
9.81865607364072
 20
-10.22712198897408
 30
0.0
 10
9.748110453259489
 20
-10.06620788578079
 30
0.0
 10
9.631472269669832
 20
-9.97483825686931
 30
0.0
 10
9.37076822915166
 20
-9.770612080913603
 30
0.0
 10
8.963543362066527
 20
-9.907511393232552
 30
0.0
 10
8.68894619409323
 20
-10.0086788601256
 30
0.0
 10
8.680014716228673
 20
-10.00814310708701
 30
0.0
 10
8.582809448216771
 20
-10.00290510388168
 30
0.0
 10
8.582342359729637
 20
-9.996996561672454
 30
0.0
 10
8.58077748614111
 20
-9.977216084784382
 30
0.0
 10
8.619374593074932
 20
-9.972114562976204
 30
0.0
 10
8.63399251299706
 20
-9.966105143217748
 30
0.0
 10
8.689520094107012
 20
-9.943277994782749
 30
0.0
 10
8.745237562369741
 20
-9.920906066888113
 30
0.0
 10
8.801333957227472
 20
-9.899512396914512
 30
0.0
 10
8.902808295336854
 20
-9.860811869304042
 30
0.0
 10
9.005743238643642
 20
-9.823908487961008
 30
0.0
 10
9.111537509478087
 20
-9.79877726237982
 30
0.0
 10
9.302594502752703
 20
-9.753391689742985
 30
0.0
 10
9.508891635456393
 20
-9.759956359891147
 30
0.0
 10
9.675779554559313
 20
-9.874357435473737
 30
0.0
 10
9.862737867541858
 20
-10.00251770023907
 30
0.0
 10
9.92512173119303
 20
-10.22160678444326
 30
0.0
 10
9.876758151539232
 20
-10.43793402782217
 30
0.0
 10
9.856593661789095
 20
-10.52812788225919
 30
0.0
 10
9.813066270563745
 20
-10.6074133979365
 30
0.0
 10
9.7328118217768
 20
-10.65701124407004
 30
0.0
 10
9.694231669052188
 20
-10.68085394968895
 30
0.0
 10
9.651031494084084
 20
-10.69552612308113
 30
0.0
 10
9.607223510685166
 20
-10.70636494957656
 30
0.0
 10
9.5993703205809
 20
-10.70830790205016
 30
0.0
 10
9.518267313581923
 20
-10.71474117705738
 30
0.0
 10
9.51497226285475
 20
-10.7186186049001
 30
0.0
 10
9.535886128687025
 20
-10.69400956898524
 30
0.0
 10
9.594587537921445
 20
-10.68348354766625
 30
0.0
 10
9.623318990016287
 20
-10.66877831356381
 30
0.0
  0
SPLINE
  5
65
330
1F
100
AcDbEntity
  8
Layer 1
370
     0
100
AcDbSpline
210
0.0
220
0.0
230
1.0
 70
    11
 71
     3
 72
    41
 73
    37
 74
     0
 42
0.0000000001
 43
0.0000000001
 12
1.0
 22
0.0
 32
0.0
 13
1.0
 23
0.0
 33
0.0
 40
0.0
 40
0.0
 40
0.0
 40
0.0
 40
1.0
 40
1.0
 40
1.0
 40
2.0
 40
2.0
 40
2.0
 40
3.0
 40
3.0
 40
3.0
 40
4.0
 40
4.0
 40
4.0
 40
5.0
 40
5.0
 40
5.0
 40
6.0
 40
6.0
 40
6.0
 40
7.0
 40
7.0
 40
7.0
 40
8.0
 40
8.0
 40
8.0
 40
9.0
 40
9.0
 40
9.0
 40
10.0
 40
10.0
 40
10.0
 40
11.0
 40
11.0
 40
11.0
 40
12.0
 40
12.0
 40
12.0
 40
12.0
 10
9.390296088312475
 20
-9.707985772049444
 30
0.0
 10
9.378789265935842
 20
-9.763648139127932
 30
0.0
 10
9.370081583644707
 20
-9.751660664897928
 30
0.0
 10
9.316157870808334
 20
-9.751660664895526
 30
0.0
 10
9.426478915740718
 20
-9.51756456165612
 30
0.0
 10
9.277008056649997
 20
-9.227912902849488
 30
0.0
 10
9.035372416190967
 20
-9.15609147814247
 30
0.0
 10
8.938518100328565
 20
-9.127303229440182
 30
0.0
 10
8.786955939413044
 20
-9.120649549691633
 30
0.0
 10
8.70879957412093
 20
-9.198599073613902
 30
0.0
 10
8.638905843106512
 20
-9.268308003732297
 30
0.0
 10
8.680568271213032
 20
-9.43834771049415
 30
0.0
 10
8.787913004560904
 20
-9.355882432721197
 30
0.0
 10
8.816207885746785
 20
-9.334145439992426
 30
0.0
 10
8.870179070373398
 20
-9.28858862982775
 30
0.0
 10
8.909828186040587
 20
-9.315522935656341
 30
0.0
 10
8.951829698354837
 20
-9.344055175784105
 30
0.0
 10
8.909167819554188
 20
-9.40923987494668
 30
0.0
 10
8.880428738064513
 20
-9.430196126301729
 30
0.0
 10
8.792595757375869
 20
-9.494241502545618
 30
0.0
 10
8.652731153700111
 20
-9.435728285037182
 30
0.0
 10
8.619382222497885
 20
-9.338935004328201
 30
0.0
 10
8.581375969790162
 20
-9.228621588799164
 30
0.0
 10
8.663303799113212
 20
-9.128683302127481
 30
0.0
 10
8.759223938004071
 20
-9.084660000265481
 30
0.0
 10
8.866726345504123
 20
-9.035321553547217
 30
0.0
 10
9.000517951135356
 20
-9.04157680935835
 30
0.0
 10
9.10753122967056
 20
-9.088623046884852
 30
0.0
 10
9.233811272528328
 20
-9.144138760052403
 30
0.0
 10
9.319437662768475
 20
-9.257258945060585
 30
0.0
 10
9.365691290963696
 20
-9.384748670811378
 30
0.0
 10
9.392186482746435
 20
-9.457776387555187
 30
0.0
 10
9.405433654780735
 20
-9.534790039085717
 30
0.0
 10
9.401964823397039
 20
-9.612518310569941
 30
0.0
 10
9.400537278907752
 20
-9.644506666418389
 30
0.0
 10
9.39677683511291
 20
-9.676634046789331
 30
0.0
 10
9.390296088312475
 20
-9.707985772049444
 30
0.0
  0
SPLINE
  5
66
330
1F
100
AcDbEntity
  8
Layer 1
370
     0
100
AcDbSpline
210
0.0
220
0.0
230
1.0
 70
    11
 71
     3
 72
    41
 73
    37
 74
     0
 42
0.0000000001
 43
0.0000000001
 12
1.0
 22
0.0
 32
0.0
 13
1.0
 23
0.0
 33
0.0
 40
0.0
 40
0.0
 40
0.0
 40
0.0
 40
1.0
 40
1.0
 40
1.0
 40
2.0
 40
2.0
 40
2.0
 40
3.0
 40
3.0
 40
3.0
 40
4.0
 40
4.0
 40
4.0
 40
5.0
 40
5.0
 40
5.0
 40
6.0
 40
6.0
 40
6.0
 40
7.0
 40
7.0
 40
7.0
 40
8.0
 40
8.0
 40
8.0
 40
9.0
 40
9.0
 40
9.0
 40
10.0
 40
10.0
 40
10.0
 40
11.0
 40
11.0
 40
11.0
 40
12.0
 40
12.0
 40
12.0
 40
12.0
 10
7.746994866252534
 20
-9.71912723112281
 30
0.0
 10
7.629981994618699
 20
-9.664295620331965
 30
0.0
 10
7.510461595315418
 20
-9.613822089239369
 30
0.0
 10
7.386614481601807
 20
-9.576475355292839
 30
0.0
 10
7.325519985617397
 20
-9.55805121520762
 30
0.0
 10
7.263109984967362
 20
-9.543267066897744
 30
0.0
 10
7.200140211312979
 20
-9.532611422992785
 30
0.0
 10
7.152012268159423
 20
-9.524467289794275
 30
0.0
 10
7.085685892244454
 20
-9.520094122148546
 30
0.0
 10
7.065277776578291
 20
-9.519000830236918
 30
0.0
 10
7.065277776578291
 20
-9.519000830236918
 30
0.0
 10
7.059109213129684
 20
-9.501365074052147
 30
0.0
 10
7.058542039656484
 20
-9.499808417344058
 30
0.0
 10
7.053294711640596
 20
-9.486374748995305
 30
0.0
 10
7.047435336641178
 20
-9.473213195718143
 30
0.0
 10
7.040963914658252
 20
-9.460325452933551
 30
0.0
 10
7.31584082709282
 20
-9.467373318071774
 30
0.0
 10
7.562184651686644
 20
-9.57234191888579
 30
0.0
 10
7.807913038454494
 20
-9.686942206440209
 30
0.0
 10
7.9333360459931
 20
-9.745436774316936
 30
0.0
 10
8.057091606971223
 20
-9.807342529259559
 30
0.0
 10
8.181405809171185
 20
-9.868131849469137
 30
0.0
 10
8.236145019510685
 20
-9.894900004039728
 30
0.0
 10
8.291026645214792
 20
-9.921535068061303
 30
0.0
 10
8.347131517175512
 20
-9.945347256106338
 30
0.0
 10
8.37004597979444
 20
-9.955072191003207
 30
0.0
 10
8.393146091013628
 20
-9.964530097091483
 30
0.0
 10
8.416594611249796
 20
-9.972901238314332
 30
0.0
 10
8.44241502547465
 20
-9.982118394619748
 30
0.0
 10
8.453778584773797
 20
-9.979814317471815
 30
0.0
 10
8.462487114775058
 20
-10.00037638344442
 30
0.0
 10
8.468063354466292
 20
-10.0135430229846
 30
0.0
 10
8.46385786265705
 20
-10.0475709703043
 30
0.0
 10
8.465515984401211
 20
-10.06125047469891
 30
0.0
 10
8.2130084567354
 20
-9.984400431284786
 30
0.0
 10
7.984816657154624
 20
-9.830568949340961
 30
0.0
 10
7.746994866252534
 20
-9.71912723112281
 30
0.0
  0
SPLINE
  5
67
330
1F
100
AcDbEntity
  8
Layer 1
370
     0
100
AcDbSpline
210
0.0
220
0.0
230
1.0
 70
    11
 71
     3
 72
    50
 73
    46
 74
     0
 42
0.0000000001
 43
0.0000000001
 12
1.0
 22
0.0
 32
0.0
 13
1.0
 23
0.0
 33
0.0
 40
0.0
 40
0.0
 40
0.0
 40
0.0
 40
1.0
 40
1.0
 40
1.0
 40
2.0
 40
2.0
 40
2.0
 40
3.0
 40
3.0
 40
3.0
 40
4.0
 40
4.0
 40
4.0
 40
5.0
 40
5.0
 40
5.0
 40
6.0
 40
6.0
 40
6.0
 40
7.0
 40
7.0
 40
7.0
 40
8.0
 40
8.0
 40
8.0
 40
9.0
 40
9.0
 40
9.0
 40
10.0
 40
10.0
 40
10.0
 40
11.0
 40
11.0
 40
11.0
 40
12.0
 40
12.0
 40
12.0
 40
13.0
 40
13.0
 40
13.0
 40
14.0
 40
14.0
 40
14.0
 40
15.0
 40
15.0
 40
15.0
 40
15.0
 10
11.0534634059917
 20
-10.3550999960282
 30
0.0
 10
11.10149383540842
 20
-10.34429253482158
 30
0.0
 10
11.15593889020412
 20
-10.35105472151023
 30
0.0
 10
11.20534430605744
 20
-10.34127383772339
 30
0.0
 10
11.30254787864945
 20
-10.32202911387794
 30
0.0
 10
11.39503139915913
 20
-10.2803098891642
 30
0.0
 10
11.47477637393389
 20
-10.22161865245989
 30
0.0
 10
11.6405054727892
 20
-10.09964667438572
 30
0.0
 10
11.68907843693629
 20
-9.907404581831466
 30
0.0
 10
11.63314904105742
 20
-9.713177998983912
 30
0.0
 10
11.57943895127629
 20
-9.52665880003403
 30
0.0
 10
11.4224794175915
 20
-9.379405551600332
 30
0.0
 10
11.22594367133583
 20
-9.360727098357984
 30
0.0
 10
11.14277903239304
 20
-9.352823045619894
 30
0.0
 10
11.04170481364248
 20
-9.365565829903542
 30
0.0
 10
10.98172590467693
 20
-9.429888407483304
 30
0.0
 10
10.93922848171481
 20
-9.475463019569082
 30
0.0
 10
10.89779578314124
 20
-9.605845981264261
 30
0.0
 10
10.98839060464689
 20
-9.615401374063469
 30
0.0
 10
10.98471323648283
 20
-9.61526828351427
 30
0.0
 10
10.98357391356616
 20
-9.61530219193436
 30
0.0
 10
10.99261644150667
 20
-9.61585066063051
 30
0.0
 10
11.02804395886773
 20
-9.616923862129498
 30
0.0
 10
11.07500542533901
 20
-9.618352254329945
 30
0.0
 10
11.09334988063253
 20
-9.654390970964894
 30
0.0
 10
11.11381700302657
 20
-9.694600423277
 30
0.0
 10
11.08334181042493
 20
-9.735235426259578
 30
0.0
 10
11.04673936630525
 20
-9.752117580934584
 30
0.0
 10
10.95873514809596
 20
-9.792707655257901
 30
0.0
 10
10.86439683701024
 20
-9.710525512784038
 30
0.0
 10
10.84375254312289
 20
-9.62813229039812
 30
0.0
 10
10.78890652126857
 20
-9.409236484189073
 30
0.0
 10
11.05299377442088
 20
-9.283546447851096
 30
0.0
 10
11.22984653049689
 20
-9.29227277978177
 30
0.0
 10
11.67265743680016
 20
-9.31412251802865
 30
0.0
 10
11.92018805607745
 20
-9.89525604261659
 30
0.0
 10
11.6213980780352
 20
-10.2275373672017
 30
0.0
 10
11.45484076601517
 20
-10.41276465533441
 30
0.0
 10
11.22019110780967
 20
-10.46537017832735
 30
0.0
 10
10.97947353782393
 20
-10.43801625579049
 30
0.0
 10
10.99369388152048
 20
-10.42005327022257
 30
0.0
 10
11.0017573038305
 20
-10.39820353199593
 30
0.0
 10
11.01525115962555
 20
-10.38033294687284
 30
0.0
 10
11.03466373015623
 20
-10.35462443043492
 30
0.0
 10
11.02263980437465
 20
-10.36203511565572
 30
0.0
 10
11.0534634059917
 20
-10.3550999960282
 30
0.0
  0
SPLINE
  5
68
330
1F
100
AcDbEntity
  8
Layer 1
370
     0
100
AcDbSpline
210
0.0
220
0.0
230
1.0
 70
    11
 71
     3
 72
    47
 73
    43
 74
     0
 42
0.0000000001
 43
0.0000000001
 12
1.0
 22
0.0
 32
0.0
 13
1.0
 23
0.0
 33
0.0
 40
0.0
 40
0.0
 40
0.0
 40
0.0
 40
1.0
 40
1.0
 40
1.0
 40
2.0
 40
2.0
 40
2.0
 40
3.0
 40
3.0
 40
3.0
 40
4.0
 40
4.0
 40
4.0
 40
5.0
 40
5.0
 40
5.0
 40
6.0
 40
6.0
 40
6.0
 40
7.0
 40
7.0
 40
7.0
 40
8.0
 40
8.0
 40
8.0
 40
9.0
 40
9.0
 40
9.0
 40
10.0
 40
10.0
 40
10.0
 40
11.0
 40
11.0
 40
11.0
 40
12.0
 40
12.0
 40
12.0
 40
13.0
 40
13.0
 40
13.0
 40
14.0
 40
14.0
 40
14.0
 40
14.0
 10
6.491675482823767
 20
-10.15342712391584
 30
0.0
 10
6.512914869487682
 20
-10.16601647260386
 30
0.0
 10
6.567260742153798
 20
-10.18788062191185
 30
0.0
 10
6.575262281597816
 20
-10.14915805382412
 30
0.0
 10
6.574607849088907
 20
-10.15441385894559
 30
0.0
 10
6.57426452633485
 20
-10.15777079253934
 30
0.0
 10
6.575848897266344
 20
-10.14668019602249
 30
0.0
 10
6.576633029482359
 20
-10.13982306575993
 30
0.0
 10
6.576723734506281
 20
-10.13856845421479
 30
0.0
 10
6.576521131695901
 20
-10.13978915733979
 30
0.0
 10
6.581352233857539
 20
-10.08722093359867
 30
0.0
 10
6.57640753849364
 20
-10.02361212825993
 30
0.0
 10
6.654486762124886
 20
-10.05884467220873
 30
0.0
 10
6.718241373668711
 20
-10.08761427127845
 30
0.0
 10
6.695768568218782
 20
-10.15215725359081
 30
0.0
 10
6.646381801995554
 20
-10.1843143038273
 30
0.0
 10
6.507676018571348
 20
-10.27462853315051
 30
0.0
 10
6.359408060679016
 20
-10.11965264203056
 30
0.0
 10
6.343387179879755
 20
-9.988808525818916
 30
0.0
 10
6.325258043059143
 20
-9.840749104702631
 30
0.0
 10
6.406370374880604
 20
-9.6801300047714
 30
0.0
 10
6.521005418558716
 20
-9.58929358577696
 30
0.0
 10
6.578572591141058
 20
-9.543679131298227
 30
0.0
 10
6.646931118431894
 20
-9.513699001635485
 30
0.0
 10
6.717501322425808
 20
-9.494643317231091
 30
0.0
 10
6.759774102102988
 20
-9.483228047593254
 30
0.0
 10
6.803161621092031
 20
-9.4757817585327
 30
0.0
 10
6.846567789712051
 20
-9.470325046023794
 30
0.0
 10
6.85885620117046
 20
-9.468780517487023
 30
0.0
 10
6.900526258679595
 20
-9.458886040492365
 30
0.0
 10
6.909534878199767
 20
-9.463975694355616
 30
0.0
 10
6.922576056584855
 20
-9.471345689473385
 30
0.0
 10
6.92843543158291
 20
-9.51424662263336
 30
0.0
 10
6.929249233665713
 20
-9.526039971157717
 30
0.0
 10
6.748117234966912
 20
-9.546165466212516
 30
0.0
 10
6.53882090249792
 20
-9.628967285050773
 30
0.0
 10
6.442977057546941
 20
-9.793690151528683
 30
0.0
 10
6.395219590909138
 20
-9.875769721025234
 30
0.0
 10
6.380602518693295
 20
-9.975524902231173
 30
0.0
 10
6.41982523597446
 20
-10.06399281808578
 30
0.0
 10
6.43529086639824
 20
-10.09887695301487
 30
0.0
 10
6.458165486622394
 20
-10.13356272368648
 30
0.0
 10
6.491675482823767
 20
-10.15342712391584
 30
0.0
  0
SPLINE
  5
69
330
1F
100
AcDbEntity
  8
Layer 1
370
     0
100
AcDbSpline
210
0.0
220
0.0
230
1.0
 70
    11
 71
     3
 72
    56
 73
    52
 74
     0
 42
0.0000000001
 43
0.0000000001
 12
1.0
 22
0.0
 32
0.0
 13
1.0
 23
0.0
 33
0.0
 40
0.0
 40
0.0
 40
0.0
 40
0.0
 40
1.0
 40
1.0
 40
1.0
 40
2.0
 40
2.0
 40
2.0
 40
3.0
 40
3.0
 40
3.0
 40
4.0
 40
4.0
 40
4.0
 40
5.0
 40
5.0
 40
5.0
 40
6.0
 40
6.0
 40
6.0
 40
7.0
 40
7.0
 40
7.0
 40
8.0
 40
8.0
 40
8.0
 40
9.0
 40
9.0
 40
9.0
 40
10.0
 40
10.0
 40
10.0
 40
11.0
 40
11.0
 40
11.0
 40
12.0
 40
12.0
 40
12.0
 40
13.0
 40
13.0
 40
13.0
 40
14.0
 40
14.0
 40
14.0
 40
15.0
 40
15.0
 40
15.0
 40
16.0
 40
16.0
 40
16.0
 40
17.0
 40
17.0
 40
17.0
 40
17.0
 10
6.246270921498964
 20
-9.353997972157861
 30
0.0
 10
6.478825039344883
 20
-9.189933776747289
 30
0.0
 10
6.862974378809263
 20
-9.18094126374371
 30
0.0
 10
7.016987270778195
 20
-9.45694139260263
 30
0.0
 10
7.076698303216972
 20
-9.56394873716911
 30
0.0
 10
7.082758585599676
 20
-9.710921393419387
 30
0.0
 10
6.938607109903664
 20
-9.74635738787904
 30
0.0
 10
6.886083814818448
 20
-9.759268018844573
 30
0.0
 10
6.799919128403972
 20
-9.749162461928815
 30
0.0
 10
6.772994147395188
 20
-9.693247477118575
 30
0.0
 10
6.734933641213855
 20
-9.614212036036127
 30
0.0
 10
6.834052191832143
 20
-9.618476019873064
 30
0.0
 10
6.879597981763027
 20
-9.611469692563889
 30
0.0
 10
6.965170118536611
 20
-9.598304748448829
 30
0.0
 10
6.956602308482261
 20
-9.503761291417176
 30
0.0
 10
6.921947055392366
 20
-9.447182549282388
 30
0.0
 10
6.885396321616831
 20
-9.387508816099322
 30
0.0
 10
6.818891737200424
 20
-9.3426742552782
 30
0.0
 10
6.752603318961317
 20
-9.322783576021745
 30
0.0
 10
6.60966237386775
 20
-9.279892815381647
 30
0.0
 10
6.435866461864002
 20
-9.34413316503747
 30
0.0
 10
6.326638963487413
 20
-9.437620374776492
 30
0.0
 10
6.204514397510492
 20
-9.542145622980645
 30
0.0
 10
6.122849358440665
 20
-9.705256991792085
 30
0.0
 10
6.143064710809666
 20
-9.867940266803846
 30
0.0
 10
6.161806742324162
 20
-10.01876831042447
 30
0.0
 10
6.261411878766542
 20
-10.13261752646627
 30
0.0
 10
6.38815222842676
 20
-10.20808834488558
 30
0.0
 10
6.957651774038721
 20
-10.54721408411471
 30
0.0
 10
7.707167731350157
 20
-10.34803432883152
 30
0.0
 10
8.274766710038977
 20
-10.11564127601413
 30
0.0
 10
8.310646057099095
 20
-10.10095130070107
 30
0.0
 10
8.366754319904633
 20
-10.06269243026087
 30
0.0
 10
8.405642191540966
 20
-10.06125047469621
 30
0.0
 10
8.408729553194638
 20
-10.06113603377839
 30
0.0
 10
8.466639200817578
 20
-10.07755109997023
 30
0.0
 10
8.468436347084737
 20
-10.08242543536527
 30
0.0
 10
8.476525200707885
 20
-10.10436248777448
 30
0.0
 10
8.292654249370344
 20
-10.16874016653143
 30
0.0
 10
8.264956156379387
 20
-10.18016815182748
 30
0.0
 10
8.105864630768792
 20
-10.24580722381471
 30
0.0
 10
7.945381164511673
 20
-10.30802747934136
 30
0.0
 10
7.779307047484886
 20
-10.35385979541461
 30
0.0
 10
7.485028584753384
 20
-10.43507300476555
 30
0.0
 10
7.168256123813787
 20
-10.48132324211027
 30
0.0
 10
6.86301761198792
 20
-10.45076751699892
 30
0.0
 10
6.600211249413152
 20
-10.42445882151186
 30
0.0
 10
6.281216939250119
 20
-10.33383856867636
 30
0.0
 10
6.119617038272836
 20
-10.10835774727154
 30
0.0
 10
5.950993855774729
 20
-9.873075697025241
 30
0.0
 10
6.011800130204657
 20
-9.519415961242379
 30
0.0
 10
6.246270921498964
 20
-9.353997972157861
 30
0.0
  0
SPLINE
  5
6A
330
1F
100
AcDbEntity
  8
Layer 1
370
     0
100
AcDbSpline
210
0.0
220
0.0
230
1.0
 70
    11
 71
     3
 72
    59
 73
    55
 74
     0
 42
0.0000000001
 43
0.0000000001
 12
1.0
 22
0.0
 32
0.0
 13
1.0
 23
0.0
 33
0.0
 40
0.0
 40
0.0
 40
0.0
 40
0.0
 40
1.0
 40
1.0
 40
1.0
 40
2.0
 40
2.0
 40
2.0
 40
3.0
 40
3.0
 40
3.0
 40
4.0
 40
4.0
 40
4.0
 40
5.0
 40
5.0
 40
5.0
 40
6.0
 40
6.0
 40
6.0
 40
7.0
 40
7.0
 40
7.0
 40
8.0
 40
8.0
 40
8.0
 40
9.0
 40
9.0
 40
9.0
 40
10.0
 40
10.0
 40
10.0
 40
11.0
 40
11.0
 40
11.0
 40
12.0
 40
12.0
 40
12.0
 40
13.0
 40
13.0
 40
13.0
 40
14.0
 40
14.0
 40
14.0
 40
15.0
 40
15.0
 40
15.0
 40
16.0
 40
16.0
 40
16.0
 40
17.0
 40
17.0
 40
17.0
 40
18.0
 40
18.0
 40
18.0
 40
18.0
 10
8.94255489772993
 20
-9.487141927085784
 30
0.0
 10
9.017133076984084
 20
-9.472274780279223
 30
0.0
 10
9.095406426322445
 20
-9.466363694942022
 30
0.0
 10
9.171195983885001
 20
-9.47460005019717
 30
0.0
 10
9.209255642359215
 20
-9.478736029745328
 30
0.0
 10
9.2469601101323
 20
-9.486677381743549
 30
0.0
 10
9.283727010088416
 20
-9.49727037219658
 30
0.0
 10
9.33331807454091
 20
-9.511557685024323
 30
0.0
 10
9.332951863602602
 20
-9.52927059599435
 30
0.0
 10
9.332951863600227
 20
-9.582262674987406
 30
0.0
 10
9.103002760141457
 20
-9.524258083777012
 30
0.0
 10
8.78875393337229
 20
-9.535753038189972
 30
0.0
 10
8.640662299248005
 20
-9.751651340049648
 30
0.0
 10
8.517227172829354
 20
-9.931603325721198
 30
0.0
 10
8.54431491424609
 20
-10.18120829262779
 30
0.0
 10
8.708909776435751
 20
-10.32592095268291
 30
0.0
 10
8.70969645178295
 20
-10.32660759819078
 30
0.0
 10
8.710410224026848
 20
-10.32722981770035
 30
0.0
 10
8.711123996270747
 20
-10.32785373263093
 30
0.0
 10
8.71079678001643
 20
-10.32757059732277
 30
0.0
 10
8.710447523289
 20
-10.3273145887507
 30
0.0
 10
8.710121154745188
 20
-10.32703060573203
 30
0.0
 10
8.723503112752471
 20
-10.33867475720831
 30
0.0
 10
8.720709058933128
 20
-10.33622148301113
 30
0.0
 10
8.711123996270747
 20
-10.32785373263093
 30
0.0
 10
8.810963100813321
 20
-10.4142006768086
 30
0.0
 10
8.94825744624341
 20
-10.45309278700357
 30
0.0
 10
9.078720092728771
 20
-10.43148040772341
 30
0.0
 10
9.1309297349275
 20
-10.42283121745881
 30
0.0
 10
9.183448791460478
 20
-10.40363650853106
 30
0.0
 10
9.208369784843802
 20
-10.3536190456958
 30
0.0
 10
9.233066982654185
 20
-10.30405171713788
 30
0.0
 10
9.229209899866747
 20
-10.22936164009777
 30
0.0
 10
9.176994323696261
 20
-10.19848378500645
 30
0.0
 10
9.116701761848894
 20
-10.16283077664871
 30
0.0
 10
9.090274386900267
 20
-10.22721015083372
 30
0.0
 10
9.040783352285718
 20
-10.24564022488749
 30
0.0
 10
8.972182379791093
 20
-10.27118682861705
 30
0.0
 10
8.939520941806297
 20
-10.19360012478528
 30
0.0
 10
8.97364891896791
 20
-10.14172363281634
 30
0.0
 10
9.055112202936142
 20
-10.01789686415681
 30
0.0
 10
9.240442911752325
 20
-10.13902197945375
 30
0.0
 10
9.262751261356824
 20
-10.24743906658584
 30
0.0
 10
9.29083845346223
 20
-10.3839382595667
 30
0.0
 10
9.19400617806736
 20
-10.47876400419124
 30
0.0
 10
9.068047417486746
 20
-10.505350748706
 30
0.0
 10
8.938606262157817
 20
-10.5326733059376
 30
0.0
 10
8.792548285542706
 20
-10.49625396728086
 30
0.0
 10
8.686287773935923
 20
-10.41887156167713
 30
0.0
 10
8.469428168365766
 20
-10.26094818113355
 30
0.0
 10
8.419632805696008
 20
-9.93395148381142
 30
0.0
 10
8.565183003731136
 20
-9.712141248900428
 30
0.0
 10
8.649388631178276
 20
-9.5838165283096
 30
0.0
 10
8.796078152123147
 20
-9.516343010792298
 30
0.0
 10
8.94255489772993
 20
-9.487141927085784
 30
0.0
  0
ENDSEC
  0
SECTION
  2
OBJECTS
  0
DICTIONARY
  5
C
330
0
100
AcDbDictionary
281
     1
  3
ACAD_GROUP
350
D
  3
ACAD_LAYOUT
350
1A
  3
ACAD_MATERIAL
350
3B
  3
ACAD_MLEADERSTYLE
350
6C
  3
ACAD_MLINESTYLE
350
17
  3
ACAD_PLOTSETTINGS
350
19
  3
ACAD_PLOTSTYLENAME
350
E
  3
ACAD_TABLESTYLE
350
6B
  3
ACAD_VISUALSTYLE
350
2A
  0
SUN
  5
3F
330
29
100
AcDbSun
 90
        1
290
     0
 63
     7
421
 16777215
 40
1.0
291
     1
 91
  2455826
 92
 54000000
292
     0
 70
     2
 71
   256
280
     1
  0
DICTIONARY
  5
D
102
{ACAD_REACTORS
330
C
102
}
330
C
100
AcDbDictionary
281
     1
  0
DICTIONARY
  5
1A
102
{ACAD_REACTORS
330
C
102
}
330
C
100
AcDbDictionary
281
     1
  3
Layout1
350
1E
  3
Layout2
350
26
  3
Model
350
22
  0
DICTIONARY
  5
3B
102
{ACAD_REACTORS
330
C
102
}
330
C
100
AcDbDictionary
281
     1
  3
ByBlock
350
3D
  3
ByLayer
350
3C
  3
Global
350
3E
  0
DICTIONARY
  5
6C
102
{ACAD_REACTORS
330
C
102
}
330
C
100
AcDbDictionary
281
     1
  0
DICTIONARY
  5
17
102
{ACAD_REACTORS
330
C
102
}
330
C
100
AcDbDictionary
281
     1
  3
Standard
350
18
  0
DICTIONARY
  5
19
102
{ACAD_REACTORS
330
C
102
}
330
C
100
AcDbDictionary
281
     1
  0
ACDBDICTIONARYWDFLT
  5
E
102
{ACAD_REACTORS
330
C
102
}
330
C
100
AcDbDictionary
281
     1
  3
Normal
350
F
100
AcDbDictionaryWithDefault
340
F
  0
DICTIONARY
  5
6B
102
{ACAD_REACTORS
330
C
102
}
330
C
100
AcDbDictionary
281
     1
  0
DICTIONARY
  5
2A
102
{ACAD_REACTORS
330
C
102
}
330
C
100
AcDbDictionary
281
     1
  3
2dWireframe
350
2F
  3
3D Hidden
350
31
  3
3dWireframe
350
30
  3
Basic
350
32
  3
Brighten
350
36
  3
ColorChange
350
3A
  3
Conceptual
350
34
  3
Dim
350
35
  3
Facepattern
350
39
  3
Flat
350
2B
  3
FlatWithEdges
350
2C
  3
Gouraud
350
2D
  3
GouraudWithEdges
350
2E
  3
Linepattern
350
38
  3
Realistic
350
33
  3
Thicken
350
37
  0
LAYOUT
  5
1E
102
{ACAD_REACTORS
330
1A
102
}
330
1A
100
AcDbPlotSettings
  1

  2
none_device
  4

  6

 40
0.0
 41
0.0
 42
0.0
 43
0.0
 44
0.0
 45
0.0
 46
0.0
 47
0.0
 48
0.0
 49
0.0
140
0.0
141
0.0
142
1.0
143
1.0
 70
   688
 72
     0
 73
     0
 74
     5
  7

 75
    16
 76
     0
 77
     2
 78
   300
147
1.0
148
0.0
149
0.0
100
AcDbLayout
  1
Layout1
 70
     1
 71
     1
 10
0.0
 20
0.0
 11
12.0
 21
9.0
 12
0.0
 22
0.0
 32
0.0
 14
1.000000000000000E+20
 24
1.000000000000000E+20
 34
1.000000000000000E+20
 15
-1.000000000000000E+20
 25
-1.000000000000000E+20
 35
-1.000000000000000E+20
146
0.0
 13
0.0
 23
0.0
 33
0.0
 16
1.0
 26
0.0
 36
0.0
 17
0.0
 27
1.0
 37
0.0
 76
     0
330
1B
  0
LAYOUT
  5
26
102
{ACAD_REACTORS
330
1A
102
}
330
1A
100
AcDbPlotSettings
  1

  2
none_device
  4

  6

 40
0.0
 41
0.0
 42
0.0
 43
0.0
 44
0.0
 45
0.0
 46
0.0
 47
0.0
 48
0.0
 49
0.0
140
0.0
141
0.0
142
1.0
143
1.0
 70
   688
 72
     0
 73
     0
 74
     5
  7

 75
    16
 76
     0
 77
     2
 78
   300
147
1.0
148
0.0
149
0.0
100
AcDbLayout
  1
Layout2
 70
     1
 71
     2
 10
0.0
 20
0.0
 11
0.0
 21
0.0
 12
0.0
 22
0.0
 32
0.0
 14
0.0
 24
0.0
 34
0.0
 15
0.0
 25
0.0
 35
0.0
146
0.0
 13
0.0
 23
0.0
 33
0.0
 16
1.0
 26
0.0
 36
0.0
 17
0.0
 27
1.0
 37
0.0
 76
     0
330
23
  0
LAYOUT
  5
22
102
{ACAD_REACTORS
330
1A
102
}
330
1A
100
AcDbPlotSettings
  1

  2
none_device
  4

  6

 40
0.0
 41
0.0
 42
0.0
 43
0.0
 44
0.0
 45
0.0
 46
0.0
 47
0.0
 48
0.0
 49
0.0
140
0.0
141
0.0
142
1.0
143
1.0
 70
  1712
 72
     0
 73
     0
 74
     0
  7

 75
     0
 76
     0
 77
     2
 78
   300
147
1.0
148
0.0
149
0.0
100
AcDbLayout
  1
Model
 70
     1
 71
     0
 10
0.0
 20
0.0
 11
12.0
 21
9.0
 12
0.0
 22
0.0
 32
0.0
 14
1.000000000000000E+20
 24
1.000000000000000E+20
 34
1.000000000000000E+20
 15
-1.000000000000000E+20
 25
-1.000000000000000E+20
 35
-1.000000000000000E+20
146
0.0
 13
0.0
 23
0.0
 33
0.0
 16
1.0
 26
0.0
 36
0.0
 17
0.0
 27
1.0
 37
0.0
 76
     0
330
1F
331
29
  0
MATERIAL
  5
3D
102
{ACAD_REACTORS
330
3B
102
}
330
3B
100
AcDbMaterial
  1
ByBlock
 72
     1
 94
      127
  0
MATERIAL
  5
3C
102
{ACAD_REACTORS
330
3B
102
}
330
3B
100
AcDbMaterial
  1
ByLayer
 72
     1
 94
      127
  0
MATERIAL
  5
3E
102
{ACAD_REACTORS
330
3B
102
}
330
3B
100
AcDbMaterial
  1
Global
 72
     1
 94
      127
  0
MLINESTYLE
  5
18
102
{ACAD_REACTORS
330
17
102
}
330
17
100
AcDbMlineStyle
  2
Standard
 70
     0
  3

 62
   256
 51
90.0
 52
90.0
 71
     2
 49
0.5
 62
   256
  6
BYLAYER
 49
-0.5
 62
   256
  6
BYLAYER
  0
ACDBPLACEHOLDER
  5
F
102
{ACAD_REACTORS
330
E
102
}
330
E
  0
VISUALSTYLE
  5
2F
102
{ACAD_REACTORS
330
2A
102
}
330
2A
100
AcDbVisualStyle
  2
2dWireframe
 70
     4
177
     2
291
     0
 71
     0
176
     1
 72
     2
176
     1
 73
     0
176
     1
 90
        0
176
     1
 40
-0.6
176
     1
 41
-30.0
176
     1
 62
     5
 63
     7
421
 16777215
176
     1
 74
     1
176
     1
 91
        4
176
     1
 64
     7
176
     1
 65
   257
176
     1
 75
     1
176
     1
175
     1
176
     1
 42
1.0
176
     1
 92
        0
176
     1
 66
   257
176
     1
 43
1.0
176
     1
 76
     1
176
     1
 77
     6
176
     1
 78
     2
176
     1
 67
     7
176
     1
 79
     5
176
     1
170
     0
176
     1
171
     0
176
     1
290
     0
176
     1
 93
        1
176
     1
 44
0.0
176
     1
173
     0
176
     1
  0
VISUALSTYLE
  5
31
102
{ACAD_REACTORS
330
2A
102
}
330
2A
100
AcDbVisualStyle
  2
3D Hidden
 70
     6
177
     2
291
     0
 71
     1
176
     1
 72
     2
176
     1
 73
     2
176
     1
 90
        0
176
     1
 40
-0.6
176
     1
 41
-30.0
176
     1
 62
     5
 63
     7
421
 16777215
176
     1
 74
     2
176
     1
 91
        2
176
     1
 64
     7
176
     1
 65
   257
176
     1
 75
     2
176
     1
175
     1
176
     1
 42
40.0
176
     1
 92
        0
176
     1
 66
   257
176
     1
 43
1.0
176
     1
 76
     1
176
     1
 77
     6
176
     1
 78
     2
176
     1
 67
     7
176
     1
 79
     3
176
     1
170
     0
176
     1
171
     0
176
     1
290
     0
176
     1
 93
        1
176
     1
 44
0.0
176
     1
173
     0
176
     1
  0
VISUALSTYLE
  5
30
102
{ACAD_REACTORS
330
2A
102
}
330
2A
100
AcDbVisualStyle
  2
3dWireframe
 70
     5
177
     2
291
     0
 71
     0
176
     1
 72
     2
176
     1
 73
     0
176
     1
 90
        0
176
     1
 40
-0.6
176
     1
 41
-30.0
176
     1
 62
     5
 63
     7
421
 16777215
176
     1
 74
     1
176
     1
 91
        4
176
     1
 64
     7
176
     1
 65
   257
176
     1
 75
     1
176
     1
175
     1
176
     1
 42
1.0
176
     1
 92
        0
176
     1
 66
   257
176
     1
 43
1.0
176
     1
 76
     1
176
     1
 77
     6
176
     1
 78
     2
176
     1
 67
     7
176
     1
 79
     5
176
     1
170
     0
176
     1
171
     0
176
     1
290
     0
176
     1
 93
        1
176
     1
 44
0.0
176
     1
173
     0
176
     1
  0
VISUALSTYLE
  5
32
102
{ACAD_REACTORS
330
2A
102
}
330
2A
100
AcDbVisualStyle
  2
Basic
 70
     7
177
     2
291
     1
 71
     1
176
     1
 72
     0
176
     1
 73
     1
176
     1
 90
        0
176
     1
 40
-0.6
176
     1
 41
-30.0
176
     1
 62
     5
 63
     7
421
 16777215
176
     1
 74
     0
176
     1
 91
        4
176
     1
 64
     7
176
     1
 65
   257
176
     1
 75
     1
176
     1
175
     1
176
     1
 42
1.0
176
     1
 92
        8
176
     1
 66
     7
176
     1
 43
1.0
176
     1
 76
     1
176
     1
 77
     6
176
     1
 78
     2
176
     1
 67
     7
176
     1
 79
     5
176
     1
170
     0
176
     1
171
     0
176
     1
290
     0
176
     1
 93
        1
176
     1
 44
0.0
176
     1
173
     0
176
     1
  0
VISUALSTYLE
  5
36
102
{ACAD_REACTORS
330
2A
102
}
330
2A
100
AcDbVisualStyle
  2
Brighten
 70
    12
177
     2
291
     1
 71
     2
176
     1
 72
     2
176
     1
 73
     0
176
     1
 90
        0
176
     1
 40
-0.6
176
     1
 41
-30.0
176
     1
 62
     5
 63
     7
421
 16777215
176
     1
 74
     1
176
     1
 91
        4
176
     1
 64
     7
176
     1
 65
   257
176
     1
 75
     1
176
     1
175
     1
176
     1
 42
1.0
176
     1
 92
        8
176
     1
 66
     7
176
     1
 43
1.0
176
     1
 76
     1
176
     1
 77
     6
176
     1
 78
     2
176
     1
 67
     7
176
     1
 79
     5
176
     1
170
     0
176
     1
171
     0
176
     1
290
     0
176
     1
 93
        1
176
     1
 44
50.0
176
     1
173
     0
176
     1
  0
VISUALSTYLE
  5
3A
102
{ACAD_REACTORS
330
2A
102
}
330
2A
100
AcDbVisualStyle
  2
ColorChange
 70
    16
177
     2
291
     1
 71
     2
176
     1
 72
     2
176
     1
 73
     3
176
     1
 90
        0
176
     1
 40
-0.6
176
     1
 41
-30.0
176
     1
 62
     5
 63
     8
421
  8421504
176
     1
 74
     1
176
     1
 91
        4
176
     1
 64
     7
176
     1
 65
   257
176
     1
 75
     1
176
     1
175
     1
176
     1
 42
1.0
176
     1
 92
        8
176
     1
 66
     8
424
  8421504
176
     1
 43
1.0
176
     1
 76
     1
176
     1
 77
     6
176
     1
 78
     2
176
     1
 67
     7
176
     1
 79
     5
176
     1
170
     0
176
     1
171
     0
176
     1
290
     0
176
     1
 93
        1
176
     1
 44
0.0
176
     1
173
     0
176
     1
  0
VISUALSTYLE
  5
34
102
{ACAD_REACTORS
330
2A
102
}
330
2A
100
AcDbVisualStyle
  2
Conceptual
 70
     9
177
     2
291
     0
 71
     3
176
     1
 72
     2
176
     1
 73
     0
176
     1
 90
        0
176
     1
 40
-0.6
176
     1
 41
-30.0
176
     1
 62
     5
 63
     7
421
 16777215
176
     1
 74
     2
176
     1
 91
        2
176
     1
 64
     7
176
     1
 65
   257
176
     1
 75
     1
176
     1
175
     1
176
     1
 42
40.0
176
     1
 92
        8
176
     1
 66
     7
176
     1
 43
1.0
176
     1
 76
     1
176
     1
 77
     6
176
     1
 78
     2
176
     1
 67
     7
176
     1
 79
     3
176
     1
170
     0
176
     1
171
     0
176
     1
290
     0
176
     1
 93
        1
176
     1
 44
0.0
176
     1
173
     0
176
     1
  0
VISUALSTYLE
  5
35
102
{ACAD_REACTORS
330
2A
102
}
330
2A
100
AcDbVisualStyle
  2
Dim
 70
    11
177
     2
291
     1
 71
     2
176
     1
 72
     2
176
     1
 73
     0
176
     1
 90
        0
176
     1
 40
-0.6
176
     1
 41
-30.0
176
     1
 62
     5
 63
     7
421
 16777215
176
     1
 74
     1
176
     1
 91
        4
176
     1
 64
     7
176
     1
 65
   257
176
     1
 75
     1
176
     1
175
     1
176
     1
 42
1.0
176
     1
 92
        8
176
     1
 66
     7
176
     1
 43
1.0
176
     1
 76
     1
176
     1
 77
     6
176
     1
 78
     2
176
     1
 67
     7
176
     1
 79
     5
176
     1
170
     0
176
     1
171
     0
176
     1
290
     0
176
     1
 93
        1
176
     1
 44
-50.0
176
     1
173
     0
176
     1
  0
VISUALSTYLE
  5
39
102
{ACAD_REACTORS
330
2A
102
}
330
2A
100
AcDbVisualStyle
  2
Facepattern
 70
    15
177
     2
291
     1
 71
     2
176
     1
 72
     2
176
     1
 73
     0
176
     1
 90
        0
176
     1
 40
-0.6
176
     1
 41
-30.0
176
     1
 62
     5
 63
     7
421
 16777215
176
     1
 74
     1
176
     1
 91
        4
176
     1
 64
     7
176
     1
 65
   257
176
     1
 75
     1
176
     1
175
     1
176
     1
 42
1.0
176
     1
 92
        8
176
     1
 66
     7
176
     1
 43
1.0
176
     1
 76
     1
176
     1
 77
     6
176
     1
 78
     2
176
     1
 67
     7
176
     1
 79
     5
176
     1
170
     0
176
     1
171
     0
176
     1
290
     0
176
     1
 93
        1
176
     1
 44
0.0
176
     1
173
     0
176
     1
  0
VISUALSTYLE
  5
2B
102
{ACAD_REACTORS
330
2A
102
}
330
2A
100
AcDbVisualStyle
  2
Flat
 70
     0
177
     2
291
     1
 71
     2
176
     1
 72
     1
176
     1
 73
     1
176
     1
 90
        2
176
     1
 40
-0.6
176
     1
 41
30.0
176
     1
 62
     5
 63
     7
421
 16777215
176
     1
 74
     0
176
     1
 91
        4
176
     1
 64
     7
176
     1
 65
   257
176
     1
 75
     1
176
     1
175
     1
176
     1
 42
1.0
176
     1
 92
        8
176
     1
 66
     7
176
     1
 43
1.0
176
     1
 76
     1
176
     1
 77
     6
176
     1
 78
     2
176
     1
 67
     7
176
     1
 79
     5
176
     1
170
     0
176
     1
171
     0
176
     1
290
     0
176
     1
 93
       13
176
     1
 44
0.0
176
     1
173
     0
176
     1
  0
VISUALSTYLE
  5
2C
102
{ACAD_REACTORS
330
2A
102
}
330
2A
100
AcDbVisualStyle
  2
FlatWithEdges
 70
     1
177
     2
291
     1
 71
     2
176
     1
 72
     1
176
     1
 73
     1
176
     1
 90
        2
176
     1
 40
-0.6
176
     1
 41
30.0
176
     1
 62
     5
 63
     7
421
 16777215
176
     1
 74
     1
176
     1
 91
        4
176
     1
 64
     7
176
     1
 65
   257
176
     1
 75
     1
176
     1
175
     1
176
     1
 42
1.0
176
     1
 92
        0
176
     1
 66
   257
176
     1
 43
1.0
176
     1
 76
     1
176
     1
 77
     6
176
     1
 78
     2
176
     1
 67
     7
176
     1
 79
     5
176
     1
170
     0
176
     1
171
     0
176
     1
290
     0
176
     1
 93
       13
176
     1
 44
0.0
176
     1
173
     0
176
     1
  0
VISUALSTYLE
  5
2D
102
{ACAD_REACTORS
330
2A
102
}
330
2A
100
AcDbVisualStyle
  2
Gouraud
 70
     2
177
     2
291
     1
 71
     2
176
     1
 72
     2
176
     1
 73
     1
176
     1
 90
        2
176
     1
 40
-0.6
176
     1
 41
30.0
176
     1
 62
     5
 63
     7
421
 16777215
176
     1
 74
     0
176
     1
 91
        4
176
     1
 64
     7
176
     1
 65
   257
176
     1
 75
     1
176
     1
175
     1
176
     1
 42
1.0
176
     1
 92
        0
176
     1
 66
     7
176
     1
 43
1.0
176
     1
 76
     1
176
     1
 77
     6
176
     1
 78
     2
176
     1
 67
     7
176
     1
 79
     5
176
     1
170
     0
176
     1
171
     0
176
     1
290
     0
176
     1
 93
       13
176
     1
 44
0.0
176
     1
173
     0
176
     1
  0
VISUALSTYLE
  5
2E
102
{ACAD_REACTORS
330
2A
102
}
330
2A
100
AcDbVisualStyle
  2
GouraudWithEdges
 70
     3
177
     2
291
     1
 71
     2
176
     1
 72
     2
176
     1
 73
     1
176
     1
 90
        2
176
     1
 40
-0.6
176
     1
 41
30.0
176
     1
 62
     5
 63
     7
421
 16777215
176
     1
 74
     1
176
     1
 91
        4
176
     1
 64
     7
176
     1
 65
   257
176
     1
 75
     1
176
     1
175
     1
176
     1
 42
1.0
176
     1
 92
        0
176
     1
 66
   257
176
     1
 43
1.0
176
     1
 76
     1
176
     1
 77
     6
176
     1
 78
     2
176
     1
 67
     7
176
     1
 79
     5
176
     1
170
     0
176
     1
171
     0
176
     1
290
     0
176
     1
 93
       13
176
     1
 44
0.0
176
     1
173
     0
176
     1
  0
VISUALSTYLE
  5
38
102
{ACAD_REACTORS
330
2A
102
}
330
2A
100
AcDbVisualStyle
  2
Linepattern
 70
    14
177
     2
291
     1
 71
     2
176
     1
 72
     2
176
     1
 73
     0
176
     1
 90
        0
176
     1
 40
-0.6
176
     1
 41
-30.0
176
     1
 62
     5
 63
     7
421
 16777215
176
     1
 74
     1
176
     1
 91
        4
176
     1
 64
     7
176
     1
 65
   257
176
     1
 75
     7
176
     1
175
     7
176
     1
 42
1.0
176
     1
 92
        8
176
     1
 66
     7
176
     1
 43
1.0
176
     1
 76
     1
176
     1
 77
     6
176
     1
 78
     2
176
     1
 67
     7
176
     1
 79
     5
176
     1
170
     0
176
     1
171
     0
176
     1
290
     0
176
     1
 93
        1
176
     1
 44
0.0
176
     1
173
     0
176
     1
  0
VISUALSTYLE
  5
33
102
{ACAD_REACTORS
330
2A
102
}
330
2A
100
AcDbVisualStyle
  2
Realistic
 70
     8
177
     2
291
     0
 71
     2
176
     1
 72
     2
176
     1
 73
     0
176
     1
 90
        0
176
     1
 40
-0.6
176
     1
 41
-30.0
176
     1
 62
     5
 63
     7
421
 16777215
176
     1
 74
     1
176
     1
 91
        0
176
     1
 64
     7
176
     1
 65
   257
176
     1
 75
     1
176
     1
175
     1
176
     1
 42
1.0
176
     1
 92
        8
176
     1
 66
     8
424
  7895160
176
     1
 43
1.0
176
     1
 76
     1
176
     1
 77
     6
176
     1
 78
     2
176
     1
 67
     7
176
     1
 79
     5
176
     1
170
     0
176
     1
171
     0
176
     1
290
     0
176
     1
 93
       13
176
     1
 44
0.0
176
     1
173
     0
176
     1
  0
VISUALSTYLE
  5
37
102
{ACAD_REACTORS
330
2A
102
}
330
2A
100
AcDbVisualStyle
  2
Thicken
 70
    13
177
     2
291
     1
 71
     2
176
     1
 72
     2
176
     1
 73
     0
176
     1
 90
        0
176
     1
 40
-0.6
176
     1
 41
-30.0
176
     1
 62
     5
 63
     7
421
 16777215
176
     1
 74
     1
176
     1
 91
        4
176
     1
 64
     7
176
     1
 65
   257
176
     1
 75
     1
176
     1
175
     1
176
     1
 42
1.0
176
     1
 92
       12
176
     1
 66
     7
176
     1
 43
1.0
176
     1
 76
     1
176
     1
 77
     6
176
     1
 78
     2
176
     1
 67
     7
176
     1
 79
     5
176
     1
170
     0
176
     1
171
     0
176
     1
290
     0
176
     1
 93
        1
176
     1
 44
0.0
176
     1
173
     0
176
     1
  0
ENDSEC
  0
EOF
