<svg xmlns="http://www.w3.org/2000/svg" viewBox="0 0 1000 1000"><defs><style>.cls-1{fill:#11001c;}.cls-2{fill:#7e54c6;}</style></defs><title>VERSION 3SIN FONDO</title><g id="Capa_3" data-name="Capa 3"><g id="VERSION_3" data-name="VERSION 3"><g id="CIRCULO"><path class="cls-1" d="M803.73,638.17c-.23,1.12.59.8,1.67-2.08l-.07-2.4Z"/><path class="cls-1" d="M813.29,619.81c.79-3.58,1.41-7.76-.25-5.88-.32,3.67-1,4.34-1.24,8.37-1,2.89-2.36,4.82-2.49,4.21-.19,1.1-2,4.3-2.12,6.07a37.26,37.26,0,0,0,3.16-5.93c.49-1.12.94-2.29,1.37-3.49s.72-2.5,1-3.8C813.34,618.37,813.21,619.5,813.29,619.81Z"/><path class="cls-1" d="M790.69,329.33l.88,1.74A17.85,17.85,0,0,0,790.69,329.33Z"/><path class="cls-1" d="M658,200.71a5.43,5.43,0,0,0,1.94.81C658.7,200.94,657.72,200.48,658,200.71Z"/><path class="cls-1" d="M629.49,186l1.72.79A7.54,7.54,0,0,0,629.49,186Z"/><path class="cls-1" d="M790.69,329.33l-2.25-4.48C788,324.71,789.53,327.19,790.69,329.33Z"/><path class="cls-1" d="M823.29,579.69a25.48,25.48,0,0,0-.41,2.67c.18-.84.35-1.64.52-2.47A.75.75,0,0,1,823.29,579.69Z"/><path class="cls-1" d="M824,404.68l.43,1.46a13.22,13.22,0,0,0,.75,1.1Z"/><path class="cls-1" d="M836.19,466.84c-.11-1.43-1-1.84-1.41-2.35a9.31,9.31,0,0,1,.87,3.05C835.82,467.55,836,467.35,836.19,466.84Z"/><path class="cls-1" d="M829.7,566.69l-.24,1.77C829.52,568,829.63,567.22,829.7,566.69Z"/><path class="cls-1" d="M808.54,362a1.24,1.24,0,0,0,0-.65C808.47,361.39,808.48,361.63,808.54,362Z"/><path class="cls-1" d="M765.33,699.45c0,.07.09,0,.12.08C765.6,699.19,765.62,699.07,765.33,699.45Z"/><path class="cls-1" d="M805.75,639.08l-.4.93a1,1,0,0,0,.33.4Z"/><path class="cls-1" d="M573.92,166.88l.25.08C575.69,167.25,574.83,167.05,573.92,166.88Z"/><path class="cls-1" d="M164.59,428.5c1.93-5.82-1,9.94,1.62,1.11C165.72,430.39,166.57,421.14,164.59,428.5Z"/><path class="cls-1" d="M823.79,578.15c.21-.82.42-1.66.63-2.49C824.1,576.78,823.91,577.55,823.79,578.15Z"/><path class="cls-1" d="M166.21,429.61h0l.26-.91Z"/><path class="cls-1" d="M439.15,164a6.11,6.11,0,0,0,1.42.1C440.51,164,440.19,164,439.15,164Z"/><path class="cls-1" d="M539.61,162.56l-2.46-.36C538.12,162.38,538.92,162.48,539.61,162.56Z"/><path class="cls-1" d="M388.8,178.19a24,24,0,0,0-3.48,1.15l.56-.09A11.88,11.88,0,0,1,388.8,178.19Z"/><path class="cls-1" d="M338.91,199.7c.29-.07.65-.21,1-.31l1.51-.84Z"/><path class="cls-1" d="M641.27,801.57a11.84,11.84,0,0,1,2.57-.35C642.84,801,649.87,797.54,641.27,801.57Z"/><path class="cls-1" d="M823.76,579.78a3.18,3.18,0,0,1,0-1.63c-.13.6-.26,1.17-.39,1.74C823.48,580.07,823.59,580.13,823.76,579.78Z"/><path class="cls-1" d="M388.89,185.21l-8,2.68C383.12,187.18,386,186.21,388.89,185.21Z"/><path class="cls-1" d="M281.64,754.52l1.56,1.18A9.53,9.53,0,0,0,281.64,754.52Z"/><path class="cls-1" d="M357.74,197.79a38.69,38.69,0,0,0-4.59,1.48,5.19,5.19,0,0,0-.8.61Z"/><path class="cls-1" d="M643.87,801.22h0Z"/><path class="cls-1" d="M690.88,771.06c-6.56,4.69-2.46,3.1-3.49,4.63-7.92,5.55-4.2,1.77-7.26,3.08-2.44,1.76-4.5,3.49-6.42,5.08a50.64,50.64,0,0,1-5.77,4c-.39,0-1.18.39-.41-.32a56.3,56.3,0,0,1-4.78,3.25l-2.92,1.78-3.18,1.69a126.83,126.83,0,0,0-11.78,6.83,3.24,3.24,0,0,1-1,.16c1.33,0,1.75.42,1.7.89-3.3,1.54-5.86,3.47-7.41,3.39a9.43,9.43,0,0,0,2.94-1.9l-3.34,1.89c-3.55.49,4.59-2.52,4.26-3.21-3.3,1.71-6.84,3.67-10.21,5.47a91.92,91.92,0,0,1-9.43,4.07c-1.48-.5,12.23-5.32,4.83-3.3,1.39-.5,2.78-1,4.16-1.49l4.08-1.67c-6.76,1.35,4.89-2.14-1.42-1.12l-3.56,1.57L627.54,807c-1.78.75-3.25,1.42-4.72,2.08s-2.94,1.33-4.72,2.09c-.89.36-1.84.8-3,1.17l-3.68,1.22c-2.26,1.39,1.09.51-1.17,1.9a65,65,0,0,1-8.62,3.07,29.09,29.09,0,0,1-5,.71c-2.75.2-4.94.27-10.53,2.64-2.83,1.47-3.71,3-12.23,4.38l2.58-1.82a45.21,45.21,0,0,0-8.48,2.69c-1.56.65-3.22,1.23-9.06,2,2-.85,8.57-2.07,6.88-1.88-7.63.57-5.15,1.67-10.9,2.8-.45-.25-.91-.51-1.36-.79q-4.42.71-9,1.53c-3.08.52-6.19,1.19-9.39,1.55-6.37.81-12.91,1.87-19.53,2.14.72-.34,3-.77-.14-.93q-3.12.26-6.33.45l-3.23.19h-3.26c-4.37,0-8.79,0-13.2-.14-4.4-.3-8.78-.64-13-1-1.07-.09-2.13-.16-3.18-.27l-3.13-.42-6.08-.83-6.2.28c-1.42-.15-2.57-.77-1-.7-6.14-1.25-.39.51-3.41.41-3.54-.46-4.58-1.19-2.31-1.12-11.08-.42-31.31-4.17-42.32-8.1l2.27.3c-1.08-.33-2.07-.56-2.95-.79s-1.69-.44-2.43-.59c-1.49-.32-2.75-.48-4-.66a31.35,31.35,0,0,1-8.79-2.37l1.59.33c-2.36-.72-4.68-1.65-7-2.52l-7.1-2.6-3.56-1.29c-1.19-.41-2.33-.95-3.49-1.42l-6.86-2.89c-2.25-1-4.48-1.88-6.63-2.85s-4.17-2.09-6.16-3.11-3.89-2-5.71-3l-2.66-1.48c-.86-.49-1.65-1.05-2.44-1.57-1.55-.12-5.77-2.59-9.83-4.9l-3-1.67c-.93-.54-1.8-1.08-2.59-1.5-1.57-.85-2.77-1.33-3.27-1.12-4.57-3.32-6.12-4.62-8.17-6.19s-4.47-3.64-10.82-8.34c-3.47-2.39-5.73-2.8-10-5.8l.46-.81-6.24-3.54c-.79-1-1.51-2.15-2.24-3.24l-3.89-3c1.45,1.3,2.9,3,2.51,3a103.55,103.55,0,0,1-9.21-8.06c-2.61-2.69-4.35-4.93-4.27-5.15l-6.88-5.89c-1.17-1-2.24-2-3.34-3.05l-3.3-3.11c.55,0,2.75,2.11,4.59,3.66-7.4-6.26-.53-1.94-7.31-7.67.68,1-.84-.08-1.12-.1-.65-.9-1.64-2-2.68-3.29s-2.28-2.77-3.58-4.28-2.68-3.08-4.06-4.61l-2.05-2.25c-.67-.73-1.27-1.49-1.87-2.2l1.37.71q-3.08-4-6.4-8.06c-1.09-1.38-2.24-2.73-3.33-4.15l-3.21-4.35c-2.15-2.93-4.4-5.85-6.54-8.89l-6.17-9.38c2.69,4.68,1.09,4.25-1.42.59l-.13-2c-2.07-2.07,2.21,4.08-1.62-.45-2.81-4.91-1-3.84.91-1.22l-3.74-5.73c.05-.5,1,.81,1.52,1-1.91-2.14-5.19-10.6-7.84-13.75l.08-.48c-1.76-3.32-3.27-6.19-4.64-8.79s-2.43-5-3.56-7.32l-3.31-6.87c-1.11-2.35-2.09-4.9-3.27-7.72-.87.1-2.5-4.42-4.51-7.57-1.37-4.31-2.73-8.89-4.2-13.66l-.55-1.8-.48-1.84-1-3.74c-.69-2.52-1.42-5.08-2.21-7.67l-.8-2.16c-.19-.56-.34-1-.46-1.26-.24-.58-.36-.7-.46-.69s-.26.55-.91-1.06c.6-.74-2.06-11.27-.18-5.93-.41-1.57-.77-3-1.12-4.35s-.67-2.57-.89-3.76l-1.45-6.77c-.5-2.24-1-4.59-1.66-7.39s-1.11-6.09-1.86-10.15c-.05,1.82.11,3.84-.3,2.84-.56-3-.68-6.81-.25-6.43l.2.78c-1.74-9.13-2.22-19.88-2.06-30.1-.11-5.11.26-10.1.31-14.72q.06-3.48,0-6.65c0-2.1,0-4.09-.09-5.94l0,.83-.05-7.66c0-1.28,0-2.56,0-3.83l.17-3.83c.82-7,.16,4.25,1.15-.89.08-4.13.3-7.82.58-11.24.44-3.4.95-6.53,1.45-9.56.25-1.52.5-3,.74-4.51l.36-2.24c.16-.74.31-1.49.46-2.24.6-3,1.15-6.1,1.61-9.48a38.26,38.26,0,0,0,1.54-4.41c.58-1.68,1.16-3.56,1.73-5.58s1.14-4.2,1.7-6.46c.28-1.13.56-2.28.85-3.44s.66-2.32,1-3.5c1.38-4.68,2.72-9.51,4.16-13.94,1.6-4.38,3.2-8.41,4.74-11.61l-.78.58c.77-3.63,1.76-4.07,2.95-6.49-.53.19-2,3.48-1.37,1.28q2.14-5.41,4.42-10.88l1.14-2.73c.38-.91.76-1.82,1.21-2.71l2.61-5.36c.88-1.78,1.77-3.57,2.65-5.37s1.75-3.6,2.78-5.33l6-10.48,1.51-2.61,1.64-2.54,3.29-5.08,3.28-5.08.82-1.26.89-1.23,1.76-2.45,7-9.77,7.41-9.37c3.52-4.61,4.16-6.21,5-8.13s2.14-4,7.36-9.21l-1.94,3.83c.89-1.16,1.77-2.34,2.7-3.49l2.92-3.33q2.94-3.33,6-6.64c2-2.25,4.17-4.26,6.29-6.37l6.44-6.23c2.17-2,4.47-3.95,6.69-5.93L283.9,244q3.44-2.77,6.8-5.58l3.34-2.82,1.65-1.41c.56-.47,1.14-.9,1.7-1.35a17.13,17.13,0,0,1-2.6,2.63c.53-.3,1.13-.73,1.83-1.17s1.45-.95,2.23-1.5c1.57-1.09,3.25-2.35,4.78-3.55,3.06-2.39,5.55-4.59,5.43-4.85,3-1.9,1,0,3-1a57.7,57.7,0,0,0,6.81-4.68c2.21-1.68,4.21-3.18,5.54-3.48.44-.12-1.07.87-1.79,1.4,2.54-1.93,12.8-7.38,9.76-6.58l10.86-5.88c1.72-.94,3.39-1.85,5-2.7.81-.42,1.62-.84,2.43-1.22s1.63-.68,2.44-1c1.84-1.36,5.25-2.81,8.28-4.14,1.52-.66,2.94-1.32,4.05-1.87a4.66,4.66,0,0,0,2.1-1.46c0,1.52,14.38-4.81,19.42-7-1.59,1,4.62-1.17,2.78.07,5.83-2.18,11.27-3.9,10-4.28,5.75-.85,11.14-2.92,16.1-4.3,2.46-.74,4.78-1.44,6.9-1.92a29.07,29.07,0,0,1,3-.53,12.29,12.29,0,0,1,2.72,0l13.27-3.12,13-2.34c1.08-.18,2.14-.39,3.21-.55l3.2-.4,6.36-.79,6.29-.75,6.27-.44c-.13.35-1.34.59-3.08.77-.87.09-1.87.17-2.93.24l-3.27.35c-4.42.47-8.67.94-8.23,1.61,3.91-.52,7.4-1,10.69-1.55s6.4-.7,9.5-1l4.67-.44,2.39-.2,2.45-.07c3.31-.08,6.83-.09,10.75,0s-2.32.59-3.68.82q3-.1,5.87-.16c1.94,0,3.87.11,5.78.17l11.28.54c3.69.34,7.32.72,10.92,1l5.36.41,5.28.56a14.58,14.58,0,0,1-3-.08c2.75.36,6.34,1.14,6.13.49l-2.7-.23c-4.28-1.53,11.19-.25,11.78-.59-4.94.81,13.6,3.18,5.82,3.89,1.81.25,4.11.41,3.79-.08,2.63.65,3.42,1.06.63,1,2.45.4,4.08.62,5.29.76s2,.27,2.71.35a47.07,47.07,0,0,1,7.22,1.46c-.11.28-1.9-.05-2.89.06,2.28.27,4.57.55,7.21,1l2,.39c.7.18,1.43.38,2.18.6,1.51.43,3.15,1,4.95,1.57-.49,0,.29.52-1.88-.15,3.13.94,6.06,1.72,8.9,2.45l2.12.54,2.06.62,4.11,1.24c2.75.84,5.53,1.71,8.46,2.71,1.48.47,2.94,1.11,4.46,1.76s3.09,1.36,4.72,2.12c-4.41-.45,4.34,2.3,4.59,3.62,1.2.45,2.42.87,3.6,1.36l3.54,1.53-2.56-1.84c3,1.48,6,2.68,8.83,3.87a51.88,51.88,0,0,1,8,3.92l-2.32-1-2.36-.89c1.93.85,3.79,1.85,5.66,2.84l5.61,2.95-6.1-3.82c6.29,2.78,0-1.61,7.81,3-1.68-.76,6,3.2,8.61,5.74h0a66,66,0,0,1,10.32,5.81c.91,1-1.57.49-1,1.13,1.67.47,4.94,2.71,8.35,4.94a100.38,100.38,0,0,0,8.85,5.43c-1.25-.66-1.65-.23-1.36.15l2.66,1.07c2.36,2.1,2.65,2.47,2,2.53,7.42,5.83-1.52-2.94,7,4.34-.74-.49-.47-.14-2-1.16,1.08.89,2.21,1.72,3.26,2.62l3.15,2.65,6.27,5.1c1,.85,2.07,1.66,3.07,2.52l2.92,2.65c1.92,1.77,3.81,3.55,5.63,5.39,1.45,2.89-6.79-6-4.88-2.89,11.19,9.76,22.77,20.84,31.86,32.06l-1.58-2.18c1.24.27,2.76,2.51,4.62,5.32.93,1.4,1.94,2.95,3,4.47s2.33,3,3.51,4.39c-1.13-1.39-2.1-1.34-1.66-1.07,2.8,4.06,5.81,8.1,9.29,12.59,1.69,2.29,3.38,4.77,5.26,7.39l2.9,4.11c.5.71,1,1.43,1.52,2.17s1,1.53,1.48,2.32l-1.28-1.39c1.31,2.61,3.19,5.95,5.13,9.32,1,1.7,2,3.36,2.83,5s1.64,3.25,2.33,4.66c1.22,1.46,2.82,4.69,2.34,2.48.85,2.29,1.81,4.49,2.75,6.66s1.81,4.36,2.77,6.48,2,4.18,3,6.22l.76,1.53.69,1.55c.47,1,.93,2.06,1.39,3.08l2.75,6.1c.89,2,1.81,4,2.51,6.11a110.33,110.33,0,0,1,3.73,12.46c-.68-1.93-2-4.5-1.42-3l1.3,3.42c.42,1.15.77,2.32,1.16,3.47l2.27,7c.33-1.3-.15-2-.51-5.06a56.59,56.59,0,0,1,3.45,9c-1.16-3.12-1.42-3-1.34-1.8s.52,3.56.64,5c.09-.52.55.37.7.08.64,7.75,1.66.9,3.36,11.29l-.48-.46c.29.94.57,1.86.86,2.78s.5,1.84.76,2.77c.5,1.86,1,3.77,1.32,5.86-.45,1.88-1.17-4-1.87-4.16,1.16,5.81,3.87,11.21,3.74,16.69-.29-1.23-.57-2.74-.85-4.26a43.26,43.26,0,0,0-1-4.22c0,1.48.12,2.62.17,3.58s.07,1.73.14,2.45c.13,1.44.34,2.67.58,4.83l0-.43c.32,3.33.74,6.65,1,10,0-.86,0-1.71-.07-2.56a22.4,22.4,0,0,1,1.58,5.49c.34,1.9.56,3.86.76,5.91s.4,4.16.66,6.39a66.4,66.4,0,0,0,.91,7.08c-1.77-9.66-.83-1.57-1.78-2.26-.12,2.56-.22,6.43-.53,5.34a28,28,0,0,1,.42,6.52,35.2,35.2,0,0,0,.37,8c-.29.3,0,5-.76,4,.23,6.12.51-1.44.87-.92.62,4.73-.11,10.28-.62,16.33-.13,1.51-.27,3-.4,4.62s-.38,3.16-.54,4.78a98.47,98.47,0,0,0-.52,10c-.05,1.47-.17,2.78-.28,4s-.16,2.3-.23,3.31c-.12,2-.18,3.75-.24,5.45s-.12,3.38-.24,5.31-.48,4.09-.89,6.8c-1.18,3.53-.45-3.16-.45-3.16-.8,2.87-1.4,5.4-1.89,7.91s-.83,5-1.41,7.75c0-1.15-.47-.07-1.2,1.5-1,4.36.29,3.17-1.58,8.8a24.82,24.82,0,0,1,0-4.63c-.51,2.59-1,5.18-1.41,7.8s-1.18,5.2-1.86,7.86c-.91,1.23.23-3.39.48-5.32-1.6,5.93-4.16,15.36-4.21,17.37l1.62-3.63c-.73,2.13-1,.88-.65-.74.94-5.23,2.49-7.18,2.86-7.38l-1,3.78c1.4-1.65,2.49-5.44,3.53-9.73.57-2.13.87-4.45,1.31-6.68s.85-4.39,1.36-6.29l.4,3.49,1-8.08c.38-.79.75-1.44,1-1.41s.34.75-.06,2.65c.25-.67.45-1.24.61-1.76s.23-1,.31-1.36a19.21,19.21,0,0,0,.29-2,16.93,16.93,0,0,1,1.06-4.51c.21-.51.22-.26.17.24l.72-5.5c0,1.12,1.05-.74.2,2.57a55.44,55.44,0,0,0,1.46-6.61c.26-2,.41-3.82.55-5.44.27-3.23.46-5.67,1.2-7.46l0,.83c.19-1.71.36-3,.41-4s0-1.69,0-2.16c0-.94-.16-1-.32-1-.32.06-.76.53-.79-4.64l2.93-6.72-.78-1.42c.13-1.41.32-4.21.66-3.67-.36-5.32-.44.87-.88-2.23a56.61,56.61,0,0,0,.6-5.82c.06-1.06.11-2.13.16-3.19s.1-2.12.07-3.13c0-4.05,0-7.44.77-8.21-.69-2.45-.53,6.54-1-.76.79-1,.72-3.16.54-5.78a52.16,52.16,0,0,1-.5-8.9c.9,1.88.76,7.83,1.18,1.54-.78-1.86-.85-4.9-.8-8.15.07-1.62,0-3.28-.06-4.88a40.48,40.48,0,0,0-.35-4.42c-.55-.07-.94-2.91-1.35-6.83,0-.49-.1-1-.16-1.52s-.15-1.05-.23-1.59c-.16-1.08-.32-2.21-.49-3.35-.34-2.27-.72-4.6-1.13-6.78.6.48-2.18-16.54-3.81-24.64l.24.2c-.73-.65-1.55-3-2.41-6-.42-1.49-.85-3.13-1.29-4.76s-1-3.24-1.47-4.71c.69.06,1.3,1,2.48,4.2-.49-1.88-1.1-3.73-1.64-5.59a34.53,34.53,0,0,1-2.63-6.5L823,400.8c-.57-1.85-1.18-3.7-1.84-5.58s-1.5-3.72-2.28-5.67-1.54-4-2.3-6.09c-.38-1.07-.75-2.16-1.12-3.29s-.83-2.25-1.24-3.43c-.92-.23,1,8.08-3.44-1.45.24-.51.75-1.14,1.94,1.35a30.59,30.59,0,0,1-2-4.6l2.22,3.64c-1.41-4.32-1.43-2-2.73-5.36.58-.16-.61-2.65,0-2.35a43.36,43.36,0,0,0,1.7,4.23c-.72-1.92-1.46-4.06-2.05-5.93s-1.15-3.43-1.26-4.28c-.16.46-.73.32-2.06-2.37-3.29-7-.47-2.7-2.09-6.95-.6-.75-1.25-2.34-2-3.62s-1.43-2.37-1.85-2.23a8.51,8.51,0,0,1-1.06-3.47c-.55-.84-1.38-2.3-2.28-4s-1.85-3.5-2.84-5c-1.91-3.09-3.34-5.21-2.61-3l.46.92-.36-.55v0c-1.85-2.72-3.6-5.57-5.3-8.48l-5.35-8.66-2.66-4.36c-.45-.72-.87-1.45-1.34-2.16L775.74,306c-1.91-2.77-3.85-5.48-5.83-8.07l.25-.16c-2.34-3.11-5.2-6.38-7.76-9.51a73.85,73.85,0,0,0-7.12-7.86c-1.52-1.72-3.18-4.43-2.26-3.92-2-2.16-3.25-3.31-4.6-4.77-.69-.71-1.35-1.56-2.29-2.55s-2-2.23-3.44-3.86c4.55,3.94-1.1-1.8,4.55,4.14-2.6-2.86-4.12-4.69-5.79-6.49a61,61,0,0,0-6.71-6.19c2.6,1.39-3.61-4.67-6.46-7l3.6,4.1c-3.1-2.74-5.7-5.26-8.35-7.82l2.12.62a46.72,46.72,0,0,0-4.21-4c-1.43-1.25-2.86-2.43-4.28-3.56-2.85-2.23-5.57-4.38-8.41-6.18s-5.46-3.68-8-5.58c-1.26-.94-2.44-1.95-3.63-2.92s-2.36-2-3.46-3c-3.86-1.8,6.82,5.28,3.25,3.82-5.92-4.22-11.39-9.74-13.31-11a38.81,38.81,0,0,0-8.55-4.69c-1.12-.46-2.25-.93-3.65-1.64-.7-.35-1.46-.77-2.33-1.28s-1.87-1-3-1.7c1,1,1.62,2.38-5.36-1.06-6.31-3.6-7.16-5.62-3-3.66,1.55.82,2.24,1.32,2.12,1.39,2.13,1,4.92,2.37,2.57.65l-1-.15c-1.51-1-4.47-2.74-6.77-4.12s-4-2.24-2.81-2c-5.13-2.1-2.39-.5,1.21,1.44-4.1-2.27-7.4-3.87-10.74-5.46-1.68-.77-3.33-1.64-5.17-2.42s-3.79-1.65-6-2.67c1.34.78,2.47,1.71,1.07,1.12-6.43-2.95-7.94-3.4-8.93-3.56a14.15,14.15,0,0,1-1.68-.29,40.46,40.46,0,0,1-4.34-1.31c-4.91-2.36,2.29-.55-6.93-3.41-5.42-2.36-.87-1.32,1.44-.79-2.13-.59-4.15-1.27-6.06-2s-3.78-1.25-5.49-1.89c-3.42-1.28-6.37-2.51-8.76-3.32l4.53,1.1c-2.72-.64-4.88-1.37-7.12-2,.8.43,1.57.95,2.36,1.43l-1.83-.64-1.54-.46c-.87-.28-1.39-.49-1.33-.62-2.85-.24,1.77,1.67-3.78.92-1.72-.62-4.41-1.2-6.81-1.78-1.19-.29-2.31-.58-3.2-.88a4.2,4.2,0,0,1-1.8-.81l1.82.41,1.33.35a13.72,13.72,0,0,0,1.49.31c.57.06.4-.12.17-.33-.45-.42-1.1-.95,3.61.16-1.84-.34-4-.92-6.67-1.69-.38-.18.42-.12,1.16,0-10.56-3.06-5.17,0-16.26-2.23.75-.12.15-.5-.87-.87a15.89,15.89,0,0,0-3.4-.74c4.53.69,2,1.2-2.19,1-7.11-1.47-7.84-.85-11.59-1.46l4.26.83a13.91,13.91,0,0,1-3.74-.1c-1.71-.16-3.87-.3-6.39-.48-.38-.45,4.59.17,2.82-.19a39.55,39.55,0,0,1-9.36-1c-1.7-.28-3.47-.69-5.31-.83a46.69,46.69,0,0,0-5.72-.2c-3.6-.54-.29-1-3.47-1.42a52.47,52.47,0,0,1-5.35-.07c-1.44-.12-2.65-.15-3.86-.27a57.29,57.29,0,0,0-9.56-.12c2.67.71,3.12.54-3.36,1.24l15.17-.51-9.74,1c2.29,0,4.7-.1,6.88-.2l3.06-.12a22.18,22.18,0,0,1,2.44.09,18.75,18.75,0,0,0-3.54.4c-.19.1.47.21,1.55.5A40.56,40.56,0,0,0,497,161c-1.61.11-3.24.22-4.93.26-.84,0-1.69,0-2.56,0s-1.76,0-2.66,0l.16-1.78c-2.73-.07-5.3,0-7.84.18-1.28.08-2.54.19-3.81.3l-1.92.18-1.93.29c-2.6.39-5.3.8-8.22,1.17s-6.1.63-9.6,1.1c1.51-.09,3-.29,4.54-.3-1.8.87-8.62,1.33-13.1,2.25.33-.64-2.53-.45-4.53-.51.31.39-10.18,1.95-11.19,3.36-2.11.17-4.25.24-6.34.53-11.16,2.46-12.26,4.59-22.75,7.6,3-1.56-1.92-.54,5-3.08-3.51,1-6.7,1.88-6.64,2.29a35.52,35.52,0,0,0-6,2,38.87,38.87,0,0,1-6.8,2.43c-1.37.75-1.63,1.5-5.51,2.81-.47,0-.09-.28-.09-.28a18.15,18.15,0,0,1-2.47,1.31c-1,.57-1.6,1,.18.64a74.47,74.47,0,0,0-9.37,3c-1.7.63-3.45,1.32-5.21,2s-3.48,1.61-5.22,2.42c-3.47,1.64-6.9,3.25-10,4.66a67.83,67.83,0,0,1-8.27,3.59l-5.45,3c-1.86,1-3.69,2.23-5.54,3.33L323.48,209c-1.74,1.08-3.46,2-5,3,.29-.4-.14-.26,1-1-8.66,5-4.26,4.73-14,10.48-2.62,1.3-1.47.32-.06-.77s3.18-2.14,1.55-1.31c-1.24-.43-4,1.68-7.28,4.26a115.74,115.74,0,0,1-10.5,7.63l1.38-1.25c-5,3.17-10.84,9.34-18,15.67,0,0,.24-.43-.15-.25-1.06,1.26-2.42,2.74-4,4.33-.79.79-1.58,1.66-2.38,2.55l-2.53,2.73-5.29,5.57c-.88.92-1.78,1.8-2.59,2.72l-2.36,2.68c1.4-2.61,2.56-3.33.81-2.59-2.73,3.09,1.71,0-3.72,6.13-2.1,1.67-6.47,5.7-7.53,5.82.81-1,1.69-2,2.57-2.9l2.63-2.85a22.26,22.26,0,0,0-5.06,4.89c-1.55,2-3,4.1-4.4,5.61l0-.7c-7.64,9.15-6.6,10.17-14.45,20.23l1.09-.84a23,23,0,0,1-3.55,5.33,19.92,19.92,0,0,0-3.62,5.26L216,310.58l-2.35,4-2.93,5.52-3.28,6.09c-1.11,2-2.23,4-3.13,5.84a64,64,0,0,1,4-8.83l4.94-9.48c-2.46,3.85-8.09,13.28-8.83,15.6a40.77,40.77,0,0,1,2.93-5.21c-2.27,5.18-5.24,11.93-9.64,19.86-.71-1.28-3.44,4-6.52,10.22l-2.37,4.77c-.42.79-.79,1.6-1.13,2.39l-1.06,2.3a41.49,41.49,0,0,1-3.75,6.85c-.68,1.9-1.41,3.78-2.13,5.66s-1.31,3.82-2,5.72l-2.12,5.73c-.37,1-.73,1.92-1.1,2.89s-.76,1.93-1.06,2.92l-4,12.17c-.34,1.05-.69,2.1-1,3.16l-.87,3.27q-.86,3.28-1.7,6.71c3.36-6-1.3,5.34.77,4.64-.51,2.12-.75,3.61-1,4.6a8.52,8.52,0,0,1-.44,1.66c-1.21,4.25-2.48,8.5-3.65,12.79-.49,1.51-.45.46-.31-.92s.46-3.08.22-2.92c-.53,2.34-.84,3.76-1,4.67a5.34,5.34,0,0,1-.55,1.56c-.32.56-.63.71-1.34,3.83.84-1.2.44,3.44-.61,8.83l2-7.51a64.36,64.36,0,0,1-1,7.62c-.35,1.9-.62,3.33-1,4.75a52.73,52.73,0,0,0-1.52,12.53l-.16-4.31c-.29,3.47-.52,9.89-.7,16.28,0,1.6-.07,3.2-.1,4.75s.13,3.06.22,4.47a51,51,0,0,0,.8,7c-.21,1.22-.71,2.86-.84-.2,0,2.07-.08,4.21.05,6.38s.29,4.37.46,6.59c.36,4.43.64,8.92,1.31,13.26s1.1,8.59,1.57,12.53c.62,3.93,1.09,7.58,1.34,10.8l-.63-1.18c.29,1.52.69,2.82,1,4.23a32.52,32.52,0,0,1,.83,4.85c-.22-.17-.68-1.15-.43.26a95,95,0,0,1,2.89,12l-1.17-3.33.49,2.91.25,1.4.32,1.34c.43,1.76.86,3.42,1.3,5,.88,3.19,1.78,6.08,2.69,8.88s2.07,5.44,3.1,8.22c.52,1.39,1,2.81,1.56,4.29s1,3,1.61,4.59c-.63.18,0,3.31,1,7.16.51,1.93,1.13,4,1.73,6s1.34,3.86,1.86,5.37l-.26-.14c1.75,4.38,3.39,8.43,5.11,12.23s3.64,7.27,5.45,10.75S194,654,196,657.45s4,7,6.35,10.69c1.05,2.51,2.69,5.76,4.71,9.48,1,1.88,2.23,3.75,3.45,5.75l3.92,6.16,2,3.19c.71,1,1.47,2.08,2.2,3.12l4.42,6.24c2.83,4.19,5.87,8,8.42,11.55-1.47-2.23,1.08-.3,3.1,2a32.79,32.79,0,0,0,2.18,2.71c.81.93,1.74,1.8,2.51,2.61,1.55,1.59,2.63,2.83,2,3l-.94-1.11c1.17,3.06,6.81,9.32,11.48,13.94l1.9-.33a76.43,76.43,0,0,0,9.59,10.75c1.86,1.78,3.8,3.57,5.75,5.34,1,.87,1.93,1.77,2.93,2.61l3,2.44,5.79,4.68,2.69,2.21,1.28,1.06,1.27,1a53.94,53.94,0,0,1,7.52,6.66c.88.55,1.8,1.15,2.73,1.78s1.88,1.3,2.87,1.9c2,1.23,3.92,2.45,5.72,3.45l-.66.57,6.32,4.5c.95.71,1.93,1.32,2.9,1.92l2.92,1.84,6.34,3.89,3.71,2.23,4.37,2.32-2.83-.86a31.48,31.48,0,0,0,8.46,3.25c1.22.31,2.42.61,3.72,1q1,.33,2,.78c.72.3,1.5.61,2.33,1l1.42,2.1c3.14,1.51,6.26,3.09,9.38,4.69l2.33,1.19,2.39,1.09,4.79,2.15c3.21,1.4,6.4,2.84,9.66,4.06s6.6,2.19,9.93,3.09c-.27.1-.78.31-2.92-.42,6.05,2.57,23.93,8.68,22.12,6.35,0,.29.79.7,2.19,1.19a55.66,55.66,0,0,0,5.59,1.38c2.21.47,4.66.94,7,1.39s4.6.91,6.48,1.11l-1.33.58c6.46.21,6.71,0,15.43,1.4,1,.27,1.44.5,1.27.6a4.77,4.77,0,0,1-2.28-.33,21.24,21.24,0,0,0,3.86.74c1,.1,1.7.11,2.48.12a37.29,37.29,0,0,1,7.45.94l-3.2.06a56.07,56.07,0,0,0,6.45.8,36.8,36.8,0,0,0,4.13-.21c4.52.1,13.51,1.58,14.53,2.38,1-.41,5-.84,9.17-.41.56.31-1,.41-1.77.46,3,.29,5.61.43,8,.49s4.49-.15,6.49-.24a83.81,83.81,0,0,1,11.65,0c.18.26.72.38,1.41.43-2.39.16-4.66.09-6.72.1l-5.4,0c-3,0-4.77,0-4.41-.08,0,.77,7.73.91,1.55,2,3.12-.29,7.34-.75,11.7-1.1a123.74,123.74,0,0,1,12.65-1,5.23,5.23,0,0,1,1,.22l-.77.12a31.38,31.38,0,0,0,4.75-.37c2.4-.11,3.93-.16,6.23-.37.47.27,2.69.14,5.27-.1l4-.41c1.3-.14,2.5-.38,3.46-.49-.42-.79,4.58-1.39-.18-1.4.61,0-.7.23-3.24.59-.57.08-1.24.16-1.62.25l.25-.1-9.51,1a38.82,38.82,0,0,1,10.39-1.34c1.9-.73,4-1.67,5.13-2.08,2.67.2,6.54.09,9.94,0,.85,0,1.68,0,2.44-.08l2.08-.13a10.82,10.82,0,0,1,2.54,0c2.87-.68,6-1.37,9.19-2.08.79-.18,1.6-.33,2.39-.54l2.38-.65,4.69-1.3c3.07-.88,6-1.73,8.58-2.61a56.36,56.36,0,0,0,6.4-2.84c3.13-1.15,3.8-.66,5.07-.78-1.8.7-4,1.33-4.94,1.85,1.57-.57,3.54-1.22,5.63-1.9l3.18-1,3.1-1.18c4-1.54,7.42-3,8-3.74,4-1.15,3-.53,2.34-.11-.34.21-.6.37-.1.23a39.44,39.44,0,0,0,4.45-1.71l-1.33.9a135.72,135.72,0,0,0,14.75-5.63c4.42-2.2,8.55-4.48,12.74-6.77,1.06-.55,2.08-1.19,3.12-1.81l3.14-1.88c2.13-1.25,4.31-2.5,6.61-3.74s4.64-2.59,7.14-3.93,5.15-2.69,8-4a11.82,11.82,0,0,1-2.77,1.17c1.58-.86,3.17-1.7,4.74-2.61l4.6-2.88c3.07-2,6.16-3.91,9.21-6l8.9-6.51c1.48-1.1,3-2.16,4.43-3.3l4.29-3.49c2.84-2.34,5.73-4.63,8.54-7s5.49-4.86,8.24-7.24c1.37-1.21,2.78-2.35,4.11-3.58l4-3.68c2.65-2.44,5.33-4.82,8-7.16,5.73-5.68,5.81-6.8,8.76-10.75l1.87-.67c1.61-2.32,3.1-4.73,4.66-7.08a71.47,71.47,0,0,1,5.46-6.47l5.49-6.08c1.87-2.07,3.78-4.23,5.73-6.68a78.94,78.94,0,0,0,5.53-8.68l-1.61,1.26c.79-1.1,1.78-2.54,2.8-4.08.52-.76,1.05-1.55,1.57-2.33s1-1.54,1.47-2.3c1.81-3,3.28-5.26,3.34-4.69a8.59,8.59,0,0,1,1.77-3.48l.49.11c1-2,2.11-3.9,3.1-5.89l2.83-6c2.62-4.43,2.84-3.86,3.32-3.81.24,0,.54-.1,1.25-1a37.23,37.23,0,0,0,3.47-6.1c2.29-5.15,5.7-15,4.49-13.2-1,2-2.77,5.06-3.27,5l2-4.7c-.87-1.42-.5-5.47-6.76,5.25l-3,8.16-1.94,2.12c1.19-2.1,2.21-4.3,3.24-6.49a27.69,27.69,0,0,0-2.53,4.63c-.63,1.39-1.09,2.71-1.62,4.09a10.48,10.48,0,0,0-2.39,2.81l-2.91,8.08c-.5.3-.23-.64-.28-1.09s-.27-.33-1.9,2c-1.54,3.69,3.05-2.63,0,3.19-2.71,3.19-2.52,1.89-4.59,6.3-.66.39-.32-.6.55-2.32-1,1.93-2.35,4.43-3.73,6.62a28.21,28.21,0,0,0-2.94,5.31,63.47,63.47,0,0,0-5.29,7.08c-1.8,2.46-3.4,4.34-3.79,3.78a85.63,85.63,0,0,1-6.14,9.86c1.56-3.39-.61-.38-3.52,2.88s-6.13,7.12-6.15,5.84a19.57,19.57,0,0,1-1.2,2.1,21.94,21.94,0,0,1-1.81,2.46c-1.4,1.7-3.09,3.6-4.89,5.58s-3.67,4.07-5.53,6.06-3.74,3.86-5.3,5.65a8.59,8.59,0,0,1,1.54-1.87c-3.92,3.63-5.32,4.4-8,6.59.3,1.31-5.77,7-8.67,10.53-5.65,3.46,2.09-3.68-.17-3.14.43.24-1.52,2.32-3.37,4.17s-3.62,3.42-2.5,3c-4.36,2.58-3.59,2.43-6.21,3.27.21,1.68-3.42,3.16-6.29,6.25-6.31,3.65-2.32,0-8.51,5C685.46,775.61,690.88,771.06,690.88,771.06Zm-175.27,63.7h0l3.91-.24Zm-15.93.49c1.94,0,4.36.07,6.92,0,.56.24,0,.64-1.64.61C505.83,835.66,502.06,835.49,499.68,835.25ZM534,839.18c-2.54.37-3.41.29-3.78.15,1.21-.13,2.61-.3,4.46-.54l.29-.13A2.94,2.94,0,0,1,534,839.18Z"/><path class="cls-1" d="M538.41,837.63c.37,0,.57-.11,1-.19-.52,0-1,0-1.53,0l-.88.35Z"/><path class="cls-1" d="M791.73,331.37l-.16-.3a4,4,0,0,1,.26.67A2.35,2.35,0,0,1,791.73,331.37Z"/><polygon class="cls-1" points="295.68 765.27 295.57 765.46 296.78 766.15 295.68 765.27"/><path class="cls-1" d="M822.61,413.91a4.43,4.43,0,0,0,.06,1.18A5,5,0,0,0,822.61,413.91Z"/><path class="cls-1" d="M830,451.14l.48,5.35C830.35,454.17,830.19,452.48,830,451.14Z"/><path class="cls-1" d="M832.66,480.19a1.34,1.34,0,0,0,.38.55v-.06Z"/><path class="cls-1" d="M540.9,168.46c-.38-.06-.77-.1-1.11-.13C537.16,168.15,538.94,168.29,540.9,168.46Z"/><path class="cls-1" d="M670.92,211.7c-1.33-.64-2.64-1.26-4-2C669,211.06,670.61,212.08,670.92,211.7Z"/><path class="cls-1" d="M389.77,184.91s0,0,0,0l-.89.32Z"/><path class="cls-1" d="M661.3,206.62a48.55,48.55,0,0,0,5.63,3.1C665.19,208.7,663.14,207.48,661.3,206.62Z"/><path class="cls-1" d="M816.1,604.64l-.45,1.33c.06,0,.08.09.07.2C815.86,605.67,816,605.15,816.1,604.64Z"/><path class="cls-1" d="M815.72,606.17l-.44,1.5A6,6,0,0,0,815.72,606.17Z"/><path class="cls-1" d="M814.36,610.82l.92-3.15A13.53,13.53,0,0,0,814.36,610.82Z"/><path class="cls-1" d="M826.37,567.48l-.21-.5A.58.58,0,0,0,826.37,567.48Z"/><path class="cls-1" d="M828.52,556c-.2,1.38-.76,3.07-1.24,4.9a50.73,50.73,0,0,0-1.29,5.73l.17.4a24.81,24.81,0,0,1,1.18-5.2C827.94,559.6,828.63,557.31,828.52,556Z"/><path class="cls-1" d="M836.93,507.34c-.14,3.31-.45,6.61-.67,9.92.41-1.72,1-4,.81.54C838.63,505.3,836.27,520.35,836.93,507.34Z"/><path class="cls-1" d="M836.65,476.51c.42,5.33.47-.09.67.17a14.06,14.06,0,0,0-.55-2.85C836.64,473.71,836.7,474.51,836.65,476.51Z"/><path class="cls-1" d="M751.76,274.6l.93-.11C749.88,271.46,752.44,274.66,751.76,274.6Z"/><path class="cls-1" d="M719,247.54c.91,1,1.82,1.92,2.67,3l1.84.77-2.21-1.91C720.51,248.72,719.72,248.14,719,247.54Z"/><polygon class="cls-1" points="702.88 227.53 704.38 228.54 698.73 224.58 702.88 227.53"/><path class="cls-1" d="M347.16,194.57c.51.08,1,.18,1.54.29C351.16,193.55,351.22,192.31,347.16,194.57Z"/><path class="cls-1" d="M224.66,298.29a17.2,17.2,0,0,0-2.88,3.06,26.31,26.31,0,0,0-2.65,4.2c1.06-1.48,2.18-2.92,3.15-4.18S224.17,299.08,224.66,298.29Z"/><path class="cls-1" d="M258.48,743.14,256,741c1.5,1.4,3,2.86,4.55,4.16C259.84,744.51,259.12,743.86,258.48,743.14Z"/><path class="cls-1" d="M200.88,634.19c-.51-1.08-1.12-2.42-1.91-4.29-1.84-4.25-3-8.14-2.25-6.57-3.85-8.62-3.57-9-4.64-9.85-2.31-5.62-3.94-11.9-1.42-5.48l-3-8.19c-.54-1.35-1-2.75-1.39-4.14l-1.32-4.17c1,3.35,1.77,6.75,2.94,10a21.29,21.29,0,0,1-1.45-3.6c-.51-1.68-1.07-3.71-1.64-5.75-1.14-4.08-2.31-8.22-3.11-9.72l2.65,9.1,1.32,4.56.67,2.27c.23.76.51,1.5.76,2.25l-.5-.84c1.62,4,4.24,12,5.13,14.77-.26-.39-.3-.06-1.41-3.22.47,1.35.85,2.57,1.28,3.63s.82,2,1.15,2.81c.69,1.63,1.21,2.83,1.62,3.71a13.26,13.26,0,0,0,1.52,2.76,9.7,9.7,0,0,1,1.3,2.05c.33.65.75,1.55,1.32,2.83Z"/><path class="cls-1" d="M216.73,666.6c.31,0,5.43,8.29,2.28,2.48-.69-1.09-2-3.25-3.07-5,.62.5,2.94,4.29,4.91,7.5s3.86,5.66,3,3.88l-2-3c-.59-.89-1.05-1.72-1.51-2.46-.9-1.49-1.62-2.68-2.27-3.77-1.33-2.16-2.43-3.87-4.28-6.56-.63-1-1.15-2.08-1.67-3.09l-1.48-2.9q-1.43-2.81-2.61-5.18c-.79-1.58-1.5-3-2.14-4.32s-1.07-2.53-1.5-3.57c-1.28-2.57-1.76-2.79-3.36-6.09l1.06,2.25-.61.72c.72,1.35,1.37,2.69,2,4.07s1.25,2.84,2.07,4.32c-.7-1.11-1.32-2.26-1.94-3.42L201.77,639,198,632.08a115.79,115.79,0,0,0,5,12c2.32,4.74,4.94,9.48,6.2,12.31-2.92-7.13,3.14,5.23-3.25-8.26l4.38,6.74C212.23,658.88,214.54,662.71,216.73,666.6Z"/><path class="cls-1" d="M731.12,269.16s.1,0,0-.14l-2.56-2.22.06.06Z"/><path class="cls-1" d="M793.33,350.26l-4.15-7.38-2.07-3.68-2.25-3.58c1.35,1.82-2.84-5.17-.8-2.24-.68-1.09-3.83-6.25-3.1-4.77l1.76,3c-5.15-7.29-2.44-2.65-11-14.65,2.33,3.93,4.12,6.67,5.7,8.93s2.74,4.13,4.11,6.13l2.31,3.75c2.74,3.82,5.08,7.87,7.56,11.85Z"/><path class="cls-1" d="M233.62,309.41l.06-.18C233.6,309.38,233.6,309.42,233.62,309.41Z"/><path class="cls-1" d="M233.93,308.51c-.09.23-.17.48-.25.72C234.1,308.43,236.11,305.65,233.93,308.51Z"/><path class="cls-1" d="M269.69,734.68,268.1,733C268.43,733.36,269,734,269.69,734.68Z"/><path class="cls-1" d="M815.59,580.81l-1.21,4.31C814.87,583.44,815.25,582.06,815.59,580.81Z"/><path class="cls-1" d="M778.68,674.32l-3.3,5.71C776.74,677.81,777.75,676,778.68,674.32Z"/><path class="cls-1" d="M310.81,768.55l.17.13.88.54Z"/><path class="cls-1" d="M626,802.56c-1,.3-2,.66-3.46,1.18A27.22,27.22,0,0,0,626,802.56Z"/><path class="cls-1" d="M779.29,673.27l-.22.33-.39.72Z"/><path class="cls-1" d="M826,537.59c.09-1,.17-1.84.26-2.87C826.14,536.07,826.07,536.9,826,537.59Z"/><path class="cls-1" d="M822.87,543.58c.11-1,.2-2,.26-2.77Z"/><path class="cls-1" d="M808.59,390.48l-2.08-5.69C807.49,387.6,808.11,389.27,808.59,390.48Z"/><path class="cls-1" d="M825.16,527.77c0-.35,0-.7,0-.94C825.08,527.66,825.11,528.07,825.16,527.77Z"/><path class="cls-1" d="M245.89,704.83l.23.28.17.06Z"/><path class="cls-1" d="M236,694.1c-1-1.37-2.1-2.81-3.16-4.21C234,691.47,235.11,693,236,694.1Z"/><path class="cls-1" d="M227.25,683c-.46-.14-2.23-2.69-4.24-5.74-1-1.52-2.1-3.15-3.07-4.71s-1.79-3-2.48-4.12c1.78,3.3-1.29-1.4-.9-.3,1.39,2.15,3,4.74,5.33,8.27.41.89-.31,0-1.46-1.61l-.94-1.35-1-1.58c-.65-1.1-1.33-2.26-1.94-3.35,2.86,5.51-4.41-6.52-.18,1.17,2.34,4.06,4.86,7.61,7.15,11s4.4,6.57,6.7,9.42,4.38,5.62,6.49,8.26c1,1.34,2.18,2.56,3.29,3.79s2.23,2.44,3.35,3.65l-5.21-6.27-4.91-6.58-4.64-6.35c-1.36-2.11-2.64-4.12-3.79-6l2.47,2.77c.63,1.06,1.23,2.07,1.82,3l1.87,2.68c1.21,1.73,2.38,3.33,3.56,4.93l3.61,4.85,4.22,5.23L239,699.8c-1.11-1.44-2.12-2.95-3.18-4.42l-6.3-8.88c-2.65-4.36-3-5.16-2.11-4,.43.57,1.17,1.63,2.08,3s2.12,2.83,3.31,4.45a42,42,0,0,1-2.4-3.52C229.68,685.75,216.75,666.77,227.25,683Z"/><path class="cls-1" d="M248.8,706.89v0C248.92,707,248.9,707,248.8,706.89Z"/><path class="cls-1" d="M824.14,448.63c-.2-1-.14-.5,0,.33A1,1,0,0,0,824.14,448.63Z"/><path class="cls-1" d="M557.44,824.08c-1.6.27-3.33.59-5.22,1C554.42,824.66,556.06,824.35,557.44,824.08Z"/><path class="cls-1" d="M455.84,821.4l3.83.48.75,0C459.65,821.74,457.12,821.51,455.84,821.4Z"/><path class="cls-1" d="M722.28,733.52c-.95,1-1.81,1.91-2.39,2.64A34.89,34.89,0,0,0,722.28,733.52Z"/><path class="cls-1" d="M750.36,704.73c.71-.9,1.42-1.81,2.09-2.73Z"/><path class="cls-1" d="M781.31,666.52c-.73,1.21-1.5,2.47-2.28,3.77-1.6,2.58-3.28,5.31-5,8.11l2.74-4.92c-1.41,2.22-2.58,4.11-3.58,5.76l-2.7,4.18c-1.53,2.42-2.59,4.23-3.73,6.09.19-.47-.32.17-1.34,1.44-1.27,2-2.54,3.61-3.5,5s-1.71,2.54-2.18,3.32c-.92,1.56-.75,1.73.87-.09l1.74-2.59c1.44-1.64,2.93-3.24,4.26-5,.31-1.3,3.29-5.82,6.9-11.14,1.72-2.71,3.51-5.68,5.24-8.51s3.41-5.52,4.54-7.91l-1.15,2.43-1.2,2.33c-.81,1.56-1.62,3.11-2.49,4.71a65.41,65.41,0,0,1-6.59,10.25l1-.56c-2.27,3.36-4.44,6.33-6.31,9-.91,1.33-1.85,2.49-2.66,3.6s-1.52,2.15-2.1,3.11c1.85-2.54,3.81-5,5.51-7.66l.12.28c1.89-2.77,4-6,6-9.09,1.06-1.55,2-3.14,2.93-4.65s1.85-2.93,2.73-4.2l2-3.68c.67-1.31,1.5-2.68,2.31-4.39s1.85-3.6,3.07-5.89l2-3.73c.73-1.36,1.6-2.78,2.38-4.41l-.12.47c.88-2.3,2.12-5,3.51-7.78s3-5.76,4.34-8.74c2.78-5.92,5.62-11.52,6.65-15.11.17-1.08-.12-.7-.69.55s-1.36,3.38-2.44,5.71c-2.09,4.68-4.52,10.47-5.73,12.61,2.18-5.71,5.19-11.52,2.62-6.93,2.64-6.61,3.72-8.46,4.48-10.11a52.87,52.87,0,0,0,3.28-8.6l-2.58,6.14c.74-2.54,2-5.84,3.16-9.14.64-1.64,1.11-3.34,1.6-4.92s.89-3.08,1.21-4.37c-.19-.45-.88,1.67-1.94,5.09-.27.85-.53,1.79-.87,2.78l-1.14,3.1c-.8,2.17-1.68,4.49-2.62,6.82l1.15-4.38c-1.13,3.16-2.19,6.34-3.37,9.49l-3.78,9.32a31.79,31.79,0,0,0-.91,4c-.18.94-.88,2.56-3.41,8.33a51.77,51.77,0,0,1-4,6.1,3.41,3.41,0,0,1-.82.74c-.88,2.08-2.71,5.72-5.11,10.26C782.63,664.07,782,665.28,781.31,666.52Z"/><path class="cls-1" d="M828,504.34c0-4.54-.41-10.19-.63-18.26.94-.94-1.15-14.9-.29-13.74.71,9.74.84,7.75,1,4.94-.75-5.64-1.32-9.29-2.57-20.16.89,4,0-5.65,1.5,5-.89-7.38-1.51-13.11-2.57-17.85s-1.76-8.6-2.88-12.24c-6.22-23.39-.51-7.34-7.46-30.4l1.25,3.32c-1.31-4.83-3.09-9.51-4.72-14.23l1.25,4.78c-2.1-5.53-4-11.12-6.45-16.49-4.43-9.94,1.21,4.28.4,3.08.6,1.07,1.29,2.12,1.83,3.21,1.1,3.4,2.58,7.45,3.8,10.84.61,1.69,1.17,3.22,1.55,4.43a15.84,15.84,0,0,1,.56,2.49c-.79-2.81-1.54-4.68-2-6s-.88-2.17-1.17-2.78c-.57-1.22-.87-1.61-1.73-3.76,1.27,3.47,2.57,6.94,3.8,10.43l.61,3.6,2.14,7.49,1,3.43c.16.55.31,1.09.47,1.63s.26,1.07.38,1.6c1,4.19,2,7.84,2.94,11-.84-4.49-2.08-7.15-2.71-11.19.95,2.56,2.22,7.16,3.66,12.74.17.7.35,1.42.54,2.14l.45,2.24c.3,1.52.61,3.08.92,4.67.62,3.18,1.27,6.48,1.91,9.74-.12.38.38,4.57,0,2.82-.12-.26-.35-2.58-.57-3.85-.06.51-.47-1-.61-1.19s.1,1.1.76,7.31A123.79,123.79,0,0,0,820.71,442c-.35-1.78-.73-3.74-1.13-5.77-.2-1-.36-2.05-.61-3.07s-.49-2.05-.73-3.06c-1-4.07-1.84-8-2.42-10.82l.21.43c-.18-.77-.37-1.64-.61-2.58s-.57-1.93-.88-3c-.63-2.06-1.29-4.25-1.91-6.28a75.61,75.61,0,0,1-2.2-8.1c-1.36-3.61-5-13.62-1.7-3.29-2.05-5.59-3.94-11.24-6.36-16.69,1.92,2.45-4.2-13.28,3.07,2.94-.11-.28-.8-1.92-2-4.7l-2.09-5c-.41-1-.84-2-1.29-3.08s-1-2.2-1.6-3.38l.28.4a11.88,11.88,0,0,0,.72,1.2c.45,1,.78,1.75,1,2.35a4,4,0,0,1,.33,1.18c1.46,2.78,1.36,2,.45-.58-.23-.64-.49-1.42-.84-2.26s-.77-1.75-1.2-2.73l-2.87-6.39-1.42-1.9c-1.57-3.93-3.09-6.94-4.69-10.32-.81-1.68-1.68-3.43-2.68-5.38-.51-1-1-2-1.64-3.07l-2-3.38-3.73-5.44-1.86-2.71-.94-1.36-1-1.31-8-10.47c-.69-1.06-1.47-2.07-2.25-3.1l-2.32-3.09c-.89-1.46-3.08-4.49-4.66-6.74-.77-1.14-1.45-2-1.72-2.45s-.1-.38.72.41c-.29-.51.25-.08,1.13,1.08s2.21,2.95,3.66,5c.41.66-.36-.33.06.35,1.09,1,1.74,1.26-1.62-3.91,3.66,5.12,4.08,5.81,6.84,9.22l-3.69-5.17c1.41,1.89,3,4,4.68,6.11s3.1,4.36,4.51,6.28c2.81,3.84,5,6.67,5.13,6.48-2.1-2.1-4.92-7.47-7.63-11.8,2.24,3.2,7.07,10,3.64,4.6-.75-.87-3.48-4.92-5.38-7.33s-2.76-3.34.7,1.71c-1.55-2.08-3.46-4.45-5.35-6.94-1-1.24-1.91-2.5-2.83-3.76s-1.79-2.53-2.71-3.67c1.17,1.28,1.77,2.1,2.18,2.51s.53.5.57.44-.17-.73.56-.07a25.7,25.7,0,0,0-3.72-4c-.67-.55-.91-.61-1.31-.93-2.66-3.5-4.88-6.51-6.93-9.3s-4.14-5.17-6.18-7.69c-4-5.08-8.67-9.92-15.74-16.78,1.55,1.53,8.19,8.15,6.89,7.28-2.67-2.47-4.8-4.57-6.63-6.48s-3.52-3.46-5.08-5.07a99,99,0,0,0-11-10.25l2.27,2.78-6.8-5.48-3.94-3.2L701.06,239c-.8-.9-11.21-9.38-3.16-3.54-2.12-1.66-4-3.09-5.61-4.31s-3.17-2.12-4.52-3c-2.69-1.72-4.84-3-7.08-4.27l-1.7-1-1.83-1c-1.28-.69-2.65-1.44-4.2-2.32s-3.29-1.9-5.29-3.1c-1-.59-2-1.28-3.23-1.92l-3.76-2.11c5,2.78,7.6,4.59,10.05,6.09s4.64,2.83,8.42,5.25c-8.3-4.78-1.4-.54-2.54-.71-2.32-1.69-7.46-4.89-10.65-6.9-1.58-1-2.76-1.6-2.77-1.69s.26.07.89.37,1.58.81,3,1.58c-1.6-1-3.69-2.2-5.93-3.44l-6.92-3.84c-1.14-.62-2.25-1.25-3.32-1.8l-3-1.45c-1.86-.88-3.33-1.56-4.15-1.89l5.89,3.17c-2.48-1.22-5-2.42-7.34-3.55l-3.5-1.64c-1.14-.52-2.23-1-3.33-1.45-4.33-1.71-7.93-3-10.09-3.71,12.54,5.37,12.52,4.38,28,12.39,16.25,9.55-4.16-1.76,6.33,4.82l3,1.52c1,.49,2,1,3,1.58l5.82,3.31-5.34-3.38c1,.25,5.45,3,9.47,5.48,1,.63,2,1.21,2.87,1.79s1.66,1.11,2.32,1.53c1.31.83,2.07,1.22,1.84.81,2.72,2.06,5,3.73,7,5.22l1.5,1.08,1.4,1.1,2.72,2.12,5.77,4.53c1,.86,2.21,1.7,3.37,2.77s2.44,2.18,3.83,3.44c2.9,2.06-1.31-1.48-4.53-4.23,2.91,2.45,4.56,3.59,6.41,5,.93.68,1.9,1.43,3.1,2.43a49.82,49.82,0,0,1,4.38,4c1.82,1.75,2.21,1.91,1.31.88-.44-.52-1.21-1.34-2.27-2.4s-2.54-2.27-4.25-3.71c1.46,1.24,2.93,2.43,4.35,3.67l4.21,3.85,4.32,4c1.46,1.35,3,2.72,4.42,4.27l-1.43-1.63-1.49-1.57-3-3.12c2.17,2,4.44,4,6.49,6.15-1.66-1.9-3.47-3.63-5.24-5.41l2.38,2.19,1.2,1.1,1.16,1.16c1.53,1.57,3.08,3.14,4.62,4.7l4.54,4.67c.76.75,1.46,1.55,2.15,2.34l2,2.34c2.68,3.09,5.18,6,7.33,8.58s3.77,5,5,6.89c-4.72-5.67-11.34-12.93-17.56-19.5-3.21-3.19-6.29-6.22-9-8.8-1.32-1.32-2.66-2.4-3.81-3.38s-2.2-1.79-3.05-2.44c1.11,1.21,3.39,3.07,5.68,5.12a47.44,47.44,0,0,1,5.72,6.16l3.49,2.87c1.94,1.73,4.78,5,7.32,7.76s4.63,5.29,4.79,5.84c-4.85-5.18-8-8.39-10.52-10.93s-4.72-4.24-7.38-6.66a16.74,16.74,0,0,1-2.51-2.3l-.16-.14.1.08c-.75-.73-1.58-1.62-2.53-2.5l-3-2.73c-2-1.85-4-3.66-5.48-4.95-3.59-3.45-.88-1.33-.42-1.05-.77-.74-1.5-1.49-2.26-2.18l-2.3-2q-2.26-1.93-4.47-3.72l-4.36-3.49c-1.44-1.15-3-2.15-4.46-3.22-3-2.11-6-4.24-9.18-6.53-3.26-2.14-6.65-4.45-10.3-7.07.19-.62-11.63-8-7.82-5.9-8.81-5.76-14.27-7.89-20.41-11-.54-.59-4.12-2.38-6.93-3.81s-4.87-2.48-2.4-1.5c-3-1.2-5.9-2.53-9-3.55-3-1.43-7.66-3.45-11.83-5.26a94.39,94.39,0,0,1-9-3.69,27.32,27.32,0,0,0-4.79-1.44,68.58,68.58,0,0,1-6.74-2.15c.47.05-.27-.25,1.72.42-2.12-.8-5.8-2.06-9.53-3.27l-1.4-.44-1.41-.37-2.7-.69c-1.72-.43-3.27-.79-4.44-1,6.79,2,1.56.49,9.6,2.91a8.62,8.62,0,0,1-1.71-.32c-1-.21-2.5-.55-4.23-1s-3.74-.95-5.89-1.54-4.41-1.32-6.74-1.86l2,.33,1.25.23c.62.1.8.1.69,0a17.89,17.89,0,0,0-3.3-1.06c-3.32-.86-7.49-1.88-4.47-1.39-5-1.12-9.55-2.18-13.81-2.73s-8.16-1.22-12-1.66c-7.69-.6-14.92-1.33-23.51-1.47l-7.79-.54-8.09-.17-8.21-.18-8.18.23-8,.26-7.57.65-7,.67-1.65.17-1.59.25-3,.49,2.07-.24-9.31,1.58c-2.71.34-2.76.18-3.17.08a3.82,3.82,0,0,0-1.28,0c-.77.1-2,.31-4.08.73a25.12,25.12,0,0,1,3.54-.92c1.63-.32,3.65-.54,5.84-.84l6.92-.92,3.5-.51c1.15-.19,2.28-.27,3.35-.42-3.73.1-4.72.24-4.29.06a14.26,14.26,0,0,1,1.55-.32l2.76-.32c4.06-.46,8.75-1,3.79-.8a59.73,59.73,0,0,1-7.49,1.19c-3.41.52-7.58,1.07-12,1.63l-3.33.42-3.34.58-6.59,1.19-6.14,1.18c-1.92.43-3.68.94-5.24,1.37-12.3,2.74,5.5-1.82-.61-.46l-3.84,1.29c-4.88,1-6.52,1.29-6.46,1-3.25.79-6.58,1.79-9.95,2.74l-5.05,1.47c-.84.26-1.68.48-2.51.77l-2.45.87c-6.5,2.38-12.8,4.53-17.87,7,6.68-2.82,5.6-2.22,4.5-1.59-.55.31-1.1.64-.68.55a14.16,14.16,0,0,0,1.47-.49c.82-.26,2-.66,3.71-1.24l-3.82,1.48-5,2.12-5.82,2.41c-2,.84-4.11,1.61-6.09,2.58,3.82-1.85,1.15-.86-.33-.37-.73.25-1.17.37-.35-.05.41-.21,1.14-.56,2.3-1.09l5-2a13.82,13.82,0,0,0-2.6.78,37.77,37.77,0,0,0-3.67,1.61c-2.74,1.36-6.1,3.09-9.94,4.81,3.83-2,12.34-6.38,11.57-6-2.83,1.45-6.53,3.29-10.61,5.15l-3.11,1.43-1.59.72-1.57.79-6.26,3.16-5.95,3c-1.88,1-3.56,2-5.1,2.85-3,1.76-5.34,3.14-6.32,3.89l-3.06,2-3.27,2.37-7.16,5.14c-2.51,1.71-4.92,3.68-7.3,5.57l-6.9,5.5c-1.18.75-2.27,1.64-3.41,2.5l-3.42,2.67c-2.3,1.81-4.64,3.66-7,5.59l-6.85,6.12c-2.3,2.08-4.7,4.09-6.92,6.31l1.44-1.74c-2.58,2.44-5.8,5.65-9.32,9.15l-1.33,1.33-1.29,1.41-2.63,2.87-5.37,5.78c-.64.47-1.3.94-1.92,1.43-2.27,2.81-5.56,6.81-9.17,11.16-1.77,2.2-3.49,4.6-5.27,6.92s-3.54,4.63-5.16,6.85c.1.21,6.22-7.87,3.57-3.87,3.32-4.35,6.08-8.08,4.67-6.7.84-1.09,1.47-1.91,2.05-2.55s1.08-1.11,1.55-1.57c.93-.91,1.81-1.71,3.34-3.37-4.57,5.38-8.64,11.15-12.84,16.81-1.06,1.32-1.43,1.8-1.52,1.86l-.48,1.57c-3.1,4.51-4.1,5.75-3.75,4.87-1.63,2.48-3,4.56-4.17,6.48l-3.1,5.5c-2,3.58-4.2,7.08-7.2,12.57.55-1.21,1.06-2.31,1.56-3.42l.79-1.65c.29-.55.6-1.1.91-1.68,1.29-2.31,2.85-5,5.17-8.72L219.59,331c-1.24,2-2.56,4-3.67,6.14a72.58,72.58,0,0,1,3.67-6.63c1.62-2.73,3.45-5.81,5.11-8.59,3.54-5.42,6.34-9.73,4.83-8.2-4.46,6.51-9.42,14.84-14,23.06l-6.32,12.14c-1.8,3.94-3.45,7.6-4.84,10.74-2,3.11-3.63,7.33-5.64,12l-1.52,3.64c-.27.62-.53,1.25-.8,1.89s-.48,1.3-.73,2c-1,2.65-2,5.39-3.15,8.18-.7,1.49-2.15,4.9-1.58,2.73l1.18-3.15c-.7,1.86-1.49,3.74-2.14,5.69l-1.91,5.92c-1.24,4-2.62,8-3.56,12s-2.06,8-3,11.84l-2.14,11-1,3.48c-.34,1.17-.61,2.35-.91,3.52-2.16,11.95-1.74,10.86-1.3,9.85.23-.51.46-1,.38.18,0,.59-.18,1.58-.35,3.21s-.39,3.88-.75,7c-1.74,5.83-2.8,30.34-3.06,31.34,0,4.65-.11,6.75.24,7.33.14-4.17.23-13.44.54-8.18,0,4.23-.14,7.35-.2,10.26s0,5.59.15,9c-.11-.46-.57-5.26-.42-2.67.21,4.12.25,9.13.83,14.53s.87,11.26,1.82,17l1.25,8.58c.18,1.41.47,2.78.75,4.14s.55,2.68.82,4c1.11,5.2,2,9.94,3.28,13.65-.36-1.43-.66-2.54-.94-3.51s-.44-1.84-.66-2.75c-.41-1.84-.83-3.92-1.44-7.8.29.08,1,4.19,1.43,5.87.15-.54-.29-2.51-.91-5.37a72.37,72.37,0,0,1-1.77-10.69l.58,3.37c.2,1.13.49,2.24.73,3.35l1,4.6q2.23,12.47,5.47,24.94A322.05,322.05,0,0,0,290.82,748.47q-2.1-1.62-4.16-3.28c-1-.87-2.11-1.71-3.13-2.62l-3-2.79c-4-3.75-8.09-7.41-12.09-11.28.4.26,1.31,1.13-.13-.36-2.39-2.47-4.46-4.52-6.34-6.34s-3.42-3.55-5-5.15-3-3.16-4.57-4.85A62,62,0,0,1,247.7,706l1.1.88c-.61-.7-4.91-5.62-4.35-4.4,3,3.57,4.71,5.69,6.43,7.68s3.46,3.8,6.18,6.93c-1.23-1.18-3.12-3.11-5.15-5.25l-1.55-1.64c-.5-.57-1-1.16-1.47-1.74l-2.77-3.36-.79-.13c-1.21-1.27-2.35-2.61-3.47-4s-2.23-2.74-3.22-4.21c-2-2.89-4-5.78-6.33-8.43l4.54,6.83c-.16-.18-.55-.69-.87-1.1l3,3.94a21.29,21.29,0,0,0,1.88,2.13c4,4.7,6.81,8.43,8.83,11.15s3.3,4.37,3.85,5.21c3.73,4.43-1.88-1.11-1.66-.38,3.15,3.45,4.74,5,6.33,6.49s3.31,2.92,6.6,6.22c1.63,1.75,1,1.3.26.59l4.49,4.19c.07.43,11.78,11.31,4.55,5.18-1-1-3-2.73-4.42-4.14,9.07,9.38,26.19,24.18,25.44,24,2.81,2.22,3.86,3,5.33,4l2.78,2.08,2.15,1.63,3,2.13c4.59,2.64.15-.93,10.53,5.84l-7.94-5.7c-1.7-1.07-3.14-1.94-5-3.13l8.41,5.72c-5.41-3.47-4.6-2.64-6.39-3.38l-2.32-1.6c-.73-.52-1.39-1.06-2-1.55L300.13,762c-2.13-1.7-3.87-3.14-5.41-4.44s-2.83-2.52-4.12-3.72-2.59-2.4-4.07-3.71c2,1.43,4.53,3.51,6.35,4.93s3,2.07,1.88.94a68.65,68.65,0,0,0,6.68,5.08c.95.65,1.94,1.33,3.13,2.21l1.95,1.49c.74.52,1.55,1.12,2.45,1.8l-1.52-.87c6.29,3.84,6.85,4.82,12.06,8-.45-.16.21.32.84.79,11.35,6.75-3.23-2.36,8.28,4.18,2.49,1.55,3.89,2.53,4.68,3.07s.93.74.82.81-1.36-.2,0,.69c-1.11-.55-2.06-1-2.87-1.53l-2.14-1.19c-1.21-.67-2-1.09-2.58-1.36-1.1-.54-1.16-.46-1.25-.4s-.23.09-1.5-.58c-.64-.33-1.56-.83-2.9-1.59l-2.34-1.34-3-1.92c-.08.15.29.57,1,1.21.38.32.85.7,1.41,1.13s1.23.84,2,1.33c3,2,7.19,4.62,12.13,7.54-6.25-4.13,4.54,1.64-3.66-4a85.41,85.41,0,0,0,8.81,4.66l6.06,2.8c.95.44,1.9.89,2.93,1.4s2.18,1,3.45,1.59c2.54,1.21,5.64,2.78,9.85,5l-.46-.11c1.19.52,2.43.95,3.66,1.4l3.69,1.34,4.89,2.28c1.64.74,3.24,1.57,4.91,2.22a42.74,42.74,0,0,1-5-1.69c-1.68-.65-3.36-1.34-5-2l-8.83-3.7c11.66,6.17,16.38,6.67,30.53,12,1.44.68,2.31,1,2.7,1.24s.32.24-.1.15a55.37,55.37,0,0,1-5.6-1.85l-7.78-2.78c-1.14-.4-2.14-.71-2.84-.94s-1.13-.35-1.15-.26c.36.13.79.3,1.26.5l1.58.6c1.11.43,2.3.92,3.38,1.38,2.15.91,3.81,1.69,3.31,1.61-6.61-2.65-8.69-3.28-10.88-4.19S367.24,801.34,360,798c7.19,2.88-1-.68.47-.37a234.75,234.75,0,0,1-24.63-12.48c-1.17-.36.77.83,3.72,2.55l4.91,2.83c1.7,1,3.48,1.83,4.93,2.64,2.89,1.27,5.75,2.64,8.56,4,1.4.72,2.83,1.35,4.24,2l4.18,1.9c2.75,1.25,5.41,2.48,8,3.56s5.08,1.86,7.4,2.57c12.71,4.76.78.82,1.52,1.17,2.84,1.13,4.57,1.81,5.64,2.16a5,5,0,0,0,1.65.36c.31,0-.34-.47,1.52.08,4.41,1.34,7.81,2.43,10.64,3.39,1.4.51,2.71.85,3.9,1.23l3.35,1.06,6.31,2c1.12.34,2.28.75,3.6,1.06s2.74.66,4.34,1c2.71.43,6.36,1.12,10.59,2,4.27.66,9.14,1.46,14.24,2.32,1.27.25,2.57.39,3.88.55l3.94.48,7.91,1c1.31.18,2.62.29,3.92.37l3.83.29,7.3.55c-2.27.07.19.44,1.3.74,1.39,0,2.55-.09,3.53-.15l2.5-.14c1.41-.08,2.38-.11,3.44-.14l4-.06c1.75,0,4.1,0,7.55-.3h-2.92c-1,0-2-.08-2.93-.12l-5.84-.3c2.34,0,4.57,0,6.73,0l1.61,0,1.58-.1,3.12-.18c4.13-.25,8.15-.34,12.46-.29-11-.27,13.12-1.31,21-2.79-2,.46-1.23.68,4.45-.23-1.6.08-5.32.42-3.61,0,2.38-.22,4.75-.51,7-.82,1.15-.16,2.29-.28,3.39-.49l3.21-.62c4.16-.81,7.79-1.49,10.41-1.7l-1.27.27,3.42-.59,3.38-.76,6.77-1.53-1.45,1.19c2.35-.47,4.81-1,7.14-1.59s4.46-1.33,6.24-1.89c3.53-1.17,5.5-2,3.89-1.62,9.69-2.57,4-.85,5.55-.88-2.68.91-6.9,2.38-10.9,3.66a42.72,42.72,0,0,1-9.6,2.24,24.05,24.05,0,0,0,3.33-.8c-12.78,2.81-14.8,3.53-15.23,3.89s.78.6-5.65,1.87c1.69-.29,3.27-.54,4.8-.78l2.28-.34,2.23-.45c3-.61,6-1.27,9.54-2.21l4.09-1c1.81-.48,4-1.21,6.22-1.9l6.83-2.18c2.21-.71,4.27-1.36,5.88-2a63.89,63.89,0,0,1-6.07,2c-1.84.55-3.52,1-5.14,1.43s-3.19.81-4.8,1.2l-2.47.59-2.65.51a49.52,49.52,0,0,0,6.47-1.86,58.47,58.47,0,0,1,5.83-1.66l-1.66.62,6.56-2.2c.59.16,5.09-1.33,8.23-2.35s4.93-1.55,0,.43a39.42,39.42,0,0,0,5.79-2.29,13.57,13.57,0,0,1,1.31-.64c.7-.32,1.86-.69,3.82-1.56-1.3.53-2.64,1-4,1.41l-4,1.33-8,2.65.11-.59c5.7-2.34,7.22-2.45,13.63-4.69l-.75-.37c3.81-1.23,7.56-2.64,11.36-4-.77.09,1-.68,3.27-1.61l1.75-.71,1.71-.79c1.09-.51,2.05-1,2.62-1.24a24.17,24.17,0,0,1,4.86-1.58,17,17,0,0,0,2.44-.93c.59-.26,1.3-.59,2.17-1l1.45-.72,1.68-1-.75.33c2.82-1.59,5.07-2.85,7.64-4.23s5.51-2.81,9.49-5.16c-.38.34-2.54,1.7-3.61,2.38,11.45-6.1,28.43-18.07,33.48-21.16-.57,1-5.09,4-5,4.56-4.24,2.66-7.1,4.45-9.26,5.93s-3.65,2.62-5.27,3.76-3.36,2.28-6,3.9c-1.31.82-2.83,1.74-4.67,2.82-.92.54-1.91,1.14-3,1.73l-3.65,1.85c-.77-.26-5.08,2.19-9.79,4.85-4.78,2.49-10,5-12.3,5.46,2.12-.93,4.38-2,6.57-3l3.18-1.57,1.49-.75,1.36-.78c3.49-2,5.74-3.44,5-3.12l-6.07,3.22c-2.16,1.06-4.41,2.07-6.58,3.08L631,800.47l-2.68,1.2-2.32.89c2.5-.77,3.4-.93,3.29-.59s-1.27,1.12-3,2l2.5-1.06,2.67-1.25L637.4,799l6.56-3,6.85-3.45L657.9,789c2.36-1.25,4.67-2.61,7-3.91l6.85-3.9c2.24-1.3,4.33-2.74,6.39-4l-2.22.61c13.82-9.69-1.35,1.68,9.69-5.53,1.51-1.22,2.95-2.56,4.43-3.83l.7-.43,7.42-6.21c-5.48,4-2.65,2.61-8.88,6.79-5.52,3.75-.07-.6,1.22-2,1.88-1.28,6.13-4.26,8.81-6.3s3.91-3,.16.35l6.7-5.86c2.21-2,4.49-3.86,6.58-6a7.51,7.51,0,0,1-1.5,1.74c-.85.87-1.94,1.78-2.59,2.41.82-.68,1.66-1.35,2.46-2l2.38-2.16,4.74-4.31-.28.38L720.9,742l1.55-1.45c.53-.49,1-1,1.54-1.54l6.23-6.34c1-1,2-2.08,3-3.09s1.86-2.07,2.73-3c1.73-2,3.27-3.79,4.52-5.32-6.14,6.27-4.83,4.63-2.15,1.53l4.28-4.93c1.28-1.45,2-2.56,1.73-2.33,2-2.39,3.61-3.75,3.64-3.19a6.63,6.63,0,0,1-1.24,2.38c-.44.68-1,1.5-1.74,2.49s-1.67,2.06-2.76,3.34c-2.77,2.36-8.51,9.59-13.45,14.26,6.49-5.9,8-8.27,12.61-13.29-1.52,1.88.1.28,2.11-1.76l1.55-1.56,1.37-1.5a8.38,8.38,0,0,1,1.43-1.44,22.46,22.46,0,0,1-1.81,2.85,80,80,0,0,1-6.2,6.9c-9,9.66-1.4.57-4,3.51a13.9,13.9,0,0,0-1.36,1.19c-.57.5-1.23,1.11-1.95,1.81-1.45,1.39-3.16,3.12-5,5l-2.75,2.81c-.93.95-1.85,1.9-2.81,2.75-1.89,1.73-3.69,3.36-5.21,4.65-.67.51,1.23-1.28,2.17-2.17l-4.64,4.16c-.86.79-1.76,1.59-2.65,2.4s-1.83,1.53-2.7,2.28a68.8,68.8,0,0,0-6.75,6c4.35-3.72,8.85-7.26,13-11.25,2.88-2.38-3.69,3.84.5.47,1.42-1.34,3-2.8,4.7-4.34l2.65-2.37c.91-.8,1.78-1.69,2.72-2.55l-.55.81c1.93-1.75,4.09-3.8,6.39-6l3.53-3.42,3.48-3.74,6.95-7.63c2.19-2.57,4.23-5.13,6.13-7.46a37.84,37.84,0,0,1,2.89-5.55c1.28-2.25,2.63-4.84,3.79-7.25a356.53,356.53,0,0,0,29.9-46.29c-.34.16-.42-.14-.17-1,2.61-4.67,6.78-13.58,7.13-13.11,1-2.72,2.92-7.88,4.47-12l1.05-2.84c.31-.85.5-1.61.66-2.18.31-1.14.35-1.59,0-.91l.73-2c2.94-6.16,7.25-15.59,12.2-33.47,1-3.5.77-4.09.07-3.42,1.25-3.71,2.06-7.3,2.91-10.91-.19,1.41-.34,2.59-.54,4.08-.14.89-.29,1.91-.55,3.16,2.08-8.4,4-16.86,5.35-25.41l-.14,2.24c.5-3.75,1.13-7.49,1.39-11.28a90,90,0,0,1-1.57,10.14c-.58,2.92-1.06,4.73-1.11,3.49.44-3.19.89-6,1.33-8.65.24-1.31.37-2.59.52-3.82s.31-2.45.45-3.64a113.05,113.05,0,0,0,1.18-14.75c.94.16,1.35-3.56,1.64.14-.07.73-.11,1.08-.15,1.28.06,1,.11,2.36.11,3.88s-.14,3.2-.24,5c-.21,3.56-.51,7.45-.86,10.85,1.59-11.94,2.21-16.37,2.39-20.47.14-2,.28-4,.47-6.76.1-1.38.22-3,.37-4.86s.12-4.11.21-6.75c.14-.46.23.53.28,2.19,0,.83,0,1.84.05,2.91,0,.54,0,1.09,0,1.65l-.07,1.69c-.2,4.48-.39,8.59,0,6.15l-.42,4.95c-.16,1.65-.23,3.31-.49,5L825.62,543c.37-3.36.29-3.79.4-5.4-.31,3.41-.62,6.28-.91,8.81s-.76,4.72-1.09,6.82-.68,4.08-1,6.19-.58,4.34-1,6.88c-.84,3.16-.39.66.06-1.76s.7-4.8.07-1.28a124.78,124.78,0,0,0,1.38-14.86c-1.42,7.66-1.62,9.87-1.72,11.81,0,1-.06,1.87-.22,3.35s-.56,3.51-1.22,6.78c-.9,3.19-1.7,6.41-2.67,9.58-1.52,5.81.85-1.81,1-2.14-.78,3.57-1.58,6-2.23,8.17s-1.31,4.18-2,6.85c.55-1.53,1.68-5.09,1.62-4.14-.72,2.18-1.33,4.39-2,6.54s-1.47,4.28-2.2,6.39-1.47,4.2-2.23,6.25l-.58,1.53-.66,1.49c-.45,1-.9,1.95-1.37,2.91,2.09-4.46-1.1,5.57-2.39,9.29L808,615c1.16-2.69,2.37-5.36,3.34-8.12s1.65-5.19,2.42-7.64,1.57-4.77,2.16-7.11c1.25-4.65,2.52-9,3.68-13.54,1-4.53,2-9.11,3.1-14,.92-4.95,1.71-10.28,2.65-16.22l.06,1.44c.51-2.32.73-4.51,1-6.53s.52-3.9.75-5.65.41-3.36.59-4.87.22-2.91.31-4.21c.28-5.24.33-9,.35-12.6S828.11,508.88,828,504.34Zm-60.71-183.8-.51-.75c-1.43-2.17-2.25-3.5-2.74-4.26C765.18,317.22,766.22,318.9,767.29,320.54Zm-34.9-44.45c2.31,2.3,4.38,4.76,6.47,7.14l6.15,7q2.85,3.6,5.62,7.08l2.74,3.46c.91,1.13,1.8,2.27,2.61,3.45-1.24-1.69-2.69-3.26-4.11-5s-2.93-3.56-4.51-5.56l.93,1.26q-8.19-10-17.12-19.25c1.22,1.15,2.59,2.43,4,3.89,1.74,1.89,3.62,4,5.54,6.15l-3.15-3.65c-.9-1-1.94-2.25-3.16-3.59l-4.18-4.36Zm-377-66.82-2.17,1.39q-3.25,1.62-6.45,3.3C347,213.6,348.11,212.78,355.38,209.27Zm-14,7.47,1.23-.53c-1.53.84-3.06,1.7-4.58,2.56C339,218.15,340.06,217.48,341.35,216.74ZM290.2,748.14l1.64,1.16c1.16,1,2.32,1.92,3.5,2.87Zm211.36,76.25a10.32,10.32,0,0,1,1.74-.19c-1.77,0-3.35.1-4.77.12l-3.83-.08-5.9-.1-5.35-.08c-1.93-.06-4.13-.24-7-.41l3.51,0a56.25,56.25,0,0,0-7.48-.67c-1.84-.11-3.92-.18-6.1-.35l-6.75-.73c-2.73-.15-8.68-.51-12.21-1.51l1.44-.06c-.77-.27-3.41-.79-7.11-1.47l-6.26-1.12-7.2-1.61,2.09.3a320.88,320.88,0,0,0,94,6l-3,.33C515.18,823.61,508.53,823.87,501.56,824.39Zm181.36-57.76-9.29,6.9.34-.35-3.76,2.51c-1.27.81-2.58,1.56-3.87,2.34l-7.77,4.64,1.79-1.33-4.49,2.87-4.62,2.64c0-.58-3,1.3-2.63.69a56,56,0,0,0-6.11,2.82c-1.21.66-2.58,1.24-4,1.93l-4.45,2.16-4.78,2.34-2.47,1.2-2.56,1.08c-3.44,1.43-6.94,2.83-10.33,4.08l2-1c-3.49,1.81-10,3.91-17,6.24l-2.65.87c-.89.29-1.81.51-2.72.76l-5.41,1.47-5.2,1.4c-1.68.45-3.27.93-4.8,1.23l.4-.2c.93-.23,1.74-.48,2.46-.73l1.9-.64c1.1-.38,1.84-.66,2.24-.85s.38-.19.36-.24c6-1.68,12-3.52,17.81-5.52l1.67-.43c2-.82,4.46-1.67,7-2.67l.33-.14q12.9-4.86,25.16-10.72c-.86.5-2.16,1.2-3.47,1.9,2.65-1.27,5.33-2.46,7.94-3.8l7.77-4.14,3.88-2.07c.64-.35,1.3-.68,1.93-1.05l1.89-1.13,2.49-1.5A319.56,319.56,0,0,0,690,760.46c-.25.28-.06.24,0,.35ZM793.18,636.06c-.91,2.1-1.91,4.08-2.8,6l-.85.64c-1.25,2.47-2.43,4.86-3.57,7.19s-2.41,4.5-3.56,6.69L779,663c-.54,1.08-1.15,2.12-1.75,3.15l-1.81,3.1c-2.44,4.11-4.73,8.36-7.61,12.51l-4.34,6.45c-.77,1.09-1.48,2.25-2.34,3.33l-2.57,3.34c.39-.69,1-1.64,1.74-2.65l1.11-1.55,1.06-1.56c1.35-2,2.42-3.55,2-3.13-2,2.82-3.29,4.91-4.45,6.5s-1.91,2.88-2.71,4.12-1.62,2.46-2.77,4c-.58.78-1.24,1.64-2,2.64s-1.81,2-2.95,3.29c1.53-1.88,2.6-3.1,3.19-4a12.7,12.7,0,0,0,.85-1.22c0-.07-.94,1.19-2,2.41-1.81,2-3.68,4.14-1.22.9-1.18,1.49-2.39,3-3.59,4.45l-2.91,3.55c-1,1.18-1.93,2.37-3,3.47l-6.16,6.64-3,3.23c-1,1.06-2.1,2-3.13,3-8.19,8.09-16.19,14.84-22.22,20.06,3.33-2.29-4.8,4.47-5.09,4.84-3.28,2.59-2.37,1.46.24-.67a63.79,63.79,0,0,1-6.35,4.46c-1.09.57-1.22.42-.79-.14,4.41-3.44,8.69-7,13-10.54-1.87,1.44-3.4,2.55-4.81,3.58q9.69-7.94,18.71-16.55c1-.82,1.42-1.17,1-.63,2-2.06,4.58-4.51,6.94-6.72,1.2-1.08,2.23-2.21,3.15-3.16s1.67-1.77,2.18-2.35c-3.72,3.77-3.59,3.43-2,1.56q3.54-3.74,7-7.59c0,.25-.88,1.36,1.23-.84l8.57-10.3L741.76,713l.62-1a325.14,325.14,0,0,0,47-71.41c3.07-5.29,4.75-8.29,6.57-11.05C795,631.75,794.07,633.94,793.18,636.06ZM813,576.82c.1-.44.19-.82.29-1.24-.4,2.16-1,4.25-1.54,6.34s-1.08,4.16-1.62,6.22c-.62.91-1,1.32-1,.64q2.82-9.87,5-19.94c.36-1.29.77-2.86,1.19-4.57ZM817.1,554c-.38,2.18-.86,4.71-1.33,7.14-.07.34-.15.67-.22,1,.89-4.51,1.66-9,2.35-13.61C817.86,549.42,817.54,551.47,817.1,554Zm4.52-83.08c0,.07-.28-1.42-.65-3.82s-1.12-5.66-1.83-9.18c-.35-2.07-.8-4.21-1.26-6.3-.48-3.12-1-6.25-1.57-9.37-.11-1.61-.42-4.75-1-8.88-.44-2.4-.93-5.13-1.47-8.1-.27-1.49-.56-3-.85-4.62-.15-.79-.3-1.6-.45-2.41s-.38-1.62-.57-2.45c.24.91.53,1.8.74,2.72l.63,2.77c.41,1.84.84,3.7,1.26,5.56.82,3.74,1.77,7.48,2.35,11.31l2,11.5c.57,3.85,1,7.73,1.47,11.6l0-2c.27,2.47.62,4.69.91,6.64A28.45,28.45,0,0,1,821.62,470.93Z"/><path class="cls-1" d="M265.07,729.45l-.55-.51Z"/><path class="cls-1" d="M788.39,652.6l0,.07h0Z"/><path class="cls-1" d="M816.27,578c-.23.92-.45,1.85-.68,2.78C815.89,579.76,816.1,578.85,816.27,578Z"/><path class="cls-1" d="M728.62,261.88l.1.1C728.36,261.62,728.27,261.54,728.62,261.88Z"/><path class="cls-1" d="M236.15,693c.12-.2,2.11,2.51,3.8,4.78s3.28,4,2.09,2.15c-.51-.56-1.19-1.35-1.9-2.2l-2-2.63C236.84,693.49,235.87,692.32,236.15,693Z"/><path class="cls-1" d="M235.36,690.79l4.87,6.49L237,692.54C236.64,692.23,236.65,692.48,235.36,690.79Z"/><path class="cls-1" d="M235.36,690.79l-.69-.93C234.94,690.22,235.17,690.52,235.36,690.79Z"/><path class="cls-1" d="M366.77,801.71c-1.92-.87-4.6-2.11-7.47-3.19C359.79,799.11,364.36,800.74,366.77,801.71Z"/><path class="cls-1" d="M199.78,360.29c-.44.9-.83,1.8-1.22,2.69.58-1.28,1.17-2.55,1.77-3.82Z"/><path class="cls-1" d="M191.73,379.27c.29-.77.58-1.55.88-2.33q-2.82,7.06-5.32,14.25C188.74,387.19,190.24,383.29,191.73,379.27Z"/><path class="cls-1" d="M192.87,376.25l-.26.69c.39-1,.79-1.94,1.19-2.9C193.48,374.77,193.16,375.51,192.87,376.25Z"/><path class="cls-1" d="M196.85,366.94c.57-1.28,1.13-2.62,1.71-4q-2.49,5.47-4.76,11.06c.12-.28.24-.55.35-.82C195,371.18,195.93,369.1,196.85,366.94Z"/><path class="cls-1" d="M205,349.64q-2.39,4.73-4.63,9.52l2.89-5.93Z"/><path class="cls-1" d="M207.79,344.2l3.78-6.93Q209.64,340.72,207.79,344.2Z"/><path class="cls-1" d="M207,345.56c-.74,1.3-1.37,2.62-2,3.91l-.09.17q1.39-2.73,2.83-5.44C207.54,344.65,207.29,345.12,207,345.56Z"/><path class="cls-1" d="M551.3,823.13c1.9-.32,3.93-.64,6.13-1l-6.82.56-2.81.57-2.65.42-4.87.77-8.76,1.43-8.88,1-5,.5c-.88.08-1.79.18-2.73.24l-2.92.12c1.33,0,2.6,0,3.82,0l3.51-.23c2.24-.15,4.31-.32,6.26-.5s3.75-.37,5.49-.56,3.38-.55,5-.81c3.25-.55,6.39-1.08,9.82-1.58C547.62,823.82,549.4,823.46,551.3,823.13Z"/><path class="cls-1" d="M555.11,823.38c-10.49,2-4.79,1.54-14.43,2.77l4.8,0c-.67-.07-.25-.24.71-.47.49-.12,1.11-.25,1.8-.38l2.2-.52C553.22,824.09,556.28,823.39,555.11,823.38Z"/><polygon class="cls-1" points="613.74 808.23 621.21 805.44 615.32 807.44 613.74 808.23"/><polygon class="cls-1" points="665.37 783.29 658.79 787.43 659.48 787.1 666.09 782.94 665.37 783.29"/><path class="cls-1" d="M790.75,652.68c-5.3,9.44-4,8.25-7,14.05l6.71-12.09c.51-.86,1-1.77,1.44-2.74s1-2,1.54-3.11l4-8.15C792.18,650.81,790.8,653.41,790.75,652.68Z"/><path class="cls-1" d="M783.74,666.73c-.66,1.21-1.38,2.3-2.2,3.67C782.48,668.88,783.2,667.78,783.74,666.73Z"/><path class="cls-1" d="M801.42,631.73c.09.71,3.85-8.46,3-6.53S802.2,630.26,801.42,631.73Z"/><path class="cls-1" d="M772.88,670.69c1.12-1.76,2.27-3.28,3.33-4.78a26.56,26.56,0,0,0,1.47-2.27,22,22,0,0,0,1.13-2.46c-.4.43-1.35,2.27-2.6,4.2S773.69,669.47,772.88,670.69Z"/><path class="cls-1" d="M813.87,593.86c-.63,2-1.9,5-1.74,3.59C811.34,600.41,810.7,604.56,813.87,593.86Z"/><path class="cls-1" d="M786,648c-.54,1.16-1,2.34-1.65,3.46.76-1.34,1.37-2.76,2.06-4.14l2-4.17-.81,1.37Z"/><path class="cls-1" d="M828.19,476.09l-.49-7.1c.07,2-.7-1.59-.22,1.44Z"/><path class="cls-1" d="M827.7,469c0-.3,0-.74-.09-1.37Z"/><path class="cls-1" d="M821.55,435.6l.89,4.6c-.65-3.35-1.16-6.72-2-10l.14.84.56,2.28Z"/><path class="cls-1" d="M808.25,385l1.38,3.63-.41-1.57c-.48-1.21-.88-2.45-1.42-3.63l-1.56-3.58.5,1.57C807.24,382.62,807.81,383.79,808.25,385Z"/><path class="cls-1" d="M552.12,175.93c-.88-.11-1.75-.25-2.62-.36C550.61,175.74,551.46,175.86,552.12,175.93Z"/><path class="cls-1" d="M408.68,181.52c1.49-.42,3-.8,4.49-1.2C411.7,180.68,410.21,181.07,408.68,181.52Z"/><path class="cls-1" d="M427.71,177.55c3.4-.85,7.7-1.52,6.36-1-1.05.27-2.25.47-3.48.79l-3.78.91c-2.53.58-5,1.11-6.88,1.47-1.3.62,4-.35,3.49.15,1.95-.41,3.69-.8,5.26-1.17s3-.75,4.33-1c2.65-.56,4.87-1.1,7.08-1.65s4.42-1.1,7-1.67,5.68-.91,9.55-1.38c-.56.45-5.3,1.38,4.81,0l-2.56.41c2-.31,3.73-.55,5.2-.75s2.72-.22,3.77-.29c2.12-.12,3.52-.15,4.74-.18a55,55,0,0,0,9.18-1l-.24.54c3.69-.31,9.14-.56,14.68-.78,5.54,0,11.17.14,15.24.17l-.49.09c2.85-.07,5.18.15,7.14.21l4.86.25c2.67.15,4.35.26,6.12.4s3.61.44,6.61.8l5.5.65,3.64.41c1.33.16,2.77.44,4.35.68-3.89-.55-7.84-.7-11.75-1,2.18.32,3.94.54,5.46.7s2.79.25,4,.41c2.37.28,4.45.48,7.57,1.05-.38,0,.46.44-2.37.1q14.05,1.92,27.94,5c7.26,1.58-1.35-.77-2.42-1.29,1.37.2,5.3,1.23,9,2.28,1.83.53,3.59,1.05,4.93,1.48a10.94,10.94,0,0,1,2.38,1c-.44-.1-1.2-.35-2-.54l-2.48-.56c-1.45-.32-2.13-.41,0,.29l2.63.5c.87.19,1.73.41,2.6.61l5.19,1.25c13.29,5-10.52-2.51-17.42-3.69,3.46,1,6.33,1.74,8.91,2.41s4.81,1.44,7.11,2.11l7.28,2.19c1.34.38,2.72.9,4.24,1.46l4.93,1.85c-2.1-.84-3.8-1.56-5.25-2.2s-2.64-1.2-3.75-1.63c-.08-.17.72-.05,2.08.38s3.29,1.16,5.54,2l7.38,2.82c1.31.47,2.58,1,3.84,1.6l3.66,1.59c-5.87-2.84-2.34-1.54,2.12.15.79.33,1.33.53,1.72.65l1.51.57-1.13-.49c.11,0-.11-.21-.88-.66-2-.82-3.85-1.63-5.6-2.42s-3.37-1.58-5-2.2c-3.16-1.31-5.95-2.51-8.55-3.5,1.2.71.69.66-.86.15s-4.1-1.52-7.1-2.46l-9.34-3.11c-3-1.05-5.78-1.68-7.47-2.1l-7.79-2-2.91-.79c-.56-.24.3-.18,4.78.86-.93-.21-2.41-.58-4.07-1s-3.57-.76-5.29-1.13c-3.46-.72-6.3-1.29-5.76-1l-3.56-.79-1.78-.39-1.8-.3-7.19-1.23c-2.4-.4-4.79-.84-7.19-1.21l-7.25-.87c-.89-.15-1.79-.31-2.45-.46-1-.06-1.18,0-1.06,0a331,331,0,0,0-121.36,9.23c4.32-1,8.5-1.79,13.19-2.84C421.72,178.9,424.3,178.32,427.71,177.55Z"/><path class="cls-1" d="M614.9,192.27c1.53.61,3.27,1.29,5.34,2Z"/><path class="cls-1" d="M400.11,184l8.57-2.48C406,182.26,403.24,183,400.11,184Z"/><path class="cls-1" d="M641.8,202.66c4.71,2.35,9.51,4.55,14.07,7.19-4.6-2.87,3.72,1.62,4.65,1.91l-8.48-4.7c-2.87-1.48-5.79-2.88-8.68-4.32C643.34,203,641.53,202.32,641.8,202.66Z"/><path class="cls-1" d="M638.48,199.91c-.63-.19-2.57-.89-4.73-1.7,3.28,1.35,6.43,3,9.61,4.53C643.36,202.58,642.36,201.93,638.48,199.91Z"/><path class="cls-1" d="M340.41,211.42c-.79.42-1.57.84-2.34,1.28C339,212.16,339.79,211.77,340.41,211.42Z"/><path class="cls-1" d="M338.07,212.7c-.4.22-.83.47-1.32.77C337.19,213.19,337.63,213,338.07,212.7Z"/><path class="cls-1" d="M297.65,238c1.84-1.1,4-2.41.48.51,11-8.46,28.23-19.1,30.34-20.87-.32.31-.45.57,1.68-.6l6.9-4.75-7,3.87c1.74-1.19,4.5-3,7.77-4.91s7.18-3.87,10.93-5.82l2.79-1.45c.92-.47,1.86-.86,2.76-1.28l5.06-2.26c3.08-1.36,5.49-2.39,6.65-2.81-7,3.32-8.63,4.33-11,5.6s-5.37,2.92-15,7.71c.94-.28,4.57-1.82.34.51l8.23-4.37,4.06-2.13,4.13-1.91c5.5-2.53,10.89-5.15,16.51-7.28l8.4-3.4c1.39-.6,2.85-1.05,4.28-1.57l4.34-1.53,8.82-3.13,9.19-2.85c-19.89,5.12,12.78-4.2,6.4-3.13l-10.69,3.33.86-.46-6.55,1.92-6.45,2.25c2.76-.58,4.75-1.24,4.29-.7-8.63,2.89-10,3.25-10.86,3.38a13.81,13.81,0,0,0-1.66.31,51.92,51.92,0,0,0-5.77,1.9l-9.45,3.83c-1.59.6-3.11,1.36-4.66,2.06l-4.62,2.15,1.45-.79c-1.55.73-2.22,1.09-2.73,1.39a328.65,328.65,0,0,0-58.66,35.48C296.77,238,296,238.84,296,239S296.72,238.52,297.65,238Z"/><path class="cls-1" d="M214,334.14l0-.21C213.81,334.35,213.76,334.49,214,334.14Z"/><path class="cls-1" d="M218.45,327c2-3.59,3.84-7.24,6-10.7-.89,1.32-1.82,2.62-2.68,4l-2.51,4.08-5,8.15c-.09.48-.21.95-.28,1.44a106.13,106.13,0,0,1,5.61-9.45Z"/><path class="cls-1" d="M228.22,312.38c1.77-2.59,3.6-5.49,4.39-6.5l-.31-1.51a48.13,48.13,0,0,0-3.07,4.63,9,9,0,0,0-1,1.95c-.07.47.94-.63,2.58-2.77-4.91,7.62-3.23,3.59-6.25,9.08C224.81,317.29,226.46,315,228.22,312.38Z"/><path class="cls-1" d="M281.89,251l-1.91,2,5.16-4.49C284,249.37,283,250.21,281.89,251Z"/><path class="cls-1" d="M280,253.06l-5.12,4.48a7.07,7.07,0,0,0,1.85-1Z"/><path class="cls-1" d="M255.1,277c2.28-2.4,4.52-4.84,6.84-7.21C259.91,271.87,257.75,274.22,255.1,277Z"/><path class="cls-1" d="M267.37,264.59l-5.43,5.24c2-1.91,3.83-3.63,5.65-5.34Z"/><path class="cls-1" d="M272.93,259.24l1.93-1.7a8.86,8.86,0,0,0-2.5,1.49c-1.3,1.08-3.35,3-6.82,6.47l1.83-.91,3.7-3.57Z"/><path class="cls-1" d="M243,290.72c-.1-.29-3.34,3.75-4.79,5.92.65-.83,1.43-1.84,2.26-2.87S242.25,291.72,243,290.72Z"/><path class="cls-1" d="M170.57,468.28l-.54,4.53C170.27,471.21,170.38,470.39,170.57,468.28Z"/></g><g id="NUDO"><path class="cls-2" d="M473.08,549.29a199.48,199.48,0,0,0,24.4,24.76q1.9,1.62,3.86,3.2a197.73,197.73,0,0,0,26.42,18A98.51,98.51,0,0,0,561,577.14a166.15,166.15,0,0,1-37.47-21.88c-1.53-1.19-2.78-2.19-4-3.15a167.2,167.2,0,0,1-24.95-25.51c-1-1.25-2-2.62-3.17-4.18a165.72,165.72,0,0,1-18.75-32.56,156.08,156.08,0,0,0-30.25,8.07A196.3,196.3,0,0,0,470,545.42c1,1.3,2,2.6,3.11,3.87Z"/><path class="cls-2" d="M497.69,478.85c5.41,0,10.92.27,16.4.81a155.24,155.24,0,0,0,8.09-30.31,199.53,199.53,0,0,0-24.49-1.53A197,197,0,0,0,468.26,450c-1.65.24-3.28.51-4.91.8a195.58,195.58,0,0,0-33.64,9.11c-1.52.56-3.11,1.17-4.71,1.81a195.06,195.06,0,0,0-22.95,10.95,99.36,99.36,0,0,0-3.94,27.66,100.74,100.74,0,0,0,.65,11.36,166.23,166.23,0,0,1,33.88-19.56c1.64-.7,3.17-1.33,4.68-1.92a164.44,164.44,0,0,1,34.37-9.35c1.84-.29,3.52-.53,5.15-.74A168.91,168.91,0,0,1,497.69,478.85Z"/><path class="cls-2" d="M533.21,424.31a165.94,165.94,0,0,1-1.14,19.34c-.2,1.77-.42,3.41-.66,5a164,164,0,0,1-9,34.49c-.66,1.74-1.29,3.33-1.93,4.85a165.55,165.55,0,0,1-18.63,33.18,158.72,158.72,0,0,0,21.84,22.6,196.85,196.85,0,0,0,27.39-48.72q.88-2.31,1.73-4.65a196.4,196.4,0,0,0,8.76-33.7c.27-1.65.53-3.31.76-5a196.18,196.18,0,0,0,1.9-25.41A99.12,99.12,0,0,0,532.31,407,167,167,0,0,1,533.21,424.31Z"/><path class="cls-2" d="M682.53,577.35c-.57-1.56-1.15-3.11-1.76-4.64a196.27,196.27,0,0,0-38.29-61.15c-1.49-1.63-3.08-3.29-4.71-4.95a198,198,0,0,0-37.61-29.91c-1.93-1.19-3.94-2.37-6.14-3.61a196.2,196.2,0,0,0-24.18-11.54,204.63,204.63,0,0,1-8,30.24,165.43,165.43,0,0,1,37.53,22c1.48,1.15,3,2.39,4.54,3.67A167.55,167.55,0,0,1,632.24,548c1.16,1.62,2.33,3.31,3.48,5a165.42,165.42,0,0,1,14.66,27.3l1,2.37-2.54.38c-2,.3-3.64.53-5.21.71a161.8,161.8,0,0,1-18.85,1.11c-1.51,0-3.09,0-4.9-.08-.88,1.26-1.83,2.58-2.89,4a149.48,149.48,0,0,1-31.76,31.52l-1.83,1.32a203,203,0,0,0,71.49,2c1.63-.25,3.26-.53,4.89-.81A200.76,200.76,0,0,0,692,614.4q-.25-1.68-.54-3.36A196.28,196.28,0,0,0,682.53,577.35Z"/><path class="cls-2" d="M489.16,578.75a208.15,208.15,0,0,1-21.83-22.32,165.82,165.82,0,0,1-36.93,21.1c-1.85.77-3.57,1.44-5.24,2.06a164.88,164.88,0,0,1-39.24,9.31c-2.14.23-4.08.42-5.93.55a165.29,165.29,0,0,1-30.33-.51c-1.66-.18-3.36-.39-5.19-.64L342,588l.89-2.35c.66-1.73,1.3-3.32,1.94-4.85a165.94,165.94,0,0,1,14.26-26.84A147.15,147.15,0,0,1,349.81,515a196,196,0,0,0-35.59,58.7c-.6,1.55-1.17,3.1-1.73,4.66a194.71,194.71,0,0,0-8.48,32,195.37,195.37,0,0,0,32.15,8c1.63.26,3.27.5,4.92.73a197.11,197.11,0,0,0,69.11-2.87c2.4-.53,4.49-1,6.39-1.52a195.23,195.23,0,0,0,42.54-16.47c2.15-1.13,4.06-2.17,5.82-3.18A199.69,199.69,0,0,0,489.16,578.75Z"/><path class="cls-2" d="M429.86,450.32a205.88,205.88,0,0,1,30.28-8.05,165.1,165.1,0,0,1,.16-37.33c.25-2.12.49-4,.75-5.66A164.53,164.53,0,0,1,472.17,360c.71-1.68,1.51-3.48,2.46-5.51a166,166,0,0,1,16.81-28.27c1.14-1.55,2.18-2.92,3.17-4.18l1.57-2,1.57,2c1,1.25,2,2.62,3.18,4.18A165.38,165.38,0,0,1,517.06,353a147.42,147.42,0,0,1,37.39,10A195.56,195.56,0,0,0,522.4,303.2c-1-1.3-2.06-2.6-3.11-3.87a199.21,199.21,0,0,0-23.11-23.65,199.15,199.15,0,0,0-23.1,23.65C472,300.6,471,301.9,470,303.2a195.25,195.25,0,0,0-33.84,65.6c-.73,2.45-1.3,4.49-1.8,6.45a196.88,196.88,0,0,0-6.16,46.19v.84c0,.68,0,1.35,0,2,0,1.32,0,2.63.05,3.95A198.41,198.41,0,0,0,429.86,450.32Z"/><path class="cls-2" d="M517.85,362.23c-2-.3-3.89-.53-5.71-.72a141.34,141.34,0,0,0-30.91.22,155.67,155.67,0,0,0-10.33,33.4,109.42,109.42,0,0,1,53.43,0c1.85.47,3.68,1,5.43,1.53a107.88,107.88,0,0,1,37.68,20.6c1.81,1.52,3.55,3.07,5.17,4.62a109.14,109.14,0,0,1,28.3,44.82,207.53,207.53,0,0,1,36.2,26.78A140,140,0,0,0,564.5,377.82c-1.91-1-3.89-2.07-5.88-3A138.12,138.12,0,0,0,517.85,362.23Z"/><path class="cls-2" d="M607.88,586c1.22-1.58,2.39-3.15,3.48-4.67A139.37,139.37,0,0,0,626.14,555a158.22,158.22,0,0,0-23.53-26.67A108.61,108.61,0,0,1,575.51,576c-1.31,1.35-2.68,2.69-4.08,4a108.22,108.22,0,0,1-37.21,22.63c-2.25.81-4.52,1.54-6.73,2.17a108.82,108.82,0,0,1-60.77-.34A205.12,205.12,0,0,1,427.54,621a139.37,139.37,0,0,0,143.23-1.76c1.9-1.17,3.79-2.4,5.61-3.66A140.66,140.66,0,0,0,607.88,586Z"/><path class="cls-2" d="M366.63,548.48h0c.65,1.77,1.38,3.62,2.17,5.51a140,140,0,0,0,14.38,26.14,155.71,155.71,0,0,0,33.81-7.2,108.67,108.67,0,0,1-25-47.83c-.44-1.9-.83-3.82-1.17-5.72a108.86,108.86,0,0,1,1.45-44.87c.58-2.39,1.26-4.79,2-7.1a109.11,109.11,0,0,1,24.91-41.93c0-.39,0-.78,0-1.17a205.39,205.39,0,0,1,4.36-42.14,140.51,140.51,0,0,0-65.38,116.1v.59c0,.5,0,1,0,1.5,0,1.42,0,2.94.09,4.78A138.88,138.88,0,0,0,366.63,548.48Z"/></g></g></g></svg>