<svg xmlns="http://www.w3.org/2000/svg" viewBox="0 0 1000 1000"><defs><style>.cls-1{fill:#11001c;}</style></defs><title>VERSION 2SIN FONDO</title><g id="VERSION_2" data-name="VERSION 2"><g id="ARO"><path class="cls-1" d="M803.73,638.17c-.23,1.12.59.8,1.67-2.08l-.07-2.4Z"/><path class="cls-1" d="M813.29,619.81c.79-3.58,1.41-7.76-.25-5.88-.32,3.67-1,4.34-1.24,8.37-1,2.89-2.36,4.82-2.49,4.21-.19,1.1-2,4.3-2.12,6.07a37.26,37.26,0,0,0,3.16-5.93c.49-1.12.94-2.29,1.37-3.49s.72-2.5,1-3.8C813.34,618.37,813.21,619.5,813.29,619.81Z"/><path class="cls-1" d="M790.69,329.33l.88,1.74A17.85,17.85,0,0,0,790.69,329.33Z"/><path class="cls-1" d="M658,200.71a5.43,5.43,0,0,0,1.94.81C658.7,200.94,657.72,200.48,658,200.71Z"/><path class="cls-1" d="M629.49,186l1.72.79A7.54,7.54,0,0,0,629.49,186Z"/><path class="cls-1" d="M790.69,329.33l-2.25-4.48C788,324.71,789.53,327.19,790.69,329.33Z"/><path class="cls-1" d="M823.29,579.69a25.48,25.48,0,0,0-.41,2.67c.18-.84.35-1.64.52-2.47A.75.75,0,0,1,823.29,579.69Z"/><path class="cls-1" d="M824,404.68l.43,1.46a13.22,13.22,0,0,0,.75,1.1Z"/><path class="cls-1" d="M836.19,466.84c-.11-1.43-1-1.84-1.41-2.35a9.31,9.31,0,0,1,.87,3.05C835.82,467.55,836,467.35,836.19,466.84Z"/><path class="cls-1" d="M829.7,566.69l-.24,1.77C829.52,568,829.63,567.22,829.7,566.69Z"/><path class="cls-1" d="M808.54,362a1.24,1.24,0,0,0,0-.65C808.47,361.39,808.48,361.63,808.54,362Z"/><path class="cls-1" d="M765.33,699.45c0,.07.09,0,.12.08C765.6,699.19,765.62,699.07,765.33,699.45Z"/><path class="cls-1" d="M805.75,639.08l-.4.93a1,1,0,0,0,.33.4Z"/><path class="cls-1" d="M573.92,166.88l.25.08C575.69,167.25,574.83,167.05,573.92,166.88Z"/><path class="cls-1" d="M164.59,428.5c1.93-5.82-1,9.94,1.62,1.11C165.72,430.39,166.57,421.14,164.59,428.5Z"/><path class="cls-1" d="M823.79,578.15c.21-.82.42-1.66.63-2.49C824.1,576.78,823.91,577.55,823.79,578.15Z"/><path class="cls-1" d="M166.21,429.61h0l.26-.91Z"/><path class="cls-1" d="M439.15,164a6.11,6.11,0,0,0,1.42.1C440.51,164,440.19,164,439.15,164Z"/><path class="cls-1" d="M539.61,162.56l-2.46-.36C538.12,162.38,538.92,162.48,539.61,162.56Z"/><path class="cls-1" d="M388.8,178.19a24,24,0,0,0-3.48,1.15l.56-.09A11.88,11.88,0,0,1,388.8,178.19Z"/><path class="cls-1" d="M338.91,199.7c.29-.07.65-.21,1-.31l1.51-.84Z"/><path class="cls-1" d="M641.27,801.57a11.84,11.84,0,0,1,2.57-.35C642.84,801,649.87,797.54,641.27,801.57Z"/><path class="cls-1" d="M823.76,579.78a3.18,3.18,0,0,1,0-1.63c-.13.6-.26,1.17-.39,1.74C823.48,580.07,823.59,580.13,823.76,579.78Z"/><path class="cls-1" d="M388.89,185.21l-8,2.68C383.12,187.18,386,186.21,388.89,185.21Z"/><path class="cls-1" d="M281.64,754.52l1.56,1.18A9.53,9.53,0,0,0,281.64,754.52Z"/><path class="cls-1" d="M357.74,197.79a38.69,38.69,0,0,0-4.59,1.48,5.19,5.19,0,0,0-.8.61Z"/><path class="cls-1" d="M643.87,801.22h0Z"/><path class="cls-1" d="M690.88,771.06c-6.56,4.69-2.46,3.1-3.49,4.63-7.92,5.55-4.2,1.77-7.26,3.08-2.44,1.76-4.5,3.49-6.42,5.08a50.64,50.64,0,0,1-5.77,4c-.39,0-1.18.39-.41-.32a56.3,56.3,0,0,1-4.78,3.25l-2.92,1.78-3.18,1.69a126.83,126.83,0,0,0-11.78,6.83,3.24,3.24,0,0,1-1,.16c1.33,0,1.75.42,1.7.89-3.3,1.54-5.86,3.47-7.41,3.39a9.43,9.43,0,0,0,2.94-1.9l-3.34,1.89c-3.55.49,4.59-2.52,4.26-3.21-3.3,1.71-6.84,3.67-10.21,5.47a91.92,91.92,0,0,1-9.43,4.07c-1.48-.5,12.23-5.32,4.83-3.3,1.39-.5,2.78-1,4.16-1.49l4.08-1.67c-6.76,1.35,4.89-2.14-1.42-1.12l-3.56,1.57L627.54,807c-1.78.75-3.25,1.42-4.72,2.08s-2.94,1.33-4.72,2.09c-.89.36-1.84.8-3,1.17l-3.68,1.22c-2.26,1.39,1.09.51-1.17,1.9a65,65,0,0,1-8.62,3.07,29.09,29.09,0,0,1-5,.71c-2.75.2-4.94.27-10.53,2.64-2.83,1.47-3.71,3-12.23,4.38l2.58-1.82a45.21,45.21,0,0,0-8.48,2.69c-1.56.65-3.22,1.23-9.06,2,2-.85,8.57-2.07,6.88-1.88-7.63.57-5.15,1.67-10.9,2.8-.45-.25-.91-.51-1.36-.79q-4.42.71-9,1.53c-3.08.52-6.19,1.19-9.39,1.55-6.37.81-12.91,1.87-19.53,2.14.72-.34,3-.77-.14-.93q-3.12.26-6.33.45l-3.23.19h-3.26c-4.37,0-8.79,0-13.2-.14-4.4-.3-8.78-.64-13-1-1.07-.09-2.13-.16-3.18-.27l-3.13-.42-6.08-.83-6.2.28c-1.42-.15-2.57-.77-1-.7-6.14-1.25-.39.51-3.41.41-3.54-.46-4.58-1.19-2.31-1.12-11.08-.42-31.31-4.17-42.32-8.1l2.27.3c-1.08-.33-2.07-.56-2.95-.79s-1.69-.44-2.43-.59c-1.49-.32-2.75-.48-4-.66a31.35,31.35,0,0,1-8.79-2.37l1.59.33c-2.36-.72-4.68-1.65-7-2.52l-7.1-2.6-3.56-1.29c-1.19-.41-2.33-.95-3.49-1.42l-6.86-2.89c-2.25-1-4.48-1.88-6.63-2.85s-4.17-2.09-6.16-3.11-3.89-2-5.71-3l-2.66-1.48c-.86-.49-1.65-1.05-2.44-1.57-1.55-.12-5.77-2.59-9.83-4.9l-3-1.67c-.93-.54-1.8-1.08-2.59-1.5-1.57-.85-2.77-1.33-3.27-1.12-4.57-3.32-6.12-4.62-8.17-6.19s-4.47-3.64-10.82-8.34c-3.47-2.39-5.73-2.8-10-5.8l.46-.81-6.24-3.54c-.79-1-1.51-2.15-2.24-3.24l-3.89-3c1.45,1.3,2.9,3,2.51,3a103.55,103.55,0,0,1-9.21-8.06c-2.61-2.69-4.35-4.93-4.27-5.15l-6.88-5.89c-1.17-1-2.24-2-3.34-3.05l-3.3-3.11c.55,0,2.75,2.11,4.59,3.66-7.4-6.26-.53-1.94-7.31-7.67.68,1-.84-.08-1.12-.1-.65-.9-1.64-2-2.68-3.29s-2.28-2.77-3.58-4.28-2.68-3.08-4.06-4.61l-2.05-2.25c-.67-.73-1.27-1.49-1.87-2.2l1.37.71q-3.08-4-6.4-8.06c-1.09-1.38-2.24-2.73-3.33-4.15l-3.21-4.35c-2.15-2.93-4.4-5.85-6.54-8.89l-6.17-9.38c2.69,4.68,1.09,4.25-1.42.59l-.13-2c-2.07-2.07,2.21,4.08-1.62-.45-2.81-4.91-1-3.84.91-1.22l-3.74-5.73c.05-.5,1,.81,1.52,1-1.91-2.14-5.19-10.6-7.84-13.75l.08-.48c-1.76-3.32-3.27-6.19-4.64-8.79s-2.43-5-3.56-7.32l-3.31-6.87c-1.11-2.35-2.09-4.9-3.27-7.72-.87.1-2.5-4.42-4.51-7.57-1.37-4.31-2.73-8.89-4.2-13.66l-.55-1.8-.48-1.84-1-3.74c-.69-2.52-1.42-5.08-2.21-7.67l-.8-2.16c-.19-.56-.34-1-.46-1.26-.24-.58-.36-.7-.46-.69s-.26.55-.91-1.06c.6-.74-2.06-11.27-.18-5.93-.41-1.57-.77-3-1.12-4.35s-.67-2.57-.89-3.76l-1.45-6.77c-.5-2.24-1-4.59-1.66-7.39s-1.11-6.09-1.86-10.15c-.05,1.82.11,3.84-.3,2.84-.56-3-.68-6.81-.25-6.43l.2.78c-1.74-9.13-2.22-19.88-2.06-30.1-.11-5.11.26-10.1.31-14.72q.06-3.48,0-6.65c0-2.1,0-4.09-.09-5.94l0,.83-.05-7.66c0-1.28,0-2.56,0-3.83l.17-3.83c.82-7,.16,4.25,1.15-.89.08-4.13.3-7.82.58-11.24.44-3.4.95-6.53,1.45-9.56.25-1.52.5-3,.74-4.51l.36-2.24c.16-.74.31-1.49.46-2.24.6-3,1.15-6.1,1.61-9.48a38.26,38.26,0,0,0,1.54-4.41c.58-1.68,1.16-3.56,1.73-5.58s1.14-4.2,1.7-6.46c.28-1.13.56-2.28.85-3.44s.66-2.32,1-3.5c1.38-4.68,2.72-9.51,4.16-13.94,1.6-4.38,3.2-8.41,4.74-11.61l-.78.58c.77-3.63,1.76-4.07,2.95-6.49-.53.19-2,3.48-1.37,1.28q2.14-5.41,4.42-10.88l1.14-2.73c.38-.91.76-1.82,1.21-2.71l2.61-5.36c.88-1.78,1.77-3.57,2.65-5.37s1.75-3.6,2.78-5.33l6-10.48,1.51-2.61,1.64-2.54,3.29-5.08,3.28-5.08.82-1.26.89-1.23,1.76-2.45,7-9.77,7.41-9.37c3.52-4.61,4.16-6.21,5-8.13s2.14-4,7.36-9.21l-1.94,3.83c.89-1.16,1.77-2.34,2.7-3.49l2.92-3.33q2.94-3.33,6-6.64c2-2.25,4.17-4.26,6.29-6.37l6.44-6.23c2.17-2,4.47-3.95,6.69-5.93L283.9,244q3.44-2.77,6.8-5.58l3.34-2.82,1.65-1.41c.56-.47,1.14-.9,1.7-1.35a17.13,17.13,0,0,1-2.6,2.63c.53-.3,1.13-.73,1.83-1.17s1.45-.95,2.23-1.5c1.57-1.09,3.25-2.35,4.78-3.55,3.06-2.39,5.55-4.59,5.43-4.85,3-1.9,1,0,3-1a57.7,57.7,0,0,0,6.81-4.68c2.21-1.68,4.21-3.18,5.54-3.48.44-.12-1.07.87-1.79,1.4,2.54-1.93,12.8-7.38,9.76-6.58l10.86-5.88c1.72-.94,3.39-1.85,5-2.7.81-.42,1.62-.84,2.43-1.22s1.63-.68,2.44-1c1.84-1.36,5.25-2.81,8.28-4.14,1.52-.66,2.94-1.32,4.05-1.87a4.66,4.66,0,0,0,2.1-1.46c0,1.52,14.38-4.81,19.42-7-1.59,1,4.62-1.17,2.78.07,5.83-2.18,11.27-3.9,10-4.28,5.75-.85,11.14-2.92,16.1-4.3,2.46-.74,4.78-1.44,6.9-1.92a29.07,29.07,0,0,1,3-.53,12.29,12.29,0,0,1,2.72,0l13.27-3.12,13-2.34c1.08-.18,2.14-.39,3.21-.55l3.2-.4,6.36-.79,6.29-.75,6.27-.44c-.13.35-1.34.59-3.08.77-.87.09-1.87.17-2.93.24l-3.27.35c-4.42.47-8.67.94-8.23,1.61,3.91-.52,7.4-1,10.69-1.55s6.4-.7,9.5-1l4.67-.44,2.39-.2,2.45-.07c3.31-.08,6.83-.09,10.75,0s-2.32.59-3.68.82q3-.1,5.87-.16c1.94,0,3.87.11,5.78.17l11.28.54c3.69.34,7.32.72,10.92,1l5.36.41,5.28.56a14.58,14.58,0,0,1-3-.08c2.75.36,6.34,1.14,6.13.49l-2.7-.23c-4.28-1.53,11.19-.25,11.78-.59-4.94.81,13.6,3.18,5.82,3.89,1.81.25,4.11.41,3.79-.08,2.63.65,3.42,1.06.63,1,2.45.4,4.08.62,5.29.76s2,.27,2.71.35a47.07,47.07,0,0,1,7.22,1.46c-.11.28-1.9-.05-2.89.06,2.28.27,4.57.55,7.21,1l2,.39c.7.18,1.43.38,2.18.6,1.51.43,3.15,1,4.95,1.57-.49,0,.29.52-1.88-.15,3.13.94,6.06,1.72,8.9,2.45l2.12.54,2.06.62,4.11,1.24c2.75.84,5.53,1.71,8.46,2.71,1.48.47,2.94,1.11,4.46,1.76s3.09,1.36,4.72,2.12c-4.41-.45,4.34,2.3,4.59,3.62,1.2.45,2.42.87,3.6,1.36l3.54,1.53-2.56-1.84c3,1.48,6,2.68,8.83,3.87a51.88,51.88,0,0,1,8,3.92l-2.32-1-2.36-.89c1.93.85,3.79,1.85,5.66,2.84l5.61,2.95-6.1-3.82c6.29,2.78,0-1.61,7.81,3-1.68-.76,6,3.2,8.61,5.74h0a66,66,0,0,1,10.32,5.81c.91,1-1.57.49-1,1.13,1.67.47,4.94,2.71,8.35,4.94a100.38,100.38,0,0,0,8.85,5.43c-1.25-.66-1.65-.23-1.36.15l2.66,1.07c2.36,2.1,2.65,2.47,2,2.53,7.42,5.83-1.52-2.94,7,4.34-.74-.49-.47-.14-2-1.16,1.08.89,2.21,1.72,3.26,2.62l3.15,2.65,6.27,5.1c1,.85,2.07,1.66,3.07,2.52l2.92,2.65c1.92,1.77,3.81,3.55,5.63,5.39,1.45,2.89-6.79-6-4.88-2.89,11.19,9.76,22.77,20.84,31.86,32.06l-1.58-2.18c1.24.27,2.76,2.51,4.62,5.32.93,1.4,1.94,2.95,3,4.47s2.33,3,3.51,4.39c-1.13-1.39-2.1-1.34-1.66-1.07,2.8,4.06,5.81,8.1,9.29,12.59,1.69,2.29,3.38,4.77,5.26,7.39l2.9,4.11c.5.71,1,1.43,1.52,2.17s1,1.53,1.48,2.32l-1.28-1.39c1.31,2.61,3.19,5.95,5.13,9.32,1,1.7,2,3.36,2.83,5s1.64,3.25,2.33,4.66c1.22,1.46,2.82,4.69,2.34,2.48.85,2.29,1.81,4.49,2.75,6.66s1.81,4.36,2.77,6.48,2,4.18,3,6.22l.76,1.53.69,1.55c.47,1,.93,2.06,1.39,3.08l2.75,6.1c.89,2,1.81,4,2.51,6.11a110.33,110.33,0,0,1,3.73,12.46c-.68-1.93-2-4.5-1.42-3l1.3,3.42c.42,1.15.77,2.32,1.16,3.47l2.27,7c.33-1.3-.15-2-.51-5.06a56.59,56.59,0,0,1,3.45,9c-1.16-3.12-1.42-3-1.34-1.8s.52,3.56.64,5c.09-.52.55.37.7.08.64,7.75,1.66.9,3.36,11.29l-.48-.46c.29.94.57,1.86.86,2.78s.5,1.84.76,2.77c.5,1.86,1,3.77,1.32,5.86-.45,1.88-1.17-4-1.87-4.16,1.16,5.81,3.87,11.21,3.74,16.69-.29-1.23-.57-2.74-.85-4.26a43.26,43.26,0,0,0-1-4.22c0,1.48.12,2.62.17,3.58s.07,1.73.14,2.45c.13,1.44.34,2.67.58,4.83l0-.43c.32,3.33.74,6.65,1,10,0-.86,0-1.71-.07-2.56a22.4,22.4,0,0,1,1.58,5.49c.34,1.9.56,3.86.76,5.91s.4,4.16.66,6.39a66.4,66.4,0,0,0,.91,7.08c-1.77-9.66-.83-1.57-1.78-2.26-.12,2.56-.22,6.43-.53,5.34a28,28,0,0,1,.42,6.52,35.2,35.2,0,0,0,.37,8c-.29.3,0,5-.76,4,.23,6.12.51-1.44.87-.92.62,4.73-.11,10.28-.62,16.33-.13,1.51-.27,3-.4,4.62s-.38,3.16-.54,4.78a98.47,98.47,0,0,0-.52,10c-.05,1.47-.17,2.78-.28,4s-.16,2.3-.23,3.31c-.12,2-.18,3.75-.24,5.45s-.12,3.38-.24,5.31-.48,4.09-.89,6.8c-1.18,3.53-.45-3.16-.45-3.16-.8,2.87-1.4,5.4-1.89,7.91s-.83,5-1.41,7.75c0-1.15-.47-.07-1.2,1.5-1,4.36.29,3.17-1.58,8.8a24.82,24.82,0,0,1,0-4.63c-.51,2.59-1,5.18-1.41,7.8s-1.18,5.2-1.86,7.86c-.91,1.23.23-3.39.48-5.32-1.6,5.93-4.16,15.36-4.21,17.37l1.62-3.63c-.73,2.13-1,.88-.65-.74.94-5.23,2.49-7.18,2.86-7.38l-1,3.78c1.4-1.65,2.49-5.44,3.53-9.73.57-2.13.87-4.45,1.31-6.68s.85-4.39,1.36-6.29l.4,3.49,1-8.08c.38-.79.75-1.44,1-1.41s.34.75-.06,2.65c.25-.67.45-1.24.61-1.76s.23-1,.31-1.36a19.21,19.21,0,0,0,.29-2,16.93,16.93,0,0,1,1.06-4.51c.21-.51.22-.26.17.24l.72-5.5c0,1.12,1.05-.74.2,2.57a55.44,55.44,0,0,0,1.46-6.61c.26-2,.41-3.82.55-5.44.27-3.23.46-5.67,1.2-7.46l0,.83c.19-1.71.36-3,.41-4s0-1.69,0-2.16c0-.94-.16-1-.32-1-.32.06-.76.53-.79-4.64l2.93-6.72-.78-1.42c.13-1.41.32-4.21.66-3.67-.36-5.32-.44.87-.88-2.23a56.61,56.61,0,0,0,.6-5.82c.06-1.06.11-2.13.16-3.19s.1-2.12.07-3.13c0-4.05,0-7.44.77-8.21-.69-2.45-.53,6.54-1-.76.79-1,.72-3.16.54-5.78a52.16,52.16,0,0,1-.5-8.9c.9,1.88.76,7.83,1.18,1.54-.78-1.86-.85-4.9-.8-8.15.07-1.62,0-3.28-.06-4.88a40.48,40.48,0,0,0-.35-4.42c-.55-.07-.94-2.91-1.35-6.83,0-.49-.1-1-.16-1.52s-.15-1.05-.23-1.59c-.16-1.08-.32-2.21-.49-3.35-.34-2.27-.72-4.6-1.13-6.78.6.48-2.18-16.54-3.81-24.64l.24.2c-.73-.65-1.55-3-2.41-6-.42-1.49-.85-3.13-1.29-4.76s-1-3.24-1.47-4.71c.69.06,1.3,1,2.48,4.2-.49-1.88-1.1-3.73-1.64-5.59a34.53,34.53,0,0,1-2.63-6.5L823,400.8c-.57-1.85-1.18-3.7-1.84-5.58s-1.5-3.72-2.28-5.67-1.54-4-2.3-6.09c-.38-1.07-.75-2.16-1.12-3.29s-.83-2.25-1.24-3.43c-.92-.23,1,8.08-3.44-1.45.24-.51.75-1.14,1.94,1.35a30.59,30.59,0,0,1-2-4.6l2.22,3.64c-1.41-4.32-1.43-2-2.73-5.36.58-.16-.61-2.65,0-2.35a43.36,43.36,0,0,0,1.7,4.23c-.72-1.92-1.46-4.06-2.05-5.93s-1.15-3.43-1.26-4.28c-.16.46-.73.32-2.06-2.37-3.29-7-.47-2.7-2.09-6.95-.6-.75-1.25-2.34-2-3.62s-1.43-2.37-1.85-2.23a8.51,8.51,0,0,1-1.06-3.47c-.55-.84-1.38-2.3-2.28-4s-1.85-3.5-2.84-5c-1.91-3.09-3.34-5.21-2.61-3l.46.92-.36-.55v0c-1.85-2.72-3.6-5.57-5.3-8.48l-5.35-8.66-2.66-4.36c-.45-.72-.87-1.45-1.34-2.16L775.74,306c-1.91-2.77-3.85-5.48-5.83-8.07l.25-.16c-2.34-3.11-5.2-6.38-7.76-9.51a73.85,73.85,0,0,0-7.12-7.86c-1.52-1.72-3.18-4.43-2.26-3.92-2-2.16-3.25-3.31-4.6-4.77-.69-.71-1.35-1.56-2.29-2.55s-2-2.23-3.44-3.86c4.55,3.94-1.1-1.8,4.55,4.14-2.6-2.86-4.12-4.69-5.79-6.49a61,61,0,0,0-6.71-6.19c2.6,1.39-3.61-4.67-6.46-7l3.6,4.1c-3.1-2.74-5.7-5.26-8.35-7.82l2.12.62a46.72,46.72,0,0,0-4.21-4c-1.43-1.25-2.86-2.43-4.28-3.56-2.85-2.23-5.57-4.38-8.41-6.18s-5.46-3.68-8-5.58c-1.26-.94-2.44-1.95-3.63-2.92s-2.36-2-3.46-3c-3.86-1.8,6.82,5.28,3.25,3.82-5.92-4.22-11.39-9.74-13.31-11a38.81,38.81,0,0,0-8.55-4.69c-1.12-.46-2.25-.93-3.65-1.64-.7-.35-1.46-.77-2.33-1.28s-1.87-1-3-1.7c1,1,1.62,2.38-5.36-1.06-6.31-3.6-7.16-5.62-3-3.66,1.55.82,2.24,1.32,2.12,1.39,2.13,1,4.92,2.37,2.57.65l-1-.15c-1.51-1-4.47-2.74-6.77-4.12s-4-2.24-2.81-2c-5.13-2.1-2.39-.5,1.21,1.44-4.1-2.27-7.4-3.87-10.74-5.46-1.68-.77-3.33-1.64-5.17-2.42s-3.79-1.65-6-2.67c1.34.78,2.47,1.71,1.07,1.12-6.43-2.95-7.94-3.4-8.93-3.56a14.15,14.15,0,0,1-1.68-.29,40.46,40.46,0,0,1-4.34-1.31c-4.91-2.36,2.29-.55-6.93-3.41-5.42-2.36-.87-1.32,1.44-.79-2.13-.59-4.15-1.27-6.06-2s-3.78-1.25-5.49-1.89c-3.42-1.28-6.37-2.51-8.76-3.32l4.53,1.1c-2.72-.64-4.88-1.37-7.12-2,.8.43,1.57.95,2.36,1.43l-1.83-.64-1.54-.46c-.87-.28-1.39-.49-1.33-.62-2.85-.24,1.77,1.67-3.78.92-1.72-.62-4.41-1.2-6.81-1.78-1.19-.29-2.31-.58-3.2-.88a4.2,4.2,0,0,1-1.8-.81l1.82.41,1.33.35a13.72,13.72,0,0,0,1.49.31c.57.06.4-.12.17-.33-.45-.42-1.1-.95,3.61.16-1.84-.34-4-.92-6.67-1.69-.38-.18.42-.12,1.16,0-10.56-3.06-5.17,0-16.26-2.23.75-.12.15-.5-.87-.87a15.89,15.89,0,0,0-3.4-.74c4.53.69,2,1.2-2.19,1-7.11-1.47-7.84-.85-11.59-1.46l4.26.83a13.91,13.91,0,0,1-3.74-.1c-1.71-.16-3.87-.3-6.39-.48-.38-.45,4.59.17,2.82-.19a39.55,39.55,0,0,1-9.36-1c-1.7-.28-3.47-.69-5.31-.83a46.69,46.69,0,0,0-5.72-.2c-3.6-.54-.29-1-3.47-1.42a52.47,52.47,0,0,1-5.35-.07c-1.44-.12-2.65-.15-3.86-.27a57.29,57.29,0,0,0-9.56-.12c2.67.71,3.12.54-3.36,1.24l15.17-.51-9.74,1c2.29,0,4.7-.1,6.88-.2l3.06-.12a22.18,22.18,0,0,1,2.44.09,18.75,18.75,0,0,0-3.54.4c-.19.1.47.21,1.55.5A40.56,40.56,0,0,0,497,161c-1.61.11-3.24.22-4.93.26-.84,0-1.69,0-2.56,0s-1.76,0-2.66,0l.16-1.78c-2.73-.07-5.3,0-7.84.18-1.28.08-2.54.19-3.81.3l-1.92.18-1.93.29c-2.6.39-5.3.8-8.22,1.17s-6.1.63-9.6,1.1c1.51-.09,3-.29,4.54-.3-1.8.87-8.62,1.33-13.1,2.25.33-.64-2.53-.45-4.53-.51.31.39-10.18,1.95-11.19,3.36-2.11.17-4.25.24-6.34.53-11.16,2.46-12.26,4.59-22.75,7.6,3-1.56-1.92-.54,5-3.08-3.51,1-6.7,1.88-6.64,2.29a35.52,35.52,0,0,0-6,2,38.87,38.87,0,0,1-6.8,2.43c-1.37.75-1.63,1.5-5.51,2.81-.47,0-.09-.28-.09-.28a18.15,18.15,0,0,1-2.47,1.31c-1,.57-1.6,1,.18.64a74.47,74.47,0,0,0-9.37,3c-1.7.63-3.45,1.32-5.21,2s-3.48,1.61-5.22,2.42c-3.47,1.64-6.9,3.25-10,4.66a67.83,67.83,0,0,1-8.27,3.59l-5.45,3c-1.86,1-3.69,2.23-5.54,3.33L323.48,209c-1.74,1.08-3.46,2-5,3,.29-.4-.14-.26,1-1-8.66,5-4.26,4.73-14,10.48-2.62,1.3-1.47.32-.06-.77s3.18-2.14,1.55-1.31c-1.24-.43-4,1.68-7.28,4.26a115.74,115.74,0,0,1-10.5,7.63l1.38-1.25c-5,3.17-10.84,9.34-18,15.67,0,0,.24-.43-.15-.25-1.06,1.26-2.42,2.74-4,4.33-.79.79-1.58,1.66-2.38,2.55l-2.53,2.73-5.29,5.57c-.88.92-1.78,1.8-2.59,2.72l-2.36,2.68c1.4-2.61,2.56-3.33.81-2.59-2.73,3.09,1.71,0-3.72,6.13-2.1,1.67-6.47,5.7-7.53,5.82.81-1,1.69-2,2.57-2.9l2.63-2.85a22.26,22.26,0,0,0-5.06,4.89c-1.55,2-3,4.1-4.4,5.61l0-.7c-7.64,9.15-6.6,10.17-14.45,20.23l1.09-.84a23,23,0,0,1-3.55,5.33,19.92,19.92,0,0,0-3.62,5.26L216,310.58l-2.35,4-2.93,5.52-3.28,6.09c-1.11,2-2.23,4-3.13,5.84a64,64,0,0,1,4-8.83l4.94-9.48c-2.46,3.85-8.09,13.28-8.83,15.6a40.77,40.77,0,0,1,2.93-5.21c-2.27,5.18-5.24,11.93-9.64,19.86-.71-1.28-3.44,4-6.52,10.22l-2.37,4.77c-.42.79-.79,1.6-1.13,2.39l-1.06,2.3a41.49,41.49,0,0,1-3.75,6.85c-.68,1.9-1.41,3.78-2.13,5.66s-1.31,3.82-2,5.72l-2.12,5.73c-.37,1-.73,1.92-1.1,2.89s-.76,1.93-1.06,2.92l-4,12.17c-.34,1.05-.69,2.1-1,3.16l-.87,3.27q-.86,3.28-1.7,6.71c3.36-6-1.3,5.34.77,4.64-.51,2.12-.75,3.61-1,4.6a8.52,8.52,0,0,1-.44,1.66c-1.21,4.25-2.48,8.5-3.65,12.79-.49,1.51-.45.46-.31-.92s.46-3.08.22-2.92c-.53,2.34-.84,3.76-1,4.67a5.34,5.34,0,0,1-.55,1.56c-.32.56-.63.71-1.34,3.83.84-1.2.44,3.44-.61,8.83l2-7.51a64.36,64.36,0,0,1-1,7.62c-.35,1.9-.62,3.33-1,4.75a52.73,52.73,0,0,0-1.52,12.53l-.16-4.31c-.29,3.47-.52,9.89-.7,16.28,0,1.6-.07,3.2-.1,4.75s.13,3.06.22,4.47a51,51,0,0,0,.8,7c-.21,1.22-.71,2.86-.84-.2,0,2.07-.08,4.21.05,6.38s.29,4.37.46,6.59c.36,4.43.64,8.92,1.31,13.26s1.1,8.59,1.57,12.53c.62,3.93,1.09,7.58,1.34,10.8l-.63-1.18c.29,1.52.69,2.82,1,4.23a32.52,32.52,0,0,1,.83,4.85c-.22-.17-.68-1.15-.43.26a95,95,0,0,1,2.89,12l-1.17-3.33.49,2.91.25,1.4.32,1.34c.43,1.76.86,3.42,1.3,5,.88,3.19,1.78,6.08,2.69,8.88s2.07,5.44,3.1,8.22c.52,1.39,1,2.81,1.56,4.29s1,3,1.61,4.59c-.63.18,0,3.31,1,7.16.51,1.93,1.13,4,1.73,6s1.34,3.86,1.86,5.37l-.26-.14c1.75,4.38,3.39,8.43,5.11,12.23s3.64,7.27,5.45,10.75S194,654,196,657.45s4,7,6.35,10.69c1.05,2.51,2.69,5.76,4.71,9.48,1,1.88,2.23,3.75,3.45,5.75l3.92,6.16,2,3.19c.71,1,1.47,2.08,2.2,3.12l4.42,6.24c2.83,4.19,5.87,8,8.42,11.55-1.47-2.23,1.08-.3,3.1,2a32.79,32.79,0,0,0,2.18,2.71c.81.93,1.74,1.8,2.51,2.61,1.55,1.59,2.63,2.83,2,3l-.94-1.11c1.17,3.06,6.81,9.32,11.48,13.94l1.9-.33a76.43,76.43,0,0,0,9.59,10.75c1.86,1.78,3.8,3.57,5.75,5.34,1,.87,1.93,1.77,2.93,2.61l3,2.44,5.79,4.68,2.69,2.21,1.28,1.06,1.27,1a53.94,53.94,0,0,1,7.52,6.66c.88.55,1.8,1.15,2.73,1.78s1.88,1.3,2.87,1.9c2,1.23,3.92,2.45,5.72,3.45l-.66.57,6.32,4.5c.95.71,1.93,1.32,2.9,1.92l2.92,1.84,6.34,3.89,3.71,2.23,4.37,2.32-2.83-.86a31.48,31.48,0,0,0,8.46,3.25c1.22.31,2.42.61,3.72,1q1,.33,2,.78c.72.3,1.5.61,2.33,1l1.42,2.1c3.14,1.51,6.26,3.09,9.38,4.69l2.33,1.19,2.39,1.09,4.79,2.15c3.21,1.4,6.4,2.84,9.66,4.06s6.6,2.19,9.93,3.09c-.27.1-.78.31-2.92-.42,6.05,2.57,23.93,8.68,22.12,6.35,0,.29.79.7,2.19,1.19a55.66,55.66,0,0,0,5.59,1.38c2.21.47,4.66.94,7,1.39s4.6.91,6.48,1.11l-1.33.58c6.46.21,6.71,0,15.43,1.4,1,.27,1.44.5,1.27.6a4.77,4.77,0,0,1-2.28-.33,21.24,21.24,0,0,0,3.86.74c1,.1,1.7.11,2.48.12a37.29,37.29,0,0,1,7.45.94l-3.2.06a56.07,56.07,0,0,0,6.45.8,36.8,36.8,0,0,0,4.13-.21c4.52.1,13.51,1.58,14.53,2.38,1-.41,5-.84,9.17-.41.56.31-1,.41-1.77.46,3,.29,5.61.43,8,.49s4.49-.15,6.49-.24a83.81,83.81,0,0,1,11.65,0c.18.26.72.38,1.41.43-2.39.16-4.66.09-6.72.1l-5.4,0c-3,0-4.77,0-4.41-.08,0,.77,7.73.91,1.55,2,3.12-.29,7.34-.75,11.7-1.1a123.74,123.74,0,0,1,12.65-1,5.23,5.23,0,0,1,1,.22l-.77.12a31.38,31.38,0,0,0,4.75-.37c2.4-.11,3.93-.16,6.23-.37.47.27,2.69.14,5.27-.1l4-.41c1.3-.14,2.5-.38,3.46-.49-.42-.79,4.58-1.39-.18-1.4.61,0-.7.23-3.24.59-.57.08-1.24.16-1.62.25l.25-.1-9.51,1a38.82,38.82,0,0,1,10.39-1.34c1.9-.73,4-1.67,5.13-2.08,2.67.2,6.54.09,9.94,0,.85,0,1.68,0,2.44-.08l2.08-.13a10.82,10.82,0,0,1,2.54,0c2.87-.68,6-1.37,9.19-2.08.79-.18,1.6-.33,2.39-.54l2.38-.65,4.69-1.3c3.07-.88,6-1.73,8.58-2.61a56.36,56.36,0,0,0,6.4-2.84c3.13-1.15,3.8-.66,5.07-.78-1.8.7-4,1.33-4.94,1.85,1.57-.57,3.54-1.22,5.63-1.9l3.18-1,3.1-1.18c4-1.54,7.42-3,8-3.74,4-1.15,3-.53,2.34-.11-.34.21-.6.37-.1.23a39.44,39.44,0,0,0,4.45-1.71l-1.33.9a135.72,135.72,0,0,0,14.75-5.63c4.42-2.2,8.55-4.48,12.74-6.77,1.06-.55,2.08-1.19,3.12-1.81l3.14-1.88c2.13-1.25,4.31-2.5,6.61-3.74s4.64-2.59,7.14-3.93,5.15-2.69,8-4a11.82,11.82,0,0,1-2.77,1.17c1.58-.86,3.17-1.7,4.74-2.61l4.6-2.88c3.07-2,6.16-3.91,9.21-6l8.9-6.51c1.48-1.1,3-2.16,4.43-3.3l4.29-3.49c2.84-2.34,5.73-4.63,8.54-7s5.49-4.86,8.24-7.24c1.37-1.21,2.78-2.35,4.11-3.58l4-3.68c2.65-2.44,5.33-4.82,8-7.16,5.73-5.68,5.81-6.8,8.76-10.75l1.87-.67c1.61-2.32,3.1-4.73,4.66-7.08a71.47,71.47,0,0,1,5.46-6.47l5.49-6.08c1.87-2.07,3.78-4.23,5.73-6.68a78.94,78.94,0,0,0,5.53-8.68l-1.61,1.26c.79-1.1,1.78-2.54,2.8-4.08.52-.76,1.05-1.55,1.57-2.33s1-1.54,1.47-2.3c1.81-3,3.28-5.26,3.34-4.69a8.59,8.59,0,0,1,1.77-3.48l.49.11c1-2,2.11-3.9,3.1-5.89l2.83-6c2.62-4.43,2.84-3.86,3.32-3.81.24,0,.54-.1,1.25-1a37.23,37.23,0,0,0,3.47-6.1c2.29-5.15,5.7-15,4.49-13.2-1,2-2.77,5.06-3.27,5l2-4.7c-.87-1.42-.5-5.47-6.76,5.25l-3,8.16-1.94,2.12c1.19-2.1,2.21-4.3,3.24-6.49a27.69,27.69,0,0,0-2.53,4.63c-.63,1.39-1.09,2.71-1.62,4.09a10.48,10.48,0,0,0-2.39,2.81l-2.91,8.08c-.5.3-.23-.64-.28-1.09s-.27-.33-1.9,2c-1.54,3.69,3.05-2.63,0,3.19-2.71,3.19-2.52,1.89-4.59,6.3-.66.39-.32-.6.55-2.32-1,1.93-2.35,4.43-3.73,6.62a28.21,28.21,0,0,0-2.94,5.31,63.47,63.47,0,0,0-5.29,7.08c-1.8,2.46-3.4,4.34-3.79,3.78a85.63,85.63,0,0,1-6.14,9.86c1.56-3.39-.61-.38-3.52,2.88s-6.13,7.12-6.15,5.84a19.57,19.57,0,0,1-1.2,2.1,21.94,21.94,0,0,1-1.81,2.46c-1.4,1.7-3.09,3.6-4.89,5.58s-3.67,4.07-5.53,6.06-3.74,3.86-5.3,5.65a8.59,8.59,0,0,1,1.54-1.87c-3.92,3.63-5.32,4.4-8,6.59.3,1.31-5.77,7-8.67,10.53-5.65,3.46,2.09-3.68-.17-3.14.43.24-1.52,2.32-3.37,4.17s-3.62,3.42-2.5,3c-4.36,2.58-3.59,2.43-6.21,3.27.21,1.68-3.42,3.16-6.29,6.25-6.31,3.65-2.32,0-8.51,5C685.46,775.61,690.88,771.06,690.88,771.06Zm-175.27,63.7h0l3.91-.24Zm-15.93.49c1.94,0,4.36.07,6.92,0,.56.24,0,.64-1.64.61C505.83,835.66,502.06,835.49,499.68,835.25ZM534,839.18c-2.54.37-3.41.29-3.78.15,1.21-.13,2.61-.3,4.46-.54l.29-.13A2.94,2.94,0,0,1,534,839.18Z"/><path class="cls-1" d="M538.41,837.63c.37,0,.57-.11,1-.19-.52,0-1,0-1.53,0l-.88.35Z"/><path class="cls-1" d="M791.73,331.37l-.16-.3a4,4,0,0,1,.26.67A2.35,2.35,0,0,1,791.73,331.37Z"/><polygon class="cls-1" points="295.68 765.27 295.57 765.46 296.78 766.15 295.68 765.27"/><path class="cls-1" d="M822.61,413.91a4.43,4.43,0,0,0,.06,1.18A5,5,0,0,0,822.61,413.91Z"/><path class="cls-1" d="M830,451.14l.48,5.35C830.35,454.17,830.19,452.48,830,451.14Z"/><path class="cls-1" d="M832.66,480.19a1.34,1.34,0,0,0,.38.55v-.06Z"/><path class="cls-1" d="M540.9,168.46c-.38-.06-.77-.1-1.11-.13C537.16,168.15,538.94,168.29,540.9,168.46Z"/><path class="cls-1" d="M670.92,211.7c-1.33-.64-2.64-1.26-4-2C669,211.06,670.61,212.08,670.92,211.7Z"/><path class="cls-1" d="M389.77,184.91s0,0,0,0l-.89.32Z"/><path class="cls-1" d="M661.3,206.62a48.55,48.55,0,0,0,5.63,3.1C665.19,208.7,663.14,207.48,661.3,206.62Z"/><path class="cls-1" d="M816.1,604.64l-.45,1.33c.06,0,.08.09.07.2C815.86,605.67,816,605.15,816.1,604.64Z"/><path class="cls-1" d="M815.72,606.17l-.44,1.5A6,6,0,0,0,815.72,606.17Z"/><path class="cls-1" d="M814.36,610.82l.92-3.15A13.53,13.53,0,0,0,814.36,610.82Z"/><path class="cls-1" d="M826.37,567.48l-.21-.5A.58.58,0,0,0,826.37,567.48Z"/><path class="cls-1" d="M828.52,556c-.2,1.38-.76,3.07-1.24,4.9a50.73,50.73,0,0,0-1.29,5.73l.17.4a24.81,24.81,0,0,1,1.18-5.2C827.94,559.6,828.63,557.31,828.52,556Z"/><path class="cls-1" d="M836.93,507.34c-.14,3.31-.45,6.61-.67,9.92.41-1.72,1-4,.81.54C838.63,505.3,836.27,520.35,836.93,507.34Z"/><path class="cls-1" d="M836.65,476.51c.42,5.33.47-.09.67.17a14.06,14.06,0,0,0-.55-2.85C836.64,473.71,836.7,474.51,836.65,476.51Z"/><path class="cls-1" d="M751.76,274.6l.93-.11C749.88,271.46,752.44,274.66,751.76,274.6Z"/><path class="cls-1" d="M719,247.54c.91,1,1.82,1.92,2.67,3l1.84.77-2.21-1.91C720.51,248.72,719.72,248.14,719,247.54Z"/><polygon class="cls-1" points="702.88 227.53 704.38 228.54 698.73 224.58 702.88 227.53"/><path class="cls-1" d="M347.16,194.57c.51.08,1,.18,1.54.29C351.16,193.55,351.22,192.31,347.16,194.57Z"/><path class="cls-1" d="M224.66,298.29a17.2,17.2,0,0,0-2.88,3.06,26.31,26.31,0,0,0-2.65,4.2c1.06-1.48,2.18-2.92,3.15-4.18S224.17,299.08,224.66,298.29Z"/><path class="cls-1" d="M258.48,743.14,256,741c1.5,1.4,3,2.86,4.55,4.16C259.84,744.51,259.12,743.86,258.48,743.14Z"/></g><g id="HEKSE_COVEN" data-name="HEKSE COVEN"><path class="cls-1" d="M297.27,618.14a20.23,20.23,0,0,1-5.36,8.09q-3.23,2.71-9.32,2.72H265.12V604.29h15.65a4,4,0,0,1,2.76,1.23,3.89,3.89,0,0,1,1.12,2.81v1.24h.82v-13h-.82v1.16a3.94,3.94,0,0,1-1.16,2.89,4.09,4.09,0,0,1-2.8,1.23H265.12V581.19a45.41,45.41,0,0,1,.24-4.86h19.77a4.86,4.86,0,0,1,4.62,4.86v1.49h.83v-10.4a22.84,22.84,0,0,1-4.25,1,34.53,34.53,0,0,1-5.57.5h-15a18.72,18.72,0,0,1,1.18-4,12.24,12.24,0,0,1,5.53-6.1L272,563a16.78,16.78,0,0,0-7.58,3.55q-4.62,4.13-4.71,14.68v20.54H227.83v-22a5.18,5.18,0,0,1,1.61-3.63,5.08,5.08,0,0,1,3.67-1.49h1.07v-.82h-18v.82h1a5.21,5.21,0,0,1,3.71,1.49,4.79,4.79,0,0,1,1.57,3.63v46a28.55,28.55,0,0,1-2.31,11.39c-1.18,2.74-5.69,4.78-8.16,6.1l.41.74c2.7-.6,7.57-1.51,9.28-2.72,3.74-2.64,6.14-7.81,6.14-15.51V604.2h31.92v21.45a5.32,5.32,0,0,1-1.69,3.59,5.05,5.05,0,0,1-3.58,1.44H253.4v.83h39.91l4.78-13.37Z"/><path class="cls-1" d="M316.32,630.68h1.08v.83H299.33v-.83h1.08a5,5,0,0,0,3.67-1.52,5.31,5.31,0,0,0,1.6-3.67V579.71a5.17,5.17,0,0,0-1.6-3.63,5.1,5.1,0,0,0-3.67-1.49h-1.08v-.82H317.4v.82h-1.08a5.08,5.08,0,0,0-3.67,1.49,5.17,5.17,0,0,0-1.6,3.63v45.78a5,5,0,0,0,1.56,3.67A5.17,5.17,0,0,0,316.32,630.68Zm57.17,13.2v.82a26.93,26.93,0,0,1-6.27.75q-13.53,0-26.23-13.53l-27.3-29.12,19.46-24.41a2.5,2.5,0,0,0,.66-1.49,2.31,2.31,0,0,0-2.64-2.39h-.82v-.74h17.4v.74h-.33a11.39,11.39,0,0,0-8.91,3.88l-19.22,22.19,28,29.94a49.12,49.12,0,0,0,12.25,9.61A28.44,28.44,0,0,0,373.49,643.88Z"/><path class="cls-1" d="M362.59,609.57a19.56,19.56,0,0,0-4.29,12.12,13.63,13.63,0,0,0,6.52,12,15,15,0,0,0,8.62,2.56,17.41,17.41,0,0,0,8.37-1.9q6.69-3.46,7.51-11.63a8.89,8.89,0,0,0,.08-1.15,15.4,15.4,0,0,0-1.69-6.6,18.6,18.6,0,0,0-5.49-6.52l-14.84-11.71a11.87,11.87,0,0,1-4.87-9.81,14.38,14.38,0,0,1,3.88-10.19q3.87-4.17,10.47-4.17a34.74,34.74,0,0,1,7.18.83h3.3l.16,10.14h-.82a7.85,7.85,0,0,0-2.85-6.22,10.57,10.57,0,0,0-6.93-2.27,9.51,9.51,0,0,0-9.77,9.86,8.86,8.86,0,0,0,3.63,7.21l15.26,12q9.08,7.18,9.07,17.33a17,17,0,0,1-6,13q-5.19,4.7-13.86,4.7a21.45,21.45,0,0,1-9.4-2,16,16,0,0,1-9.32-12.37,18.12,18.12,0,0,1-.25-3.34A19,19,0,0,1,357.4,616a19.46,19.46,0,0,1,4.45-7Z"/><path class="cls-1" d="M398.19,630.68a5,5,0,0,0,3.67-1.52,5.32,5.32,0,0,0,1.61-3.67V579.3A4.27,4.27,0,0,0,401.9,576a5.5,5.5,0,0,0-3.71-1.36h-1l-.08-.82h27.45a34.53,34.53,0,0,0,5.57-.5,22.84,22.84,0,0,0,4.25-1v10.4h-.83v-1.49a4.86,4.86,0,0,0-4.61-4.86H408.83v25.48H424.5a4.11,4.11,0,0,0,2.81-1.23,3.93,3.93,0,0,0,1.15-2.89v-1.16h.83v13h-.83v-1.24a3.93,3.93,0,0,0-1.11-2.81,4,4,0,0,0-2.77-1.23H408.83V629H426.4q6.11,0,9.32-2.72a20.23,20.23,0,0,0,5.36-8.09h.83l-4.79,13.37h-40v-.83Z"/><path class="cls-1" d="M539.81,580.9q8.82-8.28,22.89-8.29t22.89,8.29q8.82,8.29,8.82,21.74t-8.82,21.73q-8.83,8.29-22.89,8.29t-22.89-8.29Q531,616.09,531,602.64T539.81,580.9Zm4.49,41.7q7,7.59,18.36,7.59T581,622.6q7-7.59,7-20t-7-20q-7-7.59-18.35-7.59t-18.36,7.59q-7,7.59-7,20T544.3,622.6Z"/><path class="cls-1" d="M656,557.6a22.77,22.77,0,0,1,6.68-3,24.9,24.9,0,0,1,6.27-1.07h3v.83a22.59,22.59,0,0,0-12.83,4.66,23.24,23.24,0,0,0-4.24,4.7,49.5,49.5,0,0,0-3.18,5q-1.11,2.06-2.6,5.28l-22.93,50.15q-3,6.68-3.05,8.49h-.74l-23.18-52.87a8.52,8.52,0,0,0-3.18-3.92,7.55,7.55,0,0,0-4.08-1.28h-.66v-.82h18.56v.82h-.74a3.21,3.21,0,0,0-3.3,2.31,3.68,3.68,0,0,0-.17,1.16,4.42,4.42,0,0,0,.42,1.65l17.23,43.22L643.78,574Q648.64,562.55,656,557.6Z"/><path class="cls-1" d="M657.31,630.68a5,5,0,0,0,3.67-1.52,5.37,5.37,0,0,0,1.61-3.67V579.3A4.3,4.3,0,0,0,661,576a5.52,5.52,0,0,0-3.71-1.36h-1l-.09-.82H680.4a34.53,34.53,0,0,0,5.57-.5,22.84,22.84,0,0,0,4.25-1v10.4h-.83v-1.49a4.86,4.86,0,0,0-4.62-4.86H668v25.48h13.94a4.09,4.09,0,0,0,2.8-1.23,3.94,3.94,0,0,0,1.16-2.89v-1.16h.82v13h-.82v-1.24a3.94,3.94,0,0,0-1.12-2.81,4,4,0,0,0-2.76-1.23H668V629h11.79q6.1,0,9.32-2.72a20.13,20.13,0,0,0,5.36-8.09h.83l-4.79,13.37H656.23v-.83Z"/><path class="cls-1" d="M784,644a21.8,21.8,0,0,1-11.88.75,26.82,26.82,0,0,1-9.57-4.62,75.31,75.31,0,0,1-7.91-7.51l-43.47-48.17v41.24a4.76,4.76,0,0,0,2.56,4.29,4.86,4.86,0,0,0,2.47.66h1.57v.83h-17v-.83h1.56a4.92,4.92,0,0,0,3.55-1.44,4.8,4.8,0,0,0,1.48-3.59V580.37q-.4-.58-1.65-2.19c-.82-1.07-1.51-1.94-2.06-2.6s-1.29-1.52-2.22-2.59a23.48,23.48,0,0,0-2.6-2.6l-2.77-2.31a16,16,0,0,0-5.28-2.72,17.31,17.31,0,0,0-4.74-.83,14.65,14.65,0,0,0-4.16.66l-.33-.82a19.79,19.79,0,0,1,7.63-1.65,20.61,20.61,0,0,1,6.31.86,21,21,0,0,1,5.69,3.1,46,46,0,0,1,5,4.12c1.29,1.27,2.84,2.91,4.66,5l41.57,46.19V579.63a5.11,5.11,0,0,0-1.57-3.59,4.92,4.92,0,0,0-3.54-1.45h-1.57v-.82h17v.82h-1.49a4.92,4.92,0,0,0-3.54,1.45,5,5,0,0,0-1.57,3.5v46.61c.55.6,1.33,1.51,2.35,2.72l2.15,2.55c.41.5,1,1.21,1.85,2.15a28.71,28.71,0,0,0,2.11,2.18l2.14,2a16.32,16.32,0,0,0,2.39,1.9l2.52,1.61a15.72,15.72,0,0,0,4.49,1.73,19,19,0,0,0,4.13.58,19.16,19.16,0,0,0,3.42-.33Z"/><path class="cls-1" d="M503.51,570.84a32.14,32.14,0,1,0,23.9,53.61,27.55,27.55,0,1,1,0-43A32.24,32.24,0,0,0,503.51,570.84Z"/></g><g id="SLOGAN"><path class="cls-1" d="M271.89,677.06a1.48,1.48,0,0,1-.56,1.23h4.05a2.2,2.2,0,0,0,.88-.14,1.84,1.84,0,0,0,.44-.25,3.6,3.6,0,0,1-1.83,1.31,1.61,1.61,0,0,1-.44.06h-4.66a2.45,2.45,0,0,0,.52-.65,2.56,2.56,0,0,0,.2-1.07V669.9h-1.34l.27-.22a3.8,3.8,0,0,1,1.12-.76h3.28a1.43,1.43,0,0,0-.43.31l-.49.42a1,1,0,0,1-.47.25h-.54Z"/><path class="cls-1" d="M277.07,669.9a5.39,5.39,0,0,1,1.39-1h3.28a1.63,1.63,0,0,0-.44.32c-.23.2-.39.34-.49.41a.94.94,0,0,1-.46.25h-.54v6.58a2.66,2.66,0,0,1-.51,1.81h2.3a1.49,1.49,0,0,0-.44.31,5.41,5.41,0,0,1-.49.41,1,1,0,0,1-.47.26h-2.43a2.2,2.2,0,0,0,.48-.65,3,3,0,0,0,.16-1.07V669.9Z"/><path class="cls-1" d="M285.5,668.92h1.42a3.49,3.49,0,0,1,1.79.35,1.66,1.66,0,0,1,.76,1.56,2.39,2.39,0,0,1-1.19,1.9l-.64.46a2.6,2.6,0,0,1,2.29,1.42,2.06,2.06,0,0,1,.2.92,2.11,2.11,0,0,1-.18.89,3.17,3.17,0,0,1-.49.76,4.94,4.94,0,0,1-.69.68c-.27.22-.54.41-.81.59a4.76,4.76,0,0,1-2,.76c-.42,0-.78.06-1.1.06h-1.61a3,3,0,0,0,.38-.65,2.64,2.64,0,0,0,.1-.83V669.9h-1.58a4.37,4.37,0,0,1,1.39-1Zm-.4,7.85a2.66,2.66,0,0,1-.46,1.52h2a2.49,2.49,0,0,0,1.24-.24,1.48,1.48,0,0,0,.82-1.45,2.67,2.67,0,0,0-.15-1,2,2,0,0,0-.41-.67,2.07,2.07,0,0,0-.61-.44,3.67,3.67,0,0,0-.75-.25,7.82,7.82,0,0,0-1.69-.15Zm0-3.58,1.13,0,1,0a1.09,1.09,0,0,0,.84-.85,3.77,3.77,0,0,0,0-.51c0-1.32-.83-2-2.48-2l-.51,0Z"/><path class="cls-1" d="M295.91,668.92c2.21,0,3.32.73,3.32,2.17a2.72,2.72,0,0,1-.9,1.95,6.34,6.34,0,0,1-1.82,1.25,3.22,3.22,0,0,1,1.11.83l.31.35,1.87,2.07a3,3,0,0,0,.71.66.9.9,0,0,0,.36.11,1.32,1.32,0,0,0,.69-.23,2.55,2.55,0,0,1-2.14,1.22.85.85,0,0,1-.64-.37l-.17-.18-1.91-2.12-.7-.76a3.11,3.11,0,0,0-.57-.49A2.55,2.55,0,0,0,294,675v1.45a4.67,4.67,0,0,1-.06.94,3,3,0,0,1-.45.87h2.3a.79.79,0,0,0-.3.19l-.35.31-.28.23a1,1,0,0,1-.47.25H292a2.5,2.5,0,0,0,.57-1.72V669.9H291l.28-.22a3.55,3.55,0,0,1,1.12-.76Zm1.92,3.21a2,2,0,0,0-.26-1,2.07,2.07,0,0,0-.69-.69,3.74,3.74,0,0,0-2-.5H294V674h1.12a4.34,4.34,0,0,0,1.9-.32A1.64,1.64,0,0,0,297.83,672.13Z"/><path class="cls-1" d="M302.25,678.3h.58a4.69,4.69,0,0,0,1.32-.14,2.87,2.87,0,0,0,.62-.25l-.49.37a7.22,7.22,0,0,1-.77.54,3.25,3.25,0,0,1-.58.26,4.16,4.16,0,0,1-.59.13,9.32,9.32,0,0,1-1.22.07h-.28v0s0,0,.1-.11l.29-.32c.12-.13.29-.34.49-.61a10,10,0,0,0,.68-1.06c.24-.43.46-.87.67-1.32s.41-.9.6-1.36.39-.92.59-1.38l.63-1.4c.21-.47.37-.84.47-1.11s.17-.44.19-.51a.53.53,0,0,1,.08-.17h-.54a5.72,5.72,0,0,0-2.08.3,5.42,5.42,0,0,1,1.66-1.08,7.14,7.14,0,0,1,2-.2H307c.21.69.42,1.38.63,2.09s.41,1.41.63,2.11c.46,1.53.8,2.65,1,3.34s.37,1.1.41,1.23a1.61,1.61,0,0,0,.16.35.73.73,0,0,0,.67.35,1.3,1.3,0,0,0,.52-.12,2.55,2.55,0,0,0,.43-.2l-.46.35q-.51.39-.66.48l-.29.18a2.11,2.11,0,0,1-.3.16c-.67.29-1.12.18-1.36-.34a15.06,15.06,0,0,1-.6-1.77c-.24-.81-.44-1.51-.63-2.08a5,5,0,0,1-2.63.41h-.44a11.49,11.49,0,0,1-1.58,2.48.64.64,0,0,0-.13.15Zm2.46-3.84,1.42,0,.91,0q-.33-1.05-1-3.21c-.47,1.08-.95,2.16-1.44,3.23Z"/><path class="cls-1" d="M314.63,669.9a5.34,5.34,0,0,1,1.4-1h8.1a1.66,1.66,0,0,0-.43.32c-.23.2-.39.34-.49.41a1,1,0,0,1-.47.25h-2.95v6.58a3,3,0,0,1-.29,1.43,1.19,1.19,0,0,1-.29.38h2.37a1.49,1.49,0,0,0-.44.31c-.23.21-.39.34-.48.41a1,1,0,0,1-.48.26h-2.5a2,2,0,0,0,.54-.66,2.94,2.94,0,0,0,.17-1.06V669.9Z"/><path class="cls-1" d="M324.06,669.9a5.34,5.34,0,0,1,1.4-1h5.93a1.78,1.78,0,0,0-.46.35q-.39.33-.6.48a.62.62,0,0,1-.33.15h-3.19v3.49h3.48a.6.6,0,0,0-.26.16l-.39.33q-.57.48-.75.48h-2.08v2.35a2.9,2.9,0,0,1-.25,1.3.52.52,0,0,1-.24.28h4a2,2,0,0,0,.85-.19l.45-.19A5.49,5.49,0,0,1,330,679a2.08,2.08,0,0,1-.7.28h-4.58a2.94,2.94,0,0,0,.65-1.72v-3.19h-1c.42-.33.75-.59,1-.78V669.9Z"/><path class="cls-1" d="M341.86,676.8c.11-1.27.17-2.48.17-3.63s0-2.23-.14-3.27h-1.28l.29-.23.41-.32a2,2,0,0,1,.7-.43h2.71a1.74,1.74,0,0,0-.49.35c-.22.2-.39.34-.51.44a.87.87,0,0,1-.36.18c0,.12,0,.23,0,.35v.34l0,1.61a29.54,29.54,0,0,1-.57,5.59.79.79,0,0,0,0,.17c0,.07,0,.14,0,.21a1,1,0,0,1-.09.36.79.79,0,0,1-.19.25,2.92,2.92,0,0,1-.32.28,5.52,5.52,0,0,1-.61.46,2.65,2.65,0,0,0-.62-1.2q-2.56-3.21-5.78-6.78v3.54a7.25,7.25,0,0,1-.32,2.72,2.52,2.52,0,0,1-.34.5h2.33l-.29.22-.41.34a2,2,0,0,1-.7.42H333a4.6,4.6,0,0,0,.7-2.35c0-.28,0-1,0-2.29s-.05-2.82-.16-4.73H332l.28-.23.42-.32a2,2,0,0,1,.69-.43h2.71a1.15,1.15,0,0,0-.37.25l-.25.24c1.28,1.36,2.38,2.57,3.28,3.64l2,2.31C341.08,675.83,341.48,676.31,341.86,676.8Z"/><path class="cls-1" d="M345.31,669.9a5.39,5.39,0,0,1,1.39-1h5.94a1.74,1.74,0,0,0-.47.35l-.59.48a.64.64,0,0,1-.34.15h-3.19v3.49h3.49c-.06,0-.14.06-.26.16l-.4.33c-.38.32-.62.48-.74.48h-2.09v2.35a3,3,0,0,1-.24,1.3.54.54,0,0,1-.25.28h4a2.12,2.12,0,0,0,.85-.19l.44-.19a5.26,5.26,0,0,1-1.56,1.08,2.16,2.16,0,0,1-.7.28H346a2.94,2.94,0,0,0,.65-1.72v-3.19h-1l1-.78V669.9Z"/><path class="cls-1" d="M356.63,668.92h1.42a3.51,3.51,0,0,1,1.79.35,1.66,1.66,0,0,1,.76,1.56,2.41,2.41,0,0,1-1.19,1.9l-.64.46a2.6,2.6,0,0,1,2.29,1.42,2.21,2.21,0,0,1,.2.92,2.11,2.11,0,0,1-.18.89,3.5,3.5,0,0,1-.49.76,5,5,0,0,1-.7.68,7.6,7.6,0,0,1-.81.59,4.72,4.72,0,0,1-2,.76c-.41,0-.77.06-1.09.06h-1.62a3.67,3.67,0,0,0,.39-.65,3,3,0,0,0,.1-.83V669.9h-1.59a4.47,4.47,0,0,1,1.4-1Zm-.4,7.85a2.66,2.66,0,0,1-.46,1.52h2a2.51,2.51,0,0,0,1.25-.24,1.48,1.48,0,0,0,.82-1.45,2.67,2.67,0,0,0-.15-1,2,2,0,0,0-.41-.67,2.21,2.21,0,0,0-.61-.44,3.76,3.76,0,0,0-.76-.25,7.66,7.66,0,0,0-1.68-.15Zm0-3.58,1.13,0,1,0a1.1,1.1,0,0,0,.84-.85,3.89,3.89,0,0,0,0-.51c0-1.32-.82-2-2.48-2l-.5,0Z"/><path class="cls-1" d="M367,668.92c2.22,0,3.32.73,3.32,2.17a2.75,2.75,0,0,1-.89,1.95,6.48,6.48,0,0,1-1.82,1.25,3.1,3.1,0,0,1,1.1.83l.32.35,1.87,2.07a3.05,3.05,0,0,0,.7.66.93.93,0,0,0,.37.11,1.32,1.32,0,0,0,.69-.23,2.57,2.57,0,0,1-2.14,1.22.85.85,0,0,1-.64-.37l-.17-.18-1.92-2.12-.69-.76a4,4,0,0,0-.57-.49,2.57,2.57,0,0,0-1.45-.35v1.45a4.67,4.67,0,0,1-.06.94,3.29,3.29,0,0,1-.45.87h2.3a.67.67,0,0,0-.3.19c-.14.12-.26.22-.35.31L366,679a1.06,1.06,0,0,1-.47.25h-2.36a2.5,2.5,0,0,0,.57-1.72V669.9h-1.55l.27-.22a3.8,3.8,0,0,1,1.12-.76Zm1.93,3.21a1.89,1.89,0,0,0-.27-1,2.07,2.07,0,0,0-.69-.69,3.71,3.71,0,0,0-2-.5h-.89V674h1.12a4.29,4.29,0,0,0,1.89-.32A1.63,1.63,0,0,0,369,672.13Z"/><path class="cls-1" d="M372.64,669.9a5.39,5.39,0,0,1,1.39-1h3.28a1.63,1.63,0,0,0-.44.32c-.23.2-.39.34-.49.41a.92.92,0,0,1-.47.25h-.53v6.58a2.66,2.66,0,0,1-.51,1.81h2.3a1.37,1.37,0,0,0-.44.31c-.23.21-.4.34-.49.41a1,1,0,0,1-.47.26h-2.44a2.1,2.1,0,0,0,.49-.65,3,3,0,0,0,.16-1.07V669.9Z"/><path class="cls-1" d="M383.15,670.59c.16-.16.25-.28.25-.35a.26.26,0,0,0-.11-.2,1.26,1.26,0,0,0-.26-.13l-.36-.1-.39-.06a5.3,5.3,0,0,0-.63,0,3.48,3.48,0,0,0-.61,0,2.1,2.1,0,0,0-.63.19,1.06,1.06,0,0,0-.65,1,2,2,0,0,0,.24,1,2.06,2.06,0,0,0,.63.65,3.68,3.68,0,0,0,.89.43q.5.18,1,.33l1,.32a3.69,3.69,0,0,1,.89.44,1.9,1.9,0,0,1,.87,1.66,2.69,2.69,0,0,1-.88,1.93,5.52,5.52,0,0,1-2,1.25,5.81,5.81,0,0,1-2.16.45,4.18,4.18,0,0,1-1.16-.15,4,4,0,0,1-.74-.27c-.33-.17-.5-.37-.5-.6s.55-.85,1.65-1.45a.68.68,0,0,0-.22.46.53.53,0,0,0,.14.37,1,1,0,0,0,.36.27,3.25,3.25,0,0,0,.5.18l.55.12a6.35,6.35,0,0,0,.91.08,4.28,4.28,0,0,0,.81-.08,2.16,2.16,0,0,0,.7-.26,1.42,1.42,0,0,0,.7-1.32q0-1.39-1.77-2.07l-1-.35-1-.35a4.32,4.32,0,0,1-.89-.43,1.73,1.73,0,0,1-.88-1.52,2.31,2.31,0,0,1,.89-1.61,6.49,6.49,0,0,1,1.92-1.24,4.71,4.71,0,0,1,1.87-.5,4.14,4.14,0,0,1,1.12.13,2.89,2.89,0,0,1,.54.2.21.21,0,0,1,.11.16.33.33,0,0,1-.1.21,2.17,2.17,0,0,1-.26.27l-.35.29a4.44,4.44,0,0,1-.38.27A4.75,4.75,0,0,1,383.15,670.59Z"/><path class="cls-1" d="M392.58,677.06a1.46,1.46,0,0,1-.57,1.23h4.06a2.24,2.24,0,0,0,.88-.14,2.07,2.07,0,0,0,.44-.25,3.6,3.6,0,0,1-1.83,1.31,1.67,1.67,0,0,1-.44.06h-4.66a2.45,2.45,0,0,0,.52-.65,2.72,2.72,0,0,0,.2-1.07V669.9h-1.34l.27-.22a3.67,3.67,0,0,1,1.12-.76h3.28c-.06,0-.2.11-.43.31l-.49.42a1,1,0,0,1-.48.25h-.53Z"/><path class="cls-1" d="M409.61,668.92a.86.86,0,0,0-.33.2l-.38.33a1.36,1.36,0,0,1-.7.44h-.53v6.58a3.2,3.2,0,0,1-.32,1.43,1.34,1.34,0,0,1-.26.38h2.37a1.71,1.71,0,0,0-.53.38,6.1,6.1,0,0,1-.53.46.63.63,0,0,1-.34.14H405.7a2.7,2.7,0,0,0,.5-.94,3.83,3.83,0,0,0,.08-.6,10.85,10.85,0,0,1-1.86,1.14,5.86,5.86,0,0,1-2.35.6,4.29,4.29,0,0,1-1.63-.25,2.35,2.35,0,0,1-1-.72,4.13,4.13,0,0,1-.7-2.63v-6h-1.21l.28-.22.41-.34a2.13,2.13,0,0,1,.7-.41h3a1.69,1.69,0,0,0-.53.37c-.24.22-.42.38-.54.47a.56.56,0,0,1-.33.13h-.38v5.56a2.85,2.85,0,0,0,.89,2.26,3.38,3.38,0,0,0,2.34.76,5.07,5.07,0,0,0,2.26-.63,3.75,3.75,0,0,0,.63-.38v-7.57h-1.35l.28-.22.42-.34a2,2,0,0,1,.7-.41Z"/><path class="cls-1" d="M419,669.89q-1.26,1.46-3,3.36a44.23,44.23,0,0,0,3.81,5,.9.9,0,0,0,.47.17,2.61,2.61,0,0,0,1-.34,3.58,3.58,0,0,1-2.25,1.31,1.18,1.18,0,0,1-.92-.46,13.64,13.64,0,0,1-.89-1.12c-.35-.49-.62-.85-.79-1.08-.36-.49-.9-1.25-1.63-2.27l-3.83,3.79h2.6a2.34,2.34,0,0,0-.53.4c-.26.22-.44.37-.56.45a.53.53,0,0,1-.31.13h-2.65l5.1-5c-.5-.68-.85-1.17-1.07-1.45l-.5-.68-.36-.48-.31-.42a4.67,4.67,0,0,1-.31-.44,3.92,3.92,0,0,0-.37-.46,1.31,1.31,0,0,0-.94-.52,2.18,2.18,0,0,0-.9.28,5.23,5.23,0,0,1,2-1.23,1.92,1.92,0,0,1,.41-.05.75.75,0,0,1,.38.1,1.54,1.54,0,0,1,.32.25,2.88,2.88,0,0,1,.27.34l.26.36c.09.11.2.25.31.41l.37.5.39.52.5.68.76,1c1-1.18,1.84-2.21,2.64-3.08h-1.77a1.83,1.83,0,0,0,.5-.36c.25-.22.44-.37.57-.47a.56.56,0,0,1,.33-.14h3.28a1.68,1.68,0,0,0-.51.36c-.25.22-.44.37-.56.47a.56.56,0,0,1-.34.14Z"/><path class="cls-1" d="M422.84,681.28a2.15,2.15,0,0,0,.74-1.53c0-.19,0-.32-.11-.38a.32.32,0,0,0-.2-.09.3.3,0,0,0-.16.05l-.13.09-.11.06-.76-1.2s.06-.09.23-.21.32-.23.44-.31l.34-.23a2.14,2.14,0,0,1,.39-.23l.2.31.21.3a2.53,2.53,0,0,1,.3.67,1.65,1.65,0,0,1,.07.59,2.13,2.13,0,0,1-.12.6,2.71,2.71,0,0,1-.64,1.05,3,3,0,0,1-.38.27A1.61,1.61,0,0,0,422.84,681.28Z"/><path class="cls-1" d="M429,669.9a5.39,5.39,0,0,1,1.39-1h5.94a1.93,1.93,0,0,0-.47.35l-.59.48a.64.64,0,0,1-.34.15h-3.19v3.49h3.49a.6.6,0,0,0-.26.16l-.4.33c-.37.32-.62.48-.74.48h-2.09v2.35a3,3,0,0,1-.24,1.3.54.54,0,0,1-.25.28h4a2.08,2.08,0,0,0,.85-.19l.44-.19A5.26,5.26,0,0,1,435,679a2.16,2.16,0,0,1-.7.28h-4.59a2.87,2.87,0,0,0,.65-1.72v-3.19h-1c.41-.33.75-.59,1-.78V669.9Z"/><path class="cls-1" d="M436.36,669.9a5.34,5.34,0,0,1,1.4-1h8.1a1.63,1.63,0,0,0-.44.32l-.48.41a1,1,0,0,1-.47.25h-3v6.58a3.13,3.13,0,0,1-.29,1.43,1.19,1.19,0,0,1-.29.38h2.37a1.37,1.37,0,0,0-.44.31,5.41,5.41,0,0,1-.49.41,1,1,0,0,1-.47.26h-2.5a2,2,0,0,0,.54-.66,2.94,2.94,0,0,0,.17-1.06V669.9Z"/><path class="cls-1" d="M457,679a5,5,0,0,1-2.26.53,6.07,6.07,0,0,1-2.09-.33,4.44,4.44,0,0,1-1.55-1,4.62,4.62,0,0,1-1.37-3.5,5.56,5.56,0,0,1,1-3.12,6.77,6.77,0,0,1,2.42-2.21,6.52,6.52,0,0,1,3.18-.84,4.8,4.8,0,0,1,3.37,1.3,4.27,4.27,0,0,1,1.45,3.28,5.72,5.72,0,0,1-1.61,3.91,9.84,9.84,0,0,1-1.06,1l1.11.77a13.57,13.57,0,0,0,1.21.75,5.44,5.44,0,0,0,2.58.8,4.48,4.48,0,0,0,1.6-.39,4.78,4.78,0,0,1-2.22,1.27,3.76,3.76,0,0,1-.9.11,3.7,3.7,0,0,1-1.8-.49A33.4,33.4,0,0,1,457,679Zm2.71-4.81a4.48,4.48,0,0,0-1.41-3.32,4.9,4.9,0,0,0-3.48-1.29c-1.92,0-3.09.81-3.49,2.41a7.3,7.3,0,0,0-.2,1.79,5.1,5.1,0,0,0,.36,1.93,4.32,4.32,0,0,0,1,1.54,4.88,4.88,0,0,0,3.56,1.33,3.22,3.22,0,0,0,2.77-1.28A5.06,5.06,0,0,0,459.68,674.22Z"/><path class="cls-1" d="M474.14,668.92a.86.86,0,0,0-.33.2l-.37.33c-.33.3-.56.44-.7.44h-.53v6.58a3.2,3.2,0,0,1-.32,1.43,1.58,1.58,0,0,1-.26.38H474a1.6,1.6,0,0,0-.53.38c-.24.22-.42.37-.54.46a.58.58,0,0,1-.33.14h-2.36a2.88,2.88,0,0,0,.5-.94,3.83,3.83,0,0,0,.08-.6,11.25,11.25,0,0,1-1.86,1.14,5.9,5.9,0,0,1-2.36.6,4.33,4.33,0,0,1-1.63-.25,2.38,2.38,0,0,1-1-.72,4.13,4.13,0,0,1-.7-2.63v-6h-1.22l.28-.22.42-.34a2,2,0,0,1,.7-.41h3a1.58,1.58,0,0,0-.53.37c-.24.22-.42.38-.54.47a.58.58,0,0,1-.34.13h-.38v5.56a2.88,2.88,0,0,0,.89,2.26,3.41,3.41,0,0,0,2.35.76,5.11,5.11,0,0,0,2.26-.63,3.75,3.75,0,0,0,.63-.38v-7.57h-1.36a3.15,3.15,0,0,0,.29-.22l.42-.34a2,2,0,0,1,.7-.41Z"/><path class="cls-1" d="M486.14,673.27a5.44,5.44,0,0,1-.25,1.55,7,7,0,0,1-.7,1.55,7.23,7.23,0,0,1-1.05,1.37,7.33,7.33,0,0,1-1.33,1.11,5.73,5.73,0,0,1-3.14,1,4.87,4.87,0,0,1-3.59-1.32,4.81,4.81,0,0,1-1.33-3.57,5.91,5.91,0,0,1,.95-3.2,6.67,6.67,0,0,1,2.38-2.28,6.39,6.39,0,0,1,3.23-.87,4.8,4.8,0,0,1,3.38,1.3A4.35,4.35,0,0,1,486.14,673.27Zm-1.4,1.15a5.39,5.39,0,0,0-.35-1.91,4.38,4.38,0,0,0-1-1.55,4.79,4.79,0,0,0-3.56-1.35c-1.93,0-3.09.82-3.5,2.44a8.09,8.09,0,0,0-.18,1.83,6,6,0,0,0,.32,2,4.53,4.53,0,0,0,1,1.62,4.79,4.79,0,0,0,3.65,1.4,3.26,3.26,0,0,0,2.81-1.29A5.28,5.28,0,0,0,484.74,674.42Z"/><path class="cls-1" d="M497.14,673.63a4.84,4.84,0,0,1-.28,1.67,5.34,5.34,0,0,1-1.94,2.52,6.9,6.9,0,0,1-1.43.8,8.39,8.39,0,0,1-3.26.65h-2.32a2.94,2.94,0,0,0,.55-2V669.9h-1.58a1.85,1.85,0,0,0,.49-.36c.47-.41.77-.62.9-.62h3.19A6.76,6.76,0,0,1,495.4,670,4.12,4.12,0,0,1,497.14,673.63Zm-1.64,2.67a4.73,4.73,0,0,0,.25-1.63,6.29,6.29,0,0,0-.19-1.65,3.9,3.9,0,0,0-.55-1.24,3.51,3.51,0,0,0-.87-.89,4.91,4.91,0,0,0-1.17-.58,10.21,10.21,0,0,0-3.12-.41v6.93a2.33,2.33,0,0,1-.21,1.11c-.06.1-.15.23-.25.37h2.4C493.79,678.31,495,677.64,495.5,676.3Z"/><path class="cls-1" d="M513.84,668.92a1,1,0,0,0-.34.2l-.37.33a1.36,1.36,0,0,1-.7.44h-.53v6.58a3.2,3.2,0,0,1-.32,1.43,1.34,1.34,0,0,1-.26.38h2.37a1.71,1.71,0,0,0-.53.38,6.1,6.1,0,0,1-.53.46.63.63,0,0,1-.34.14h-2.36a2.7,2.7,0,0,0,.5-.94,3.83,3.83,0,0,0,.08-.6,10.85,10.85,0,0,1-1.86,1.14,5.86,5.86,0,0,1-2.35.6,4.29,4.29,0,0,1-1.63-.25,2.35,2.35,0,0,1-1-.72,4.13,4.13,0,0,1-.7-2.63v-6h-1.21l.28-.22.41-.34a2,2,0,0,1,.7-.41h3a1.69,1.69,0,0,0-.53.37c-.24.22-.42.38-.54.47a.56.56,0,0,1-.33.13h-.39v5.56a2.85,2.85,0,0,0,.9,2.26,3.38,3.38,0,0,0,2.34.76,5.11,5.11,0,0,0,2.26-.63,3.75,3.75,0,0,0,.63-.38v-7.57h-1.35l.28-.22.42-.34a2,2,0,0,1,.7-.41Z"/><path class="cls-1" d="M523.88,676.8c.11-1.27.16-2.48.16-3.63s0-2.23-.14-3.27h-1.27l.28-.23.41-.32a2.06,2.06,0,0,1,.7-.43h2.71a1.74,1.74,0,0,0-.49.35,6.33,6.33,0,0,1-.51.44.87.87,0,0,1-.36.18c0,.12,0,.23,0,.35v.34l0,1.61a29.54,29.54,0,0,1-.57,5.59,1.28,1.28,0,0,1,0,.17,1.55,1.55,0,0,1,0,.21,1,1,0,0,1-.09.36.66.66,0,0,1-.19.25,2.92,2.92,0,0,1-.32.28,5.52,5.52,0,0,1-.61.46,2.62,2.62,0,0,0-.61-1.2c-1.72-2.14-3.64-4.4-5.79-6.78v3.54a7.25,7.25,0,0,1-.32,2.72,3.08,3.08,0,0,1-.33.5h2.32l-.29.22-.41.34a1.88,1.88,0,0,1-.7.42H515a4.6,4.6,0,0,0,.7-2.35c0-.28,0-1,0-2.29s0-2.82-.16-4.73H514l.29-.23.41-.32a2,2,0,0,1,.7-.43h2.71a1.19,1.19,0,0,0-.38.25l-.25.24c1.28,1.36,2.38,2.57,3.28,3.64l2,2.31C523.09,675.83,523.49,676.31,523.88,676.8Z"/><path class="cls-1" d="M527.81,678.3h.57a4.78,4.78,0,0,0,1.33-.14,2.74,2.74,0,0,0,.61-.25l-.49.37a7.22,7.22,0,0,1-.77.54,3,3,0,0,1-.58.26,3.87,3.87,0,0,1-.59.13,9.14,9.14,0,0,1-1.21.07h-.28v0l.1-.11c.06-.08.16-.18.28-.32a7.54,7.54,0,0,0,.5-.61,8.66,8.66,0,0,0,.67-1.06c.24-.43.47-.87.68-1.32s.4-.9.6-1.36.39-.92.59-1.38l.62-1.4q.31-.71.48-1.11c.11-.27.17-.44.19-.51a.38.38,0,0,1,.08-.17h-.55a5.66,5.66,0,0,0-2.07.3,5.42,5.42,0,0,1,1.66-1.08,7,7,0,0,1,2-.2h.38c.21.69.41,1.38.62,2.09l.63,2.11c.46,1.53.81,2.65,1,3.34s.37,1.1.41,1.23a1.6,1.6,0,0,0,.15.35.74.74,0,0,0,.67.35,1.31,1.31,0,0,0,.53-.12,3,3,0,0,0,.43-.2c-.17.12-.33.24-.46.35l-.66.48-.29.18-.3.16c-.67.29-1.13.18-1.36-.34a13.38,13.38,0,0,1-.6-1.77c-.24-.81-.45-1.51-.63-2.08a5,5,0,0,1-2.63.41h-.45a11.12,11.12,0,0,1-1.58,2.48l-.13.15Zm2.45-3.84,1.43,0,.9,0c-.22-.7-.55-1.77-1-3.21-.48,1.08-1,2.16-1.45,3.23Z"/><path class="cls-1" d="M550.39,676.8c.11-1.27.16-2.48.16-3.63s0-2.23-.13-3.27h-1.28l.28-.23.41-.32a2.06,2.06,0,0,1,.7-.43h2.71a1.74,1.74,0,0,0-.48.35c-.22.2-.39.34-.51.44a1,1,0,0,1-.37.18c0,.12,0,.23,0,.35v.34l0,1.61a29.54,29.54,0,0,1-.57,5.59c0,.05,0,.1,0,.17a1.55,1.55,0,0,1,0,.21,1.39,1.39,0,0,1-.08.36.84.84,0,0,1-.2.25,2.8,2.8,0,0,1-.31.28c-.14.12-.34.27-.61.46a2.76,2.76,0,0,0-.62-1.2q-2.56-3.21-5.79-6.78v3.54a7.25,7.25,0,0,1-.32,2.72,3.08,3.08,0,0,1-.33.5h2.32l-.28.22-.42.34a1.87,1.87,0,0,1-.69.42h-2.37a4.6,4.6,0,0,0,.71-2.35c0-.28,0-1,0-2.29s0-2.82-.15-4.73h-1.64l.29-.23.41-.32a2.06,2.06,0,0,1,.7-.43h2.71a1.19,1.19,0,0,0-.38.25l-.25.24q1.93,2,3.28,3.64l2,2.31C549.6,675.83,550,676.31,550.39,676.8Z"/><path class="cls-1" d="M565.31,673.27a5.44,5.44,0,0,1-.25,1.55,7,7,0,0,1-.7,1.55,7.23,7.23,0,0,1-1.05,1.37,7.33,7.33,0,0,1-1.33,1.11,5.73,5.73,0,0,1-3.14,1,4.57,4.57,0,0,1-4.92-4.89,5.91,5.91,0,0,1,1-3.2,6.59,6.59,0,0,1,2.38-2.28,6.39,6.39,0,0,1,3.23-.87,4.8,4.8,0,0,1,3.38,1.3A4.35,4.35,0,0,1,565.31,673.27Zm-1.4,1.15a5.39,5.39,0,0,0-.35-1.91,4.38,4.38,0,0,0-1-1.55,4.79,4.79,0,0,0-3.56-1.35c-1.93,0-3.1.82-3.5,2.44a8.09,8.09,0,0,0-.18,1.83,6,6,0,0,0,.32,2,4.53,4.53,0,0,0,1,1.62,4.79,4.79,0,0,0,3.65,1.4,3.26,3.26,0,0,0,2.81-1.29A5.28,5.28,0,0,0,563.91,674.42Z"/><path class="cls-1" d="M575.89,676.8c.11-1.27.16-2.48.16-3.63s0-2.23-.13-3.27h-1.28l.28-.23.41-.32a2.06,2.06,0,0,1,.7-.43h2.71a1.74,1.74,0,0,0-.49.35,6.33,6.33,0,0,1-.51.44.87.87,0,0,1-.36.18c0,.12,0,.23,0,.35v.34l0,1.61a30.33,30.33,0,0,1-.56,5.59c0,.05,0,.1,0,.17a1.55,1.55,0,0,1,0,.21,1.39,1.39,0,0,1-.08.36.84.84,0,0,1-.2.25,2.21,2.21,0,0,1-.32.28,5.52,5.52,0,0,1-.61.46,2.62,2.62,0,0,0-.61-1.2q-2.56-3.21-5.79-6.78v3.54a7.25,7.25,0,0,1-.32,2.72,3.08,3.08,0,0,1-.33.5h2.32l-.29.22-.41.34a1.88,1.88,0,0,1-.7.42H567a4.51,4.51,0,0,0,.7-2.35c0-.28,0-1,0-2.29s0-2.82-.16-4.73H566l.29-.23.41-.32a2,2,0,0,1,.7-.43h2.71a1.19,1.19,0,0,0-.38.25l-.25.24q1.93,2,3.28,3.64l2,2.31C575.1,675.83,575.5,676.31,575.89,676.8Z"/><path class="cls-1" d="M588.19,670.59c.16-.16.24-.28.24-.35a.25.25,0,0,0-.1-.2,1.13,1.13,0,0,0-.27-.13,2.47,2.47,0,0,0-.35-.1l-.39-.06a5.33,5.33,0,0,0-.64,0,3.45,3.45,0,0,0-.6,0,2.1,2.1,0,0,0-.63.19,1.06,1.06,0,0,0-.65,1,2,2,0,0,0,.24,1,2.06,2.06,0,0,0,.63.65,3.79,3.79,0,0,0,.88.43c.34.12.68.23,1,.33l1,.32a3.69,3.69,0,0,1,.89.44,1.9,1.9,0,0,1,.87,1.66,2.69,2.69,0,0,1-.88,1.93,5.7,5.7,0,0,1-2,1.25,5.81,5.81,0,0,1-2.16.45,4.18,4.18,0,0,1-1.16-.15,3.75,3.75,0,0,1-.74-.27c-.33-.17-.5-.37-.5-.6s.55-.85,1.64-1.45a.71.71,0,0,0-.21.46.49.49,0,0,0,.14.37,1,1,0,0,0,.36.27,3.25,3.25,0,0,0,.5.18,5.41,5.41,0,0,0,.55.12,6.35,6.35,0,0,0,.91.08,4.36,4.36,0,0,0,.81-.08,2.16,2.16,0,0,0,.7-.26,1.42,1.42,0,0,0,.7-1.32q0-1.39-1.77-2.07l-1-.35-1-.35a4.09,4.09,0,0,1-.89-.43,1.73,1.73,0,0,1-.88-1.52,2.33,2.33,0,0,1,.88-1.61,6.77,6.77,0,0,1,1.92-1.24,4.8,4.8,0,0,1,1.88-.5,4.19,4.19,0,0,1,1.12.13,3.23,3.23,0,0,1,.54.2.21.21,0,0,1,.11.16.4.4,0,0,1-.1.21,2.17,2.17,0,0,1-.26.27l-.35.29a4.44,4.44,0,0,1-.38.27A5.69,5.69,0,0,1,588.19,670.59Z"/><path class="cls-1" d="M591.26,669.9a5.39,5.39,0,0,1,1.39-1h3.28a1.63,1.63,0,0,0-.44.32c-.23.2-.39.34-.49.41a.94.94,0,0,1-.46.25H594v6.58a2.66,2.66,0,0,1-.51,1.81h2.3a1.49,1.49,0,0,0-.44.31,5.41,5.41,0,0,1-.49.41,1,1,0,0,1-.47.26H592a2.2,2.2,0,0,0,.48-.65,3,3,0,0,0,.16-1.07V669.9Z"/><path class="cls-1" d="M596,669.9a5.34,5.34,0,0,1,1.4-1h8.1a1.66,1.66,0,0,0-.43.32c-.23.2-.39.34-.49.41a1,1,0,0,1-.47.25h-3v6.58a3,3,0,0,1-.29,1.43,1.19,1.19,0,0,1-.29.38h2.37a1.49,1.49,0,0,0-.44.31c-.23.21-.39.34-.48.41a1,1,0,0,1-.48.26H599a2,2,0,0,0,.54-.66,2.94,2.94,0,0,0,.17-1.06V669.9Z"/><path class="cls-1" d="M609.83,678.3h.57a4.73,4.73,0,0,0,1.33-.14,2.55,2.55,0,0,0,.61-.25l-.48.37a6.29,6.29,0,0,1-.78.54,2.72,2.72,0,0,1-.58.26,3.75,3.75,0,0,1-.58.13,9.43,9.43,0,0,1-1.22.07h-.28v0l.1-.11.29-.32c.12-.13.29-.34.49-.61a8.66,8.66,0,0,0,.67-1.06c.25-.43.47-.87.68-1.32s.41-.9.6-1.36.39-.92.59-1.38.41-.93.62-1.4.37-.84.48-1.11.17-.44.19-.51a.53.53,0,0,1,.08-.17h-.55a5.66,5.66,0,0,0-2.07.3,5.42,5.42,0,0,1,1.66-1.08,7.14,7.14,0,0,1,2-.2h.38c.21.69.42,1.38.62,2.09l.63,2.11c.46,1.53.81,2.65,1,3.34l.41,1.23a1.25,1.25,0,0,0,.16.35.72.72,0,0,0,.66.35,1.31,1.31,0,0,0,.53-.12,2.55,2.55,0,0,0,.43-.2c-.17.12-.33.24-.46.35-.35.26-.56.42-.66.48l-.29.18a2.11,2.11,0,0,1-.3.16c-.67.29-1.12.18-1.36-.34a13.38,13.38,0,0,1-.6-1.77c-.24-.81-.45-1.51-.63-2.08a5,5,0,0,1-2.63.41h-.44a11.49,11.49,0,0,1-1.58,2.48.64.64,0,0,0-.13.15Zm2.46-3.84,1.42,0,.91,0q-.33-1.05-1-3.21c-.47,1.08-1,2.16-1.44,3.23Z"/><path class="cls-1" d="M622.33,668.92h1.43a3.51,3.51,0,0,1,1.79.35,1.68,1.68,0,0,1,.76,1.56,2.41,2.41,0,0,1-1.19,1.9l-.64.46a2.61,2.61,0,0,1,2.29,1.42,2.21,2.21,0,0,1,.2.92,2.11,2.11,0,0,1-.18.89,3.92,3.92,0,0,1-.49.76,5.64,5.64,0,0,1-.7.68,7.6,7.6,0,0,1-.81.59,4.72,4.72,0,0,1-2,.76c-.41,0-.77.06-1.09.06h-1.62a3,3,0,0,0,.38-.65,2.64,2.64,0,0,0,.1-.83V669.9H619a4.47,4.47,0,0,1,1.4-1Zm-.39,7.85a2.66,2.66,0,0,1-.46,1.52h2a2.53,2.53,0,0,0,1.25-.24,1.48,1.48,0,0,0,.82-1.45,2.67,2.67,0,0,0-.15-1,2,2,0,0,0-1-1.11,3.76,3.76,0,0,0-.76-.25,7.78,7.78,0,0,0-1.68-.15Zm0-3.58,1.13,0,1,0a1.12,1.12,0,0,0,.85-.85,3.89,3.89,0,0,0,0-.51c0-1.32-.83-2-2.48-2l-.5,0Z"/><path class="cls-1" d="M633.19,670.59c.16-.16.24-.28.24-.35a.25.25,0,0,0-.1-.2,1.13,1.13,0,0,0-.27-.13l-.36-.1-.38-.06a5.33,5.33,0,0,0-.64,0,3.38,3.38,0,0,0-.6,0,2.1,2.1,0,0,0-.63.19,1.06,1.06,0,0,0-.66,1,2,2,0,0,0,.25,1,2.14,2.14,0,0,0,.62.65,3.87,3.87,0,0,0,.89.43c.33.12.68.23,1,.33l1,.32a3.89,3.89,0,0,1,.89.44,1.9,1.9,0,0,1,.87,1.66,2.71,2.71,0,0,1-.89,1.93,5.56,5.56,0,0,1-2,1.25,5.82,5.82,0,0,1-2.17.45,4.23,4.23,0,0,1-1.16-.15,3.86,3.86,0,0,1-.73-.27q-.51-.25-.51-.6c0-.36.55-.85,1.65-1.45a.73.73,0,0,0-.22.46.53.53,0,0,0,.14.37,1.14,1.14,0,0,0,.37.27,2.91,2.91,0,0,0,.5.18,5.41,5.41,0,0,0,.55.12,6.23,6.23,0,0,0,.91.08,4.26,4.26,0,0,0,.8-.08,2.22,2.22,0,0,0,.71-.26,1.44,1.44,0,0,0,.7-1.32q0-1.39-1.77-2.07l-1-.35-1-.35a4.18,4.18,0,0,1-.9-.43,1.75,1.75,0,0,1-.87-1.52,2.29,2.29,0,0,1,.88-1.61,6.77,6.77,0,0,1,1.92-1.24,4.75,4.75,0,0,1,1.88-.5,4.25,4.25,0,0,1,1.12.13,2.69,2.69,0,0,1,.53.2.19.19,0,0,1,.11.16.33.33,0,0,1-.1.21,1.54,1.54,0,0,1-.25.27l-.35.29-.38.27A5.69,5.69,0,0,1,633.19,670.59Z"/><path class="cls-1" d="M643.75,679a5.07,5.07,0,0,1-2.26.53,6.07,6.07,0,0,1-2.09-.33,4.48,4.48,0,0,1-1.56-1,4.62,4.62,0,0,1-1.36-3.5,5.56,5.56,0,0,1,1-3.12,6.69,6.69,0,0,1,2.42-2.21,6.51,6.51,0,0,1,3.17-.84,4.8,4.8,0,0,1,3.38,1.3,4.27,4.27,0,0,1,1.45,3.28,5.77,5.77,0,0,1-1.61,3.91,9.84,9.84,0,0,1-1.06,1l1.11.77a13.41,13.41,0,0,0,1.2.75,5.48,5.48,0,0,0,2.59.8,4.52,4.52,0,0,0,1.6-.39,4.86,4.86,0,0,1-2.23,1.27,3.58,3.58,0,0,1-2.69-.38A33.4,33.4,0,0,1,643.75,679Zm2.71-4.81a4.58,4.58,0,0,0-1.41-3.32,4.9,4.9,0,0,0-3.48-1.29c-1.92,0-3.09.81-3.5,2.41a7.86,7.86,0,0,0-.19,1.79,5.1,5.1,0,0,0,.36,1.93,4.44,4.44,0,0,0,1,1.54,4.92,4.92,0,0,0,3.57,1.33,3.23,3.23,0,0,0,2.77-1.28A5.06,5.06,0,0,0,646.46,674.22Z"/><path class="cls-1" d="M660.92,668.92a.86.86,0,0,0-.33.2l-.37.33c-.33.3-.56.44-.7.44H659v6.58a3.07,3.07,0,0,1-.33,1.43,1.32,1.32,0,0,1-.25.38h2.37a1.6,1.6,0,0,0-.53.38c-.24.22-.42.37-.54.46a.58.58,0,0,1-.33.14H657a2.88,2.88,0,0,0,.5-.94,3.69,3.69,0,0,0,.07-.6,11.24,11.24,0,0,1-1.85,1.14,5.9,5.9,0,0,1-2.36.6,4.33,4.33,0,0,1-1.63-.25,2.41,2.41,0,0,1-1-.72,4.19,4.19,0,0,1-.69-2.63v-6h-1.22l.28-.22.42-.34a2,2,0,0,1,.7-.41h3a1.81,1.81,0,0,0-.53.37,6.67,6.67,0,0,1-.53.47.61.61,0,0,1-.34.13h-.38v5.56a2.88,2.88,0,0,0,.89,2.26,3.38,3.38,0,0,0,2.34.76,5.14,5.14,0,0,0,2.27-.63,3.29,3.29,0,0,0,.62-.38v-7.57h-1.35l.29-.22.42-.34a2.13,2.13,0,0,1,.69-.41Z"/><path class="cls-1" d="M661.29,669.9a5.34,5.34,0,0,1,1.4-1h5.94a1.74,1.74,0,0,0-.47.35q-.39.33-.6.48a.59.59,0,0,1-.33.15H664v3.49h3.49c-.06,0-.14.06-.26.16l-.4.33q-.57.48-.75.48H664v2.35a2.9,2.9,0,0,1-.25,1.3.52.52,0,0,1-.24.28h4a2,2,0,0,0,.84-.19l.45-.19a5.34,5.34,0,0,1-1.57,1.08,2.05,2.05,0,0,1-.69.28H662a2.94,2.94,0,0,0,.65-1.72v-3.19h-1c.42-.33.75-.59,1-.78V669.9Z"/><path class="cls-1" d="M673.79,678.3h.57a4.78,4.78,0,0,0,1.33-.14,2.74,2.74,0,0,0,.61-.25l-.49.37a7.22,7.22,0,0,1-.77.54,3,3,0,0,1-.58.26,3.87,3.87,0,0,1-.59.13,9.26,9.26,0,0,1-1.21.07h-.28v0l.1-.11c.06-.08.16-.18.28-.32a7.54,7.54,0,0,0,.5-.61,10.06,10.06,0,0,0,.67-1.06c.24-.43.47-.87.68-1.32s.4-.9.6-1.36.38-.92.59-1.38l.62-1.4q.32-.71.48-1.11a3.19,3.19,0,0,0,.18-.51.56.56,0,0,1,.09-.17h-.55a5.76,5.76,0,0,0-2.08.3,5.67,5.67,0,0,1,1.66-1.08,7.18,7.18,0,0,1,2-.2h.38c.21.69.41,1.38.62,2.09l.63,2.11c.46,1.53.81,2.65,1,3.34s.37,1.1.41,1.23a1.6,1.6,0,0,0,.15.35.73.73,0,0,0,.67.35,1.35,1.35,0,0,0,.53-.12,3,3,0,0,0,.43-.2,5,5,0,0,0-.46.35l-.66.48-.29.18-.3.16c-.68.29-1.13.18-1.36-.34a14.68,14.68,0,0,1-.61-1.77c-.23-.81-.44-1.51-.62-2.08a5,5,0,0,1-2.63.41h-.45a11.49,11.49,0,0,1-1.58,2.48l-.13.15Zm2.45-3.84,1.43,0,.9,0c-.22-.7-.55-1.77-1-3.21-.48,1.08-1,2.16-1.45,3.23Z"/><path class="cls-1" d="M685.9,677.06a1.46,1.46,0,0,1-.57,1.23h4a2.2,2.2,0,0,0,.88-.14,1.84,1.84,0,0,0,.44-.25,3.6,3.6,0,0,1-1.83,1.31,1.61,1.61,0,0,1-.44.06h-4.65a2.37,2.37,0,0,0,.51-.65,2.56,2.56,0,0,0,.2-1.07V669.9h-1.34l.27-.22a3.8,3.8,0,0,1,1.12-.76h3.28a1.58,1.58,0,0,0-.43.31c-.23.21-.4.35-.49.42a1,1,0,0,1-.47.25h-.53Z"/><path class="cls-1" d="M689.4,669.9a5.34,5.34,0,0,1,1.4-1h8.1a1.63,1.63,0,0,0-.44.32l-.48.41a1,1,0,0,1-.47.25h-3v6.58a3.13,3.13,0,0,1-.29,1.43,1.35,1.35,0,0,1-.29.38h2.37a1.37,1.37,0,0,0-.44.31,5.41,5.41,0,0,1-.49.41,1,1,0,0,1-.47.26h-2.5a2,2,0,0,0,.54-.66,2.94,2.94,0,0,0,.17-1.06V669.9Z"/><path class="cls-1" d="M698.83,669.9a5.34,5.34,0,0,1,1.4-1h5.93a1.93,1.93,0,0,0-.47.35c-.25.22-.45.38-.59.48a.65.65,0,0,1-.33.15h-3.19v3.49h3.48a.6.6,0,0,0-.26.16l-.39.33q-.57.48-.75.48h-2.08v2.35a2.9,2.9,0,0,1-.25,1.3.52.52,0,0,1-.24.28h4a2,2,0,0,0,.85-.19l.45-.19a5.49,5.49,0,0,1-1.57,1.08,2.08,2.08,0,0,1-.7.28h-4.58a2.92,2.92,0,0,0,.64-1.72v-3.19h-1l1-.78V669.9Z"/><path class="cls-1" d="M711.68,668.92c2.21,0,3.32.73,3.32,2.17a2.75,2.75,0,0,1-.89,1.95,6.48,6.48,0,0,1-1.82,1.25,3.1,3.1,0,0,1,1.1.83l.32.35,1.87,2.07a3.05,3.05,0,0,0,.7.66.93.93,0,0,0,.37.11,1.32,1.32,0,0,0,.69-.23,2.57,2.57,0,0,1-2.14,1.22.85.85,0,0,1-.64-.37l-.17-.18-1.92-2.12c-.27-.3-.5-.56-.7-.76a3.44,3.44,0,0,0-.56-.49,2.57,2.57,0,0,0-1.45-.35v1.45a4.67,4.67,0,0,1-.06.94,3.29,3.29,0,0,1-.45.87h2.29a.71.71,0,0,0-.29.19c-.14.12-.26.22-.35.31l-.28.23a1.06,1.06,0,0,1-.47.25h-2.36a2.5,2.5,0,0,0,.57-1.72V669.9h-1.55l.27-.22a3.8,3.8,0,0,1,1.12-.76Zm1.93,3.21a1.89,1.89,0,0,0-.27-1,2.07,2.07,0,0,0-.69-.69,3.68,3.68,0,0,0-2-.5h-.89V674h1.12a4.29,4.29,0,0,0,1.89-.32A1.63,1.63,0,0,0,713.61,672.13Z"/><path class="cls-1" d="M718,678.3h.57a4.78,4.78,0,0,0,1.33-.14,2.74,2.74,0,0,0,.61-.25l-.49.37a6.33,6.33,0,0,1-.77.54,3,3,0,0,1-.58.26,3.63,3.63,0,0,1-.59.13,9.14,9.14,0,0,1-1.21.07h-.28v0l.1-.11c.06-.08.16-.18.28-.32a7.54,7.54,0,0,0,.5-.61,8.66,8.66,0,0,0,.67-1.06c.24-.43.47-.87.68-1.32s.41-.9.6-1.36.39-.92.59-1.38l.62-1.4q.32-.71.48-1.11c.11-.27.17-.44.19-.51a.38.38,0,0,1,.08-.17h-.55a5.66,5.66,0,0,0-2.07.3,5.42,5.42,0,0,1,1.66-1.08,7.09,7.09,0,0,1,2-.2h.38c.21.69.41,1.38.62,2.09l.63,2.11c.46,1.53.81,2.65,1,3.34s.37,1.1.41,1.23a1.6,1.6,0,0,0,.15.35.74.74,0,0,0,.67.35,1.31,1.31,0,0,0,.53-.12,2.55,2.55,0,0,0,.43-.2c-.17.12-.33.24-.46.35l-.66.48-.29.18-.3.16c-.67.29-1.13.18-1.36-.34a13.38,13.38,0,0,1-.6-1.77c-.24-.81-.45-1.51-.63-2.08a5,5,0,0,1-2.63.41h-.45a11.12,11.12,0,0,1-1.58,2.48l-.13.15Zm2.46-3.84,1.42,0,.9,0c-.22-.7-.54-1.77-1-3.21-.47,1.08-1,2.16-1.45,3.23Z"/></g><g id="NUDO"><path class="cls-1" d="M481.72,454.25a129.32,129.32,0,0,0,15.93,16.16c.83.71,1.67,1.41,2.52,2.09a129.22,129.22,0,0,0,17.24,11.77,64.38,64.38,0,0,0,21.68-11.84,108.11,108.11,0,0,1-24.45-14.28c-1-.78-1.82-1.43-2.58-2.06a108.62,108.62,0,0,1-16.28-16.65c-.65-.82-1.32-1.71-2.08-2.73a108.48,108.48,0,0,1-12.23-21.24,101.32,101.32,0,0,0-19.75,5.26,128.48,128.48,0,0,0,18,31c.67.85,1.35,1.69,2,2.52Z"/><path class="cls-1" d="M497.78,408.28c3.54,0,7.14.18,10.71.53A101.8,101.8,0,0,0,513.77,389a130,130,0,0,0-16-1,128.46,128.46,0,0,0-19.2,1.44c-1.08.16-2.14.33-3.21.52a127.16,127.16,0,0,0-21.95,5.95c-1,.37-2,.76-3.08,1.18a129.71,129.71,0,0,0-15,7.14,64.67,64.67,0,0,0-2.57,18.06,65.73,65.73,0,0,0,.42,7.41A108.22,108.22,0,0,1,455.33,417c1.07-.46,2.07-.87,3.06-1.26a107.72,107.72,0,0,1,22.43-6.1c1.2-.19,2.3-.35,3.36-.48A108.43,108.43,0,0,1,497.78,408.28Z"/><path class="cls-1" d="M521,372.68a109.69,109.69,0,0,1-.74,12.63c-.14,1.15-.28,2.22-.43,3.27a107.53,107.53,0,0,1-5.89,22.51c-.43,1.14-.85,2.17-1.26,3.17a109,109,0,0,1-12.16,21.65,103,103,0,0,0,14.25,14.75,127.65,127.65,0,0,0,17.87-31.79c.39-1,.77-2,1.14-3a128.06,128.06,0,0,0,5.71-22c.18-1.08.35-2.16.5-3.25A127.55,127.55,0,0,0,541.2,374a64.63,64.63,0,0,0-20.82-12.61A109.42,109.42,0,0,1,521,372.68Z"/><path class="cls-1" d="M618.42,472.57c-.37-1-.75-2-1.15-3a128,128,0,0,0-25-39.91c-1-1.06-2-2.14-3.07-3.22a129.33,129.33,0,0,0-24.55-19.53c-1.26-.77-2.57-1.54-4-2.35A127.57,127.57,0,0,0,544.87,397a134.33,134.33,0,0,1-5.21,19.74,107.89,107.89,0,0,1,24.49,14.38c1,.75,2,1.56,3,2.39a109.08,109.08,0,0,1,18.49,19.91c.75,1.06,1.52,2.16,2.27,3.29a108.84,108.84,0,0,1,9.57,17.82l.65,1.54-1.66.25c-1.29.2-2.37.34-3.4.47a106.21,106.21,0,0,1-12.3.72c-1,0-2,0-3.2-.05-.57.82-1.19,1.68-1.88,2.61a97.66,97.66,0,0,1-20.73,20.57l-1.2.86a132.11,132.11,0,0,0,46.66,1.32c1.07-.16,2.13-.34,3.19-.53a130.13,130.13,0,0,0,21-5.53c-.12-.74-.23-1.47-.36-2.2A127.11,127.11,0,0,0,618.42,472.57Z"/><path class="cls-1" d="M492.22,473.48A135.18,135.18,0,0,1,478,458.91a107.5,107.5,0,0,1-24.1,13.77c-1.21.5-2.33.94-3.42,1.35a107.51,107.51,0,0,1-25.61,6.07c-1.4.16-2.66.27-3.87.36a108.29,108.29,0,0,1-19.8-.33c-1.08-.12-2.19-.25-3.38-.42l-1.62-.23.58-1.53c.43-1.13.85-2.17,1.26-3.16a108.5,108.5,0,0,1,9.31-17.52,96.54,96.54,0,0,1-6.05-25.4,127.84,127.84,0,0,0-23.22,38.31c-.39,1-.77,2-1.14,3a128.4,128.4,0,0,0-5.53,20.9,127.52,127.52,0,0,0,21,5.25c1.07.17,2.14.33,3.21.47A128.63,128.63,0,0,0,440.68,498c1.57-.35,2.93-.67,4.17-1a127.24,127.24,0,0,0,27.76-10.75c1.41-.74,2.65-1.42,3.8-2.08A130.34,130.34,0,0,0,492.22,473.48Z"/><path class="cls-1" d="M453.52,389.66a132.83,132.83,0,0,1,19.76-5.25,107.63,107.63,0,0,1-.64-11.73,110,110,0,0,1,.74-12.64c.16-1.38.32-2.59.49-3.69a107.2,107.2,0,0,1,7.26-25.65c.46-1.1,1-2.27,1.61-3.6a108.36,108.36,0,0,1,11-18.45c.75-1,1.43-1.9,2.08-2.72l1-1.31,1,1.31c.64.81,1.32,1.71,2.07,2.72a108.52,108.52,0,0,1,10.53,17.52,96,96,0,0,1,24.4,6.53,127.47,127.47,0,0,0-20.92-39.06c-.66-.85-1.34-1.69-2-2.53a130,130,0,0,0-15.08-15.43,131.53,131.53,0,0,0-15.08,15.43c-.68.84-1.36,1.68-2,2.53a127.62,127.62,0,0,0-22.08,42.82c-.47,1.59-.85,2.93-1.18,4.2a128.48,128.48,0,0,0-4,30.15v.55c0,.44,0,.88,0,1.32,0,.87,0,1.72,0,2.58A130.72,130.72,0,0,0,453.52,389.66Z"/><path class="cls-1" d="M510.94,332.17c-1.32-.2-2.54-.35-3.72-.47a92.62,92.62,0,0,0-20.18.14,101.55,101.55,0,0,0-6.74,21.8,71.33,71.33,0,0,1,34.87,0c1.21.31,2.4.64,3.55,1a70.39,70.39,0,0,1,24.59,13.44c1.18,1,2.31,2,3.37,3a71.21,71.21,0,0,1,18.47,29.25,135.71,135.71,0,0,1,23.62,17.47,91.38,91.38,0,0,0-47.38-75.46c-1.25-.68-2.54-1.35-3.84-2A90.22,90.22,0,0,0,510.94,332.17Z"/><path class="cls-1" d="M569.7,478.19c.8-1,1.56-2.05,2.27-3.05A90.53,90.53,0,0,0,581.62,458a102.85,102.85,0,0,0-15.36-17.4,71,71,0,0,1-17.68,31.1c-.86.88-1.75,1.76-2.67,2.6A70.35,70.35,0,0,1,521.63,489c-1.47.53-3,1-4.4,1.42a70.92,70.92,0,0,1-39.66-.22A134.22,134.22,0,0,1,452,501.06a90.94,90.94,0,0,0,93.47-1.15c1.24-.77,2.47-1.57,3.66-2.39A91.63,91.63,0,0,0,569.7,478.19Z"/><path class="cls-1" d="M412.25,453.72h0c.43,1.16.9,2.37,1.42,3.6a91.35,91.35,0,0,0,9.38,17.06,102.33,102.33,0,0,0,22.07-4.7,70.86,70.86,0,0,1-16.34-31.22c-.29-1.24-.55-2.49-.77-3.73a70.95,70.95,0,0,1,.95-29.28c.38-1.57.82-3.13,1.3-4.64a71.29,71.29,0,0,1,16.26-27.36c0-.26,0-.51,0-.77a134.27,134.27,0,0,1,2.85-27.5A91.71,91.71,0,0,0,406.69,421v.39c0,.32,0,.65,0,1,0,.93,0,1.92.06,3.12A90.69,90.69,0,0,0,412.25,453.72Z"/></g></g></svg>